<svg width="35" height="28" viewBox="0 0 35 28" fill="none" xmlns="http://www.w3.org/2000/svg">
<path d="M3.85965 27.6825C2.80702 28.1999 1.9883 28.0849 1.40351 27.3375C0.701754 26.3602 0.818713 25.5265 1.75439 24.8366C3.27485 23.7443 4.64912 22.5944 5.87719 21.3871C7.16374 20.1798 8.15789 18.57 8.85965 16.5577C9.21053 15.5229 9.26901 14.603 9.03509 13.7981C8.85965 12.9932 8.15789 12.5333 6.92982 12.4183C4.94152 12.1883 3.27485 11.5847 1.92982 10.6073C0.643275 9.62994 0 8.16389 0 6.20916C0 4.59938 0.614035 3.16207 1.8421 1.89724C3.07017 0.632414 4.79532 0 7.01754 0C9.18129 0 11.0819 0.862384 12.7193 2.58715C14.3567 4.31191 15.1754 6.6116 15.1754 9.48621C15.1754 12.2458 14.6199 14.7755 13.5088 17.0752C12.3977 19.3174 10.9649 21.3296 9.21053 23.1119C7.51462 24.8941 5.73099 26.4177 3.85965 27.6825ZM23.6842 27.6825C22.6316 28.1999 21.8129 28.0849 21.2281 27.3375C20.5263 26.3602 20.6433 25.5265 21.5789 24.8366C23.0994 23.7443 24.4737 22.5944 25.7017 21.3871C26.9883 20.1798 27.9825 18.57 28.6842 16.5577C29.0351 15.5229 29.0936 14.603 28.8596 13.7981C28.6842 12.9932 27.9825 12.5333 26.7544 12.4183C24.7661 12.1883 23.0994 11.5847 21.7544 10.6073C20.4678 9.62994 19.8246 8.16389 19.8246 6.20916C19.8246 4.59938 20.4386 3.16207 21.6667 1.89724C22.8947 0.632414 24.6199 0 26.8421 0C29.0058 0 30.9064 0.862384 32.5439 2.58715C34.1813 4.31191 35 6.6116 35 9.48621C35 12.2458 34.4444 14.7755 33.3333 17.0752C32.2222 19.3174 30.7895 21.3296 29.0351 23.1119C27.3392 24.8941 25.5556 26.4177 23.6842 27.6825Z" fill="#B3B7E0"/>
</svg>
