<svg width="35" height="28" viewBox="0 0 35 28" fill="none" xmlns="http://www.w3.org/2000/svg">
<path d="M11.3158 0.317514C12.3684 -0.199916 13.1871 -0.0849316 13.7719 0.662467C14.4737 1.63984 14.3567 2.47347 13.4211 3.16338C11.9591 4.25573 10.5848 5.40557 9.29824 6.61291C8.01169 7.82024 7.01754 9.43002 6.31579 11.4423C5.96491 12.4771 5.87719 13.397 6.05263 14.2019C6.28655 15.0068 7.01754 15.4667 8.24561 15.5817C10.2924 15.8117 11.9591 16.4153 13.2456 17.3927C14.5322 18.3701 15.1754 19.8361 15.1754 21.7908C15.1754 23.4006 14.5614 24.8379 13.3333 26.1028C12.1053 27.3676 10.3801 28 8.15789 28C5.99415 28 4.09357 27.1376 2.45614 25.4129C0.818713 23.6306 0 21.3309 0 18.5138C0 15.7542 0.555555 13.2533 1.66667 11.0111C2.77778 8.71137 4.21053 6.6704 5.96491 4.88815C7.7193 3.10589 9.50292 1.58234 11.3158 0.317514ZM31.1403 0.317514C32.193 -0.199916 33.0117 -0.0849316 33.5965 0.662467C34.2982 1.63984 34.1813 2.47347 33.2456 3.16338C31.7836 4.25573 30.4094 5.40557 29.1228 6.61291C27.8363 7.82024 26.8421 9.43002 26.1404 11.4423C25.7895 12.4771 25.7018 13.397 25.8772 14.2019C26.1111 15.0068 26.8421 15.4667 28.0702 15.5817C30.117 15.8117 31.7836 16.4153 33.0702 17.3927C34.3567 18.3701 35 19.8361 35 21.7908C35 23.4006 34.386 24.8379 33.1579 26.1028C31.9298 27.3676 30.2047 28 27.9825 28C25.8187 28 23.9181 27.1376 22.2807 25.4129C20.6433 23.6306 19.8246 21.3309 19.8246 18.5138C19.8246 15.7542 20.3801 13.2533 21.4912 11.0111C22.6023 8.71137 24.0351 6.6704 25.7895 4.88815C27.5439 3.10589 29.3275 1.58234 31.1403 0.317514Z" fill="#B3B7E0"/>
</svg>
