<?xml version="1.0" encoding="UTF-8"?>
<svg id="_レイヤー_1" data-name="レイヤー_1" xmlns="http://www.w3.org/2000/svg" version="1.1" xmlns:xlink="http://www.w3.org/1999/xlink" viewBox="0 0 198 50">
  <!-- Generator: Adobe Illustrator 29.1.0, SVG Export Plug-In . SVG Version: 2.1.0 Build 142)  -->
  <defs>
    <style>
      .st0 {
        mask: url(#mask);
      }

      .st1 {
        fill: #002a69;
      }

      .st2 {
        fill: #aaaaac;
      }

      .st3 {
        fill: #d9d9d9;
      }
    </style>
    <mask id="mask" x="58.8" y="7.6" width="134.8" height="34" maskUnits="userSpaceOnUse">
      <g id="mask0_5198_1150">
        <rect class="st3" x="58.8" y="7.6" width="134.8" height="34"/>
      </g>
    </mask>
  </defs>
  <g class="st0">
    <g>
      <path d="M95.7,17.3v-.9h2.4v-3.9h-1.9v-.9h1.9v-3.1h.9v3.1h1.9v.9h-1.9v3.9h2.2v.9h-5.5ZM93.8,17.6v-3.8c-.2.2-.5.4-.7.6-.3.2-.5.4-.8.6,0,0,0-.1-.2-.2,0,0-.2-.2-.3-.3,0,0-.2-.2-.2-.2.3-.2.6-.4.9-.6.3-.3.6-.5.9-.8.3-.3.6-.6.8-.9.3-.3.4-.6.6-.9h-2.7v-.8h1.6v-1.9h.9v1.9h1.1l.4.4c-.3.7-.7,1.3-1.2,1.9.2.1.4.2.6.4.2.1.4.3.6.4s.4.2.5.3c0,0,0,.1-.2.2,0,0-.1.2-.2.3,0,.1-.1.2-.2.2-.2-.1-.4-.3-.7-.4-.3-.2-.5-.3-.7-.5v4.2h-.9Z"/>
      <path d="M89.1,17.8c0-.2-.2-.3-.4-.6-.1-.2-.3-.4-.5-.6-.3,0-.7.1-1.1.2-.4,0-.8.1-1.3.2-.4,0-.9.1-1.3.2-.4,0-.9.1-1.3.1-.4,0-.7,0-1,0l-.2-.9c.2,0,.3,0,.6,0,.2,0,.5,0,.7,0,.1-.2.2-.4.4-.6.1-.2.3-.5.4-.7s.2-.5.3-.7h-2.8v-.8h8.3v.8h-4.5c-.1.3-.3.7-.5,1-.2.4-.4.7-.6,1,.6,0,1.1-.1,1.7-.2.6,0,1-.1,1.4-.2-.3-.4-.6-.7-.9-.8l.7-.6c.2.1.4.3.6.5.2.2.5.5.7.7.2.3.5.5.7.8.2.2.4.5.5.6,0,0-.1,0-.3.2-.1,0-.2.2-.3.2-.1,0-.2.1-.2.2ZM81.5,12.6c0,0,0-.2-.2-.3,0-.1-.2-.2-.2-.3,0-.1-.2-.2-.2-.2.4-.2.9-.4,1.3-.7.5-.3.9-.6,1.3-.9.4-.3.8-.7,1.1-1,.3-.3.6-.7.8-1h.9c.2.4.5.7.8,1.1.3.3.7.6,1.1.9.4.3.8.6,1.3.8.4.2.9.4,1.3.6,0,.1-.2.2-.3.4-.1.2-.2.3-.3.5-.5-.2-1.1-.5-1.6-.9-.6-.4-1.1-.7-1.6-1.2-.5-.4-.9-.8-1.2-1.3-.2.3-.5.6-.8.9s-.7.6-1.1.9c-.4.3-.8.6-1.2.8-.4.3-.8.5-1.2.6ZM83.5,12.4v-.9h4.8v.9h-4.8Z"/>
      <path d="M78.3,17.5c-.4-.2-.8-.5-1.2-1-.4-.5-.7-1.1-1-2-.3-.8-.5-1.9-.7-3.1h-4.8v-.9h4.7c0-.3,0-.7,0-1,0-.4,0-.7,0-1.1h.9c0,.4,0,.8,0,1.1,0,.4,0,.7,0,1h1.9c-.2-.2-.4-.5-.7-.7-.3-.3-.5-.4-.7-.6l.6-.6c.2.1.3.2.5.4.2.2.4.3.5.5.2.2.3.3.4.4,0,0-.1,0-.2.2,0,0-.2.2-.3.2,0,0-.1.1-.2.2h1.4v.9h-3.2c.1,1,.3,1.8.5,2.5.2.7.5,1.2.8,1.7.3.4.6.7.9.9,0-.2.2-.5.3-.7,0-.3.2-.5.2-.7,0,0,.1,0,.2.1.1,0,.2.1.3.2.1,0,.2,0,.3.1,0,.2-.1.4-.2.7,0,.2-.2.5-.3.7,0,.2-.2.4-.3.5-.2.3-.5.4-.9.2ZM70.9,17.3l-.2-.9c.2,0,.5,0,.9-.1.4,0,.7-.1,1.1-.2v-2.4h-1.8v-.8h4.4v.8h-1.6v2.3c.4,0,.8-.1,1.2-.2.4,0,.7-.1.9-.2v.9c-.2,0-.5.1-.9.2-.3,0-.7.1-1.1.2-.4,0-.7.1-1.1.2-.4,0-.7.1-1,.2-.3,0-.6,0-.8.1Z"/>
      <path d="M65.8,17.7v-3.2c-.3.5-.7.9-1.1,1.3-.4.4-.8.8-1.3,1.1,0,0,0-.1-.2-.2,0,0-.2-.2-.2-.3,0,0-.2-.1-.2-.2.3-.2.7-.5,1-.8.3-.3.7-.7.9-1,.3-.4.6-.7.8-1.1h-2v-.8h2.2v-1.3h-1.2c-.2.4-.4.8-.6,1.1,0,0-.2-.1-.4-.2-.2,0-.3-.1-.4-.2.2-.2.3-.5.5-.8.2-.3.3-.7.4-1,.1-.4.2-.7.2-1l.8.2c0,.2,0,.3-.1.5,0,.2-.1.4-.2.6h.9v-2h.9v2h2v.8h-2v1.3h2.4v.8h-2.2c.2.3.4.6.7,1,.3.3.6.7.9,1s.6.6,1,.8c0,0-.2.2-.3.4-.1.2-.2.3-.3.4-.4-.3-.8-.7-1.1-1.1-.4-.4-.7-.8-.9-1.3v3.3h-.9ZM61.4,17.7v-4.4c-.2.4-.4.7-.6,1-.2.3-.4.6-.6.8,0,0-.1,0-.2-.2,0,0-.2-.1-.3-.2,0,0-.2-.1-.2-.1.2-.2.4-.5.6-.8.2-.3.4-.6.5-.9s.3-.6.4-.9c.1-.3.2-.6.3-.8h0c0,0-1.6,0-1.6,0v-.8h1.6v-2h.9v2h1.3v.8h-1.3v.8c.1.2.3.4.5.6.2.2.4.5.6.7.2.2.4.4.5.5,0,0-.1,0-.2.2,0,0-.2.2-.3.3s-.1.1-.2.2c-.1-.1-.3-.3-.4-.5-.2-.2-.3-.4-.5-.6v4.4h-.9Z"/>
      <path d="M182.4,41.2v-4.7c-.7.6-1.4,1.2-2.3,1.8-.9.6-1.8,1.1-2.7,1.5-.9.5-1.8.8-2.7,1.1,0-.1-.1-.3-.3-.5-.1-.2-.3-.4-.4-.6-.1-.2-.3-.4-.4-.5.8-.2,1.7-.6,2.6-1,.9-.4,1.8-.9,2.6-1.4.9-.5,1.6-1,2.2-1.5h-7.3v-1.6h8.6v-1.4h-6.5v-1.5h6.5v-1.3h-7.4v-1.5h4.3c-.1-.3-.3-.6-.4-.9s-.3-.6-.4-.8h-4.7v-1.6h3.7c-.2-.4-.4-.8-.7-1.4-.3-.5-.5-1-.8-1.3l1.7-.8c.2.3.4.6.6,1,.2.4.4.7.6,1.1.2.3.3.6.4.8l-1.2.5h2.5v-3.6h1.9v3.6h2v-3.6h1.9v3.6h2.5l-1.4-.6c.2-.2.4-.5.6-.9.2-.3.4-.7.6-1,.2-.4.3-.7.4-.9l1.9.6c-.1.3-.3.6-.5,1-.2.3-.4.7-.7,1-.2.3-.4.6-.6.8h4v1.6h-4.7c-.1.3-.2.6-.4.9-.1.3-.3.6-.4.8h4.2v1.5h-7.3v1.3h6.4v1.5h-6.4v1.4h8.6v1.6h-7.4c.6.5,1.4,1,2.2,1.5.8.5,1.7,1,2.6,1.4.9.4,1.8.7,2.5,1-.1.1-.2.3-.4.5-.1.2-.3.4-.4.6-.1.2-.2.4-.3.5-.9-.3-1.8-.7-2.7-1.1-.9-.5-1.8-1-2.6-1.5-.8-.6-1.6-1.1-2.3-1.7v4.7h-1.9ZM181.5,28.2h3.8c.1-.2.3-.5.4-.8.1-.3.3-.6.4-.9h-5.4c.1.3.3.6.4.9.1.3.3.6.3.8Z"/>
      <path d="M151.5,39.2v-1.9h8.6v-11.5h-7.4v-1.9h16.9v1.9h-7.3v11.5h8.6v1.9h-19.4Z"/>
      <path d="M136.9,41c0-.2-.2-.5-.4-.8-.2-.3-.4-.6-.5-.7.9-.3,1.8-.6,2.6-1.1.8-.5,1.6-1,2.3-1.6-.6-.7-1.1-1.4-1.5-2.1s-.7-1.5-1-2.3h-1.7v-1.7h9.3l.7.7c-.8,2.1-1.8,3.9-3.2,5.4.7.6,1.5,1.1,2.3,1.5.8.4,1.7.7,2.6.9-.1.1-.2.3-.4.5-.1.2-.3.5-.4.7-.1.2-.2.4-.2.5-1-.3-2-.7-2.9-1.2-.9-.5-1.7-1-2.4-1.6-.8.7-1.6,1.2-2.5,1.7-.9.5-1.8.9-2.8,1.2ZM137.7,30.2c-.2-.2-.4-.4-.7-.7-.3-.2-.5-.4-.8-.6.5-.4,1-.8,1.3-1.2.3-.4.6-.8.7-1.4.1-.5.2-1.2.2-2v-2.4h6.3v5.1c0,.2,0,.3.1.4,0,0,.3.1.5.1h.6c.2,0,.4,0,.5-.1.1-.1.3-.3.3-.6,0-.3.1-.7.2-1.3.2.1.5.2.8.3.3,0,.7.2.9.2,0,.9-.2,1.6-.4,2.1-.2.5-.5.8-.8,1-.3.2-.8.3-1.4.3h-1.3c-.8,0-1.3-.1-1.6-.3-.3-.2-.4-.6-.4-1.1v-4.3h-2.5v.8c0,1.3-.2,2.3-.6,3.2-.4.9-1.1,1.7-2,2.5ZM129.5,40.5v-6.1h6.3v6.1h-6.3ZM128.4,26.9v-1.6h8.1v1.6h-8.1ZM129.5,23.9v-1.6h6.1v1.6h-6.1ZM129.5,29.9v-1.6h6.1v1.6h-6.1ZM129.5,32.9v-1.6h6.1v1.6h-6.1ZM131.2,38.9h2.8v-2.9h-2.8v2.9ZM142.2,35.5c.9-1,1.6-2.1,2-3.2h-3.9c.2.6.5,1.1.8,1.7.3.5.7,1,1.1,1.5Z"/>
      <path d="M116.9,38.2v-1.7h-5v-1.5h5v-1.5h-4.1v-1.5h4.1v-1.5h-3.9v-1.5h3.9v-1.6h-5.4v-1.5h5.4v-1.6h-3.9v-1.5h3.9v-1.8h1.9v1.8h4.5v3h1.8v1.5h-1.8v3h-4.5v1.5h4.8v1.5h-4.8v1.5h5.7v1.5h-5.7v1.7h-1.9ZM106.7,41.2c0-.1-.2-.2-.4-.4-.2-.2-.4-.3-.5-.5-.2-.2-.3-.3-.5-.3,1.3-.9,2.3-2,3.1-3.3-.5-.6-.8-1.2-1.2-1.9s-.7-1.5-1-2.4l1.6-.5c.4,1.2.9,2.2,1.4,3.1.2-.7.4-1.4.6-2.1.2-.7.2-1.5.3-2.4h-3.5v-1.3c.2-.2.4-.6.6-1,.2-.4.5-.9.7-1.3.3-.5.5-.9.7-1.4.2-.5.4-.8.5-1.1h-3.3v-1.8h5.3l.6.5c-.2.4-.4.8-.6,1.4-.2.5-.5,1.1-.8,1.6-.3.6-.5,1.1-.8,1.5-.2.5-.5.8-.6,1.1h2.9c0,1.6-.1,3.1-.3,4.4-.2,1.3-.6,2.4-1,3.4.9.8,1.9,1.4,3.1,1.8,1.2.4,2.7.5,4.3.5s3.2,0,4.4,0c1.2,0,2.2,0,2.9-.2,0,.1-.1.3-.2.5,0,.2-.1.5-.2.8,0,.3,0,.5,0,.6h-1.9c-.8,0-1.6,0-2.5,0-.9,0-1.7,0-2.5,0-1.8,0-3.4-.2-4.8-.6-1.4-.4-2.6-1-3.6-1.9-.4.6-.8,1.2-1.3,1.7-.5.5-1,1-1.6,1.5ZM118.9,29h2.6v-1.6h-2.6v1.6ZM118.9,26h2.6v-1.6h-2.6v1.6Z"/>
      <path d="M91.6,41.1v-3.9h-3.9v-1.9h3.9v-6c-.7,1-1.4,2-2.3,3.1-.9,1-1.8,2-2.8,2.9-1,.9-2,1.7-2.9,2.3-.1-.1-.2-.3-.4-.5-.2-.2-.4-.4-.5-.6-.2-.2-.3-.3-.5-.4.8-.5,1.6-1,2.4-1.7.8-.7,1.6-1.4,2.4-2.2.8-.8,1.5-1.6,2.1-2.4.7-.8,1.2-1.6,1.7-2.4h-7.7v-1.8h8.6v-4.2h2v4.2h8.5v1.8h-7.7c.5.8,1.1,1.6,1.7,2.5.7.8,1.4,1.6,2.2,2.4.8.8,1.6,1.5,2.4,2.1.8.6,1.6,1.2,2.4,1.6-.1,0-.3.2-.5.4-.2.2-.4.4-.6.6-.2.2-.3.4-.4.5-1-.7-2-1.5-3-2.4-1-.9-1.9-1.9-2.8-2.9-.9-1-1.6-2-2.3-3.1v6.1h4v1.9h-4v3.9h-2Z"/>
      <path d="M72.9,41c0-.3,0-.6-.2-1,0-.4-.2-.7-.3-1h2.4c.3,0,.5,0,.7-.2s.2-.3.2-.6v-13.7h-9.9v-1.9h13.9v1.9h-1.9v14.4c0,.7-.2,1.2-.6,1.5-.4.3-1,.5-1.8.5h-2.4ZM66.5,35.1v-7.9h6.6v7.9h-6.6ZM61.5,40.7l-1.7-1.3c.3-.4.7-.9,1-1.5.4-.6.7-1.2,1.1-1.9.4-.7.7-1.3,1-2,.3-.6.5-1.2.7-1.7.1.1.3.2.5.4.2.2.4.3.6.5.2.1.4.3.5.3-.1.5-.4,1-.7,1.6-.3.6-.6,1.3-1,2-.4.7-.7,1.3-1.1,1.9-.3.6-.7,1.1-.9,1.5ZM68.4,33.3h2.9v-4.3h-2.9v4.3ZM63.3,30.8c-.3-.2-.6-.5-1.1-.8-.5-.3-.9-.7-1.4-1-.5-.3-.9-.6-1.3-.7l1-1.7c.4.2.8.4,1.3.7.5.3,1,.6,1.4.9.5.3.8.6,1.2.9,0,0-.2.2-.3.5-.2.2-.3.4-.5.7-.1.2-.2.4-.3.5ZM64.4,25.9c-.3-.2-.6-.5-1.1-.9s-.9-.7-1.4-1-.9-.5-1.3-.7l1-1.6c.4.2.8.4,1.3.7.5.3,1,.6,1.5.9.5.3.9.6,1.1.9,0,0-.2.2-.4.5-.2.2-.3.4-.5.7-.2.2-.3.4-.3.5Z"/>
    </g>
  </g>
  <g>
    <polygon class="st1" points="12.9 4.9 3.7 16.9 18 37.3 29.3 37.3 14.9 16.7 23.8 4.9 12.9 4.9"/>
    <polygon class="st2" points="16.9 17 30.5 36.9 24 46.5 35.1 46.5 41.8 37.3 27.8 17 16.9 17"/>
    <polygon class="st1" points="38.1 4.9 29.3 16.7 43.5 37.3 54.8 37.3 40.7 17 49.8 4.9 38.1 4.9"/>
  </g>
</svg>