<svg width="198" height="50" viewBox="0 0 198 50" fill="none" xmlns="http://www.w3.org/2000/svg">
<mask id="mask0_5198_1150" style="mask-type:alpha" maskUnits="userSpaceOnUse" x="0" y="0" width="198" height="50">
<rect width="198" height="50" fill="#D9D9D9"/>
</mask>
<g mask="url(#mask0_5198_1150)">
<path d="M54.2201 14.185V12.865H57.7151V7.135H54.9701V5.815H57.7151V1.195H59.1101V5.815H61.8551V7.135H59.1101V12.865H62.3201V14.185H54.2201ZM51.4151 14.71V9.19C51.0751 9.52 50.7151 9.835 50.3351 10.135C49.9651 10.435 49.5851 10.72 49.1951 10.99C49.1451 10.89 49.0551 10.775 48.9251 10.645C48.8051 10.505 48.6801 10.375 48.5501 10.255C48.4201 10.125 48.3151 10.025 48.2351 9.955C48.6851 9.715 49.1451 9.405 49.6151 9.025C50.0951 8.645 50.5551 8.235 50.9951 7.795C51.4451 7.345 51.8501 6.895 52.2101 6.445C52.5801 5.995 52.8701 5.57 53.0801 5.17H49.0451V3.925H51.3701V1.195H52.7051V3.925H54.2951L54.8951 4.465C54.4251 5.445 53.8451 6.38 53.1551 7.27C53.4151 7.44 53.7001 7.625 54.0101 7.825C54.3201 8.025 54.6201 8.21 54.9101 8.38C55.2001 8.55 55.4351 8.685 55.6151 8.785C55.5551 8.845 55.4701 8.95 55.3601 9.1C55.2501 9.24 55.1451 9.385 55.0451 9.535C54.9451 9.685 54.8701 9.805 54.8201 9.895C54.5401 9.705 54.2101 9.49 53.8301 9.25C53.4601 9 53.1001 8.75 52.7501 8.5V14.71H51.4151Z" fill="black"/>
<path d="M44.4101 14.92C44.2801 14.68 44.1051 14.41 43.8851 14.11C43.6751 13.82 43.4451 13.525 43.1951 13.225C42.7451 13.315 42.2251 13.41 41.6351 13.51C41.0451 13.61 40.4251 13.705 39.7751 13.795C39.1251 13.885 38.4751 13.965 37.8251 14.035C37.1751 14.115 36.5601 14.185 35.9801 14.245C35.4101 14.305 34.9101 14.35 34.4801 14.38L34.2101 13C34.4401 13 34.7101 12.99 35.0201 12.97C35.3401 12.95 35.6851 12.925 36.0551 12.895C36.2251 12.635 36.4051 12.33 36.5951 11.98C36.7951 11.63 36.9901 11.265 37.1801 10.885C37.3701 10.505 37.5351 10.155 37.6751 9.835H33.6101V8.59H45.8501V9.835H39.2801C39.0701 10.295 38.8251 10.79 38.5451 11.32C38.2651 11.84 37.9951 12.315 37.7351 12.745C38.5451 12.665 39.3551 12.575 40.1651 12.475C40.9751 12.375 41.6801 12.275 42.2801 12.175C41.7901 11.635 41.3601 11.22 40.9901 10.93L42.0251 10.105C42.2751 10.295 42.5651 10.555 42.8951 10.885C43.2251 11.205 43.5601 11.555 43.9001 11.935C44.2501 12.315 44.5701 12.69 44.8601 13.06C45.1601 13.42 45.4001 13.735 45.5801 14.005C45.5001 14.055 45.3751 14.14 45.2051 14.26C45.0451 14.38 44.8901 14.5 44.7401 14.62C44.5901 14.74 44.4801 14.84 44.4101 14.92ZM33.3401 7.375C33.2901 7.275 33.2101 7.15 33.1001 7C32.9901 6.85 32.8751 6.705 32.7551 6.565C32.6351 6.415 32.5301 6.3 32.4401 6.22C33.0701 5.98 33.7151 5.66 34.3751 5.26C35.0451 4.86 35.6901 4.42 36.3101 3.94C36.9401 3.45 37.4951 2.955 37.9751 2.455C38.4651 1.945 38.8451 1.46 39.1151 1L40.3901 1.18C40.7101 1.63 41.1151 2.09 41.6051 2.56C42.0951 3.02 42.6401 3.47 43.2401 3.91C43.8401 4.35 44.4601 4.755 45.1001 5.125C45.7501 5.485 46.3851 5.785 47.0051 6.025C46.8851 6.175 46.7401 6.375 46.5701 6.625C46.4001 6.865 46.2501 7.1 46.1201 7.33C45.3601 6.99 44.5751 6.565 43.7651 6.055C42.9551 5.535 42.1951 4.97 41.4851 4.36C40.7851 3.74 40.2001 3.115 39.7301 2.485C39.4101 2.935 39.0001 3.395 38.5001 3.865C38.0001 4.335 37.4501 4.795 36.8501 5.245C36.2501 5.685 35.6451 6.09 35.0351 6.46C34.4351 6.83 33.8701 7.135 33.3401 7.375ZM36.1901 7.105V5.845H43.3001V7.105H36.1901Z" fill="black"/>
<path d="M28.615 14.575C28.045 14.295 27.48 13.805 26.92 13.105C26.36 12.395 25.86 11.425 25.42 10.195C24.98 8.965 24.65 7.425 24.43 5.575H17.395V4.27H24.31C24.27 3.79 24.24 3.29 24.22 2.77C24.21 2.24 24.205 1.695 24.205 1.135H25.6C25.59 1.695 25.59 2.24 25.6 2.77C25.61 3.29 25.635 3.79 25.675 4.27H28.45C28.18 3.93 27.855 3.58 27.475 3.22C27.105 2.85 26.765 2.56 26.455 2.35L27.355 1.465C27.585 1.615 27.835 1.81 28.105 2.05C28.385 2.29 28.645 2.535 28.885 2.785C29.135 3.025 29.33 3.24 29.47 3.43C29.4 3.47 29.3 3.545 29.17 3.655C29.04 3.765 28.915 3.88 28.795 4C28.675 4.11 28.58 4.2 28.51 4.27H30.565V5.575H25.795C25.965 6.995 26.215 8.21 26.545 9.22C26.885 10.23 27.27 11.05 27.7 11.68C28.13 12.31 28.57 12.77 29.02 13.06C29.16 12.73 29.3 12.365 29.44 11.965C29.58 11.555 29.68 11.215 29.74 10.945C29.81 10.995 29.925 11.06 30.085 11.14C30.255 11.22 30.425 11.295 30.595 11.365C30.765 11.435 30.895 11.485 30.985 11.515C30.915 11.835 30.815 12.175 30.685 12.535C30.565 12.895 30.435 13.235 30.295 13.555C30.155 13.865 30.025 14.12 29.905 14.32C29.625 14.79 29.195 14.875 28.615 14.575ZM17.665 14.215L17.38 12.925C17.7 12.895 18.12 12.845 18.64 12.775C19.16 12.695 19.715 12.605 20.305 12.505V8.92H17.695V7.675H24.1V8.92H21.775V12.25C22.395 12.14 22.975 12.03 23.515 11.92C24.055 11.8 24.485 11.7 24.805 11.62V12.88C24.445 12.97 24.02 13.07 23.53 13.18C23.04 13.29 22.52 13.4 21.97 13.51C21.42 13.61 20.875 13.705 20.335 13.795C19.795 13.895 19.29 13.98 18.82 14.05C18.36 14.13 17.975 14.185 17.665 14.215Z" fill="black"/>
<path d="M10.285 14.77V10C9.825 10.67 9.3 11.32 8.71 11.95C8.13 12.57 7.51 13.13 6.85 13.63C6.8 13.55 6.72 13.445 6.61 13.315C6.5 13.185 6.385 13.06 6.265 12.94C6.145 12.82 6.04 12.73 5.95 12.67C6.45 12.33 6.945 11.925 7.435 11.455C7.935 10.985 8.4 10.485 8.83 9.955C9.27 9.415 9.65 8.885 9.97 8.365H7.015V7.165H10.285V5.23H8.56C8.28 5.86 7.99 6.395 7.69 6.835C7.56 6.745 7.37 6.64 7.12 6.52C6.87 6.39 6.675 6.305 6.535 6.265C6.775 5.955 7.01 5.56 7.24 5.08C7.48 4.6 7.69 4.1 7.87 3.58C8.05 3.06 8.17 2.59 8.23 2.17L9.475 2.485C9.425 2.725 9.36 2.98 9.28 3.25C9.2 3.51 9.115 3.78 9.025 4.06H10.285V1.135H11.575V4.06H14.47V5.23H11.575V7.165H15.04V8.365H11.86C12.13 8.815 12.46 9.29 12.85 9.79C13.24 10.28 13.665 10.75 14.125 11.2C14.585 11.65 15.055 12.035 15.535 12.355C15.395 12.465 15.225 12.64 15.025 12.88C14.835 13.12 14.695 13.315 14.605 13.465C14.025 12.985 13.47 12.44 12.94 11.83C12.41 11.22 11.955 10.605 11.575 9.985V14.77H10.285ZM3.745 14.785V8.365C3.495 8.885 3.225 9.38 2.935 9.85C2.655 10.32 2.375 10.73 2.095 11.08C2.025 11.02 1.92 10.945 1.78 10.855C1.65 10.755 1.51 10.665 1.36 10.585C1.22 10.495 1.1 10.43 1 10.39C1.28 10.07 1.56 9.7 1.84 9.28C2.12 8.85 2.385 8.4 2.635 7.93C2.885 7.46 3.105 7.005 3.295 6.565C3.495 6.115 3.645 5.71 3.745 5.35V5.26H1.435V4.06H3.745V1.195H5.05V4.06H6.94V5.26H5.05V6.415C5.22 6.655 5.445 6.945 5.725 7.285C6.005 7.625 6.295 7.955 6.595 8.275C6.895 8.595 7.155 8.845 7.375 9.025C7.305 9.075 7.205 9.165 7.075 9.295C6.945 9.415 6.815 9.54 6.685 9.67C6.565 9.79 6.48 9.885 6.43 9.955C6.25 9.765 6.035 9.52 5.785 9.22C5.535 8.91 5.29 8.595 5.05 8.275V14.785H3.745Z" fill="black"/>
<path d="M181.536 49.344V42.4C180.576 43.296 179.467 44.16 178.208 44.992C176.949 45.8027 175.637 46.5387 174.272 47.2C172.928 47.8613 171.605 48.4053 170.304 48.832C170.24 48.6613 170.112 48.4267 169.92 48.128C169.728 47.8293 169.525 47.52 169.312 47.2C169.099 46.9013 168.917 46.6773 168.768 46.528C169.963 46.1867 171.221 45.7173 172.544 45.12C173.867 44.5013 175.147 43.8187 176.384 43.072C177.643 42.304 178.731 41.5573 179.648 40.832H168.864V38.528H181.536V36.544H172V34.336H181.536V32.448H170.656V30.176H177.024C176.832 29.7493 176.629 29.312 176.416 28.864C176.203 28.416 175.989 28.0213 175.776 27.68H168.832V25.376H174.208C173.931 24.8213 173.6 24.1493 173.216 23.36C172.832 22.5707 172.459 21.9413 172.096 21.472L174.592 20.288C174.848 20.6933 175.125 21.1733 175.424 21.728C175.723 22.2827 176 22.8267 176.256 23.36C176.533 23.872 176.736 24.288 176.864 24.608L175.072 25.376H178.688V20.128H181.408V25.376H184.288V20.128H187.008V25.376H190.688L188.576 24.544C188.853 24.1813 189.152 23.744 189.472 23.232C189.792 22.72 190.091 22.208 190.368 21.696C190.645 21.1627 190.859 20.704 191.008 20.32L193.728 21.184C193.515 21.5893 193.248 22.0587 192.928 22.592C192.608 23.104 192.288 23.616 191.968 24.128C191.648 24.6187 191.36 25.0347 191.104 25.376H196.96V27.68H189.984C189.835 28.0853 189.653 28.512 189.44 28.96C189.227 29.3867 189.024 29.792 188.832 30.176H194.944V32.448H184.288V34.336H193.728V36.544H184.288V38.528H196.96V40.832H186.112C187.051 41.5573 188.128 42.2933 189.344 43.04C190.581 43.7653 191.861 44.4373 193.184 45.056C194.507 45.6747 195.755 46.1547 196.928 46.496C196.779 46.6453 196.597 46.8693 196.384 47.168C196.192 47.488 196.011 47.7973 195.84 48.096C195.669 48.416 195.541 48.6613 195.456 48.832C194.176 48.4053 192.853 47.8613 191.488 47.2C190.144 46.5387 188.853 45.8027 187.616 44.992C186.379 44.16 185.269 43.3067 184.288 42.432V49.344H181.536ZM180.096 30.176H185.728C185.92 29.8133 186.123 29.408 186.336 28.96C186.549 28.512 186.741 28.0853 186.912 27.68H178.976C179.189 28.1067 179.392 28.544 179.584 28.992C179.797 29.44 179.968 29.8347 180.096 30.176Z" fill="black"/>
<path d="M136.104 46.368V43.52H148.744V26.688H137.928V23.84H162.696V26.688H151.912V43.52H164.552V46.368H136.104Z" fill="black"/>
<path d="M114.696 49.056C114.589 48.7573 114.387 48.352 114.088 47.84C113.811 47.328 113.555 46.9653 113.32 46.752C114.707 46.3467 115.997 45.8027 117.192 45.12C118.408 44.4373 119.517 43.6693 120.52 42.816C119.688 41.8347 118.973 40.7893 118.376 39.68C117.779 38.5707 117.299 37.4293 116.936 36.256H114.44V33.76H128.136L129.224 34.816C128.115 37.8453 126.536 40.512 124.488 42.816C125.512 43.648 126.632 44.3733 127.848 44.992C129.085 45.5893 130.365 46.0373 131.688 46.336C131.539 46.5067 131.347 46.752 131.112 47.072C130.899 47.4133 130.696 47.744 130.504 48.064C130.333 48.4053 130.216 48.672 130.152 48.864C128.637 48.4373 127.24 47.872 125.96 47.168C124.68 46.4853 123.517 45.6853 122.472 44.768C121.363 45.728 120.157 46.5707 118.856 47.296C117.555 48.0213 116.168 48.608 114.696 49.056ZM115.784 33.216C115.528 32.896 115.197 32.5653 114.792 32.224C114.408 31.8613 114.035 31.584 113.672 31.392C114.461 30.7733 115.08 30.176 115.528 29.6C115.997 29.024 116.339 28.352 116.552 27.584C116.765 26.816 116.872 25.8347 116.872 24.64V21.088H126.12V28.544C126.12 28.8 126.173 28.9813 126.28 29.088C126.408 29.1947 126.653 29.248 127.016 29.248H127.944C128.264 29.248 128.52 29.184 128.712 29.056C128.925 28.9067 129.096 28.6187 129.224 28.192C129.352 27.7653 129.437 27.1253 129.48 26.272C129.779 26.4213 130.173 26.5707 130.664 26.72C131.176 26.848 131.624 26.9547 132.008 27.04C131.901 28.4053 131.709 29.44 131.432 30.144C131.155 30.848 130.749 31.328 130.216 31.584C129.704 31.84 129.043 31.968 128.232 31.968H126.28C125.171 31.968 124.403 31.8187 123.976 31.52C123.549 31.2213 123.336 30.6987 123.336 29.952V23.584H119.656V24.832C119.656 26.688 119.357 28.2773 118.76 29.6C118.184 30.9013 117.192 32.1067 115.784 33.216ZM103.752 48.256V39.264H113V48.256H103.752ZM102.216 28.288V25.952H114.088V28.288H102.216ZM103.784 23.872V21.472H112.776V23.872H103.784ZM103.752 32.736V30.368H112.776V32.736H103.752ZM103.752 37.152V34.816H112.776V37.152H103.752ZM106.312 45.92H110.44V41.632H106.312V45.92ZM122.504 40.896C123.827 39.3813 124.808 37.8347 125.448 36.256H119.688C119.987 37.088 120.371 37.8987 120.84 38.688C121.331 39.456 121.885 40.192 122.504 40.896Z" fill="black"/>
<path d="M85.352 44.992V42.432H78.024V40.224H85.352V38.016H79.304V35.872H85.352V33.632H79.56V31.488H85.352V29.184H77.4799V27.04H85.352V24.736H79.624V22.592H85.352V20H88.2V22.592H94.856V27.04H97.448V29.184H94.856V33.632H88.2V35.872H95.272V38.016H88.2V40.224H96.584V42.432H88.2V44.992H85.352ZM70.28 49.312C70.152 49.1627 69.96 48.9707 69.704 48.736C69.448 48.5013 69.1813 48.2667 68.904 48.032C68.6266 47.7973 68.392 47.6267 68.2 47.52C70.056 46.2187 71.5706 44.5867 72.744 42.624C72.0826 41.7707 71.496 40.8213 70.984 39.776C70.472 38.7307 70.0026 37.5787 69.576 36.32L71.88 35.552C72.456 37.2587 73.1493 38.752 73.96 40.032C74.3226 39.0507 74.6106 38.016 74.824 36.928C75.0586 35.84 75.1866 34.688 75.208 33.472H70.12V31.584C70.376 31.2213 70.6746 30.7413 71.016 30.144C71.3573 29.5253 71.7093 28.8747 72.072 28.192C72.456 27.5093 72.808 26.848 73.128 26.208C73.448 25.5467 73.704 24.992 73.896 24.544H69.096V21.92H76.84L77.736 22.72C77.5013 23.296 77.2026 23.968 76.84 24.736C76.4773 25.504 76.0933 26.2933 75.688 27.104C75.304 27.9147 74.9306 28.6613 74.568 29.344C74.2053 30.0053 73.9066 30.528 73.672 30.912H77.928C77.928 33.3227 77.7573 35.456 77.416 37.312C77.0746 39.168 76.5626 40.8427 75.88 42.336C77.16 43.5307 78.696 44.4053 80.488 44.96C82.28 45.4933 84.4026 45.76 86.856 45.76C89.4373 45.76 91.6133 45.7387 93.384 45.696C95.1546 45.6533 96.552 45.5573 97.576 45.408C97.512 45.5573 97.4266 45.824 97.32 46.208C97.2346 46.5707 97.16 46.944 97.096 47.328C97.032 47.712 96.9893 48.0107 96.968 48.224C96.3066 48.224 95.4 48.224 94.248 48.224C93.096 48.2453 91.8586 48.256 90.536 48.256C89.2346 48.2773 88.008 48.288 86.856 48.288C84.2106 48.288 81.8746 47.9893 79.848 47.392C77.8426 46.816 76.0933 45.888 74.6 44.608C74.0453 45.4827 73.4053 46.304 72.68 47.072C71.9546 47.84 71.1546 48.5867 70.28 49.312ZM88.2 31.488H92.04V29.184H88.2V31.488ZM88.2 27.04H92.04V24.736H88.2V27.04Z" fill="black"/>
<path d="M48.072 49.152V43.36H42.376V40.64H48.072V31.776C47.112 33.2693 45.9813 34.7733 44.68 36.288C43.4 37.7813 42.0347 39.1893 40.584 40.512C39.1333 41.8133 37.6933 42.944 36.264 43.904C36.1147 43.712 35.9013 43.4773 35.624 43.2C35.368 42.9013 35.1013 42.624 34.824 42.368C34.5467 42.112 34.312 41.92 34.12 41.792C35.2933 41.1307 36.4773 40.3093 37.672 39.328C38.888 38.3467 40.0613 37.2693 41.192 36.096C42.3227 34.9227 43.368 33.728 44.328 32.512C45.3093 31.2747 46.1307 30.0907 46.792 28.96H35.496V26.272H48.072V20.128H50.952V26.272H63.496V28.96H52.232C52.936 30.1547 53.7787 31.36 54.76 32.576C55.7413 33.792 56.7973 34.9653 57.928 36.096C59.08 37.2267 60.2533 38.272 61.448 39.232C62.664 40.1707 63.848 40.96 65 41.6C64.808 41.728 64.5627 41.9307 64.264 42.208C63.9653 42.4853 63.6773 42.7733 63.4 43.072C63.144 43.3707 62.9413 43.6267 62.792 43.84C61.2987 42.8373 59.816 41.6747 58.344 40.352C56.8933 39.0293 55.5387 37.632 54.28 36.16C53.0213 34.6667 51.912 33.1627 50.952 31.648V40.64H56.776V43.36H50.952V49.152H48.072Z" fill="black"/>
<path d="M20.648 48.992C20.6053 48.5867 20.52 48.0747 20.392 47.456C20.264 46.8587 20.1253 46.3893 19.976 46.048H23.432C23.88 46.048 24.2 45.9733 24.392 45.824C24.584 45.6747 24.68 45.3867 24.68 44.96V24.896H10.12V22.144H30.472V24.896H27.656V46.016C27.656 47.0613 27.368 47.8187 26.792 48.288C26.2373 48.7573 25.3627 48.992 24.168 48.992H20.648ZM11.272 40.352V28.736H21.032V40.352H11.272ZM3.944 48.64L1.384 46.784C1.85333 46.1867 2.35467 45.4507 2.888 44.576C3.44267 43.7013 3.98667 42.7733 4.52 41.792C5.05333 40.7893 5.53333 39.8293 5.96 38.912C6.408 37.9733 6.74933 37.1627 6.984 36.48C7.15467 36.6293 7.38933 36.832 7.688 37.088C7.98667 37.344 8.28533 37.5893 8.584 37.824C8.904 38.0373 9.16 38.1973 9.352 38.304C9.13867 38.9653 8.808 39.7547 8.36 40.672C7.93333 41.5893 7.45333 42.5493 6.92 43.552C6.38667 44.5547 5.85333 45.504 5.32 46.4C4.808 47.296 4.34933 48.0427 3.944 48.64ZM14.056 37.728H18.28V31.36H14.056V37.728ZM6.6 34.08C6.216 33.7173 5.68267 33.3013 5 32.832C4.31733 32.3413 3.61333 31.872 2.888 31.424C2.16267 30.9547 1.53333 30.6133 1 30.4L2.504 27.968C3.10133 28.2453 3.752 28.5973 4.456 29.024C5.18133 29.4293 5.88533 29.856 6.568 30.304C7.25067 30.752 7.816 31.1893 8.264 31.616C8.15733 31.744 7.98667 31.9787 7.752 32.32C7.51733 32.64 7.28267 32.9707 7.048 33.312C6.83467 33.6533 6.68533 33.9093 6.6 34.08ZM8.2 26.88C7.816 26.5173 7.28267 26.0907 6.6 25.6C5.91733 25.1093 5.21333 24.64 4.488 24.192C3.76267 23.744 3.13333 23.4133 2.6 23.2L4.136 20.832C4.69067 21.0667 5.34133 21.3973 6.088 21.824C6.83467 22.2507 7.56 22.6987 8.264 23.168C8.968 23.6373 9.52267 24.064 9.928 24.448C9.82133 24.576 9.64 24.8107 9.384 25.152C9.14933 25.472 8.91467 25.8027 8.68 26.144C8.44533 26.464 8.28533 26.7093 8.2 26.88Z" fill="black"/>
</g>
</svg>
