<svg width="320" height="259" viewBox="0 0 320 259" fill="none" xmlns="http://www.w3.org/2000/svg">
<mask id="path-1-inside-1_5513_2552" fill="white">
<path d="M320 251C320 255.418 316.418 259 312 259H7.99999C3.58171 259 0 255.418 0 251V8C0 3.58172 3.58172 0 8 0H195.056C198.086 0 200.856 1.71202 202.211 4.42229L237.789 75.5777C239.144 78.288 241.914 80 244.944 80H312C316.418 80 320 83.5817 320 88V251Z"/>
</mask>
<path d="M320 251C320 255.418 316.418 259 312 259H7.99999C3.58171 259 0 255.418 0 251V8C0 3.58172 3.58172 0 8 0H195.056C198.086 0 200.856 1.71202 202.211 4.42229L237.789 75.5777C239.144 78.288 241.914 80 244.944 80H312C316.418 80 320 83.5817 320 88V251Z" fill="#E6EEFF"/>
<path d="M237.789 75.5777L238.683 75.1305L237.789 75.5777ZM202.211 4.42229L201.317 4.8695L202.211 4.42229ZM312 259V258H7.99999V259V260H312V259ZM0 251H1V8H0H-1V251H0ZM8 0V1H195.056V0V-1H8V0ZM202.211 4.42229L201.317 4.8695L236.894 76.0249L237.789 75.5777L238.683 75.1305L203.106 3.97508L202.211 4.42229ZM244.944 80V81H312V80V79H244.944V80ZM320 88H319V251H320H321V88H320ZM312 80V81C315.866 81 319 84.134 319 88H320H321C321 83.0294 316.971 79 312 79V80ZM237.789 75.5777L236.894 76.0249C238.419 79.074 241.535 81 244.944 81V80V79C242.293 79 239.869 77.502 238.683 75.1305L237.789 75.5777ZM195.056 0V1C197.707 1 200.131 2.49802 201.317 4.8695L202.211 4.42229L203.106 3.97508C201.581 0.926021 198.465 -1 195.056 -1V0ZM0 8H1C1 4.134 4.13401 1 8 1V0V-1C3.02944 -1 -1 3.02943 -1 8H0ZM7.99999 259V258C4.134 258 1 254.866 1 251H0H-1C-1 255.971 3.02943 260 7.99999 260V259ZM312 259V260C316.971 260 321 255.971 321 251H320H319C319 254.866 315.866 258 312 258V259Z" fill="#D3D3D3" mask="url(#path-1-inside-1_5513_2552)"/>
<path d="M75.032 28.136C73.8 28.136 72.712 28.4 71.768 28.928C70.84 29.44 70.064 30.048 69.44 30.752C68.816 31.456 68.336 32.096 68 32.672C67.68 33.248 67.504 33.568 67.472 33.632L63.08 31.664C63.112 31.52 63.264 31.16 63.536 30.584C63.808 29.992 64.232 29.32 64.808 28.568C65.384 27.8 66.128 27.048 67.04 26.312C67.968 25.576 69.088 24.968 70.4 24.488C71.728 23.992 73.272 23.744 75.032 23.744C76.936 23.744 78.552 24.008 79.88 24.536C81.208 25.064 82.288 25.792 83.12 26.72C83.952 27.632 84.56 28.68 84.944 29.864C85.328 31.048 85.52 32.296 85.52 33.608C85.52 34.952 85.208 36.312 84.584 37.688C83.976 39.064 83.184 40.4 82.208 41.696C81.232 42.976 80.184 44.176 79.064 45.296C77.944 46.416 76.856 47.416 75.8 48.296C74.76 49.176 73.864 49.896 73.112 50.456C72.376 51.016 71.912 51.368 71.72 51.512H85.256V56H63.944V51.92C64.36 51.584 65.04 51.048 65.984 50.312C66.944 49.576 68.048 48.704 69.296 47.696C70.544 46.672 71.808 45.56 73.088 44.36C74.384 43.16 75.584 41.928 76.688 40.664C77.808 39.4 78.704 38.16 79.376 36.944C80.064 35.728 80.408 34.592 80.408 33.536C80.408 31.552 79.944 30.16 79.016 29.36C78.088 28.544 76.76 28.136 75.032 28.136ZM89.9004 40.184C89.9004 37.384 90.2364 34.952 90.9084 32.888C91.5964 30.824 92.5244 29.12 93.6924 27.776C94.8604 26.416 96.1724 25.408 97.6284 24.752C99.0844 24.08 100.588 23.744 102.14 23.744C103.708 23.744 105.22 24.08 106.676 24.752C108.148 25.408 109.46 26.416 110.612 27.776C111.764 29.12 112.676 30.824 113.348 32.888C114.02 34.952 114.356 37.384 114.356 40.184C114.356 43.08 114.02 45.56 113.348 47.624C112.676 49.688 111.764 51.384 110.612 52.712C109.46 54.024 108.148 55 106.676 55.64C105.22 56.264 103.708 56.576 102.14 56.576C100.588 56.576 99.0844 56.264 97.6284 55.64C96.1724 55 94.8604 54.024 93.6924 52.712C92.5244 51.384 91.5964 49.688 90.9084 47.624C90.2364 45.56 89.9004 43.08 89.9004 40.184ZM95.0124 40.184C95.0124 42.84 95.3244 45.056 95.9484 46.832C96.5884 48.592 97.4444 49.904 98.5164 50.768C99.6044 51.616 100.812 52.04 102.14 52.04C103.5 52.04 104.708 51.608 105.764 50.744C106.836 49.88 107.684 48.568 108.308 46.808C108.932 45.048 109.244 42.84 109.244 40.184C109.244 37.576 108.932 35.392 108.308 33.632C107.684 31.872 106.836 30.544 105.764 29.648C104.708 28.736 103.5 28.28 102.14 28.28C100.812 28.28 99.6044 28.736 98.5164 29.648C97.4444 30.544 96.5884 31.88 95.9484 33.656C95.3244 35.416 95.0124 37.592 95.0124 40.184ZM122.875 30.656L117.523 33.632V28.76L125.275 24.32H127.939V56H122.875V30.656ZM137.562 48.416C137.674 48.752 137.867 49.136 138.139 49.568C138.411 50 138.779 50.424 139.243 50.84C139.707 51.24 140.283 51.576 140.971 51.848C141.659 52.12 142.483 52.256 143.443 52.256C145.363 52.256 146.867 51.64 147.955 50.408C149.043 49.16 149.579 47.528 149.563 45.512C149.547 43.608 149.043 42.144 148.051 41.12C147.059 40.08 145.731 39.56 144.067 39.56C143.027 39.56 142.115 39.744 141.331 40.112C140.563 40.48 139.939 40.928 139.459 41.456C138.979 41.984 138.643 42.472 138.451 42.92L134.131 41.408L136.867 24.32H153.259V28.808H141.187L139.843 37.472C139.923 37.328 140.187 37.096 140.635 36.776C141.099 36.44 141.731 36.128 142.531 35.84C143.347 35.536 144.323 35.384 145.459 35.384C147.043 35.384 148.531 35.744 149.923 36.464C151.315 37.168 152.451 38.248 153.331 39.704C154.211 41.144 154.651 42.992 154.651 45.248C154.667 47.504 154.219 49.48 153.307 51.176C152.411 52.872 151.131 54.2 149.467 55.16C147.819 56.104 145.867 56.576 143.611 56.576C141.947 56.576 140.507 56.368 139.291 55.952C138.075 55.52 137.051 54.984 136.219 54.344C135.387 53.704 134.723 53.04 134.227 52.352C133.731 51.648 133.379 51.024 133.171 50.48L137.562 48.416Z" fill="#4E37A2"/>
<path d="M43.154 128.332V122.032H35.828V120.466H43.154V114.418H36.62V112.87H51.326V114.418H44.882V120.466H52.118L52.136 122.032H44.882V128.332H43.154ZM47.636 119.836C47.528 119.764 47.372 119.674 47.168 119.566C46.976 119.446 46.784 119.338 46.592 119.242C46.4 119.146 46.256 119.08 46.16 119.044C46.412 118.72 46.694 118.318 47.006 117.838C47.33 117.346 47.636 116.848 47.924 116.344C48.212 115.84 48.434 115.408 48.59 115.048L50.156 115.768C50.024 116.044 49.85 116.368 49.634 116.74C49.418 117.112 49.184 117.496 48.932 117.892C48.692 118.288 48.458 118.66 48.23 119.008C48.002 119.344 47.804 119.62 47.636 119.836ZM40.346 119.854C40.238 119.59 40.088 119.278 39.896 118.918C39.716 118.558 39.512 118.18 39.284 117.784C39.068 117.388 38.852 117.022 38.636 116.686C38.42 116.338 38.222 116.05 38.042 115.822L39.5 115.048C39.668 115.276 39.86 115.564 40.076 115.912C40.304 116.26 40.532 116.632 40.76 117.028C40.988 117.412 41.198 117.784 41.39 118.144C41.594 118.504 41.75 118.804 41.858 119.044C41.738 119.092 41.582 119.17 41.39 119.278C41.198 119.374 41.006 119.476 40.814 119.584C40.622 119.692 40.466 119.782 40.346 119.854ZM60.506 128.062C60.422 127.894 60.278 127.672 60.074 127.396C59.882 127.12 59.714 126.916 59.57 126.784C60.422 126.388 61.208 125.914 61.928 125.362C62.66 124.798 63.32 124.18 63.908 123.508C63.524 122.656 63.182 121.672 62.882 120.556C62.594 119.428 62.372 118.132 62.216 116.668H56.942V118.72H61.172C61.172 119.668 61.142 120.604 61.082 121.528C61.034 122.44 60.944 123.214 60.812 123.85C60.656 124.654 60.374 125.206 59.966 125.506C59.57 125.806 58.982 125.956 58.202 125.956H57.158C57.134 125.74 57.086 125.464 57.014 125.128C56.942 124.792 56.87 124.534 56.798 124.354H57.95C58.442 124.354 58.76 124.282 58.904 124.138C59.048 123.982 59.162 123.7 59.246 123.292C59.33 122.92 59.39 122.452 59.426 121.888C59.474 121.324 59.498 120.76 59.498 120.196H56.906C56.858 121.492 56.744 122.614 56.564 123.562C56.396 124.498 56.156 125.32 55.844 126.028C55.544 126.724 55.166 127.36 54.71 127.936C54.614 127.864 54.458 127.774 54.242 127.666C54.038 127.558 53.84 127.456 53.648 127.36C53.456 127.264 53.324 127.204 53.252 127.18C53.732 126.58 54.116 125.896 54.404 125.128C54.692 124.348 54.902 123.424 55.034 122.356C55.166 121.288 55.232 120.004 55.232 118.504V115.12H62.072C62.048 114.628 62.024 114.118 62 113.59C61.988 113.05 61.982 112.498 61.982 111.934H63.62C63.62 113.062 63.656 114.124 63.728 115.12H67.13C66.806 114.76 66.446 114.406 66.05 114.058C65.654 113.698 65.294 113.41 64.97 113.194L65.978 112.114C66.254 112.294 66.56 112.522 66.896 112.798C67.232 113.074 67.55 113.356 67.85 113.644C68.162 113.92 68.402 114.16 68.57 114.364C68.486 114.424 68.36 114.532 68.192 114.688C68.024 114.832 67.868 114.976 67.724 115.12H69.614V116.668H63.872C63.992 117.736 64.154 118.708 64.358 119.584C64.574 120.46 64.814 121.252 65.078 121.96C65.474 121.348 65.822 120.706 66.122 120.034C66.422 119.362 66.668 118.672 66.86 117.964L68.426 118.486C67.826 120.406 66.974 122.11 65.87 123.598C66.23 124.21 66.62 124.732 67.04 125.164C67.46 125.584 67.892 125.932 68.336 126.208C68.48 125.824 68.612 125.398 68.732 124.93C68.864 124.45 68.954 124.042 69.002 123.706C69.086 123.766 69.224 123.844 69.416 123.94C69.608 124.024 69.806 124.108 70.01 124.192C70.226 124.264 70.388 124.318 70.496 124.354C70.424 124.714 70.328 125.098 70.208 125.506C70.1 125.914 69.98 126.304 69.848 126.676C69.728 127.048 69.602 127.36 69.47 127.612C69.314 127.9 69.098 128.08 68.822 128.152C68.558 128.224 68.264 128.17 67.94 127.99C67.388 127.702 66.836 127.318 66.284 126.838C65.732 126.346 65.21 125.728 64.718 124.984C63.494 126.28 62.09 127.306 60.506 128.062Z" fill="black"/>
<path d="M82.774 107.102C81.85 107.102 81.034 107.3 80.326 107.696C79.63 108.08 79.048 108.536 78.58 109.064C78.112 109.592 77.752 110.072 77.5 110.504C77.26 110.936 77.128 111.176 77.104 111.224L73.81 109.748C73.834 109.64 73.948 109.37 74.152 108.938C74.356 108.494 74.674 107.99 75.106 107.426C75.538 106.85 76.096 106.286 76.78 105.734C77.476 105.182 78.316 104.726 79.3 104.366C80.296 103.994 81.454 103.808 82.774 103.808C84.202 103.808 85.414 104.006 86.41 104.402C87.406 104.798 88.216 105.344 88.84 106.04C89.464 106.724 89.92 107.51 90.208 108.398C90.496 109.286 90.64 110.222 90.64 111.206C90.64 112.214 90.406 113.234 89.938 114.266C89.482 115.298 88.888 116.3 88.156 117.272C87.424 118.232 86.638 119.132 85.798 119.972C84.958 120.812 84.142 121.562 83.35 122.222C82.57 122.882 81.898 123.422 81.334 123.842C80.782 124.262 80.434 124.526 80.29 124.634H90.442V128H74.458V124.94C74.77 124.688 75.28 124.286 75.988 123.734C76.708 123.182 77.536 122.528 78.472 121.772C79.408 121.004 80.356 120.17 81.316 119.27C82.288 118.37 83.188 117.446 84.016 116.498C84.856 115.55 85.528 114.62 86.032 113.708C86.548 112.796 86.806 111.944 86.806 111.152C86.806 109.664 86.458 108.62 85.762 108.02C85.066 107.408 84.07 107.102 82.774 107.102ZM94.8793 104.24H110.755V106.886L98.7493 128H94.5373L106.309 107.606H94.8793V104.24Z" fill="#4E37A2"/>
<path d="M123.144 128.314V124.192H114.81V122.716H118.068V118.306H123.144V115.768H119.112C118.668 116.464 118.182 117.13 117.654 117.766C117.126 118.39 116.562 118.948 115.962 119.44C115.818 119.308 115.62 119.134 115.368 118.918C115.116 118.702 114.876 118.534 114.648 118.414C115.368 117.862 116.034 117.208 116.646 116.452C117.27 115.696 117.81 114.91 118.266 114.094C118.722 113.278 119.064 112.504 119.292 111.772L120.858 112.258C120.738 112.594 120.6 112.93 120.444 113.266C120.3 113.602 120.144 113.938 119.976 114.274H130.362V115.768H124.854V118.306H129.192V119.764H124.854V122.716H131.136V124.192H124.854V128.314H123.144ZM119.76 122.716H123.144V119.764H119.76V122.716Z" fill="black"/>
<path d="M138.734 108.992L134.72 111.224V107.57L140.534 104.24H142.532V128H138.734V108.992Z" fill="#4E37A2"/>
<path d="M150.466 128.368C150.334 128.2 150.136 128.002 149.872 127.774C149.62 127.546 149.386 127.378 149.17 127.27C150.238 126.526 151.036 125.596 151.564 124.48C152.092 123.364 152.356 121.954 152.356 120.25V112.582H162.13V126.478C162.13 127.642 161.446 128.224 160.078 128.224H158.62C158.596 127.984 158.542 127.684 158.458 127.324C158.386 126.976 158.308 126.706 158.224 126.514H159.7C159.964 126.514 160.15 126.472 160.258 126.388C160.366 126.292 160.42 126.118 160.42 125.866V122.194H153.922C153.754 123.598 153.382 124.792 152.806 125.776C152.242 126.76 151.462 127.624 150.466 128.368ZM154.03 120.664H160.42V118.162H154.048V120.232C154.048 120.304 154.042 120.376 154.03 120.448C154.03 120.52 154.03 120.592 154.03 120.664ZM154.048 116.614H160.42V114.148H154.048V116.614Z" fill="black"/>
<path d="M47.74 175.44V169.08C47.1267 169.973 46.4267 170.84 45.64 171.68C44.8667 172.507 44.04 173.253 43.16 173.92C43.0933 173.813 42.9867 173.673 42.84 173.5C42.6933 173.327 42.54 173.16 42.38 173C42.22 172.84 42.08 172.72 41.96 172.64C42.6267 172.187 43.2867 171.647 43.94 171.02C44.6067 170.393 45.2267 169.727 45.8 169.02C46.3867 168.3 46.8933 167.593 47.32 166.9H43.38V165.3H47.74V162.72H45.44C45.0667 163.56 44.68 164.273 44.28 164.86C44.1067 164.74 43.8533 164.6 43.52 164.44C43.1867 164.267 42.9267 164.153 42.74 164.1C43.06 163.687 43.3733 163.16 43.68 162.52C44 161.88 44.28 161.213 44.52 160.52C44.76 159.827 44.92 159.2 45 158.64L46.66 159.06C46.5933 159.38 46.5067 159.72 46.4 160.08C46.2933 160.427 46.18 160.787 46.06 161.16H47.74V157.26H49.46V161.16H53.32V162.72H49.46V165.3H54.08V166.9H49.84C50.2 167.5 50.64 168.133 51.16 168.8C51.68 169.453 52.2467 170.08 52.86 170.68C53.4733 171.28 54.1 171.793 54.74 172.22C54.5533 172.367 54.3267 172.6 54.06 172.92C53.8067 173.24 53.62 173.5 53.5 173.7C52.7267 173.06 51.9867 172.333 51.28 171.52C50.5733 170.707 49.9667 169.887 49.46 169.06V175.44H47.74ZM39.02 175.46V166.9C38.6867 167.593 38.3267 168.253 37.94 168.88C37.5667 169.507 37.1933 170.053 36.82 170.52C36.7267 170.44 36.5867 170.34 36.4 170.22C36.2267 170.087 36.04 169.967 35.84 169.86C35.6533 169.74 35.4933 169.653 35.36 169.6C35.7333 169.173 36.1067 168.68 36.48 168.12C36.8533 167.547 37.2067 166.947 37.54 166.32C37.8733 165.693 38.1667 165.087 38.42 164.5C38.6867 163.9 38.8867 163.36 39.02 162.88V162.76H35.94V161.16H39.02V157.34H40.76V161.16H43.28V162.76H40.76V164.3C40.9867 164.62 41.2867 165.007 41.66 165.46C42.0333 165.913 42.42 166.353 42.82 166.78C43.22 167.207 43.5667 167.54 43.86 167.78C43.7667 167.847 43.6333 167.967 43.46 168.14C43.2867 168.3 43.1133 168.467 42.94 168.64C42.78 168.8 42.6667 168.927 42.6 169.02C42.36 168.767 42.0733 168.44 41.74 168.04C41.4067 167.627 41.08 167.207 40.76 166.78V175.46H39.02ZM71.18 175.18C70.42 174.807 69.6667 174.153 68.92 173.22C68.1733 172.273 67.5067 170.98 66.92 169.34C66.3333 167.7 65.8933 165.647 65.6 163.18H56.22V161.44H65.44C65.3867 160.8 65.3467 160.133 65.32 159.44C65.3067 158.733 65.3 158.007 65.3 157.26H67.16C67.1467 158.007 67.1467 158.733 67.16 159.44C67.1733 160.133 67.2067 160.8 67.26 161.44H70.96C70.6 160.987 70.1667 160.52 69.66 160.04C69.1667 159.547 68.7133 159.16 68.3 158.88L69.5 157.7C69.8067 157.9 70.14 158.16 70.5 158.48C70.8733 158.8 71.22 159.127 71.54 159.46C71.8733 159.78 72.1333 160.067 72.32 160.32C72.2267 160.373 72.0933 160.473 71.92 160.62C71.7467 160.767 71.58 160.92 71.42 161.08C71.26 161.227 71.1333 161.347 71.04 161.44H73.78V163.18H67.42C67.6467 165.073 67.98 166.693 68.42 168.04C68.8733 169.387 69.3867 170.48 69.96 171.32C70.5333 172.16 71.12 172.773 71.72 173.16C71.9067 172.72 72.0933 172.233 72.28 171.7C72.4667 171.153 72.6 170.7 72.68 170.34C72.7733 170.407 72.9267 170.493 73.14 170.6C73.3667 170.707 73.5933 170.807 73.82 170.9C74.0467 170.993 74.22 171.06 74.34 171.1C74.2467 171.527 74.1133 171.98 73.94 172.46C73.78 172.94 73.6067 173.393 73.42 173.82C73.2333 174.233 73.06 174.573 72.9 174.84C72.5267 175.467 71.9533 175.58 71.18 175.18ZM56.58 174.7L56.2 172.98C56.6267 172.94 57.1867 172.873 57.88 172.78C58.5733 172.673 59.3133 172.553 60.1 172.42V167.64H56.62V165.98H65.16V167.64H62.06V172.08C62.8867 171.933 63.66 171.787 64.38 171.64C65.1 171.48 65.6733 171.347 66.1 171.24V172.92C65.62 173.04 65.0533 173.173 64.4 173.32C63.7467 173.467 63.0533 173.613 62.32 173.76C61.5867 173.893 60.86 174.02 60.14 174.14C59.42 174.273 58.7467 174.387 58.12 174.48C57.5067 174.587 56.9933 174.66 56.58 174.7ZM91.24 175.64C91.0667 175.32 90.8333 174.96 90.54 174.56C90.26 174.173 89.9533 173.78 89.62 173.38C89.02 173.5 88.3267 173.627 87.54 173.76C86.7533 173.893 85.9267 174.02 85.06 174.14C84.1933 174.26 83.3267 174.367 82.46 174.46C81.5933 174.567 80.7733 174.66 80 174.74C79.24 174.82 78.5733 174.88 78 174.92L77.64 173.08C77.9467 173.08 78.3067 173.067 78.72 173.04C79.1467 173.013 79.6067 172.98 80.1 172.94C80.3267 172.593 80.5667 172.187 80.82 171.72C81.0867 171.253 81.3467 170.767 81.6 170.26C81.8533 169.753 82.0733 169.287 82.26 168.86H76.84V167.2H93.16V168.86H84.4C84.12 169.473 83.7933 170.133 83.42 170.84C83.0467 171.533 82.6867 172.167 82.34 172.74C83.42 172.633 84.5 172.513 85.58 172.38C86.66 172.247 87.6 172.113 88.4 171.98C87.7467 171.26 87.1733 170.707 86.68 170.32L88.06 169.22C88.3933 169.473 88.78 169.82 89.22 170.26C89.66 170.687 90.1067 171.153 90.56 171.66C91.0267 172.167 91.4533 172.667 91.84 173.16C92.24 173.64 92.56 174.06 92.8 174.42C92.6933 174.487 92.5267 174.6 92.3 174.76C92.0867 174.92 91.88 175.08 91.68 175.24C91.48 175.4 91.3333 175.533 91.24 175.64ZM76.48 165.58C76.4133 165.447 76.3067 165.28 76.16 165.08C76.0133 164.88 75.86 164.687 75.7 164.5C75.54 164.3 75.4 164.147 75.28 164.04C76.12 163.72 76.98 163.293 77.86 162.76C78.7533 162.227 79.6133 161.64 80.44 161C81.28 160.347 82.02 159.687 82.66 159.02C83.3133 158.34 83.82 157.693 84.18 157.08L85.88 157.32C86.3067 157.92 86.8467 158.533 87.5 159.16C88.1533 159.773 88.88 160.373 89.68 160.96C90.48 161.547 91.3067 162.087 92.16 162.58C93.0267 163.06 93.8733 163.46 94.7 163.78C94.54 163.98 94.3467 164.247 94.12 164.58C93.8933 164.9 93.6933 165.213 93.52 165.52C92.5067 165.067 91.46 164.5 90.38 163.82C89.3 163.127 88.2867 162.373 87.34 161.56C86.4067 160.733 85.6267 159.9 85 159.06C84.5733 159.66 84.0267 160.273 83.36 160.9C82.6933 161.527 81.96 162.14 81.16 162.74C80.36 163.327 79.5533 163.867 78.74 164.36C77.94 164.853 77.1867 165.26 76.48 165.58ZM80.28 165.22V163.54H89.76V165.22H80.28ZM103.32 174.66V172.9H107.98V165.26H104.32V163.5H107.98V157.34H109.84V163.5H113.5V165.26H109.84V172.9H114.12V174.66H103.32ZM99.58 175.36V168C99.1267 168.44 98.6467 168.86 98.14 169.26C97.6467 169.66 97.14 170.04 96.62 170.4C96.5533 170.267 96.4333 170.113 96.26 169.94C96.1 169.753 95.9333 169.58 95.76 169.42C95.5867 169.247 95.4467 169.113 95.34 169.02C95.94 168.7 96.5533 168.287 97.18 167.78C97.82 167.273 98.4333 166.727 99.02 166.14C99.62 165.54 100.16 164.94 100.64 164.34C101.133 163.74 101.52 163.173 101.8 162.64H96.42V160.98H99.52V157.34H101.3V160.98H103.42L104.22 161.7C103.593 163.007 102.82 164.253 101.9 165.44C102.247 165.667 102.627 165.913 103.04 166.18C103.453 166.447 103.853 166.693 104.24 166.92C104.627 167.147 104.94 167.327 105.18 167.46C105.1 167.54 104.987 167.68 104.84 167.88C104.693 168.067 104.553 168.26 104.42 168.46C104.287 168.66 104.187 168.82 104.12 168.94C103.747 168.687 103.307 168.4 102.8 168.08C102.307 167.747 101.827 167.413 101.36 167.08V175.36H99.58ZM47.96 205.36C47.9333 205.107 47.88 204.787 47.8 204.4C47.72 204.027 47.6333 203.733 47.54 203.52H49.7C49.98 203.52 50.18 203.473 50.3 203.38C50.42 203.287 50.48 203.107 50.48 202.84V190.3H41.38V188.58H54.1V190.3H52.34V203.5C52.34 204.153 52.16 204.627 51.8 204.92C51.4533 205.213 50.9067 205.36 50.16 205.36H47.96ZM42.1 199.96V192.7H48.2V199.96H42.1ZM37.52 205.14L35.92 203.98C36.2133 203.607 36.5267 203.147 36.86 202.6C37.2067 202.053 37.5467 201.473 37.88 200.86C38.2133 200.233 38.5133 199.633 38.78 199.06C39.06 198.473 39.2733 197.967 39.42 197.54C39.5267 197.633 39.6733 197.76 39.86 197.92C40.0467 198.08 40.2333 198.233 40.42 198.38C40.62 198.513 40.78 198.613 40.9 198.68C40.7667 199.093 40.56 199.587 40.28 200.16C40.0133 200.733 39.7133 201.333 39.38 201.96C39.0467 202.587 38.7133 203.18 38.38 203.74C38.06 204.3 37.7733 204.767 37.52 205.14ZM43.84 198.32H46.48V194.34H43.84V198.32ZM39.18 196.04C38.94 195.813 38.6067 195.553 38.18 195.26C37.7533 194.953 37.3133 194.66 36.86 194.38C36.4067 194.087 36.0133 193.873 35.68 193.74L36.62 192.22C36.9933 192.393 37.4 192.613 37.84 192.88C38.2933 193.133 38.7333 193.4 39.16 193.68C39.5867 193.96 39.94 194.233 40.22 194.5C40.1533 194.58 40.0467 194.727 39.9 194.94C39.7533 195.14 39.6067 195.347 39.46 195.56C39.3267 195.773 39.2333 195.933 39.18 196.04ZM40.18 191.54C39.94 191.313 39.6067 191.047 39.18 190.74C38.7533 190.433 38.3133 190.14 37.86 189.86C37.4067 189.58 37.0133 189.373 36.68 189.24L37.64 187.76C37.9867 187.907 38.3933 188.113 38.86 188.38C39.3267 188.647 39.78 188.927 40.22 189.22C40.66 189.513 41.0067 189.78 41.26 190.02C41.1933 190.1 41.08 190.247 40.92 190.46C40.7733 190.66 40.6267 190.867 40.48 191.08C40.3333 191.28 40.2333 191.433 40.18 191.54ZM64.1 205.46V201.84H60.54V200.14H64.1V194.6C63.5 195.533 62.7933 196.473 61.98 197.42C61.18 198.353 60.3267 199.233 59.42 200.06C58.5133 200.873 57.6133 201.58 56.72 202.18C56.6267 202.06 56.4933 201.913 56.32 201.74C56.16 201.553 55.9933 201.38 55.82 201.22C55.6467 201.06 55.5 200.94 55.38 200.86C56.1133 200.447 56.8533 199.933 57.6 199.32C58.36 198.707 59.0933 198.033 59.8 197.3C60.5067 196.567 61.16 195.82 61.76 195.06C62.3733 194.287 62.8867 193.547 63.3 192.84H56.24V191.16H64.1V187.32H65.9V191.16H73.74V192.84H66.7C67.14 193.587 67.6667 194.34 68.28 195.1C68.8933 195.86 69.5533 196.593 70.26 197.3C70.98 198.007 71.7133 198.66 72.46 199.26C73.22 199.847 73.96 200.34 74.68 200.74C74.56 200.82 74.4067 200.947 74.22 201.12C74.0333 201.293 73.8533 201.473 73.68 201.66C73.52 201.847 73.3933 202.007 73.3 202.14C72.3667 201.513 71.44 200.787 70.52 199.96C69.6133 199.133 68.7667 198.26 67.98 197.34C67.1933 196.407 66.5 195.467 65.9 194.52V200.14H69.54V201.84H65.9V205.46H64.1ZM86.4 202.86V201.26H81.82V199.88H86.4V198.5H82.62V197.16H86.4V195.76H82.78V194.42H86.4V192.98H81.48V191.64H86.4V190.2H82.82V188.86H86.4V187.24H88.18V188.86H92.34V191.64H93.96V192.98H92.34V195.76H88.18V197.16H92.6V198.5H88.18V199.88H93.42V201.26H88.18V202.86H86.4ZM76.98 205.56C76.9 205.467 76.78 205.347 76.62 205.2C76.46 205.053 76.2933 204.907 76.12 204.76C75.9467 204.613 75.8 204.507 75.68 204.44C76.84 203.627 77.7867 202.607 78.52 201.38C78.1067 200.847 77.74 200.253 77.42 199.6C77.1 198.947 76.8067 198.227 76.54 197.44L77.98 196.96C78.34 198.027 78.7733 198.96 79.28 199.76C79.5067 199.147 79.6867 198.5 79.82 197.82C79.9667 197.14 80.0467 196.42 80.06 195.66H76.88V194.48C77.04 194.253 77.2267 193.953 77.44 193.58C77.6533 193.193 77.8733 192.787 78.1 192.36C78.34 191.933 78.56 191.52 78.76 191.12C78.96 190.707 79.12 190.36 79.24 190.08H76.24V188.44H81.08L81.64 188.94C81.4933 189.3 81.3067 189.72 81.08 190.2C80.8533 190.68 80.6133 191.173 80.36 191.68C80.12 192.187 79.8867 192.653 79.66 193.08C79.4333 193.493 79.2467 193.82 79.1 194.06H81.76C81.76 195.567 81.6533 196.9 81.44 198.06C81.2267 199.22 80.9067 200.267 80.48 201.2C81.28 201.947 82.24 202.493 83.36 202.84C84.48 203.173 85.8067 203.34 87.34 203.34C88.9533 203.34 90.3133 203.327 91.42 203.3C92.5267 203.273 93.4 203.213 94.04 203.12C94 203.213 93.9467 203.38 93.88 203.62C93.8267 203.847 93.78 204.08 93.74 204.32C93.7 204.56 93.6733 204.747 93.66 204.88C93.2467 204.88 92.68 204.88 91.96 204.88C91.24 204.893 90.4667 204.9 89.64 204.9C88.8267 204.913 88.06 204.92 87.34 204.92C85.6867 204.92 84.2267 204.733 82.96 204.36C81.7067 204 80.6133 203.42 79.68 202.62C79.3333 203.167 78.9333 203.68 78.48 204.16C78.0267 204.64 77.5267 205.107 76.98 205.56ZM88.18 194.42H90.58V192.98H88.18V194.42ZM88.18 191.64H90.58V190.2H88.18V191.64ZM103.74 205.4C103.673 205.213 103.547 204.96 103.36 204.64C103.187 204.32 103.027 204.093 102.88 203.96C103.747 203.707 104.553 203.367 105.3 202.94C106.06 202.513 106.753 202.033 107.38 201.5C106.86 200.887 106.413 200.233 106.04 199.54C105.667 198.847 105.367 198.133 105.14 197.4H103.58V195.84H112.14L112.82 196.5C112.127 198.393 111.14 200.06 109.86 201.5C110.5 202.02 111.2 202.473 111.96 202.86C112.733 203.233 113.533 203.513 114.36 203.7C114.267 203.807 114.147 203.96 114 204.16C113.867 204.373 113.74 204.58 113.62 204.78C113.513 204.993 113.44 205.16 113.4 205.28C112.453 205.013 111.58 204.66 110.78 204.22C109.98 203.793 109.253 203.293 108.6 202.72C107.907 203.32 107.153 203.847 106.34 204.3C105.527 204.753 104.66 205.12 103.74 205.4ZM104.42 195.5C104.26 195.3 104.053 195.093 103.8 194.88C103.56 194.653 103.327 194.48 103.1 194.36C103.593 193.973 103.98 193.6 104.26 193.24C104.553 192.88 104.767 192.46 104.9 191.98C105.033 191.5 105.1 190.887 105.1 190.14V187.92H110.88V192.58C110.88 192.74 110.913 192.853 110.98 192.92C111.06 192.987 111.213 193.02 111.44 193.02H112.02C112.22 193.02 112.38 192.98 112.5 192.9C112.633 192.807 112.74 192.627 112.82 192.36C112.9 192.093 112.953 191.693 112.98 191.16C113.167 191.253 113.413 191.347 113.72 191.44C114.04 191.52 114.32 191.587 114.56 191.64C114.493 192.493 114.373 193.14 114.2 193.58C114.027 194.02 113.773 194.32 113.44 194.48C113.12 194.64 112.707 194.72 112.2 194.72H110.98C110.287 194.72 109.807 194.627 109.54 194.44C109.273 194.253 109.14 193.927 109.14 193.46V189.48H106.84V190.26C106.84 191.42 106.653 192.413 106.28 193.24C105.92 194.053 105.3 194.807 104.42 195.5ZM96.9 204.9V199.28H102.68V204.9H96.9ZM95.94 192.42V190.96H103.36V192.42H95.94ZM96.92 189.66V188.16H102.54V189.66H96.92ZM96.9 195.2V193.72H102.54V195.2H96.9ZM96.9 197.96V196.5H102.54V197.96H96.9ZM98.5 203.44H101.08V200.76H98.5V203.44ZM108.62 200.3C109.447 199.353 110.06 198.387 110.46 197.4H106.86C107.047 197.92 107.287 198.427 107.58 198.92C107.887 199.4 108.233 199.86 108.62 200.3ZM116.12 203.72V201.94H124.02V191.42H117.26V189.64H132.74V191.42H126V201.94H133.9V203.72H116.12ZM144.14 205.58V201.24C143.54 201.8 142.847 202.34 142.06 202.86C141.273 203.367 140.453 203.827 139.6 204.24C138.76 204.653 137.933 204.993 137.12 205.26C137.08 205.153 137 205.007 136.88 204.82C136.76 204.633 136.633 204.44 136.5 204.24C136.367 204.053 136.253 203.913 136.16 203.82C136.907 203.607 137.693 203.313 138.52 202.94C139.347 202.553 140.147 202.127 140.92 201.66C141.707 201.18 142.387 200.713 142.96 200.26H136.22V198.82H144.14V197.58H138.18V196.2H144.14V195.02H137.34V193.6H141.32C141.2 193.333 141.073 193.06 140.94 192.78C140.807 192.5 140.673 192.253 140.54 192.04H136.2V190.6H139.56C139.387 190.253 139.18 189.833 138.94 189.34C138.7 188.847 138.467 188.453 138.24 188.16L139.8 187.42C139.96 187.673 140.133 187.973 140.32 188.32C140.507 188.667 140.68 189.007 140.84 189.34C141.013 189.66 141.14 189.92 141.22 190.12L140.1 190.6H142.36V187.32H144.06V190.6H145.86V187.32H147.56V190.6H149.86L148.54 190.08C148.713 189.853 148.9 189.58 149.1 189.26C149.3 188.94 149.487 188.62 149.66 188.3C149.833 187.967 149.967 187.68 150.06 187.44L151.76 187.98C151.627 188.233 151.46 188.527 151.26 188.86C151.06 189.18 150.86 189.5 150.66 189.82C150.46 190.127 150.28 190.387 150.12 190.6H153.78V192.04H149.42C149.327 192.293 149.213 192.56 149.08 192.84C148.947 193.107 148.82 193.36 148.7 193.6H152.52V195.02H145.86V196.2H151.76V197.58H145.86V198.82H153.78V200.26H147C147.587 200.713 148.26 201.173 149.02 201.64C149.793 202.093 150.593 202.513 151.42 202.9C152.247 203.287 153.027 203.587 153.76 203.8C153.667 203.893 153.553 204.033 153.42 204.22C153.3 204.42 153.187 204.613 153.08 204.8C152.973 205 152.893 205.153 152.84 205.26C152.04 204.993 151.213 204.653 150.36 204.24C149.52 203.827 148.713 203.367 147.94 202.86C147.167 202.34 146.473 201.807 145.86 201.26V205.58H144.14ZM143.24 193.6H146.76C146.88 193.373 147.007 193.12 147.14 192.84C147.273 192.56 147.393 192.293 147.5 192.04H142.54C142.673 192.307 142.8 192.58 142.92 192.86C143.053 193.14 143.16 193.387 143.24 193.6ZM43.74 235.4C43.6733 235.213 43.5467 234.96 43.36 234.64C43.1867 234.32 43.0267 234.093 42.88 233.96C43.7467 233.707 44.5533 233.367 45.3 232.94C46.06 232.513 46.7533 232.033 47.38 231.5C46.86 230.887 46.4133 230.233 46.04 229.54C45.6667 228.847 45.3667 228.133 45.14 227.4H43.58V225.84H52.14L52.82 226.5C52.1267 228.393 51.14 230.06 49.86 231.5C50.5 232.02 51.2 232.473 51.96 232.86C52.7333 233.233 53.5333 233.513 54.36 233.7C54.2667 233.807 54.1467 233.96 54 234.16C53.8667 234.373 53.74 234.58 53.62 234.78C53.5133 234.993 53.44 235.16 53.4 235.28C52.4533 235.013 51.58 234.66 50.78 234.22C49.98 233.793 49.2533 233.293 48.6 232.72C47.9067 233.32 47.1533 233.847 46.34 234.3C45.5267 234.753 44.66 235.12 43.74 235.4ZM44.42 225.5C44.26 225.3 44.0533 225.093 43.8 224.88C43.56 224.653 43.3267 224.48 43.1 224.36C43.5933 223.973 43.98 223.6 44.26 223.24C44.5533 222.88 44.7667 222.46 44.9 221.98C45.0333 221.5 45.1 220.887 45.1 220.14V217.92H50.88V222.58C50.88 222.74 50.9133 222.853 50.98 222.92C51.06 222.987 51.2133 223.02 51.44 223.02H52.02C52.22 223.02 52.38 222.98 52.5 222.9C52.6333 222.807 52.74 222.627 52.82 222.36C52.9 222.093 52.9533 221.693 52.98 221.16C53.1667 221.253 53.4133 221.347 53.72 221.44C54.04 221.52 54.32 221.587 54.56 221.64C54.4933 222.493 54.3733 223.14 54.2 223.58C54.0267 224.02 53.7733 224.32 53.44 224.48C53.12 224.64 52.7067 224.72 52.2 224.72H50.98C50.2867 224.72 49.8067 224.627 49.54 224.44C49.2733 224.253 49.14 223.927 49.14 223.46V219.48H46.84V220.26C46.84 221.42 46.6533 222.413 46.28 223.24C45.92 224.053 45.3 224.807 44.42 225.5ZM36.9 234.9V229.28H42.68V234.9H36.9ZM35.94 222.42V220.96H43.36V222.42H35.94ZM36.92 219.66V218.16H42.54V219.66H36.92ZM36.9 225.2V223.72H42.54V225.2H36.9ZM36.9 227.96V226.5H42.54V227.96H36.9ZM38.5 233.44H41.08V230.76H38.5V233.44ZM48.62 230.3C49.4467 229.353 50.06 228.387 50.46 227.4H46.86C47.0467 227.92 47.2867 228.427 47.58 228.92C47.8867 229.4 48.2333 229.86 48.62 230.3ZM55.94 234.58V232.84H65.4C65.6533 232.253 65.9133 231.567 66.18 230.78C66.4467 229.98 66.7067 229.153 66.96 228.3C67.2133 227.433 67.4333 226.6 67.62 225.8C67.8067 225 67.9467 224.307 68.04 223.72L69.96 224.2C69.8267 224.84 69.6467 225.547 69.42 226.32C69.2067 227.093 68.9733 227.88 68.72 228.68C68.4667 229.48 68.2133 230.24 67.96 230.96C67.7067 231.68 67.4667 232.307 67.24 232.84H74.08V234.58H55.94ZM56.86 222.86V221.12H64.06V217.58H65.98V221.12H73.06V222.86H56.86ZM61.72 231.7C61.64 231.18 61.5267 230.6 61.38 229.96C61.2333 229.307 61.0733 228.647 60.9 227.98C60.7267 227.313 60.5467 226.68 60.36 226.08C60.1733 225.467 59.9867 224.94 59.8 224.5L61.52 224C61.8 224.72 62.0667 225.5 62.32 226.34C62.5733 227.167 62.8 228.007 63 228.86C63.2133 229.7 63.3933 230.5 63.54 231.26C63.4067 231.273 63.2133 231.307 62.96 231.36C62.72 231.413 62.48 231.473 62.24 231.54C62.0133 231.593 61.84 231.647 61.72 231.7Z" fill="black"/>
</svg>
