<svg width="343" height="180" viewBox="0 0 343 180" fill="none" xmlns="http://www.w3.org/2000/svg">
<mask id="path-1-inside-1_5301_9017" fill="white">
<path d="M343 172C343 176.418 339.418 180 335 180H7.99999C3.58172 180 0 176.418 0 172V8C0 3.58172 3.58172 0 8 0H271.01C274.064 0 276.852 1.73855 278.195 4.48106L297.805 44.5189C299.148 47.2615 301.936 49 304.99 49H335C339.418 49 343 52.5817 343 57V172Z"/>
</mask>
<path d="M343 172C343 176.418 339.418 180 335 180H7.99999C3.58172 180 0 176.418 0 172V8C0 3.58172 3.58172 0 8 0H271.01C274.064 0 276.852 1.73855 278.195 4.48106L297.805 44.5189C299.148 47.2615 301.936 49 304.99 49H335C339.418 49 343 52.5817 343 57V172Z" fill="#E3E7FF"/>
<path d="M297.805 44.5189L296.907 44.9588L297.805 44.5189ZM278.195 4.48106L279.093 4.04119L278.195 4.48106ZM335 180V179H7.99999V180V181H335V180ZM0 172H1V8H0H-1V172H0ZM8 0V1H271.01V0V-1H8V0ZM278.195 4.48106L277.297 4.92093L296.907 44.9588L297.805 44.5189L298.703 44.0791L279.093 4.04119L278.195 4.48106ZM304.99 49V50H335V49V48H304.99V49ZM343 57H342V172H343H344V57H343ZM335 49V50C338.866 50 342 53.134 342 57H343H344C344 52.0294 339.971 48 335 48V49ZM297.805 44.5189L296.907 44.9588C298.418 48.0441 301.554 50 304.99 50V49V48C302.318 48 299.879 46.4788 298.703 44.0791L297.805 44.5189ZM271.01 0V1C273.682 1 276.121 2.52123 277.297 4.92093L278.195 4.48106L279.093 4.04119C277.582 0.955866 274.446 -1 271.01 -1V0ZM0 8H1C1 4.13401 4.13401 1 8 1V0V-1C3.02944 -1 -1 3.02944 -1 8H0ZM7.99999 180V179C4.134 179 1 175.866 1 172H0H-1C-1 176.971 3.02943 181 7.99999 181V180ZM335 180V181C339.971 181 344 176.971 344 172H343H342C342 175.866 338.866 179 335 179V180Z" fill="#D3D3D3" mask="url(#path-1-inside-1_5301_9017)"/>
<path d="M132.274 21.102C131.35 21.102 130.534 21.3 129.826 21.696C129.13 22.08 128.548 22.536 128.08 23.064C127.612 23.592 127.252 24.072 127 24.504C126.76 24.936 126.628 25.176 126.604 25.224L123.31 23.748C123.334 23.64 123.448 23.37 123.652 22.938C123.856 22.494 124.174 21.99 124.606 21.426C125.038 20.85 125.596 20.286 126.28 19.734C126.976 19.182 127.816 18.726 128.8 18.366C129.796 17.994 130.954 17.808 132.274 17.808C133.702 17.808 134.914 18.006 135.91 18.402C136.906 18.798 137.716 19.344 138.34 20.04C138.964 20.724 139.42 21.51 139.708 22.398C139.996 23.286 140.14 24.222 140.14 25.206C140.14 26.214 139.906 27.234 139.438 28.266C138.982 29.298 138.388 30.3 137.656 31.272C136.924 32.232 136.138 33.132 135.298 33.972C134.458 34.812 133.642 35.562 132.85 36.222C132.07 36.882 131.398 37.422 130.834 37.842C130.282 38.262 129.934 38.526 129.79 38.634H139.942V42H123.958V38.94C124.27 38.688 124.78 38.286 125.488 37.734C126.208 37.182 127.036 36.528 127.972 35.772C128.908 35.004 129.856 34.17 130.816 33.27C131.788 32.37 132.688 31.446 133.516 30.498C134.356 29.55 135.028 28.62 135.532 27.708C136.048 26.796 136.306 25.944 136.306 25.152C136.306 23.664 135.958 22.62 135.262 22.02C134.566 21.408 133.57 21.102 132.274 21.102ZM143.425 30.138C143.425 28.038 143.677 26.214 144.181 24.666C144.697 23.118 145.393 21.84 146.269 20.832C147.145 19.812 148.129 19.056 149.221 18.564C150.313 18.06 151.441 17.808 152.605 17.808C153.781 17.808 154.915 18.06 156.007 18.564C157.111 19.056 158.095 19.812 158.959 20.832C159.823 21.84 160.507 23.118 161.011 24.666C161.515 26.214 161.767 28.038 161.767 30.138C161.767 32.31 161.515 34.17 161.011 35.718C160.507 37.266 159.823 38.538 158.959 39.534C158.095 40.518 157.111 41.25 156.007 41.73C154.915 42.198 153.781 42.432 152.605 42.432C151.441 42.432 150.313 42.198 149.221 41.73C148.129 41.25 147.145 40.518 146.269 39.534C145.393 38.538 144.697 37.266 144.181 35.718C143.677 34.17 143.425 32.31 143.425 30.138ZM147.259 30.138C147.259 32.13 147.493 33.792 147.961 35.124C148.441 36.444 149.083 37.428 149.887 38.076C150.703 38.712 151.609 39.03 152.605 39.03C153.625 39.03 154.531 38.706 155.323 38.058C156.127 37.41 156.763 36.426 157.231 35.106C157.699 33.786 157.933 32.13 157.933 30.138C157.933 28.182 157.699 26.544 157.231 25.224C156.763 23.904 156.127 22.908 155.323 22.236C154.531 21.552 153.625 21.21 152.605 21.21C151.609 21.21 150.703 21.552 149.887 22.236C149.083 22.908 148.441 23.91 147.961 25.242C147.493 26.562 147.259 28.194 147.259 30.138ZM168.156 22.992L164.142 25.224V21.57L169.956 18.24H171.954V42H168.156V22.992ZM176.688 18.24H192.564V20.886L180.558 42H176.346L188.118 21.606H176.688V18.24Z" fill="#4E37A2"/>
<path d="M23.248 91.184V85.584H16.736V84.192H23.248V78.816H17.44V77.44H30.512V78.816H24.784V84.192H31.216L31.232 85.584H24.784V91.184H23.248ZM27.232 83.632C27.136 83.568 26.9973 83.488 26.816 83.392C26.6453 83.2853 26.4747 83.1893 26.304 83.104C26.1333 83.0187 26.0053 82.96 25.92 82.928C26.144 82.64 26.3947 82.2827 26.672 81.856C26.96 81.4187 27.232 80.976 27.488 80.528C27.744 80.08 27.9413 79.696 28.08 79.376L29.472 80.016C29.3547 80.2613 29.2 80.5493 29.008 80.88C28.816 81.2107 28.608 81.552 28.384 81.904C28.1707 82.256 27.9627 82.5867 27.76 82.896C27.5573 83.1947 27.3813 83.44 27.232 83.632ZM20.752 83.648C20.656 83.4133 20.5227 83.136 20.352 82.816C20.192 82.496 20.0107 82.16 19.808 81.808C19.616 81.456 19.424 81.1307 19.232 80.832C19.04 80.5227 18.864 80.2667 18.704 80.064L20 79.376C20.1493 79.5787 20.32 79.8347 20.512 80.144C20.7147 80.4533 20.9173 80.784 21.12 81.136C21.3227 81.4773 21.5093 81.808 21.68 82.128C21.8613 82.448 22 82.7147 22.096 82.928C21.9893 82.9707 21.8507 83.04 21.68 83.136C21.5093 83.2213 21.3387 83.312 21.168 83.408C20.9973 83.504 20.8587 83.584 20.752 83.648ZM38.672 90.944C38.5973 90.7947 38.4693 90.5973 38.288 90.352C38.1173 90.1067 37.968 89.9253 37.84 89.808C38.5973 89.456 39.296 89.0347 39.936 88.544C40.5867 88.0427 41.1733 87.4933 41.696 86.896C41.3547 86.1387 41.0507 85.264 40.784 84.272C40.528 83.2693 40.3307 82.1173 40.192 80.816H35.504V82.64H39.264C39.264 83.4827 39.2373 84.3147 39.184 85.136C39.1413 85.9467 39.0613 86.6347 38.944 87.2C38.8053 87.9147 38.5547 88.4053 38.192 88.672C37.84 88.9387 37.3173 89.072 36.624 89.072H35.696C35.6747 88.88 35.632 88.6347 35.568 88.336C35.504 88.0373 35.44 87.808 35.376 87.648H36.4C36.8373 87.648 37.12 87.584 37.248 87.456C37.376 87.3173 37.4773 87.0667 37.552 86.704C37.6267 86.3733 37.68 85.9573 37.712 85.456C37.7547 84.9547 37.776 84.4533 37.776 83.952H35.472C35.4293 85.104 35.328 86.1013 35.168 86.944C35.0187 87.776 34.8053 88.5067 34.528 89.136C34.2613 89.7547 33.9253 90.32 33.52 90.832C33.4347 90.768 33.296 90.688 33.104 90.592C32.9227 90.496 32.7467 90.4053 32.576 90.32C32.4053 90.2347 32.288 90.1813 32.224 90.16C32.6507 89.6267 32.992 89.0187 33.248 88.336C33.504 87.6427 33.6907 86.8213 33.808 85.872C33.9253 84.9227 33.984 83.7813 33.984 82.448V79.44H40.064C40.0427 79.0027 40.0213 78.5493 40 78.08C39.9893 77.6 39.984 77.1093 39.984 76.608H41.44C41.44 77.6107 41.472 78.5547 41.536 79.44H44.56C44.272 79.12 43.952 78.8053 43.6 78.496C43.248 78.176 42.928 77.92 42.64 77.728L43.536 76.768C43.7813 76.928 44.0533 77.1307 44.352 77.376C44.6507 77.6213 44.9333 77.872 45.2 78.128C45.4773 78.3733 45.6907 78.5867 45.84 78.768C45.7653 78.8213 45.6533 78.9173 45.504 79.056C45.3547 79.184 45.216 79.312 45.088 79.44H46.768V80.816H41.664C41.7707 81.7653 41.9147 82.6293 42.096 83.408C42.288 84.1867 42.5013 84.8907 42.736 85.52C43.088 84.976 43.3973 84.4053 43.664 83.808C43.9307 83.2107 44.1493 82.5973 44.32 81.968L45.712 82.432C45.1787 84.1387 44.4213 85.6533 43.44 86.976C43.76 87.52 44.1067 87.984 44.48 88.368C44.8533 88.7413 45.2373 89.0507 45.632 89.296C45.76 88.9547 45.8773 88.576 45.984 88.16C46.1013 87.7333 46.1813 87.3707 46.224 87.072C46.2987 87.1253 46.4213 87.1947 46.592 87.28C46.7627 87.3547 46.9387 87.4293 47.12 87.504C47.312 87.568 47.456 87.616 47.552 87.648C47.488 87.968 47.4027 88.3093 47.296 88.672C47.2 89.0347 47.0933 89.3813 46.976 89.712C46.8693 90.0427 46.7573 90.32 46.64 90.544C46.5013 90.8 46.3093 90.96 46.064 91.024C45.8293 91.088 45.568 91.04 45.28 90.88C44.7893 90.624 44.2987 90.2827 43.808 89.856C43.3173 89.4187 42.8533 88.8693 42.416 88.208C41.328 89.36 40.08 90.272 38.672 90.944Z" fill="black"/>
<path d="M58.688 72.424C57.8667 72.424 57.1413 72.6 56.512 72.952C55.8933 73.2933 55.376 73.6987 54.96 74.168C54.544 74.6373 54.224 75.064 54 75.448C53.7867 75.832 53.6693 76.0453 53.648 76.088L50.72 74.776C50.7413 74.68 50.8427 74.44 51.024 74.056C51.2053 73.6613 51.488 73.2133 51.872 72.712C52.256 72.2 52.752 71.6987 53.36 71.208C53.9787 70.7173 54.7253 70.312 55.6 69.992C56.4853 69.6613 57.5147 69.496 58.688 69.496C59.9573 69.496 61.0347 69.672 61.92 70.024C62.8053 70.376 63.5253 70.8613 64.08 71.48C64.6347 72.088 65.04 72.7867 65.296 73.576C65.552 74.3653 65.68 75.1973 65.68 76.072C65.68 76.968 65.472 77.8747 65.056 78.792C64.6507 79.7093 64.1227 80.6 63.472 81.464C62.8213 82.3173 62.1227 83.1173 61.376 83.864C60.6293 84.6107 59.904 85.2773 59.2 85.864C58.5067 86.4507 57.9093 86.9307 57.408 87.304C56.9173 87.6773 56.608 87.912 56.48 88.008H65.504V91H51.296V88.28C51.5733 88.056 52.0267 87.6987 52.656 87.208C53.296 86.7173 54.032 86.136 54.864 85.464C55.696 84.7813 56.5387 84.04 57.392 83.24C58.256 82.44 59.056 81.6187 59.792 80.776C60.5387 79.9333 61.136 79.1067 61.584 78.296C62.0427 77.4853 62.272 76.728 62.272 76.024C62.272 74.7013 61.9627 73.7733 61.344 73.24C60.7253 72.696 59.84 72.424 58.688 72.424ZM71.5283 91L78.3443 82.824C78.1416 83.0373 77.7949 83.2453 77.3043 83.448C76.8136 83.64 76.2003 83.736 75.4643 83.736C74.3123 83.736 73.2189 83.448 72.1843 82.872C71.1603 82.2853 70.3283 81.464 69.6883 80.408C69.0589 79.352 68.7443 78.1253 68.7443 76.728C68.7443 75.3307 69.0856 74.088 69.7682 73C70.4509 71.912 71.3629 71.0587 72.5043 70.44C73.6456 69.8107 74.9096 69.496 76.2963 69.496C77.7043 69.496 78.9736 69.8 80.1043 70.408C81.2456 71.016 82.1523 71.88 82.8243 73C83.4963 74.12 83.8323 75.4373 83.8323 76.952C83.8323 78.5627 83.5603 79.928 83.0163 81.048C82.4723 82.1573 81.8376 83.16 81.1123 84.056L75.5123 91H71.5283ZM76.2643 80.968C77.0643 80.968 77.7896 80.776 78.4403 80.392C79.1016 80.008 79.6296 79.4853 80.0243 78.824C80.4189 78.1627 80.6163 77.4373 80.6163 76.648C80.6163 75.848 80.4189 75.1227 80.0243 74.472C79.6296 73.8107 79.1016 73.288 78.4403 72.904C77.7896 72.5093 77.0643 72.312 76.2643 72.312C75.4749 72.312 74.7496 72.5093 74.0883 72.904C73.4376 73.288 72.9149 73.8107 72.5203 74.472C72.1363 75.1227 71.9443 75.848 71.9443 76.648C71.9443 77.4373 72.1363 78.1627 72.5203 78.824C72.9149 79.4853 73.4376 80.008 74.0883 80.392C74.7496 80.776 75.4749 80.968 76.2643 80.968Z" fill="#4E37A2"/>
<path d="M96.128 91.168V87.504H88.72V86.192H91.616V82.272H96.128V80.016H92.544C92.1493 80.6347 91.7173 81.2267 91.248 81.792C90.7787 82.3467 90.2773 82.8427 89.744 83.28C89.616 83.1627 89.44 83.008 89.216 82.816C88.992 82.624 88.7787 82.4747 88.576 82.368C89.216 81.8773 89.808 81.296 90.352 80.624C90.9067 79.952 91.3867 79.2533 91.792 78.528C92.1973 77.8027 92.5013 77.1147 92.704 76.464L94.096 76.896C93.9893 77.1947 93.8667 77.4933 93.728 77.792C93.6 78.0907 93.4613 78.3893 93.312 78.688H102.544V80.016H97.648V82.272H101.504V83.568H97.648V86.192H103.232V87.504H97.648V91.168H96.128ZM93.12 86.192H96.128V83.568H93.12V86.192Z" fill="black"/>
<path d="M110.208 74.104L106.64 76.088V72.84L111.808 69.88H113.584V91H110.208V74.104Z" fill="#4E37A2"/>
<path d="M120.192 91.216C120.075 91.0667 119.899 90.8907 119.664 90.688C119.44 90.4853 119.232 90.336 119.04 90.24C119.989 89.5787 120.699 88.752 121.168 87.76C121.637 86.768 121.872 85.5147 121.872 84V77.184H130.56V89.536C130.56 90.5707 129.952 91.088 128.736 91.088H127.44C127.419 90.8747 127.371 90.608 127.296 90.288C127.232 89.9787 127.163 89.7387 127.088 89.568H128.4C128.635 89.568 128.8 89.5307 128.896 89.456C128.992 89.3707 129.04 89.216 129.04 88.992V85.728H123.264C123.115 86.976 122.784 88.0373 122.272 88.912C121.771 89.7867 121.077 90.5547 120.192 91.216ZM123.36 84.368H129.04V82.144H123.376V83.984C123.376 84.048 123.371 84.112 123.36 84.176C123.36 84.24 123.36 84.304 123.36 84.368ZM123.376 80.768H129.04V78.576H123.376V80.768Z" fill="black"/>
<path d="M26.26 118.974V117.534H22.138V116.292H26.26V115.05H22.858V113.844H26.26V112.584H23.002V111.378H26.26V110.082H21.832V108.876H26.26V107.58H23.038V106.374H26.26V104.916H27.862V106.374H31.606V108.876H33.064V110.082H31.606V112.584H27.862V113.844H31.84V115.05H27.862V116.292H32.578V117.534H27.862V118.974H26.26ZM17.782 121.404C17.71 121.32 17.602 121.212 17.458 121.08C17.314 120.948 17.164 120.816 17.008 120.684C16.852 120.552 16.72 120.456 16.612 120.396C17.656 119.664 18.508 118.746 19.168 117.642C18.796 117.162 18.466 116.628 18.178 116.04C17.89 115.452 17.626 114.804 17.386 114.096L18.682 113.664C19.006 114.624 19.396 115.464 19.852 116.184C20.056 115.632 20.218 115.05 20.338 114.438C20.47 113.826 20.542 113.178 20.554 112.494H17.692V111.432C17.836 111.228 18.004 110.958 18.196 110.622C18.388 110.274 18.586 109.908 18.79 109.524C19.006 109.14 19.204 108.768 19.384 108.408C19.564 108.036 19.708 107.724 19.816 107.472H17.116V105.996H21.472L21.976 106.446C21.844 106.77 21.676 107.148 21.472 107.58C21.268 108.012 21.052 108.456 20.824 108.912C20.608 109.368 20.398 109.788 20.194 110.172C19.99 110.544 19.822 110.838 19.69 111.054H22.084C22.084 112.41 21.988 113.61 21.796 114.654C21.604 115.698 21.316 116.64 20.932 117.48C21.652 118.152 22.516 118.644 23.524 118.956C24.532 119.256 25.726 119.406 27.106 119.406C28.558 119.406 29.782 119.394 30.778 119.37C31.774 119.346 32.56 119.292 33.136 119.208C33.1 119.292 33.052 119.442 32.992 119.658C32.944 119.862 32.902 120.072 32.866 120.288C32.83 120.504 32.806 120.672 32.794 120.792C32.422 120.792 31.912 120.792 31.264 120.792C30.616 120.804 29.92 120.81 29.176 120.81C28.444 120.822 27.754 120.828 27.106 120.828C25.618 120.828 24.304 120.66 23.164 120.324C22.036 120 21.052 119.478 20.212 118.758C19.9 119.25 19.54 119.712 19.132 120.144C18.724 120.576 18.274 120.996 17.782 121.404ZM27.862 111.378H30.022V110.082H27.862V111.378ZM27.862 108.876H30.022V107.58H27.862V108.876ZM41.866 121.26C41.806 121.092 41.692 120.864 41.524 120.576C41.368 120.288 41.224 120.084 41.092 119.964C41.872 119.736 42.598 119.43 43.27 119.046C43.954 118.662 44.578 118.23 45.142 117.75C44.674 117.198 44.272 116.61 43.936 115.986C43.6 115.362 43.33 114.72 43.126 114.06H41.722V112.656H49.426L50.038 113.25C49.414 114.954 48.526 116.454 47.374 117.75C47.95 118.218 48.58 118.626 49.264 118.974C49.96 119.31 50.68 119.562 51.424 119.73C51.34 119.826 51.232 119.964 51.1 120.144C50.98 120.336 50.866 120.522 50.758 120.702C50.662 120.894 50.596 121.044 50.56 121.152C49.708 120.912 48.922 120.594 48.202 120.198C47.482 119.814 46.828 119.364 46.24 118.848C45.616 119.388 44.938 119.862 44.206 120.27C43.474 120.678 42.694 121.008 41.866 121.26ZM42.478 112.35C42.334 112.17 42.148 111.984 41.92 111.792C41.704 111.588 41.494 111.432 41.29 111.324C41.734 110.976 42.082 110.64 42.334 110.316C42.598 109.992 42.79 109.614 42.91 109.182C43.03 108.75 43.09 108.198 43.09 107.526V105.528H48.292V109.722C48.292 109.866 48.322 109.968 48.382 110.028C48.454 110.088 48.592 110.118 48.796 110.118H49.318C49.498 110.118 49.642 110.082 49.75 110.01C49.87 109.926 49.966 109.764 50.038 109.524C50.11 109.284 50.158 108.924 50.182 108.444C50.35 108.528 50.572 108.612 50.848 108.696C51.136 108.768 51.388 108.828 51.604 108.876C51.544 109.644 51.436 110.226 51.28 110.622C51.124 111.018 50.896 111.288 50.596 111.432C50.308 111.576 49.936 111.648 49.48 111.648H48.382C47.758 111.648 47.326 111.564 47.086 111.396C46.846 111.228 46.726 110.934 46.726 110.514V106.932H44.656V107.634C44.656 108.678 44.488 109.572 44.152 110.316C43.828 111.048 43.27 111.726 42.478 112.35ZM35.71 120.81V115.752H40.912V120.81H35.71ZM34.846 109.578V108.264H41.524V109.578H34.846ZM35.728 107.094V105.744H40.786V107.094H35.728ZM35.71 112.08V110.748H40.786V112.08H35.71ZM35.71 114.564V113.25H40.786V114.564H35.71ZM37.15 119.496H39.472V117.084H37.15V119.496ZM46.258 116.67C47.002 115.818 47.554 114.948 47.914 114.06H44.674C44.842 114.528 45.058 114.984 45.322 115.428C45.598 115.86 45.91 116.274 46.258 116.67ZM60.226 121.422V117.516C59.686 118.02 59.062 118.506 58.354 118.974C57.646 119.43 56.908 119.844 56.14 120.216C55.384 120.588 54.64 120.894 53.908 121.134C53.872 121.038 53.8 120.906 53.692 120.738C53.584 120.57 53.47 120.396 53.35 120.216C53.23 120.048 53.128 119.922 53.044 119.838C53.716 119.646 54.424 119.382 55.168 119.046C55.912 118.698 56.632 118.314 57.328 117.894C58.036 117.462 58.648 117.042 59.164 116.634H53.098V115.338H60.226V114.222H54.862V112.98H60.226V111.918H54.106V110.64H57.688C57.58 110.4 57.466 110.154 57.346 109.902C57.226 109.65 57.106 109.428 56.986 109.236H53.08V107.94H56.104C55.948 107.628 55.762 107.25 55.546 106.806C55.33 106.362 55.12 106.008 54.916 105.744L56.32 105.078C56.464 105.306 56.62 105.576 56.788 105.888C56.956 106.2 57.112 106.506 57.256 106.806C57.412 107.094 57.526 107.328 57.598 107.508L56.59 107.94H58.624V104.988H60.154V107.94H61.774V104.988H63.304V107.94H65.374L64.186 107.472C64.342 107.268 64.51 107.022 64.69 106.734C64.87 106.446 65.038 106.158 65.194 105.87C65.35 105.57 65.47 105.312 65.554 105.096L67.084 105.582C66.964 105.81 66.814 106.074 66.634 106.374C66.454 106.662 66.274 106.95 66.094 107.238C65.914 107.514 65.752 107.748 65.608 107.94H68.902V109.236H64.978C64.894 109.464 64.792 109.704 64.672 109.956C64.552 110.196 64.438 110.424 64.33 110.64H67.768V111.918H61.774V112.98H67.084V114.222H61.774V115.338H68.902V116.634H62.8C63.328 117.042 63.934 117.456 64.618 117.876C65.314 118.284 66.034 118.662 66.778 119.01C67.522 119.358 68.224 119.628 68.884 119.82C68.8 119.904 68.698 120.03 68.578 120.198C68.47 120.378 68.368 120.552 68.272 120.72C68.176 120.9 68.104 121.038 68.056 121.134C67.336 120.894 66.592 120.588 65.824 120.216C65.068 119.844 64.342 119.43 63.646 118.974C62.95 118.506 62.326 118.026 61.774 117.534V121.422H60.226ZM59.416 110.64H62.584C62.692 110.436 62.806 110.208 62.926 109.956C63.046 109.704 63.154 109.464 63.25 109.236H58.786C58.906 109.476 59.02 109.722 59.128 109.974C59.248 110.226 59.344 110.448 59.416 110.64ZM81.574 121.17V114.528H77.47V113.034H81.574V109.092H80.134C79.87 109.656 79.588 110.19 79.288 110.694C78.988 111.198 78.67 111.66 78.334 112.08C78.238 111.984 78.1 111.882 77.92 111.774C77.74 111.654 77.554 111.54 77.362 111.432C77.182 111.324 77.032 111.246 76.912 111.198C77.356 110.694 77.776 110.088 78.172 109.38C78.568 108.66 78.916 107.916 79.216 107.148C79.516 106.368 79.726 105.648 79.846 104.988L81.484 105.312C81.388 105.696 81.274 106.086 81.142 106.482C81.022 106.878 80.89 107.274 80.746 107.67H86.56V109.092H83.212V113.034H87.172V114.528H83.212V121.17H81.574ZM71.656 120.774V115.734H76.858V120.774H71.656ZM70.882 109.542V108.228H77.452V109.542H70.882ZM71.746 107.058V105.708H76.642V107.058H71.746ZM71.746 114.546V113.214H76.642V114.546H71.746ZM71.746 112.044V110.73H76.642V112.044H71.746ZM73.078 119.46H75.418V117.048H73.078V119.46ZM98.332 121.008C98.308 120.768 98.254 120.468 98.17 120.108C98.098 119.76 98.02 119.49 97.936 119.298H100.114C100.366 119.298 100.546 119.256 100.654 119.172C100.774 119.088 100.834 118.92 100.834 118.668V107.958H88.702V106.428H105.208V107.958H102.562V119.262C102.562 119.862 102.394 120.3 102.058 120.576C101.722 120.864 101.206 121.008 100.51 121.008H98.332ZM91.294 116.688V110.064H97.738V116.688H91.294ZM92.95 115.158H96.1V111.576H92.95V115.158ZM117.687 121.35V117.498C117.327 117.63 116.901 117.78 116.409 117.948C115.917 118.104 115.407 118.266 114.879 118.434C114.351 118.59 113.847 118.74 113.367 118.884C112.887 119.028 112.485 119.142 112.161 119.226L111.657 117.696C111.837 117.66 112.077 117.606 112.377 117.534C112.689 117.45 113.031 117.366 113.403 117.282V107.112H111.963V105.654H120.639V106.968H127.281C127.101 110.34 126.291 113.25 124.851 115.698C125.895 117.114 127.149 118.278 128.613 119.19C128.505 119.286 128.373 119.418 128.217 119.586C128.073 119.754 127.929 119.922 127.785 120.09C127.641 120.27 127.533 120.42 127.461 120.54C126.093 119.556 124.911 118.404 123.915 117.084C122.931 118.416 121.737 119.574 120.333 120.558C120.285 120.486 120.201 120.372 120.081 120.216C119.961 120.072 119.829 119.922 119.685 119.766C119.553 119.598 119.433 119.472 119.325 119.388V121.35H117.687ZM119.325 119.316C120.081 118.836 120.765 118.296 121.377 117.696C121.989 117.084 122.535 116.43 123.015 115.734C122.463 114.822 121.995 113.838 121.611 112.782C121.239 111.714 120.969 110.568 120.801 109.344L122.277 109.092C122.397 110.016 122.595 110.91 122.871 111.774C123.159 112.626 123.507 113.442 123.915 114.222C124.395 113.31 124.767 112.368 125.031 111.396C125.307 110.412 125.481 109.434 125.553 108.462H120.333V107.112H119.325V119.316ZM115.041 116.85C115.557 116.718 116.049 116.586 116.517 116.454C116.997 116.31 117.387 116.196 117.687 116.112V114.24H115.041V116.85ZM115.041 112.836H117.687V110.676H115.041V112.836ZM115.041 109.272H117.687V107.112H115.041V109.272ZM136.533 111.594V105.636H145.047V111.594H136.533ZM140.151 121.368C140.127 121.14 140.085 120.864 140.025 120.54C139.977 120.228 139.911 119.976 139.827 119.784H141.339C141.591 119.784 141.759 119.754 141.843 119.694C141.939 119.622 141.987 119.466 141.987 119.226V116.4H135.237V115.068H141.987V113.898H135.561V112.584H146.037V113.898H143.643V115.068H146.379V116.4H143.643V119.658C143.643 120.246 143.481 120.678 143.157 120.954C142.845 121.23 142.353 121.368 141.681 121.368H140.151ZM132.447 121.368V113.88C132.147 114.18 131.841 114.462 131.529 114.726C131.229 114.99 130.929 115.236 130.629 115.464C130.569 115.368 130.467 115.242 130.323 115.086C130.179 114.93 130.023 114.774 129.855 114.618C129.699 114.462 129.567 114.354 129.459 114.294C129.843 114.03 130.263 113.688 130.719 113.268C131.187 112.848 131.643 112.386 132.087 111.882C132.543 111.378 132.963 110.868 133.347 110.352C133.731 109.824 134.031 109.338 134.247 108.894L135.651 109.65C135.423 110.07 135.171 110.49 134.895 110.91C134.619 111.318 134.325 111.72 134.013 112.116V121.368H132.447ZM130.989 109.938C130.893 109.794 130.731 109.59 130.503 109.326C130.287 109.062 130.089 108.858 129.909 108.714C130.449 108.414 130.989 108.066 131.529 107.67C132.069 107.262 132.573 106.83 133.041 106.374C133.509 105.918 133.887 105.48 134.175 105.06L135.471 105.996C135.087 106.512 134.631 107.022 134.103 107.526C133.587 108.018 133.053 108.474 132.501 108.894C131.961 109.314 131.457 109.662 130.989 109.938ZM138.207 110.388H143.373V109.218H138.207V110.388ZM138.207 108.012H143.373V106.842H138.207V108.012ZM138.747 119.838C138.567 119.598 138.339 119.334 138.063 119.046C137.799 118.758 137.523 118.482 137.235 118.218C136.959 117.954 136.701 117.744 136.461 117.588L137.487 116.634C137.739 116.814 138.015 117.03 138.315 117.282C138.615 117.534 138.903 117.798 139.179 118.074C139.455 118.338 139.689 118.59 139.881 118.83C139.725 118.95 139.527 119.106 139.287 119.298C139.059 119.49 138.879 119.67 138.747 119.838ZM19.172 142.041C18.5133 141.096 18.002 140.095 17.638 139.038C17.2827 137.981 17.105 136.902 17.105 135.801C17.105 134.674 17.287 133.574 17.651 132.499C18.015 131.416 18.5177 130.441 19.159 129.574L20.082 130.081C19.4927 130.896 19.0247 131.788 18.678 132.759C18.34 133.721 18.171 134.735 18.171 135.801C18.171 136.85 18.34 137.846 18.678 138.791C19.016 139.727 19.4883 140.646 20.095 141.547L19.172 142.041ZM30.8636 139.935C30.0836 140.074 29.3252 140.169 28.5886 140.221C27.8519 140.273 27.1629 140.269 26.5216 140.208C25.8802 140.147 25.3169 140.022 24.8316 139.831C24.3462 139.632 23.9649 139.354 23.6876 138.999C23.4189 138.644 23.2846 138.193 23.2846 137.647C23.2846 136.954 23.5532 136.351 24.0906 135.84C24.6366 135.329 25.3559 134.887 26.2486 134.514C26.0146 133.994 25.8456 133.318 25.7416 132.486C25.6376 131.645 25.6029 130.675 25.6376 129.574H26.9376C26.8856 130.085 26.8639 130.627 26.8726 131.199C26.8899 131.762 26.9376 132.3 27.0156 132.811C27.0936 133.314 27.1976 133.743 27.3276 134.098C27.7609 133.951 28.2116 133.812 28.6796 133.682C29.1562 133.543 29.6416 133.413 30.1356 133.292L30.4086 134.54C29.6286 134.644 28.8832 134.8 28.1726 135.008C27.4619 135.207 26.8336 135.446 26.2876 135.723C25.7416 135.992 25.3082 136.286 24.9876 136.607C24.6756 136.928 24.5196 137.253 24.5196 137.582C24.5196 137.989 24.6929 138.314 25.0396 138.557C25.3949 138.791 25.8759 138.947 26.4826 139.025C27.0979 139.103 27.7956 139.107 28.5756 139.038C29.3642 138.969 30.1919 138.83 31.0586 138.622C30.9979 138.787 30.9502 139.003 30.9156 139.272C30.8809 139.532 30.8636 139.753 30.8636 139.935ZM39.1316 140.286C38.1176 140.286 37.3246 140.009 36.7526 139.454C36.1892 138.891 35.9076 138.089 35.9076 137.049C35.9076 136.468 35.9942 135.892 36.1676 135.32C36.3409 134.739 36.5706 134.176 36.8566 133.63C37.1426 133.075 37.4546 132.551 37.7926 132.057C37.3419 132.256 36.8826 132.417 36.4146 132.538C35.9466 132.659 35.5436 132.742 35.2056 132.785L34.9196 131.693C35.2316 131.676 35.5782 131.628 35.9596 131.55C36.3496 131.463 36.7352 131.355 37.1166 131.225C37.5066 131.086 37.8532 130.935 38.1566 130.77C38.4686 130.605 38.6982 130.428 38.8456 130.237L39.8076 131.017C39.3136 131.58 38.8586 132.196 38.4426 132.863C38.0352 133.53 37.7059 134.215 37.4546 134.917C37.2032 135.619 37.0776 136.308 37.0776 136.984C37.0776 137.669 37.2596 138.184 37.6236 138.531C37.9962 138.878 38.4989 139.051 39.1316 139.051C39.6949 139.051 40.1802 138.899 40.5876 138.596C40.9949 138.284 41.3199 137.855 41.5626 137.309C41.8052 136.763 41.9656 136.126 42.0436 135.398C42.1216 134.67 42.1086 133.886 42.0046 133.045C41.9092 132.196 41.7229 131.32 41.4456 130.419L42.6156 130.042C42.7282 130.553 42.9016 131.034 43.1356 131.485C43.3782 131.927 43.6556 132.334 43.9676 132.707C44.2796 133.071 44.5959 133.392 44.9166 133.669C45.2459 133.938 45.5536 134.159 45.8396 134.332C45.7269 134.445 45.6012 134.614 45.4626 134.839C45.3239 135.056 45.2286 135.238 45.1766 135.385C44.8559 135.186 44.5049 134.895 44.1236 134.514C43.7509 134.133 43.3869 133.678 43.0316 133.149C43.1529 134.146 43.1616 135.077 43.0576 135.944C42.9622 136.802 42.7542 137.556 42.4336 138.206C42.1129 138.856 41.6752 139.367 41.1206 139.74C40.5746 140.104 39.9116 140.286 39.1316 140.286ZM44.9816 131.953C44.8689 131.78 44.7216 131.593 44.5396 131.394C44.3576 131.186 44.1669 130.991 43.9676 130.809C43.7769 130.618 43.6036 130.467 43.4476 130.354L44.0066 129.86C44.1452 129.964 44.3142 130.116 44.5136 130.315C44.7216 130.514 44.9252 130.718 45.1246 130.926C45.3239 131.134 45.4756 131.312 45.5796 131.459L44.9816 131.953ZM46.0476 130.952C45.9262 130.779 45.7702 130.592 45.5796 130.393C45.3976 130.194 45.2069 130.007 45.0076 129.834C44.8169 129.652 44.6392 129.505 44.4746 129.392L45.0336 128.885C45.1722 128.989 45.3456 129.141 45.5536 129.34C45.7616 129.531 45.9652 129.73 46.1646 129.938C46.3726 130.137 46.5286 130.306 46.6326 130.445L46.0476 130.952ZM53.1846 136.321C52.8379 136.321 52.5389 136.2 52.2876 135.957C52.0449 135.706 51.9236 135.407 51.9236 135.06C51.9236 134.705 52.0449 134.406 52.2876 134.163C52.5389 133.92 52.8379 133.799 53.1846 133.799C53.5399 133.799 53.8389 133.92 54.0816 134.163C54.3242 134.406 54.4456 134.705 54.4456 135.06C54.4456 135.407 54.3242 135.706 54.0816 135.957C53.8389 136.2 53.5399 136.321 53.1846 136.321ZM60.2826 140.325V139.194H65.5606V134.306H61.1796V133.175H65.5606V129.379H66.8216V133.175H71.2416V134.306H66.8216V139.194H72.1256V140.325H60.2826ZM73.4126 139.818V138.661H78.5476V131.823H74.1536V130.666H84.2156V131.823H79.8346V138.661H84.9696V139.818H73.4126ZM88.9476 140.689C88.7916 140.42 88.5749 140.13 88.2976 139.818C88.0202 139.497 87.7299 139.19 87.4266 138.895C87.1232 138.592 86.8459 138.349 86.5946 138.167L87.3746 137.452C87.6346 137.643 87.9249 137.885 88.2456 138.18C88.5749 138.475 88.8869 138.774 89.1816 139.077C89.4762 139.38 89.7059 139.645 89.8706 139.87L88.9476 140.689ZM99.2826 140.325V139.194H104.561V134.306H100.18V133.175H104.561V129.379H105.822V133.175H110.242V134.306H105.822V139.194H111.126V140.325H99.2826ZM117.6 140.91V134.267C117.227 134.917 116.789 135.558 116.287 136.191C115.784 136.815 115.251 137.4 114.688 137.946C114.133 138.492 113.574 138.973 113.011 139.389C112.959 139.311 112.876 139.216 112.764 139.103C112.651 138.982 112.534 138.869 112.413 138.765C112.291 138.652 112.187 138.57 112.101 138.518C112.56 138.232 113.024 137.885 113.492 137.478C113.96 137.071 114.415 136.624 114.857 136.139C115.307 135.654 115.723 135.155 116.105 134.644C116.486 134.133 116.811 133.634 117.08 133.149H112.608V132.044H117.6V129.171H118.783V132.044H123.762V133.149H119.277C119.641 133.764 120.087 134.397 120.616 135.047C121.144 135.688 121.725 136.308 122.358 136.906C122.999 137.504 123.653 138.033 124.321 138.492C124.234 138.544 124.126 138.631 123.996 138.752C123.874 138.865 123.757 138.986 123.645 139.116C123.532 139.237 123.45 139.337 123.398 139.415C122.808 138.964 122.228 138.462 121.656 137.907C121.092 137.344 120.564 136.754 120.07 136.139C119.584 135.515 119.155 134.891 118.783 134.267V140.91H117.6ZM127.948 140.689C127.792 140.42 127.575 140.13 127.298 139.818C127.02 139.497 126.73 139.19 126.427 138.895C126.123 138.592 125.846 138.349 125.595 138.167L126.375 137.452C126.635 137.643 126.925 137.885 127.246 138.18C127.575 138.475 127.887 138.774 128.182 139.077C128.476 139.38 128.706 139.645 128.871 139.87L127.948 140.689ZM139.921 140.871V135.359C139.739 135.784 139.544 136.191 139.336 136.581C139.136 136.971 138.933 137.318 138.725 137.621C138.621 137.534 138.473 137.439 138.283 137.335C138.092 137.222 137.945 137.144 137.841 137.101C138.049 136.85 138.257 136.551 138.465 136.204C138.681 135.849 138.881 135.472 139.063 135.073C139.253 134.674 139.418 134.289 139.557 133.916C139.704 133.535 139.812 133.192 139.882 132.889H138.309V131.94H139.921V129.275H140.909V131.94H142.105V132.889H140.909V133.877C141.056 134.128 141.251 134.423 141.494 134.761C141.736 135.099 141.979 135.402 142.222 135.671V135.255H145.576C145.558 135.16 145.541 135.064 145.524 134.969C145.506 134.865 145.489 134.761 145.472 134.657C145.368 134.683 145.233 134.726 145.069 134.787C144.904 134.839 144.774 134.887 144.679 134.93C144.661 134.861 144.635 134.783 144.601 134.696C144.575 134.609 144.544 134.518 144.51 134.423C144.336 134.458 144.124 134.497 143.873 134.54C143.63 134.575 143.379 134.614 143.119 134.657C142.859 134.692 142.62 134.722 142.404 134.748C142.187 134.774 142.018 134.791 141.897 134.8L141.663 133.864H142.027C142.139 133.743 142.278 133.574 142.443 133.357C142.616 133.132 142.794 132.889 142.976 132.629C142.828 132.482 142.642 132.313 142.417 132.122C142.2 131.931 141.988 131.749 141.78 131.576C141.572 131.403 141.407 131.273 141.286 131.186L141.858 130.523C141.927 130.575 142.005 130.636 142.092 130.705C142.178 130.774 142.265 130.848 142.352 130.926C142.516 130.701 142.694 130.432 142.885 130.12C143.084 129.799 143.227 129.526 143.314 129.301L144.133 129.665C144.055 129.821 143.946 130.007 143.808 130.224C143.678 130.432 143.535 130.644 143.379 130.861C143.231 131.069 143.093 131.255 142.963 131.42C143.058 131.507 143.149 131.589 143.236 131.667C143.331 131.736 143.413 131.806 143.483 131.875C143.639 131.632 143.777 131.407 143.899 131.199C144.029 130.991 144.124 130.818 144.185 130.679L144.978 131.108C144.865 131.325 144.7 131.593 144.484 131.914C144.267 132.235 144.037 132.564 143.795 132.902C143.552 133.231 143.318 133.526 143.093 133.786C143.292 133.769 143.487 133.751 143.678 133.734C143.868 133.717 144.042 133.699 144.198 133.682C144.146 133.561 144.094 133.452 144.042 133.357C143.998 133.262 143.955 133.179 143.912 133.11L144.692 132.772C144.83 132.997 144.969 133.283 145.108 133.63C145.246 133.977 145.359 134.271 145.446 134.514C145.324 133.751 145.238 132.924 145.186 132.031C145.134 131.138 145.125 130.181 145.16 129.158L146.161 129.21C146.152 129.496 146.143 129.778 146.135 130.055C146.135 130.332 146.139 130.605 146.148 130.874L146.408 130.523C146.477 130.558 146.546 130.601 146.616 130.653C146.685 130.705 146.759 130.757 146.837 130.809C146.993 130.584 147.157 130.319 147.331 130.016C147.513 129.713 147.651 129.448 147.747 129.223L148.553 129.574C148.44 129.791 148.28 130.064 148.072 130.393C147.872 130.714 147.682 131 147.5 131.251C147.595 131.312 147.686 131.377 147.773 131.446C147.859 131.507 147.942 131.567 148.02 131.628C148.21 131.342 148.384 131.069 148.54 130.809C148.696 130.549 148.804 130.341 148.865 130.185L149.632 130.614C149.528 130.831 149.367 131.099 149.151 131.42C148.943 131.741 148.717 132.07 148.475 132.408C148.232 132.737 147.998 133.036 147.773 133.305C147.972 133.288 148.171 133.266 148.371 133.24C148.57 133.214 148.752 133.188 148.917 133.162C148.813 132.954 148.709 132.776 148.605 132.629L149.346 132.33C149.458 132.469 149.575 132.655 149.697 132.889C149.818 133.114 149.931 133.344 150.035 133.578C150.147 133.803 150.23 133.994 150.282 134.15C150.195 134.167 150.065 134.215 149.892 134.293C149.718 134.371 149.584 134.432 149.489 134.475C149.463 134.397 149.428 134.306 149.385 134.202C149.341 134.089 149.294 133.977 149.242 133.864C149.086 133.899 148.895 133.942 148.67 133.994C148.453 134.037 148.223 134.081 147.981 134.124C148.128 134.228 148.293 134.354 148.475 134.501C148.657 134.648 148.808 134.783 148.93 134.904L148.553 135.255H150.087V136.126H146.837C146.915 136.412 147.001 136.685 147.097 136.945C147.192 137.205 147.296 137.452 147.409 137.686C147.582 137.487 147.747 137.279 147.903 137.062C148.059 136.845 148.197 136.624 148.319 136.399L149.164 136.893C148.973 137.205 148.769 137.5 148.553 137.777C148.345 138.054 148.124 138.314 147.89 138.557C148.262 139.129 148.674 139.549 149.125 139.818C149.211 139.593 149.294 139.354 149.372 139.103C149.45 138.843 149.506 138.609 149.541 138.401C149.593 138.436 149.675 138.479 149.788 138.531C149.909 138.583 150.03 138.635 150.152 138.687C150.282 138.73 150.377 138.761 150.438 138.778C150.377 139.125 150.282 139.467 150.152 139.805C150.03 140.143 149.913 140.425 149.801 140.65C149.714 140.832 149.575 140.94 149.385 140.975C149.194 141.018 148.999 140.984 148.8 140.871C148.496 140.698 148.202 140.477 147.916 140.208C147.638 139.948 147.374 139.636 147.123 139.272C146.377 139.887 145.528 140.394 144.575 140.793C144.531 140.698 144.449 140.555 144.328 140.364C144.206 140.182 144.094 140.043 143.99 139.948C144.475 139.801 144.939 139.597 145.381 139.337C145.831 139.077 146.252 138.778 146.642 138.44C146.304 137.781 146.018 137.01 145.784 136.126H144.159C144.15 136.291 144.137 136.455 144.12 136.62C144.102 136.785 144.081 136.945 144.055 137.101C144.323 137.257 144.605 137.43 144.9 137.621C145.194 137.812 145.446 137.994 145.654 138.167C145.602 138.219 145.537 138.297 145.459 138.401C145.381 138.505 145.307 138.609 145.238 138.713C145.177 138.808 145.129 138.882 145.095 138.934C144.93 138.787 144.735 138.626 144.51 138.453C144.293 138.28 144.076 138.119 143.86 137.972C143.695 138.527 143.465 139.038 143.171 139.506C142.885 139.974 142.525 140.377 142.092 140.715C142.014 140.628 141.892 140.511 141.728 140.364C141.563 140.217 141.429 140.113 141.325 140.052C141.957 139.601 142.412 139.051 142.69 138.401C142.967 137.751 143.123 136.993 143.158 136.126H142.261C142.165 136.213 142.074 136.304 141.988 136.399C141.901 136.486 141.836 136.551 141.793 136.594C141.663 136.447 141.52 136.265 141.364 136.048C141.208 135.831 141.056 135.606 140.909 135.372V140.871H139.921ZM146.616 135.255H147.955C147.721 135.012 147.474 134.8 147.214 134.618L147.656 134.176C147.456 134.211 147.266 134.245 147.084 134.28C146.91 134.306 146.763 134.328 146.642 134.345L146.382 133.435C146.434 133.435 146.486 133.435 146.538 133.435C146.59 133.435 146.646 133.431 146.707 133.422C146.811 133.318 146.932 133.171 147.071 132.98C147.218 132.789 147.37 132.586 147.526 132.369C147.335 132.213 147.11 132.044 146.85 131.862C146.59 131.671 146.36 131.511 146.161 131.381C146.195 132.811 146.347 134.102 146.616 135.255ZM153.064 140.949V135.203C152.873 135.636 152.669 136.052 152.453 136.451C152.236 136.841 152.019 137.188 151.803 137.491C151.707 137.422 151.56 137.326 151.361 137.205C151.161 137.075 151.01 136.984 150.906 136.932C151.122 136.681 151.339 136.369 151.556 135.996C151.772 135.623 151.98 135.229 152.18 134.813C152.379 134.388 152.557 133.977 152.713 133.578C152.869 133.179 152.986 132.828 153.064 132.525V132.499H151.231V131.511H153.064V129.171H154.091V131.511H155.378V132.499H154.091V133.474C154.238 133.717 154.437 134.003 154.689 134.332C154.949 134.661 155.204 134.96 155.456 135.229V134.943H156.054V133.188H156.964V134.943H157.718V133.175H158.641V134.943H159.421C159.369 134.57 159.325 134.18 159.291 133.773C159.256 133.366 159.226 132.937 159.2 132.486H155.703V131.511H159.148C159.122 130.783 159.109 129.99 159.109 129.132H160.162C160.162 129.557 160.166 129.968 160.175 130.367C160.183 130.757 160.196 131.138 160.214 131.511H162.879V132.486H160.253C160.296 133.197 160.352 133.855 160.422 134.462C160.5 135.069 160.591 135.628 160.695 136.139C160.894 135.758 161.072 135.368 161.228 134.969C161.392 134.562 161.531 134.154 161.644 133.747L162.632 134.098C162.424 134.748 162.185 135.359 161.917 135.931C161.657 136.494 161.366 137.027 161.046 137.53C161.323 138.379 161.657 139.038 162.047 139.506C162.142 139.263 162.229 139.003 162.307 138.726C162.393 138.449 162.454 138.202 162.489 137.985C162.549 138.02 162.636 138.067 162.749 138.128C162.87 138.189 162.991 138.249 163.113 138.31C163.243 138.371 163.342 138.423 163.412 138.466C163.368 138.665 163.303 138.895 163.217 139.155C163.139 139.415 163.052 139.671 162.957 139.922C162.861 140.173 162.762 140.39 162.658 140.572C162.51 140.823 162.328 140.949 162.112 140.949C161.895 140.949 161.683 140.828 161.475 140.585C161.249 140.325 161.037 140.035 160.838 139.714C160.638 139.385 160.452 139.012 160.279 138.596C159.516 139.541 158.61 140.321 157.562 140.936C157.492 140.832 157.38 140.689 157.224 140.507C157.076 140.325 156.946 140.195 156.834 140.117C157.423 139.84 157.978 139.471 158.498 139.012C159.018 138.544 159.486 138.02 159.902 137.439C159.78 137.006 159.672 136.512 159.577 135.957H158.641V138.765H157.718V135.957H156.964C156.946 136.564 156.868 137.092 156.73 137.543C156.591 137.994 156.387 138.392 156.119 138.739C155.85 139.086 155.508 139.415 155.092 139.727C155.005 139.632 154.888 139.515 154.741 139.376C154.602 139.229 154.485 139.129 154.39 139.077C154.91 138.73 155.308 138.319 155.586 137.842C155.863 137.365 156.015 136.737 156.041 135.957H155.456V135.892C155.265 136.065 155.126 136.204 155.04 136.308C154.901 136.152 154.745 135.966 154.572 135.749C154.407 135.524 154.247 135.294 154.091 135.06V140.949H153.064ZM161.891 131.433C161.795 131.286 161.665 131.117 161.501 130.926C161.336 130.735 161.171 130.549 161.007 130.367C160.842 130.185 160.703 130.046 160.591 129.951L161.358 129.366C161.496 129.479 161.648 129.622 161.813 129.795C161.977 129.96 162.138 130.129 162.294 130.302C162.45 130.475 162.58 130.631 162.684 130.77C162.614 130.813 162.523 130.883 162.411 130.978C162.307 131.065 162.207 131.151 162.112 131.238C162.016 131.325 161.943 131.39 161.891 131.433ZM165.531 140.767V137.738C165.158 137.903 164.781 138.046 164.4 138.167C164.365 138.054 164.287 137.898 164.166 137.699C164.053 137.491 163.953 137.335 163.867 137.231C164.69 136.997 165.457 136.698 166.168 136.334C166.887 135.961 167.511 135.528 168.04 135.034H164.4V134.046H168.911C169.11 133.769 169.279 133.483 169.418 133.188H165.388V129.431H169.444V133.123C169.539 132.906 169.617 132.694 169.678 132.486L170.718 132.694C170.657 132.937 170.579 133.171 170.484 133.396C170.388 133.621 170.28 133.838 170.159 134.046H175.996V135.034H172.395C172.958 135.554 173.604 135.987 174.332 136.334C175.068 136.672 175.796 136.919 176.516 137.075C176.464 137.144 176.399 137.248 176.321 137.387C176.243 137.517 176.169 137.651 176.1 137.79C176.039 137.929 175.996 138.041 175.97 138.128C175.588 138.024 175.211 137.898 174.839 137.751V140.767H170.822V136.958H173.227C172.828 136.707 172.447 136.425 172.083 136.113C171.719 135.792 171.381 135.433 171.069 135.034H169.47C169.149 135.407 168.789 135.753 168.391 136.074C168.001 136.395 167.58 136.689 167.13 136.958H169.548V140.767H165.531ZM170.926 133.188V129.431H174.982V133.188H170.926ZM166.623 139.831H168.456V137.894H166.623V139.831ZM171.914 139.831H173.747V137.894H171.914V139.831ZM166.506 132.252H168.326V130.367H166.506V132.252ZM172.044 132.252H173.864V130.367H172.044V132.252ZM179.623 136.477V129.418H186.773V136.477H179.623ZM178.414 141.014C178.388 140.936 178.336 140.828 178.258 140.689C178.188 140.559 178.115 140.425 178.037 140.286C177.959 140.156 177.894 140.061 177.842 140C178.11 139.931 178.409 139.831 178.739 139.701C179.077 139.571 179.419 139.419 179.766 139.246C180.112 139.073 180.442 138.895 180.754 138.713C181.066 138.522 181.33 138.34 181.547 138.167H177.387V137.166H188.983V138.167H184.901C185.204 138.401 185.572 138.639 186.006 138.882C186.439 139.125 186.881 139.346 187.332 139.545C187.791 139.744 188.203 139.892 188.567 139.987C188.515 140.048 188.445 140.147 188.359 140.286C188.272 140.425 188.19 140.559 188.112 140.689C188.042 140.828 187.99 140.936 187.956 141.014C187.574 140.884 187.158 140.711 186.708 140.494C186.257 140.277 185.811 140.035 185.369 139.766C184.927 139.497 184.528 139.216 184.173 138.921L184.797 138.167H181.573L182.223 138.973C181.867 139.259 181.464 139.536 181.014 139.805C180.572 140.065 180.125 140.299 179.675 140.507C179.224 140.715 178.804 140.884 178.414 141.014ZM180.819 135.489H185.577V134.371H180.819V135.489ZM180.819 133.5H185.577V132.382H180.819V133.5ZM180.819 131.524H185.577V130.419H180.819V131.524ZM195.366 140.91C195.322 140.789 195.24 140.624 195.119 140.416C195.006 140.208 194.902 140.061 194.807 139.974C195.37 139.809 195.894 139.588 196.38 139.311C196.874 139.034 197.324 138.722 197.732 138.375C197.394 137.976 197.103 137.552 196.861 137.101C196.618 136.65 196.423 136.187 196.276 135.71H195.262V134.696H200.826L201.268 135.125C200.817 136.356 200.176 137.439 199.344 138.375C199.76 138.713 200.215 139.008 200.709 139.259C201.211 139.502 201.731 139.684 202.269 139.805C202.208 139.874 202.13 139.974 202.035 140.104C201.948 140.243 201.866 140.377 201.788 140.507C201.718 140.646 201.671 140.754 201.645 140.832C201.029 140.659 200.462 140.429 199.942 140.143C199.422 139.866 198.949 139.541 198.525 139.168C198.074 139.558 197.584 139.9 197.056 140.195C196.527 140.49 195.964 140.728 195.366 140.91ZM195.808 134.475C195.704 134.345 195.569 134.211 195.405 134.072C195.249 133.925 195.097 133.812 194.95 133.734C195.27 133.483 195.522 133.24 195.704 133.006C195.894 132.772 196.033 132.499 196.12 132.187C196.206 131.875 196.25 131.476 196.25 130.991V129.548H200.007V132.577C200.007 132.681 200.028 132.755 200.072 132.798C200.124 132.841 200.223 132.863 200.371 132.863H200.748C200.878 132.863 200.982 132.837 201.06 132.785C201.146 132.724 201.216 132.607 201.268 132.434C201.32 132.261 201.354 132.001 201.372 131.654C201.493 131.715 201.653 131.775 201.853 131.836C202.061 131.888 202.243 131.931 202.399 131.966C202.355 132.521 202.277 132.941 202.165 133.227C202.052 133.513 201.887 133.708 201.671 133.812C201.463 133.916 201.194 133.968 200.865 133.968H200.072C199.621 133.968 199.309 133.907 199.136 133.786C198.962 133.665 198.876 133.452 198.876 133.149V130.562H197.381V131.069C197.381 131.823 197.259 132.469 197.017 133.006C196.783 133.535 196.38 134.024 195.808 134.475ZM190.92 140.585V136.932H194.677V140.585H190.92ZM190.296 132.473V131.524H195.119V132.473H190.296ZM190.933 130.679V129.704H194.586V130.679H190.933ZM190.92 134.28V133.318H194.586V134.28H190.92ZM190.92 136.074V135.125H194.586V136.074H190.92ZM191.96 139.636H193.637V137.894H191.96V139.636ZM198.538 137.595C199.075 136.98 199.474 136.351 199.734 135.71H197.394C197.515 136.048 197.671 136.377 197.862 136.698C198.061 137.01 198.286 137.309 198.538 137.595ZM206.507 139.298V134.202H208.86V133.578H203.309V132.577H208.86V132.005H204.427V129.366H213.943V132.005H210.03V132.577H215.048V133.578H210.03V134.202H213.332V139.298H206.507ZM204.024 140.819V134.982H205.155V139.831H214.957V140.819H204.024ZM207.625 137.036H212.214V136.438H207.625V137.036ZM207.625 138.427H212.214V137.842H207.625V138.427ZM207.625 135.645H212.214V135.073H207.625V135.645ZM205.571 131.121H207.287V130.25H205.571V131.121ZM208.327 131.121H210.043V130.25H208.327V131.121ZM211.083 131.121H212.786V130.25H211.083V131.121ZM218.948 140.689C218.792 140.42 218.575 140.13 218.298 139.818C218.02 139.497 217.73 139.19 217.427 138.895C217.123 138.592 216.846 138.349 216.595 138.167L217.375 137.452C217.635 137.643 217.925 137.885 218.246 138.18C218.575 138.475 218.887 138.774 219.182 139.077C219.476 139.38 219.706 139.645 219.871 139.87L218.948 140.689ZM238.799 140.949C238.781 140.802 238.747 140.62 238.695 140.403C238.651 140.195 238.604 140.035 238.552 139.922H239.41C239.583 139.922 239.704 139.896 239.774 139.844C239.843 139.783 239.878 139.671 239.878 139.506V134.215H237.928V137.764H238.5V135.086H239.306V138.674H235.757V135.086H236.55V137.764H237.109V134.215H235.224V140.936H234.249V131.615C234.162 131.693 234.032 131.814 233.859 131.979C233.694 132.135 233.577 132.261 233.508 132.356C233.213 132.096 232.91 131.78 232.598 131.407C232.286 131.034 232.03 130.692 231.831 130.38C231.675 130.709 231.458 131.073 231.181 131.472C230.903 131.871 230.613 132.248 230.31 132.603H233.508V133.552H232.234V134.813H233.703V135.762H232.234V139.103C232.537 139.034 232.827 138.969 233.105 138.908C233.382 138.839 233.62 138.774 233.82 138.713V139.675C233.447 139.788 233.001 139.909 232.481 140.039C231.961 140.178 231.436 140.303 230.908 140.416C230.379 140.529 229.911 140.62 229.504 140.689L229.179 139.688C229.439 139.645 229.746 139.593 230.102 139.532C230.466 139.471 230.838 139.402 231.22 139.324V135.762H229.465V134.813H231.22V133.552H230.063V132.876C229.976 132.963 229.894 133.045 229.816 133.123C229.738 133.201 229.66 133.275 229.582 133.344C229.504 133.223 229.387 133.084 229.231 132.928C229.083 132.763 228.958 132.638 228.854 132.551C229.218 132.265 229.56 131.931 229.881 131.55C230.201 131.16 230.487 130.757 230.739 130.341C230.999 129.916 231.198 129.522 231.337 129.158L232.299 129.327C232.429 129.552 232.602 129.812 232.819 130.107C233.035 130.393 233.269 130.67 233.521 130.939C233.781 131.208 234.023 131.433 234.249 131.615V129.574H240.866V139.844C240.866 140.225 240.762 140.503 240.554 140.676C240.346 140.858 240.025 140.949 239.592 140.949H238.799ZM235.224 133.318H237.551C237.655 133.11 237.767 132.863 237.889 132.577C238.01 132.282 238.118 131.992 238.214 131.706C238.318 131.42 238.396 131.182 238.448 130.991L239.371 131.251C239.319 131.424 239.241 131.632 239.137 131.875C239.041 132.118 238.937 132.365 238.825 132.616C238.712 132.867 238.604 133.101 238.5 133.318H239.878V130.523H235.224V133.318ZM230.154 138.843C230.102 138.626 230.032 138.384 229.946 138.115C229.868 137.838 229.781 137.565 229.686 137.296C229.59 137.027 229.499 136.802 229.413 136.62L230.297 136.334C230.383 136.507 230.474 136.733 230.57 137.01C230.665 137.279 230.752 137.552 230.83 137.829C230.916 138.106 230.981 138.34 231.025 138.531C230.912 138.557 230.76 138.605 230.57 138.674C230.388 138.735 230.249 138.791 230.154 138.843ZM233.118 138.583C233.04 138.54 232.914 138.492 232.741 138.44C232.567 138.379 232.429 138.332 232.325 138.297C232.411 138.132 232.507 137.92 232.611 137.66C232.715 137.391 232.81 137.123 232.897 136.854C232.983 136.585 233.048 136.364 233.092 136.191L233.989 136.464C233.937 136.655 233.859 136.884 233.755 137.153C233.651 137.413 233.542 137.673 233.43 137.933C233.317 138.184 233.213 138.401 233.118 138.583ZM236.472 133.279C236.411 133.106 236.329 132.906 236.225 132.681C236.121 132.447 236.012 132.217 235.9 131.992C235.787 131.767 235.683 131.576 235.588 131.42L236.394 131.043C236.48 131.19 236.58 131.381 236.693 131.615C236.814 131.84 236.927 132.07 237.031 132.304C237.143 132.529 237.226 132.72 237.278 132.876C237.191 132.911 237.052 132.976 236.862 133.071C236.68 133.158 236.55 133.227 236.472 133.279ZM251.019 140.949C251.001 140.802 250.967 140.633 250.915 140.442C250.871 140.26 250.824 140.113 250.772 140H251.63C251.803 140 251.924 139.974 251.994 139.922C252.072 139.861 252.111 139.749 252.111 139.584V138.687H248.211V140.936H247.119V138.687H246.04V137.803H247.119V134.709H249.628V134.111H246.287V133.24H248.302V132.512H247.054V131.706H248.302V131.03H246.547V130.237H248.302V129.158H249.368V130.237H250.941V129.158H252.02V130.237H253.801V131.03H252.02V131.706H253.528V132.512H252.02V133.24H253.983V134.111H250.694V134.709H253.203V137.803H254.204V138.687H253.203V139.831C253.203 140.221 253.094 140.503 252.878 140.676C252.67 140.858 252.349 140.949 251.916 140.949H251.019ZM244.077 140.949V135.45C243.877 135.875 243.665 136.286 243.44 136.685C243.223 137.084 243.002 137.43 242.777 137.725C242.681 137.647 242.534 137.547 242.335 137.426C242.135 137.296 241.988 137.205 241.893 137.153C242.101 136.919 242.313 136.629 242.53 136.282C242.746 135.927 242.954 135.55 243.154 135.151C243.353 134.752 243.531 134.362 243.687 133.981C243.851 133.591 243.981 133.24 244.077 132.928V132.72H242.27V131.745H244.077V129.171H245.13V131.745H246.495V132.72H245.13V133.864C245.26 134.055 245.424 134.284 245.624 134.553C245.823 134.813 246.031 135.069 246.248 135.32C246.473 135.571 246.677 135.779 246.859 135.944C246.798 135.987 246.716 136.057 246.612 136.152C246.508 136.247 246.404 136.343 246.3 136.438C246.204 136.533 246.131 136.611 246.079 136.672C245.94 136.516 245.784 136.33 245.611 136.113C245.446 135.888 245.286 135.658 245.13 135.424V140.949H244.077ZM249.368 133.24H250.941V132.512H249.368V133.24ZM248.211 137.803H249.628V137.036H248.211V137.803ZM250.694 137.803H252.111V137.036H250.694V137.803ZM249.368 131.706H250.941V131.03H249.368V131.706ZM248.211 136.243H249.628V135.528H248.211V136.243ZM250.694 136.243H252.111V135.528H250.694V136.243ZM259.846 138.739V134.969H265.605V138.739H259.846ZM258.585 134.189V133.201H262.16V131.823H260.34C260.08 132.256 259.807 132.642 259.521 132.98C259.399 132.859 259.248 132.737 259.066 132.616C258.884 132.495 258.715 132.404 258.559 132.343C258.801 132.092 259.031 131.793 259.248 131.446C259.473 131.099 259.672 130.74 259.846 130.367C260.028 129.994 260.162 129.648 260.249 129.327L261.354 129.652C261.293 129.834 261.219 130.025 261.133 130.224C261.055 130.423 260.968 130.623 260.873 130.822H262.16V129.145H263.356V130.822H266.034V131.823H263.356V133.201H266.918V134.189H258.585ZM262.602 140.676C261.709 140.676 260.946 140.628 260.314 140.533C259.681 140.446 259.144 140.303 258.702 140.104C258.26 139.913 257.874 139.662 257.545 139.35C257.397 139.463 257.207 139.597 256.973 139.753C256.739 139.909 256.5 140.065 256.258 140.221C256.024 140.377 255.824 140.511 255.66 140.624L255.153 139.493C255.3 139.432 255.486 139.346 255.712 139.233C255.946 139.112 256.175 138.986 256.401 138.856C256.635 138.726 256.821 138.613 256.96 138.518V135.008H255.361V133.955H258.065V138.427C258.281 138.73 258.576 138.973 258.949 139.155C259.321 139.328 259.807 139.454 260.405 139.532C261.003 139.601 261.735 139.636 262.602 139.636C263.65 139.636 264.547 139.619 265.293 139.584C266.047 139.549 266.679 139.502 267.191 139.441C267.165 139.502 267.13 139.614 267.087 139.779C267.043 139.935 267.004 140.095 266.97 140.26C266.935 140.425 266.913 140.555 266.905 140.65C266.688 140.65 266.406 140.65 266.06 140.65C265.722 140.659 265.353 140.663 264.955 140.663C264.556 140.672 264.153 140.676 263.746 140.676C263.338 140.676 262.957 140.676 262.602 140.676ZM261.029 137.751H264.422V135.957H261.029V137.751ZM257.545 132.33C257.406 132.113 257.224 131.875 256.999 131.615C256.773 131.355 256.539 131.104 256.297 130.861C256.054 130.618 255.824 130.419 255.608 130.263L256.44 129.548C256.648 129.704 256.877 129.903 257.129 130.146C257.389 130.389 257.636 130.636 257.87 130.887C258.104 131.138 258.29 131.359 258.429 131.55C258.368 131.593 258.277 131.667 258.156 131.771C258.034 131.875 257.913 131.979 257.792 132.083C257.679 132.187 257.597 132.269 257.545 132.33ZM275.94 140.845C275.922 140.672 275.883 140.459 275.823 140.208C275.771 139.965 275.714 139.775 275.654 139.636H276.876C277.231 139.636 277.5 139.549 277.682 139.376C277.872 139.203 278.02 138.869 278.124 138.375C278.167 138.158 278.215 137.855 278.267 137.465C278.327 137.066 278.379 136.611 278.423 136.1C278.475 135.58 278.518 135.034 278.553 134.462C278.596 133.89 278.618 133.322 278.618 132.759H277.968C277.803 134.059 277.521 135.177 277.123 136.113C276.733 137.049 276.213 137.868 275.563 138.57C274.921 139.263 274.133 139.896 273.197 140.468C273.153 140.373 273.084 140.264 272.989 140.143C272.893 140.022 272.794 139.909 272.69 139.805C272.586 139.692 272.499 139.61 272.43 139.558C273.695 138.899 274.705 138.024 275.459 136.932C276.213 135.84 276.711 134.449 276.954 132.759H276.122C275.905 133.92 275.532 134.947 275.004 135.84C274.475 136.733 273.747 137.513 272.82 138.18C272.75 138.067 272.629 137.924 272.456 137.751C272.282 137.578 272.139 137.456 272.027 137.387C272.841 136.884 273.504 136.23 274.016 135.424C274.536 134.618 274.904 133.73 275.121 132.759H274.38C274.215 133.132 274.029 133.487 273.821 133.825C273.621 134.163 273.409 134.479 273.184 134.774C273.062 134.696 272.898 134.605 272.69 134.501C272.482 134.388 272.326 134.319 272.222 134.293C272.551 133.886 272.859 133.4 273.145 132.837C273.431 132.265 273.678 131.667 273.886 131.043C274.102 130.419 274.254 129.821 274.341 129.249L275.446 129.405C275.316 130.159 275.103 130.93 274.809 131.719H279.723C279.723 132.36 279.71 133.019 279.684 133.695C279.658 134.362 279.623 135.008 279.58 135.632C279.536 136.247 279.489 136.811 279.437 137.322C279.385 137.825 279.333 138.232 279.281 138.544C279.185 139.168 279.042 139.645 278.852 139.974C278.67 140.303 278.423 140.529 278.111 140.65C277.807 140.78 277.417 140.845 276.941 140.845H275.94ZM270.584 140.936V136.802C270.133 136.967 269.708 137.118 269.31 137.257C268.911 137.396 268.625 137.491 268.452 137.543L268.166 136.321C268.4 136.269 268.738 136.174 269.18 136.035C269.63 135.896 270.098 135.745 270.584 135.58V132.928H269.596C269.518 133.275 269.431 133.604 269.336 133.916C269.249 134.219 269.158 134.484 269.063 134.709C269.002 134.683 268.902 134.653 268.764 134.618C268.625 134.583 268.482 134.553 268.335 134.527C268.196 134.501 268.083 134.488 267.997 134.488C268.248 133.925 268.452 133.275 268.608 132.538C268.764 131.793 268.855 131.065 268.881 130.354L269.934 130.458C269.925 130.874 269.877 131.342 269.791 131.862H270.584V129.132H271.741V131.862H272.911V132.928H271.741V135.177C272.018 135.082 272.269 134.995 272.495 134.917C272.72 134.83 272.889 134.761 273.002 134.709V135.827C272.889 135.888 272.72 135.966 272.495 136.061C272.269 136.148 272.018 136.247 271.741 136.36V140.936H270.584ZM287.042 140.663C286.591 140.663 286.27 140.585 286.08 140.429C285.889 140.282 285.794 140.035 285.794 139.688V134.852L284.52 135.242L284.234 134.124L285.794 133.643V130.107H286.951V133.292L288.316 132.876V129.184H289.434V132.525L291.592 131.862L292.177 132.096V136.451C292.177 136.763 292.086 137.019 291.904 137.218C291.722 137.417 291.44 137.547 291.059 137.608C290.946 137.617 290.799 137.63 290.617 137.647C290.443 137.664 290.296 137.677 290.175 137.686C290.149 137.469 290.097 137.253 290.019 137.036C289.949 136.819 289.893 136.668 289.85 136.581H290.578C290.734 136.581 290.846 136.551 290.916 136.49C290.985 136.429 291.02 136.325 291.02 136.178V133.253L289.434 133.734V138.271H288.316V134.085L286.951 134.501V139.168C286.951 139.307 286.985 139.411 287.055 139.48C287.124 139.541 287.258 139.571 287.458 139.571H290.877C291.128 139.571 291.327 139.536 291.475 139.467C291.622 139.398 291.735 139.246 291.813 139.012C291.891 138.769 291.951 138.401 291.995 137.907C292.125 137.976 292.307 138.054 292.541 138.141C292.783 138.219 292.991 138.28 293.165 138.323C293.087 139.016 292.97 139.532 292.814 139.87C292.658 140.199 292.454 140.412 292.203 140.507C291.96 140.611 291.648 140.663 291.267 140.663H287.042ZM282.973 140.975V133.981C282.782 134.284 282.583 134.57 282.375 134.839C282.175 135.108 281.976 135.355 281.777 135.58C281.655 135.467 281.508 135.35 281.335 135.229C281.161 135.108 281.001 135.004 280.854 134.917C281.183 134.588 281.512 134.176 281.842 133.682C282.18 133.179 282.492 132.651 282.778 132.096C283.072 131.533 283.328 130.991 283.545 130.471C283.761 129.951 283.913 129.505 284 129.132L285.131 129.418C285.009 129.843 284.858 130.272 284.676 130.705C284.502 131.138 284.307 131.572 284.091 132.005V140.975H282.973ZM295.193 142.041L294.27 141.547C294.885 140.646 295.357 139.727 295.687 138.791C296.025 137.846 296.194 136.85 296.194 135.801C296.194 134.735 296.02 133.721 295.674 132.759C295.336 131.788 294.872 130.896 294.283 130.081L295.206 129.574C295.847 130.441 296.35 131.416 296.714 132.499C297.078 133.574 297.26 134.674 297.26 135.801C297.26 136.902 297.082 137.981 296.727 139.038C296.371 140.095 295.86 141.096 295.193 142.041Z" fill="black"/>
</svg>
