<svg width="343" height="160" viewBox="0 0 343 160" fill="none" xmlns="http://www.w3.org/2000/svg">
<mask id="path-1-inside-1_5301_8960" fill="white">
<path d="M343 152C343 156.418 339.418 160 335 160H7.99999C3.58172 160 0 156.418 0 152V8C0 3.58172 3.58172 0 8 0H271.01C274.064 0 276.852 1.73855 278.195 4.48106L297.805 44.5189C299.148 47.2615 301.936 49 304.99 49H335C339.418 49 343 52.5817 343 57V152Z"/>
</mask>
<path d="M343 152C343 156.418 339.418 160 335 160H7.99999C3.58172 160 0 156.418 0 152V8C0 3.58172 3.58172 0 8 0H271.01C274.064 0 276.852 1.73855 278.195 4.48106L297.805 44.5189C299.148 47.2615 301.936 49 304.99 49H335C339.418 49 343 52.5817 343 57V152Z" fill="#E8F2FF"/>
<path d="M297.805 44.5189L296.907 44.9588L297.805 44.5189ZM278.195 4.48106L279.093 4.04119L278.195 4.48106ZM335 160V159H7.99999V160V161H335V160ZM0 152H1V8H0H-1V152H0ZM8 0V1H271.01V0V-1H8V0ZM278.195 4.48106L277.297 4.92093L296.907 44.9588L297.805 44.5189L298.703 44.0791L279.093 4.04119L278.195 4.48106ZM304.99 49V50H335V49V48H304.99V49ZM343 57H342V152H343H344V57H343ZM335 49V50C338.866 50 342 53.134 342 57H343H344C344 52.0294 339.971 48 335 48V49ZM297.805 44.5189L296.907 44.9588C298.418 48.0441 301.554 50 304.99 50V49V48C302.318 48 299.879 46.4788 298.703 44.0791L297.805 44.5189ZM271.01 0V1C273.682 1 276.121 2.52123 277.297 4.92093L278.195 4.48106L279.093 4.04119C277.582 0.955866 274.446 -1 271.01 -1V0ZM0 8H1C1 4.13401 4.13401 1 8 1V0V-1C3.02944 -1 -1 3.02944 -1 8H0ZM7.99999 160V159C4.134 159 1 155.866 1 152H0H-1C-1 156.971 3.02943 161 7.99999 161V160ZM335 160V161C339.971 161 344 156.971 344 152H343H342C342 155.866 338.866 159 335 159V160Z" fill="#D3D3D3" mask="url(#path-1-inside-1_5301_8960)"/>
<path d="M127.274 21.102C126.35 21.102 125.534 21.3 124.826 21.696C124.13 22.08 123.548 22.536 123.08 23.064C122.612 23.592 122.252 24.072 122 24.504C121.76 24.936 121.628 25.176 121.604 25.224L118.31 23.748C118.334 23.64 118.448 23.37 118.652 22.938C118.856 22.494 119.174 21.99 119.606 21.426C120.038 20.85 120.596 20.286 121.28 19.734C121.976 19.182 122.816 18.726 123.8 18.366C124.796 17.994 125.954 17.808 127.274 17.808C128.702 17.808 129.914 18.006 130.91 18.402C131.906 18.798 132.716 19.344 133.34 20.04C133.964 20.724 134.42 21.51 134.708 22.398C134.996 23.286 135.14 24.222 135.14 25.206C135.14 26.214 134.906 27.234 134.438 28.266C133.982 29.298 133.388 30.3 132.656 31.272C131.924 32.232 131.138 33.132 130.298 33.972C129.458 34.812 128.642 35.562 127.85 36.222C127.07 36.882 126.398 37.422 125.834 37.842C125.282 38.262 124.934 38.526 124.79 38.634H134.942V42H118.958V38.94C119.27 38.688 119.78 38.286 120.488 37.734C121.208 37.182 122.036 36.528 122.972 35.772C123.908 35.004 124.856 34.17 125.816 33.27C126.788 32.37 127.688 31.446 128.516 30.498C129.356 29.55 130.028 28.62 130.532 27.708C131.048 26.796 131.306 25.944 131.306 25.152C131.306 23.664 130.958 22.62 130.262 22.02C129.566 21.408 128.57 21.102 127.274 21.102ZM138.425 30.138C138.425 28.038 138.677 26.214 139.181 24.666C139.697 23.118 140.393 21.84 141.269 20.832C142.145 19.812 143.129 19.056 144.221 18.564C145.313 18.06 146.441 17.808 147.605 17.808C148.781 17.808 149.915 18.06 151.007 18.564C152.111 19.056 153.095 19.812 153.959 20.832C154.823 21.84 155.507 23.118 156.011 24.666C156.515 26.214 156.767 28.038 156.767 30.138C156.767 32.31 156.515 34.17 156.011 35.718C155.507 37.266 154.823 38.538 153.959 39.534C153.095 40.518 152.111 41.25 151.007 41.73C149.915 42.198 148.781 42.432 147.605 42.432C146.441 42.432 145.313 42.198 144.221 41.73C143.129 41.25 142.145 40.518 141.269 39.534C140.393 38.538 139.697 37.266 139.181 35.718C138.677 34.17 138.425 32.31 138.425 30.138ZM142.259 30.138C142.259 32.13 142.493 33.792 142.961 35.124C143.441 36.444 144.083 37.428 144.887 38.076C145.703 38.712 146.609 39.03 147.605 39.03C148.625 39.03 149.531 38.706 150.323 38.058C151.127 37.41 151.763 36.426 152.231 35.106C152.699 33.786 152.933 32.13 152.933 30.138C152.933 28.182 152.699 26.544 152.231 25.224C151.763 23.904 151.127 22.908 150.323 22.236C149.531 21.552 148.625 21.21 147.605 21.21C146.609 21.21 145.703 21.552 144.887 22.236C144.083 22.908 143.441 23.91 142.961 25.242C142.493 26.562 142.259 28.194 142.259 30.138ZM159.484 30.138C159.484 28.038 159.736 26.214 160.24 24.666C160.756 23.118 161.452 21.84 162.328 20.832C163.204 19.812 164.188 19.056 165.28 18.564C166.372 18.06 167.5 17.808 168.664 17.808C169.84 17.808 170.974 18.06 172.066 18.564C173.17 19.056 174.154 19.812 175.018 20.832C175.882 21.84 176.566 23.118 177.07 24.666C177.574 26.214 177.826 28.038 177.826 30.138C177.826 32.31 177.574 34.17 177.07 35.718C176.566 37.266 175.882 38.538 175.018 39.534C174.154 40.518 173.17 41.25 172.066 41.73C170.974 42.198 169.84 42.432 168.664 42.432C167.5 42.432 166.372 42.198 165.28 41.73C164.188 41.25 163.204 40.518 162.328 39.534C161.452 38.538 160.756 37.266 160.24 35.718C159.736 34.17 159.484 32.31 159.484 30.138ZM163.318 30.138C163.318 32.13 163.552 33.792 164.02 35.124C164.5 36.444 165.142 37.428 165.946 38.076C166.762 38.712 167.668 39.03 168.664 39.03C169.684 39.03 170.59 38.706 171.382 38.058C172.186 37.41 172.822 36.426 173.29 35.106C173.758 33.786 173.992 32.13 173.992 30.138C173.992 28.182 173.758 26.544 173.29 25.224C172.822 23.904 172.186 22.908 171.382 22.236C170.59 21.552 169.684 21.21 168.664 21.21C167.668 21.21 166.762 21.552 165.946 22.236C165.142 22.908 164.5 23.91 164.02 25.242C163.552 26.562 163.318 28.194 163.318 30.138ZM190.064 26.412C191.372 26.412 192.596 26.742 193.736 27.402C194.888 28.05 195.824 28.968 196.544 30.156C197.264 31.344 197.624 32.724 197.624 34.296C197.624 35.868 197.24 37.266 196.472 38.49C195.704 39.714 194.672 40.68 193.376 41.388C192.092 42.084 190.676 42.432 189.128 42.432C187.544 42.432 186.11 42.09 184.826 41.406C183.554 40.722 182.54 39.75 181.784 38.49C181.028 37.23 180.65 35.748 180.65 34.044C180.65 32.232 180.956 30.702 181.568 29.454C182.18 28.194 182.894 27.06 183.71 26.052L190.01 18.24H194.492L186.824 27.438C187.052 27.198 187.442 26.97 187.994 26.754C188.546 26.526 189.236 26.412 190.064 26.412ZM189.164 39.264C190.052 39.264 190.862 39.048 191.594 38.616C192.338 38.172 192.926 37.584 193.358 36.852C193.802 36.108 194.024 35.286 194.024 34.386C194.024 33.486 193.802 32.67 193.358 31.938C192.926 31.194 192.338 30.606 191.594 30.174C190.862 29.742 190.052 29.526 189.164 29.526C188.264 29.526 187.442 29.742 186.698 30.174C185.954 30.606 185.36 31.194 184.916 31.938C184.484 32.67 184.268 33.486 184.268 34.386C184.268 35.286 184.484 36.108 184.916 36.852C185.36 37.584 185.954 38.172 186.698 38.616C187.442 39.048 188.264 39.264 189.164 39.264Z" fill="#4E37A2"/>
<path d="M23.248 91.184V85.584H16.736V84.192H23.248V78.816H17.44V77.44H30.512V78.816H24.784V84.192H31.216L31.232 85.584H24.784V91.184H23.248ZM27.232 83.632C27.136 83.568 26.9973 83.488 26.816 83.392C26.6453 83.2853 26.4747 83.1893 26.304 83.104C26.1333 83.0187 26.0053 82.96 25.92 82.928C26.144 82.64 26.3947 82.2827 26.672 81.856C26.96 81.4187 27.232 80.976 27.488 80.528C27.744 80.08 27.9413 79.696 28.08 79.376L29.472 80.016C29.3547 80.2613 29.2 80.5493 29.008 80.88C28.816 81.2107 28.608 81.552 28.384 81.904C28.1707 82.256 27.9627 82.5867 27.76 82.896C27.5573 83.1947 27.3813 83.44 27.232 83.632ZM20.752 83.648C20.656 83.4133 20.5227 83.136 20.352 82.816C20.192 82.496 20.0107 82.16 19.808 81.808C19.616 81.456 19.424 81.1307 19.232 80.832C19.04 80.5227 18.864 80.2667 18.704 80.064L20 79.376C20.1493 79.5787 20.32 79.8347 20.512 80.144C20.7147 80.4533 20.9173 80.784 21.12 81.136C21.3227 81.4773 21.5093 81.808 21.68 82.128C21.8613 82.448 22 82.7147 22.096 82.928C21.9893 82.9707 21.8507 83.04 21.68 83.136C21.5093 83.2213 21.3387 83.312 21.168 83.408C20.9973 83.504 20.8587 83.584 20.752 83.648ZM38.672 90.944C38.5973 90.7947 38.4693 90.5973 38.288 90.352C38.1173 90.1067 37.968 89.9253 37.84 89.808C38.5973 89.456 39.296 89.0347 39.936 88.544C40.5867 88.0427 41.1733 87.4933 41.696 86.896C41.3547 86.1387 41.0507 85.264 40.784 84.272C40.528 83.2693 40.3307 82.1173 40.192 80.816H35.504V82.64H39.264C39.264 83.4827 39.2373 84.3147 39.184 85.136C39.1413 85.9467 39.0613 86.6347 38.944 87.2C38.8053 87.9147 38.5547 88.4053 38.192 88.672C37.84 88.9387 37.3173 89.072 36.624 89.072H35.696C35.6747 88.88 35.632 88.6347 35.568 88.336C35.504 88.0373 35.44 87.808 35.376 87.648H36.4C36.8373 87.648 37.12 87.584 37.248 87.456C37.376 87.3173 37.4773 87.0667 37.552 86.704C37.6267 86.3733 37.68 85.9573 37.712 85.456C37.7547 84.9547 37.776 84.4533 37.776 83.952H35.472C35.4293 85.104 35.328 86.1013 35.168 86.944C35.0187 87.776 34.8053 88.5067 34.528 89.136C34.2613 89.7547 33.9253 90.32 33.52 90.832C33.4347 90.768 33.296 90.688 33.104 90.592C32.9227 90.496 32.7467 90.4053 32.576 90.32C32.4053 90.2347 32.288 90.1813 32.224 90.16C32.6507 89.6267 32.992 89.0187 33.248 88.336C33.504 87.6427 33.6907 86.8213 33.808 85.872C33.9253 84.9227 33.984 83.7813 33.984 82.448V79.44H40.064C40.0427 79.0027 40.0213 78.5493 40 78.08C39.9893 77.6 39.984 77.1093 39.984 76.608H41.44C41.44 77.6107 41.472 78.5547 41.536 79.44H44.56C44.272 79.12 43.952 78.8053 43.6 78.496C43.248 78.176 42.928 77.92 42.64 77.728L43.536 76.768C43.7813 76.928 44.0533 77.1307 44.352 77.376C44.6507 77.6213 44.9333 77.872 45.2 78.128C45.4773 78.3733 45.6907 78.5867 45.84 78.768C45.7653 78.8213 45.6533 78.9173 45.504 79.056C45.3547 79.184 45.216 79.312 45.088 79.44H46.768V80.816H41.664C41.7707 81.7653 41.9147 82.6293 42.096 83.408C42.288 84.1867 42.5013 84.8907 42.736 85.52C43.088 84.976 43.3973 84.4053 43.664 83.808C43.9307 83.2107 44.1493 82.5973 44.32 81.968L45.712 82.432C45.1787 84.1387 44.4213 85.6533 43.44 86.976C43.76 87.52 44.1067 87.984 44.48 88.368C44.8533 88.7413 45.2373 89.0507 45.632 89.296C45.76 88.9547 45.8773 88.576 45.984 88.16C46.1013 87.7333 46.1813 87.3707 46.224 87.072C46.2987 87.1253 46.4213 87.1947 46.592 87.28C46.7627 87.3547 46.9387 87.4293 47.12 87.504C47.312 87.568 47.456 87.616 47.552 87.648C47.488 87.968 47.4027 88.3093 47.296 88.672C47.2 89.0347 47.0933 89.3813 46.976 89.712C46.8693 90.0427 46.7573 90.32 46.64 90.544C46.5013 90.8 46.3093 90.96 46.064 91.024C45.8293 91.088 45.568 91.04 45.28 90.88C44.7893 90.624 44.2987 90.2827 43.808 89.856C43.3173 89.4187 42.8533 88.8693 42.416 88.208C41.328 89.36 40.08 90.272 38.672 90.944Z" fill="black"/>
<path d="M54.208 74.104L50.64 76.088V72.84L55.808 69.88H57.584V91H54.208V74.104ZM68.592 91.384C67.248 91.384 66.032 91.112 64.944 90.568C63.856 90.024 62.9867 89.288 62.336 88.36C61.696 87.4213 61.376 86.3653 61.376 85.192C61.376 84.1573 61.552 83.2827 61.904 82.568C62.256 81.8427 62.7253 81.24 63.312 80.76C63.9093 80.2693 64.5653 79.8853 65.28 79.608C64.7573 79.352 64.2667 79.0267 63.808 78.632C63.36 78.2267 62.992 77.7253 62.704 77.128C62.4267 76.52 62.288 75.7893 62.288 74.936C62.288 73.848 62.5653 72.8987 63.12 72.088C63.6853 71.2667 64.4427 70.632 65.392 70.184C66.352 69.7253 67.4133 69.496 68.576 69.496C69.7493 69.496 70.8053 69.7253 71.744 70.184C72.6827 70.632 73.424 71.2667 73.968 72.088C74.5227 72.8987 74.8 73.848 74.8 74.936C74.8 76.216 74.512 77.2133 73.936 77.928C73.36 78.6427 72.6667 79.2027 71.856 79.608C72.5707 79.8853 73.2213 80.2693 73.808 80.76C74.4053 81.24 74.88 81.8427 75.232 82.568C75.5947 83.2827 75.776 84.1573 75.776 85.192C75.776 86.3653 75.456 87.4213 74.816 88.36C74.176 89.288 73.312 90.024 72.224 90.568C71.1467 91.112 69.936 91.384 68.592 91.384ZM68.576 88.392C69.2587 88.392 69.872 88.2373 70.416 87.928C70.9707 87.608 71.4133 87.176 71.744 86.632C72.0747 86.0773 72.24 85.464 72.24 84.792C72.24 84.1093 72.0747 83.496 71.744 82.952C71.4133 82.408 70.9707 81.976 70.416 81.656C69.872 81.336 69.2587 81.176 68.576 81.176C67.8933 81.176 67.2693 81.336 66.704 81.656C66.1493 81.976 65.7067 82.408 65.376 82.952C65.056 83.496 64.896 84.1093 64.896 84.792C64.896 85.464 65.056 86.072 65.376 86.616C65.7067 87.16 66.1493 87.592 66.704 87.912C67.2693 88.232 67.8933 88.392 68.576 88.392ZM68.592 78.504C69.168 78.504 69.6907 78.36 70.16 78.072C70.64 77.784 71.0187 77.4 71.296 76.92C71.584 76.44 71.728 75.912 71.728 75.336C71.728 74.76 71.584 74.2373 71.296 73.768C71.008 73.288 70.624 72.9093 70.144 72.632C69.6747 72.344 69.152 72.2 68.576 72.2C68.0107 72.2 67.4827 72.344 66.992 72.632C66.512 72.9093 66.128 73.288 65.84 73.768C65.5627 74.2373 65.424 74.76 65.424 75.336C65.424 75.912 65.5627 76.44 65.84 76.92C66.128 77.4 66.512 77.784 66.992 78.072C67.4827 78.36 68.016 78.504 68.592 78.504Z" fill="#4E37A2"/>
<path d="M88.128 91.168V87.504H80.72V86.192H83.616V82.272H88.128V80.016H84.544C84.1493 80.6347 83.7173 81.2267 83.248 81.792C82.7787 82.3467 82.2773 82.8427 81.744 83.28C81.616 83.1627 81.44 83.008 81.216 82.816C80.992 82.624 80.7787 82.4747 80.576 82.368C81.216 81.8773 81.808 81.296 82.352 80.624C82.9067 79.952 83.3867 79.2533 83.792 78.528C84.1973 77.8027 84.5013 77.1147 84.704 76.464L86.096 76.896C85.9893 77.1947 85.8667 77.4933 85.728 77.792C85.6 78.0907 85.4613 78.3893 85.312 78.688H94.544V80.016H89.648V82.272H93.504V83.568H89.648V86.192H95.232V87.504H89.648V91.168H88.128ZM85.12 86.192H88.128V83.568H85.12V86.192Z" fill="black"/>
<path d="M101.872 91L108.688 82.824C108.485 83.0373 108.139 83.2453 107.648 83.448C107.157 83.64 106.544 83.736 105.808 83.736C104.656 83.736 103.563 83.448 102.528 82.872C101.504 82.2853 100.672 81.464 100.032 80.408C99.4027 79.352 99.088 78.1253 99.088 76.728C99.088 75.3307 99.4293 74.088 100.112 73C100.795 71.912 101.707 71.0587 102.848 70.44C103.989 69.8107 105.253 69.496 106.64 69.496C108.048 69.496 109.317 69.8 110.448 70.408C111.589 71.016 112.496 71.88 113.168 73C113.84 74.12 114.176 75.4373 114.176 76.952C114.176 78.5627 113.904 79.928 113.36 81.048C112.816 82.1573 112.181 83.16 111.456 84.056L105.856 91H101.872ZM106.608 80.968C107.408 80.968 108.133 80.776 108.784 80.392C109.445 80.008 109.973 79.4853 110.368 78.824C110.763 78.1627 110.96 77.4373 110.96 76.648C110.96 75.848 110.763 75.1227 110.368 74.472C109.973 73.8107 109.445 73.288 108.784 72.904C108.133 72.5093 107.408 72.312 106.608 72.312C105.819 72.312 105.093 72.5093 104.432 72.904C103.781 73.288 103.259 73.8107 102.864 74.472C102.48 75.1227 102.288 75.848 102.288 76.648C102.288 77.4373 102.48 78.1627 102.864 78.824C103.259 79.4853 103.781 80.008 104.432 80.392C105.093 80.776 105.819 80.968 106.608 80.968Z" fill="#4E37A2"/>
<path d="M120.192 91.216C120.075 91.0667 119.899 90.8907 119.664 90.688C119.44 90.4853 119.232 90.336 119.04 90.24C119.989 89.5787 120.699 88.752 121.168 87.76C121.637 86.768 121.872 85.5147 121.872 84V77.184H130.56V89.536C130.56 90.5707 129.952 91.088 128.736 91.088H127.44C127.419 90.8747 127.371 90.608 127.296 90.288C127.232 89.9787 127.163 89.7387 127.088 89.568H128.4C128.635 89.568 128.8 89.5307 128.896 89.456C128.992 89.3707 129.04 89.216 129.04 88.992V85.728H123.264C123.115 86.976 122.784 88.0373 122.272 88.912C121.771 89.7867 121.077 90.5547 120.192 91.216ZM123.36 84.368H129.04V82.144H123.376V83.984C123.376 84.048 123.371 84.112 123.36 84.176C123.36 84.24 123.36 84.304 123.36 84.368ZM123.376 80.768H129.04V78.576H123.376V80.768Z" fill="black"/>
<path d="M19.366 121.062V117.444C19.162 118.032 18.904 118.602 18.592 119.154C18.292 119.706 17.938 120.21 17.53 120.666C17.362 120.534 17.134 120.372 16.846 120.18C16.57 120 16.36 119.88 16.216 119.82C16.696 119.268 17.098 118.704 17.422 118.128C17.758 117.54 18.01 116.88 18.178 116.148C18.358 115.404 18.448 114.534 18.448 113.538V110.478H25.756V115.716H19.798C19.774 115.872 19.744 116.028 19.708 116.184C19.672 116.34 19.636 116.502 19.6 116.67H25.684V121.062H19.366ZM17.242 110.388C17.194 110.292 17.11 110.166 16.99 110.01C16.87 109.842 16.75 109.68 16.63 109.524C16.51 109.368 16.402 109.248 16.306 109.164C16.978 108.864 17.644 108.474 18.304 107.994C18.976 107.514 19.582 106.998 20.122 106.446C20.674 105.894 21.106 105.36 21.418 104.844L22.84 105.168C23.14 105.564 23.524 105.978 23.992 106.41C24.46 106.83 24.97 107.226 25.522 107.598C26.086 107.97 26.644 108.282 27.196 108.534C27.124 108.618 27.022 108.744 26.89 108.912C26.77 109.08 26.65 109.254 26.53 109.434C26.422 109.602 26.344 109.734 26.296 109.83C25.996 109.662 25.69 109.476 25.378 109.272C25.066 109.056 24.754 108.834 24.442 108.606V109.704H19.6V108.84C18.82 109.452 18.034 109.968 17.242 110.388ZM28.96 121.242C28.936 121.026 28.888 120.75 28.816 120.414C28.744 120.09 28.672 119.838 28.6 119.658H30.04C30.28 119.658 30.454 119.616 30.562 119.532C30.67 119.448 30.724 119.292 30.724 119.064V105.276H32.326V119.604C32.326 120.168 32.17 120.582 31.858 120.846C31.546 121.11 31.066 121.242 30.418 121.242H28.96ZM27.394 117.39V106.806H28.888V117.39H27.394ZM20.824 119.784H24.208V117.912H20.824V119.784ZM19.942 114.6H24.298V113.61H19.978C19.978 113.778 19.972 113.946 19.96 114.114C19.96 114.27 19.954 114.432 19.942 114.6ZM19.978 112.53H24.298V111.594H19.978V112.53ZM20.122 108.408H24.172C23.344 107.772 22.642 107.118 22.066 106.446C21.838 106.746 21.556 107.064 21.22 107.4C20.884 107.736 20.518 108.072 20.122 108.408ZM42.226 121.422V117.516C41.686 118.02 41.062 118.506 40.354 118.974C39.646 119.43 38.908 119.844 38.14 120.216C37.384 120.588 36.64 120.894 35.908 121.134C35.872 121.038 35.8 120.906 35.692 120.738C35.584 120.57 35.47 120.396 35.35 120.216C35.23 120.048 35.128 119.922 35.044 119.838C35.716 119.646 36.424 119.382 37.168 119.046C37.912 118.698 38.632 118.314 39.328 117.894C40.036 117.462 40.648 117.042 41.164 116.634H35.098V115.338H42.226V114.222H36.862V112.98H42.226V111.918H36.106V110.64H39.688C39.58 110.4 39.466 110.154 39.346 109.902C39.226 109.65 39.106 109.428 38.986 109.236H35.08V107.94H38.104C37.948 107.628 37.762 107.25 37.546 106.806C37.33 106.362 37.12 106.008 36.916 105.744L38.32 105.078C38.464 105.306 38.62 105.576 38.788 105.888C38.956 106.2 39.112 106.506 39.256 106.806C39.412 107.094 39.526 107.328 39.598 107.508L38.59 107.94H40.624V104.988H42.154V107.94H43.774V104.988H45.304V107.94H47.374L46.186 107.472C46.342 107.268 46.51 107.022 46.69 106.734C46.87 106.446 47.038 106.158 47.194 105.87C47.35 105.57 47.47 105.312 47.554 105.096L49.084 105.582C48.964 105.81 48.814 106.074 48.634 106.374C48.454 106.662 48.274 106.95 48.094 107.238C47.914 107.514 47.752 107.748 47.608 107.94H50.902V109.236H46.978C46.894 109.464 46.792 109.704 46.672 109.956C46.552 110.196 46.438 110.424 46.33 110.64H49.768V111.918H43.774V112.98H49.084V114.222H43.774V115.338H50.902V116.634H44.8C45.328 117.042 45.934 117.456 46.618 117.876C47.314 118.284 48.034 118.662 48.778 119.01C49.522 119.358 50.224 119.628 50.884 119.82C50.8 119.904 50.698 120.03 50.578 120.198C50.47 120.378 50.368 120.552 50.272 120.72C50.176 120.9 50.104 121.038 50.056 121.134C49.336 120.894 48.592 120.588 47.824 120.216C47.068 119.844 46.342 119.43 45.646 118.974C44.95 118.506 44.326 118.026 43.774 117.534V121.422H42.226ZM41.416 110.64H44.584C44.692 110.436 44.806 110.208 44.926 109.956C45.046 109.704 45.154 109.464 45.25 109.236H40.786C40.906 109.476 41.02 109.722 41.128 109.974C41.248 110.226 41.344 110.448 41.416 110.64Z" fill="black"/>
</svg>
