<svg width="320" height="259" viewBox="0 0 320 259" fill="none" xmlns="http://www.w3.org/2000/svg">
<mask id="path-1-inside-1_5513_2612" fill="white">
<path d="M320 251C320 255.418 316.418 259 312 259H7.99999C3.58171 259 0 255.418 0 251V8C0 3.58172 3.58172 0 8 0H195.056C198.086 0 200.856 1.71202 202.211 4.42229L237.789 75.5777C239.144 78.288 241.914 80 244.944 80H312C316.418 80 320 83.5817 320 88V251Z"/>
</mask>
<path d="M320 251C320 255.418 316.418 259 312 259H7.99999C3.58171 259 0 255.418 0 251V8C0 3.58172 3.58172 0 8 0H195.056C198.086 0 200.856 1.71202 202.211 4.42229L237.789 75.5777C239.144 78.288 241.914 80 244.944 80H312C316.418 80 320 83.5817 320 88V251Z" fill="#E1E3FF"/>
<path d="M237.789 75.5777L238.683 75.1305L237.789 75.5777ZM202.211 4.42229L201.317 4.8695L202.211 4.42229ZM312 259V258H7.99999V259V260H312V259ZM0 251H1V8H0H-1V251H0ZM8 0V1H195.056V0V-1H8V0ZM202.211 4.42229L201.317 4.8695L236.894 76.0249L237.789 75.5777L238.683 75.1305L203.106 3.97508L202.211 4.42229ZM244.944 80V81H312V80V79H244.944V80ZM320 88H319V251H320H321V88H320ZM312 80V81C315.866 81 319 84.134 319 88H320H321C321 83.0294 316.971 79 312 79V80ZM237.789 75.5777L236.894 76.0249C238.419 79.074 241.535 81 244.944 81V80V79C242.293 79 239.869 77.502 238.683 75.1305L237.789 75.5777ZM195.056 0V1C197.707 1 200.131 2.49802 201.317 4.8695L202.211 4.42229L203.106 3.97508C201.581 0.926021 198.465 -1 195.056 -1V0ZM0 8H1C1 4.134 4.13401 1 8 1V0V-1C3.02944 -1 -1 3.02943 -1 8H0ZM7.99999 259V258C4.134 258 1 254.866 1 251H0H-1C-1 255.971 3.02943 260 7.99999 260V259ZM312 259V260C316.971 260 321 255.971 321 251H320H319C319 254.866 315.866 258 312 258V259Z" fill="#D3D3D3" mask="url(#path-1-inside-1_5513_2612)"/>
<path d="M69.532 28.136C68.3 28.136 67.212 28.4 66.268 28.928C65.34 29.44 64.564 30.048 63.94 30.752C63.316 31.456 62.836 32.096 62.5 32.672C62.18 33.248 62.004 33.568 61.972 33.632L57.58 31.664C57.612 31.52 57.764 31.16 58.036 30.584C58.308 29.992 58.732 29.32 59.308 28.568C59.884 27.8 60.628 27.048 61.54 26.312C62.468 25.576 63.588 24.968 64.9 24.488C66.228 23.992 67.772 23.744 69.532 23.744C71.436 23.744 73.052 24.008 74.38 24.536C75.708 25.064 76.788 25.792 77.62 26.72C78.452 27.632 79.06 28.68 79.444 29.864C79.828 31.048 80.02 32.296 80.02 33.608C80.02 34.952 79.708 36.312 79.084 37.688C78.476 39.064 77.684 40.4 76.708 41.696C75.732 42.976 74.684 44.176 73.564 45.296C72.444 46.416 71.356 47.416 70.3 48.296C69.26 49.176 68.364 49.896 67.612 50.456C66.876 51.016 66.412 51.368 66.22 51.512H79.756V56H58.444V51.92C58.86 51.584 59.54 51.048 60.484 50.312C61.444 49.576 62.548 48.704 63.796 47.696C65.044 46.672 66.308 45.56 67.588 44.36C68.884 43.16 70.084 41.928 71.188 40.664C72.308 39.4 73.204 38.16 73.876 36.944C74.564 35.728 74.908 34.592 74.908 33.536C74.908 31.552 74.444 30.16 73.516 29.36C72.588 28.544 71.26 28.136 69.532 28.136ZM84.4004 40.184C84.4004 37.384 84.7364 34.952 85.4084 32.888C86.0964 30.824 87.0244 29.12 88.1924 27.776C89.3604 26.416 90.6724 25.408 92.1284 24.752C93.5844 24.08 95.0884 23.744 96.6404 23.744C98.2084 23.744 99.7204 24.08 101.176 24.752C102.648 25.408 103.96 26.416 105.112 27.776C106.264 29.12 107.176 30.824 107.848 32.888C108.52 34.952 108.856 37.384 108.856 40.184C108.856 43.08 108.52 45.56 107.848 47.624C107.176 49.688 106.264 51.384 105.112 52.712C103.96 54.024 102.648 55 101.176 55.64C99.7204 56.264 98.2084 56.576 96.6404 56.576C95.0884 56.576 93.5844 56.264 92.1284 55.64C90.6724 55 89.3604 54.024 88.1924 52.712C87.0244 51.384 86.0964 49.688 85.4084 47.624C84.7364 45.56 84.4004 43.08 84.4004 40.184ZM89.5124 40.184C89.5124 42.84 89.8244 45.056 90.4484 46.832C91.0884 48.592 91.9444 49.904 93.0164 50.768C94.1044 51.616 95.3124 52.04 96.6404 52.04C98.0004 52.04 99.2084 51.608 100.264 50.744C101.336 49.88 102.184 48.568 102.808 46.808C103.432 45.048 103.744 42.84 103.744 40.184C103.744 37.576 103.432 35.392 102.808 33.632C102.184 31.872 101.336 30.544 100.264 29.648C99.2084 28.736 98.0004 28.28 96.6404 28.28C95.3124 28.28 94.1044 28.736 93.0164 29.648C91.9444 30.544 91.0884 31.88 90.4484 33.656C89.8244 35.416 89.5124 37.592 89.5124 40.184ZM124.095 28.136C122.863 28.136 121.775 28.4 120.831 28.928C119.903 29.44 119.127 30.048 118.503 30.752C117.879 31.456 117.399 32.096 117.062 32.672C116.743 33.248 116.567 33.568 116.535 33.632L112.143 31.664C112.175 31.52 112.327 31.16 112.599 30.584C112.871 29.992 113.295 29.32 113.871 28.568C114.447 27.8 115.191 27.048 116.103 26.312C117.031 25.576 118.151 24.968 119.463 24.488C120.791 23.992 122.335 23.744 124.095 23.744C125.999 23.744 127.615 24.008 128.943 24.536C130.271 25.064 131.351 25.792 132.183 26.72C133.015 27.632 133.623 28.68 134.007 29.864C134.391 31.048 134.583 32.296 134.583 33.608C134.583 34.952 134.271 36.312 133.647 37.688C133.039 39.064 132.247 40.4 131.271 41.696C130.295 42.976 129.247 44.176 128.127 45.296C127.007 46.416 125.919 47.416 124.863 48.296C123.823 49.176 122.927 49.896 122.175 50.456C121.439 51.016 120.975 51.368 120.783 51.512H134.319V56H113.007V51.92C113.423 51.584 114.103 51.048 115.047 50.312C116.007 49.576 117.111 48.704 118.359 47.696C119.607 46.672 120.871 45.56 122.151 44.36C123.447 43.16 124.647 41.928 125.751 40.664C126.871 39.4 127.767 38.16 128.439 36.944C129.127 35.728 129.471 34.592 129.471 33.536C129.471 31.552 129.007 30.16 128.079 29.36C127.151 28.544 125.823 28.136 124.095 28.136ZM143.547 48.416C143.659 48.752 143.851 49.136 144.123 49.568C144.395 50 144.763 50.424 145.227 50.84C145.691 51.24 146.267 51.576 146.955 51.848C147.643 52.12 148.467 52.256 149.427 52.256C151.347 52.256 152.851 51.64 153.939 50.408C155.027 49.16 155.563 47.528 155.547 45.512C155.531 43.608 155.027 42.144 154.035 41.12C153.043 40.08 151.715 39.56 150.051 39.56C149.011 39.56 148.099 39.744 147.315 40.112C146.547 40.48 145.923 40.928 145.443 41.456C144.963 41.984 144.627 42.472 144.435 42.92L140.115 41.408L142.851 24.32H159.243V28.808H147.171L145.827 37.472C145.907 37.328 146.171 37.096 146.619 36.776C147.083 36.44 147.715 36.128 148.515 35.84C149.331 35.536 150.307 35.384 151.443 35.384C153.027 35.384 154.515 35.744 155.907 36.464C157.299 37.168 158.435 38.248 159.315 39.704C160.195 41.144 160.635 42.992 160.635 45.248C160.651 47.504 160.203 49.48 159.291 51.176C158.395 52.872 157.115 54.2 155.451 55.16C153.803 56.104 151.851 56.576 149.595 56.576C147.931 56.576 146.491 56.368 145.275 55.952C144.059 55.52 143.035 54.984 142.203 54.344C141.371 53.704 140.707 53.04 140.211 52.352C139.715 51.648 139.363 51.024 139.155 50.48L143.547 48.416Z" fill="#4E37A2"/>
<path d="M36.332 119.422C36.272 119.302 36.176 119.152 36.044 118.972C35.912 118.792 35.774 118.618 35.63 118.45C35.486 118.27 35.36 118.132 35.252 118.036C36.008 117.748 36.782 117.364 37.574 116.884C38.378 116.404 39.152 115.876 39.896 115.3C40.652 114.712 41.318 114.118 41.894 113.518C42.482 112.906 42.938 112.324 43.262 111.772L44.792 111.988C45.176 112.528 45.662 113.08 46.25 113.644C46.838 114.196 47.492 114.736 48.212 115.264C48.932 115.78 49.676 116.26 50.444 116.704C51.224 117.136 51.986 117.496 52.73 117.784C52.622 117.88 52.484 118.03 52.316 118.234C52.16 118.426 52.01 118.618 51.866 118.81C51.734 119.002 51.638 119.158 51.578 119.278C50.306 118.726 49.046 118 47.798 117.1V118.63H40.13V117.136C38.798 118.096 37.532 118.858 36.332 119.422ZM42.452 128.332V121.834H37.7V120.268H49.706V125.38C49.706 126.544 49.04 127.126 47.708 127.126H46.142C46.118 126.886 46.064 126.592 45.98 126.244C45.908 125.896 45.836 125.626 45.764 125.434H47.33C47.582 125.434 47.762 125.392 47.87 125.308C47.978 125.212 48.032 125.044 48.032 124.804V121.834H44.144V128.332H42.452ZM40.238 117.064H47.744C47.012 116.536 46.316 115.972 45.656 115.372C45.008 114.76 44.456 114.142 44 113.518C43.592 114.094 43.052 114.688 42.38 115.3C41.72 115.912 41.006 116.5 40.238 117.064ZM62.9 126.514V114.31H69.632V126.514H62.9ZM57.572 128.278V121.492C57.164 122.188 56.714 122.866 56.222 123.526C55.742 124.174 55.298 124.69 54.89 125.074C54.818 124.978 54.698 124.864 54.53 124.732C54.362 124.588 54.194 124.456 54.026 124.336C53.858 124.204 53.72 124.108 53.612 124.048C53.948 123.76 54.302 123.4 54.674 122.968C55.046 122.524 55.412 122.05 55.772 121.546C56.144 121.03 56.48 120.514 56.78 119.998C57.08 119.47 57.32 118.978 57.5 118.522H54.08V117.028H57.572V114.724C57.08 114.844 56.594 114.946 56.114 115.03C55.646 115.102 55.214 115.162 54.818 115.21C54.794 115.09 54.746 114.934 54.674 114.742C54.602 114.538 54.518 114.346 54.422 114.166C54.338 113.974 54.266 113.842 54.206 113.77C54.662 113.734 55.196 113.668 55.808 113.572C56.432 113.464 57.068 113.332 57.716 113.176C58.364 113.02 58.97 112.852 59.534 112.672C60.11 112.48 60.572 112.288 60.92 112.096L61.856 113.428C61.52 113.584 61.124 113.74 60.668 113.896C60.212 114.04 59.72 114.184 59.192 114.328V117.028H62.108V118.522H59.192V119.242C59.432 119.554 59.738 119.908 60.11 120.304C60.482 120.688 60.878 121.066 61.298 121.438C61.718 121.798 62.114 122.11 62.486 122.374C62.402 122.446 62.282 122.56 62.126 122.716C61.97 122.872 61.82 123.034 61.676 123.202C61.544 123.358 61.448 123.49 61.388 123.598C61.04 123.31 60.674 122.974 60.29 122.59C59.906 122.194 59.54 121.792 59.192 121.384V128.278H57.572ZM64.556 124.984H67.976V115.858H64.556V124.984Z" fill="black"/>
<path d="M75.016 104.24H90.892V106.886L78.886 128H74.674L86.446 107.606H75.016V104.24Z" fill="#4E37A2"/>
<path d="M103.144 128.314V124.192H94.81V122.716H98.068V118.306H103.144V115.768H99.112C98.668 116.464 98.182 117.13 97.654 117.766C97.126 118.39 96.562 118.948 95.962 119.44C95.818 119.308 95.62 119.134 95.368 118.918C95.116 118.702 94.876 118.534 94.648 118.414C95.368 117.862 96.034 117.208 96.646 116.452C97.27 115.696 97.81 114.91 98.266 114.094C98.722 113.278 99.064 112.504 99.292 111.772L100.858 112.258C100.738 112.594 100.6 112.93 100.444 113.266C100.3 113.602 100.144 113.938 99.976 114.274H110.362V115.768H104.854V118.306H109.192V119.764H104.854V122.716H111.136V124.192H104.854V128.314H103.144ZM99.76 122.716H103.144V119.764H99.76V122.716Z" fill="black"/>
<path d="M118.356 128L126.024 118.802C125.796 119.042 125.406 119.276 124.854 119.504C124.302 119.72 123.612 119.828 122.784 119.828C121.488 119.828 120.258 119.504 119.094 118.856C117.942 118.196 117.006 117.272 116.286 116.084C115.578 114.896 115.224 113.516 115.224 111.944C115.224 110.372 115.608 108.974 116.376 107.75C117.144 106.526 118.17 105.566 119.454 104.87C120.738 104.162 122.16 103.808 123.72 103.808C125.304 103.808 126.732 104.15 128.004 104.834C129.288 105.518 130.308 106.49 131.064 107.75C131.82 109.01 132.198 110.492 132.198 112.196C132.198 114.008 131.892 115.544 131.28 116.804C130.668 118.052 129.954 119.18 129.138 120.188L122.838 128H118.356ZM123.684 116.714C124.584 116.714 125.4 116.498 126.132 116.066C126.876 115.634 127.47 115.046 127.914 114.302C128.358 113.558 128.58 112.742 128.58 111.854C128.58 110.954 128.358 110.138 127.914 109.406C127.47 108.662 126.876 108.074 126.132 107.642C125.4 107.198 124.584 106.976 123.684 106.976C122.796 106.976 121.98 107.198 121.236 107.642C120.504 108.074 119.916 108.662 119.472 109.406C119.04 110.138 118.824 110.954 118.824 111.854C118.824 112.742 119.04 113.558 119.472 114.302C119.916 115.046 120.504 115.634 121.236 116.066C121.98 116.498 122.796 116.714 123.684 116.714Z" fill="#4E37A2"/>
<path d="M138.466 128.368C138.334 128.2 138.136 128.002 137.872 127.774C137.62 127.546 137.386 127.378 137.17 127.27C138.238 126.526 139.036 125.596 139.564 124.48C140.092 123.364 140.356 121.954 140.356 120.25V112.582H150.13V126.478C150.13 127.642 149.446 128.224 148.078 128.224H146.62C146.596 127.984 146.542 127.684 146.458 127.324C146.386 126.976 146.308 126.706 146.224 126.514H147.7C147.964 126.514 148.15 126.472 148.258 126.388C148.366 126.292 148.42 126.118 148.42 125.866V122.194H141.922C141.754 123.598 141.382 124.792 140.806 125.776C140.242 126.76 139.462 127.624 138.466 128.368ZM142.03 120.664H148.42V118.162H142.048V120.232C142.048 120.304 142.042 120.376 142.03 120.448C142.03 120.52 142.03 120.592 142.03 120.664ZM142.048 116.614H148.42V114.148H142.048V116.614Z" fill="black"/>
<path d="M46.4 187.86V186.26H41.82V184.88H46.4V183.5H42.62V182.16H46.4V180.76H42.78V179.42H46.4V177.98H41.48V176.64H46.4V175.2H42.82V173.86H46.4V172.24H48.18V173.86H52.34V176.64H53.96V177.98H52.34V180.76H48.18V182.16H52.6V183.5H48.18V184.88H53.42V186.26H48.18V187.86H46.4ZM36.98 190.56C36.9 190.467 36.78 190.347 36.62 190.2C36.46 190.053 36.2933 189.907 36.12 189.76C35.9467 189.613 35.8 189.507 35.68 189.44C36.84 188.627 37.7867 187.607 38.52 186.38C38.1067 185.847 37.74 185.253 37.42 184.6C37.1 183.947 36.8067 183.227 36.54 182.44L37.98 181.96C38.34 183.027 38.7733 183.96 39.28 184.76C39.5067 184.147 39.6867 183.5 39.82 182.82C39.9667 182.14 40.0467 181.42 40.06 180.66H36.88V179.48C37.04 179.253 37.2267 178.953 37.44 178.58C37.6533 178.193 37.8733 177.787 38.1 177.36C38.34 176.933 38.56 176.52 38.76 176.12C38.96 175.707 39.12 175.36 39.24 175.08H36.24V173.44H41.08L41.64 173.94C41.4933 174.3 41.3067 174.72 41.08 175.2C40.8533 175.68 40.6133 176.173 40.36 176.68C40.12 177.187 39.8867 177.653 39.66 178.08C39.4333 178.493 39.2467 178.82 39.1 179.06H41.76C41.76 180.567 41.6533 181.9 41.44 183.06C41.2267 184.22 40.9067 185.267 40.48 186.2C41.28 186.947 42.24 187.493 43.36 187.84C44.48 188.173 45.8067 188.34 47.34 188.34C48.9533 188.34 50.3133 188.327 51.42 188.3C52.5267 188.273 53.4 188.213 54.04 188.12C54 188.213 53.9467 188.38 53.88 188.62C53.8267 188.847 53.78 189.08 53.74 189.32C53.7 189.56 53.6733 189.747 53.66 189.88C53.2467 189.88 52.68 189.88 51.96 189.88C51.24 189.893 50.4667 189.9 49.64 189.9C48.8267 189.913 48.06 189.92 47.34 189.92C45.6867 189.92 44.2267 189.733 42.96 189.36C41.7067 189 40.6133 188.42 39.68 187.62C39.3333 188.167 38.9333 188.68 38.48 189.16C38.0267 189.64 37.5267 190.107 36.98 190.56ZM48.18 179.42H50.58V177.98H48.18V179.42ZM48.18 176.64H50.58V175.2H48.18V176.64ZM63.74 190.4C63.6733 190.213 63.5467 189.96 63.36 189.64C63.1867 189.32 63.0267 189.093 62.88 188.96C63.7467 188.707 64.5533 188.367 65.3 187.94C66.06 187.513 66.7533 187.033 67.38 186.5C66.86 185.887 66.4133 185.233 66.04 184.54C65.6667 183.847 65.3667 183.133 65.14 182.4H63.58V180.84H72.14L72.82 181.5C72.1267 183.393 71.14 185.06 69.86 186.5C70.5 187.02 71.2 187.473 71.96 187.86C72.7333 188.233 73.5333 188.513 74.36 188.7C74.2667 188.807 74.1467 188.96 74 189.16C73.8667 189.373 73.74 189.58 73.62 189.78C73.5133 189.993 73.44 190.16 73.4 190.28C72.4533 190.013 71.58 189.66 70.78 189.22C69.98 188.793 69.2533 188.293 68.6 187.72C67.9067 188.32 67.1533 188.847 66.34 189.3C65.5267 189.753 64.66 190.12 63.74 190.4ZM64.42 180.5C64.26 180.3 64.0533 180.093 63.8 179.88C63.56 179.653 63.3267 179.48 63.1 179.36C63.5933 178.973 63.98 178.6 64.26 178.24C64.5533 177.88 64.7667 177.46 64.9 176.98C65.0333 176.5 65.1 175.887 65.1 175.14V172.92H70.88V177.58C70.88 177.74 70.9133 177.853 70.98 177.92C71.06 177.987 71.2133 178.02 71.44 178.02H72.02C72.22 178.02 72.38 177.98 72.5 177.9C72.6333 177.807 72.74 177.627 72.82 177.36C72.9 177.093 72.9533 176.693 72.98 176.16C73.1667 176.253 73.4133 176.347 73.72 176.44C74.04 176.52 74.32 176.587 74.56 176.64C74.4933 177.493 74.3733 178.14 74.2 178.58C74.0267 179.02 73.7733 179.32 73.44 179.48C73.12 179.64 72.7067 179.72 72.2 179.72H70.98C70.2867 179.72 69.8067 179.627 69.54 179.44C69.2733 179.253 69.14 178.927 69.14 178.46V174.48H66.84V175.26C66.84 176.42 66.6533 177.413 66.28 178.24C65.92 179.053 65.3 179.807 64.42 180.5ZM56.9 189.9V184.28H62.68V189.9H56.9ZM55.94 177.42V175.96H63.36V177.42H55.94ZM56.92 174.66V173.16H62.54V174.66H56.92ZM56.9 180.2V178.72H62.54V180.2H56.9ZM56.9 182.96V181.5H62.54V182.96H56.9ZM58.5 188.44H61.08V185.76H58.5V188.44ZM68.62 185.3C69.4467 184.353 70.06 183.387 70.46 182.4H66.86C67.0467 182.92 67.2867 183.427 67.58 183.92C67.8867 184.4 68.2333 184.86 68.62 185.3ZM84.14 190.58V186.24C83.54 186.8 82.8467 187.34 82.06 187.86C81.2733 188.367 80.4533 188.827 79.6 189.24C78.76 189.653 77.9333 189.993 77.12 190.26C77.08 190.153 77 190.007 76.88 189.82C76.76 189.633 76.6333 189.44 76.5 189.24C76.3667 189.053 76.2533 188.913 76.16 188.82C76.9067 188.607 77.6933 188.313 78.52 187.94C79.3467 187.553 80.1467 187.127 80.92 186.66C81.7067 186.18 82.3867 185.713 82.96 185.26H76.22V183.82H84.14V182.58H78.18V181.2H84.14V180.02H77.34V178.6H81.32C81.2 178.333 81.0733 178.06 80.94 177.78C80.8067 177.5 80.6733 177.253 80.54 177.04H76.2V175.6H79.56C79.3867 175.253 79.18 174.833 78.94 174.34C78.7 173.847 78.4667 173.453 78.24 173.16L79.8 172.42C79.96 172.673 80.1333 172.973 80.32 173.32C80.5067 173.667 80.68 174.007 80.84 174.34C81.0133 174.66 81.14 174.92 81.22 175.12L80.1 175.6H82.36V172.32H84.06V175.6H85.86V172.32H87.56V175.6H89.86L88.54 175.08C88.7133 174.853 88.9 174.58 89.1 174.26C89.3 173.94 89.4867 173.62 89.66 173.3C89.8333 172.967 89.9667 172.68 90.06 172.44L91.76 172.98C91.6267 173.233 91.46 173.527 91.26 173.86C91.06 174.18 90.86 174.5 90.66 174.82C90.46 175.127 90.28 175.387 90.12 175.6H93.78V177.04H89.42C89.3267 177.293 89.2133 177.56 89.08 177.84C88.9467 178.107 88.82 178.36 88.7 178.6H92.52V180.02H85.86V181.2H91.76V182.58H85.86V183.82H93.78V185.26H87C87.5867 185.713 88.26 186.173 89.02 186.64C89.7933 187.093 90.5933 187.513 91.42 187.9C92.2467 188.287 93.0267 188.587 93.76 188.8C93.6667 188.893 93.5533 189.033 93.42 189.22C93.3 189.42 93.1867 189.613 93.08 189.8C92.9733 190 92.8933 190.153 92.84 190.26C92.04 189.993 91.2133 189.653 90.36 189.24C89.52 188.827 88.7133 188.367 87.94 187.86C87.1667 187.34 86.4733 186.807 85.86 186.26V190.58H84.14ZM83.24 178.6H86.76C86.88 178.373 87.0067 178.12 87.14 177.84C87.2733 177.56 87.3933 177.293 87.5 177.04H82.54C82.6733 177.307 82.8 177.58 82.92 177.86C83.0533 178.14 83.16 178.387 83.24 178.6ZM107.86 190.3V182.92H103.3V181.26H107.86V176.88H106.26C105.967 177.507 105.653 178.1 105.32 178.66C104.987 179.22 104.633 179.733 104.26 180.2C104.153 180.093 104 179.98 103.8 179.86C103.6 179.727 103.393 179.6 103.18 179.48C102.98 179.36 102.813 179.273 102.68 179.22C103.173 178.66 103.64 177.987 104.08 177.2C104.52 176.4 104.907 175.573 105.24 174.72C105.573 173.853 105.807 173.053 105.94 172.32L107.76 172.68C107.653 173.107 107.527 173.54 107.38 173.98C107.247 174.42 107.1 174.86 106.94 175.3H113.4V176.88H109.68V181.26H114.08V182.92H109.68V190.3H107.86ZM96.84 189.86V184.26H102.62V189.86H96.84ZM95.98 177.38V175.92H103.28V177.38H95.98ZM96.94 174.62V173.12H102.38V174.62H96.94ZM96.94 182.94V181.46H102.38V182.94H96.94ZM96.94 180.16V178.7H102.38V180.16H96.94ZM98.42 188.4H101.02V185.72H98.42V188.4ZM126.48 190.12C126.453 189.853 126.393 189.52 126.3 189.12C126.22 188.733 126.133 188.433 126.04 188.22H128.46C128.74 188.22 128.94 188.173 129.06 188.08C129.193 187.987 129.26 187.8 129.26 187.52V175.62H115.78V173.92H134.12V175.62H131.18V188.18C131.18 188.847 130.993 189.333 130.62 189.64C130.247 189.96 129.673 190.12 128.9 190.12H126.48ZM118.66 185.32V177.96H125.82V185.32H118.66ZM120.5 183.62H124V179.64H120.5V183.62ZM36.08 220.04V218.52H44.1V216.86H38.3V215.4H44.1V213.98H45.3C45.26 213.753 45.2067 213.507 45.14 213.24C45.0733 212.96 45.0067 212.74 44.94 212.58H45.84C46.1067 212.58 46.2933 212.54 46.4 212.46C46.5067 212.38 46.56 212.213 46.56 211.96V210.1H41.96V208.72H46.56V207.48H44V206.68C43.6133 206.947 43.2267 207.2 42.84 207.44C42.4533 207.667 42.0733 207.873 41.7 208.06C41.62 207.913 41.4733 207.7 41.26 207.42C41.0467 207.14 40.8667 206.933 40.72 206.8C41.44 206.493 42.18 206.087 42.94 205.58C43.7133 205.073 44.4267 204.52 45.08 203.92C45.7333 203.307 46.2467 202.713 46.62 202.14L48.1 202.36C48.5133 202.933 49.04 203.5 49.68 204.06C50.3333 204.607 51.0533 205.1 51.84 205.54C52.6267 205.98 53.4133 206.327 54.2 206.58C54.12 206.66 54.0133 206.793 53.88 206.98C53.76 207.153 53.6467 207.333 53.54 207.52C53.4467 207.707 53.3733 207.853 53.32 207.96C52.9067 207.813 52.48 207.627 52.04 207.4C51.6 207.173 51.1667 206.933 50.74 206.68V207.48H48.22V208.72H52.64V210.1H48.22V212.4C48.22 213.013 48.06 213.46 47.74 213.74C47.4333 214.02 46.9333 214.16 46.24 214.16H45.92V215.4H51.7V216.86H45.92V218.52H53.84V220.04H36.08ZM37.24 214.46L35.98 213.2C36.2867 213 36.64 212.733 37.04 212.4C37.4533 212.067 37.8733 211.707 38.3 211.32C38.7267 210.92 39.1333 210.533 39.52 210.16C39.92 209.787 40.2467 209.453 40.5 209.16C40.5533 209.24 40.64 209.38 40.76 209.58C40.8933 209.78 41.02 209.973 41.14 210.16C41.2733 210.333 41.3667 210.453 41.42 210.52C41.1133 210.893 40.7067 211.327 40.2 211.82C39.7067 212.3 39.1933 212.78 38.66 213.26C38.14 213.727 37.6667 214.127 37.24 214.46ZM52.58 214.18C51.9667 213.793 51.34 213.327 50.7 212.78C50.0733 212.22 49.5667 211.693 49.18 211.2L50.42 210.26C50.62 210.527 50.9 210.833 51.26 211.18C51.6333 211.513 52.0333 211.84 52.46 212.16C52.9 212.48 53.32 212.753 53.72 212.98C53.56 213.087 53.3533 213.28 53.1 213.56C52.86 213.827 52.6867 214.033 52.58 214.18ZM42.04 214.18C41.9733 214.073 41.8667 213.94 41.72 213.78C41.5867 213.62 41.4467 213.467 41.3 213.32C41.1533 213.16 41.0267 213.047 40.92 212.98C41.32 212.753 41.7333 212.48 42.16 212.16C42.6 211.84 43.0067 211.513 43.38 211.18C43.7533 210.833 44.0333 210.527 44.22 210.26L45.44 211.2C45.0667 211.693 44.56 212.22 43.92 212.78C43.2933 213.327 42.6667 213.793 42.04 214.18ZM44.72 206.16H49.94C49.3933 205.773 48.8867 205.373 48.42 204.96C47.9533 204.547 47.5667 204.133 47.26 203.72C46.9667 204.12 46.5933 204.527 46.14 204.94C45.7 205.353 45.2267 205.76 44.72 206.16ZM40.58 205.52C40.1933 205.187 39.72 204.833 39.16 204.46C38.6 204.073 38.08 203.753 37.6 203.5L38.6 202.3C38.88 202.447 39.2067 202.64 39.58 202.88C39.9533 203.107 40.32 203.347 40.68 203.6C41.04 203.853 41.34 204.08 41.58 204.28C41.5 204.36 41.3867 204.487 41.24 204.66C41.1067 204.82 40.9733 204.987 40.84 205.16C40.72 205.32 40.6333 205.44 40.58 205.52ZM39.38 208.68C38.98 208.373 38.5 208.047 37.94 207.7C37.3933 207.34 36.8733 207.047 36.38 206.82L37.26 205.54C37.5533 205.673 37.8867 205.847 38.26 206.06C38.6333 206.273 39 206.493 39.36 206.72C39.72 206.947 40.0267 207.16 40.28 207.36C40.2133 207.44 40.1133 207.573 39.98 207.76C39.86 207.933 39.74 208.107 39.62 208.28C39.5133 208.453 39.4333 208.587 39.38 208.68ZM58.56 220.7L58.14 219.08C58.4733 219.04 58.9067 218.98 59.44 218.9C59.9867 218.807 60.5733 218.7 61.2 218.58V216.46C60.4533 216.793 59.6667 217.093 58.84 217.36C58.0267 217.627 57.2 217.86 56.36 218.06C56.3333 217.94 56.2733 217.773 56.18 217.56C56.1 217.347 56.0067 217.133 55.9 216.92C55.7933 216.707 55.7 216.553 55.62 216.46C56.38 216.34 57.2 216.147 58.08 215.88C58.96 215.6 59.8267 215.273 60.68 214.9C61.5467 214.527 62.3133 214.12 62.98 213.68H56.02V212.16H64.18V210.72H66V212.16H73.98V213.68H70.64L71.84 214.84C71.52 215.107 71.1333 215.407 70.68 215.74C70.2267 216.06 69.7867 216.353 69.36 216.62C70.1067 217.167 70.9 217.633 71.74 218.02C72.58 218.393 73.4467 218.707 74.34 218.96C74.2333 219.053 74.1067 219.2 73.96 219.4C73.8133 219.6 73.6733 219.8 73.54 220C73.42 220.213 73.3333 220.387 73.28 220.52C71.5733 219.96 70.0067 219.16 68.58 218.12C67.1533 217.067 65.96 215.733 65 214.12C64.6933 214.373 64.3733 214.62 64.04 214.86C63.7067 215.087 63.3533 215.307 62.98 215.52V218.26C63.8067 218.1 64.5867 217.94 65.32 217.78C66.0667 217.62 66.6333 217.487 67.02 217.38V219.02C66.5 219.153 65.8667 219.3 65.12 219.46C64.3867 219.633 63.6133 219.8 62.8 219.96C62 220.12 61.2267 220.267 60.48 220.4C59.7333 220.533 59.0933 220.633 58.56 220.7ZM63.46 210.24V208.74H67.32V206.22H62.94V204.72H67.32V202.32H69.14V204.72H73.84V206.22H69.14V208.74H73.28V210.24H63.46ZM60.44 211.18V208.92C60.1067 209.133 59.72 209.373 59.28 209.64C58.8533 209.893 58.42 210.14 57.98 210.38C57.54 210.62 57.1333 210.833 56.76 211.02L56.04 209.44C56.4267 209.28 56.8933 209.06 57.44 208.78C57.9867 208.487 58.5267 208.187 59.06 207.88C59.6067 207.573 60.0667 207.3 60.44 207.06V202.32H62.14V211.18H60.44ZM58.7 206.4C58.5 206.107 58.2533 205.787 57.96 205.44C57.68 205.08 57.3867 204.74 57.08 204.42C56.7867 204.087 56.52 203.82 56.28 203.62L57.54 202.7C57.8067 202.913 58.0933 203.187 58.4 203.52C58.72 203.84 59.0267 204.167 59.32 204.5C59.6267 204.833 59.88 205.14 60.08 205.42C59.9867 205.473 59.8467 205.567 59.66 205.7C59.4867 205.82 59.3067 205.947 59.12 206.08C58.9333 206.213 58.7933 206.32 58.7 206.4ZM68.08 215.54C68.4667 215.273 68.9 214.967 69.38 214.62C69.86 214.26 70.2467 213.947 70.54 213.68H66.56C66.7867 214.027 67.0267 214.36 67.28 214.68C67.5333 214.987 67.8 215.273 68.08 215.54ZM88.2055 216.82V204.56H90.9255C91.0455 204.227 91.1721 203.82 91.3055 203.34C91.4521 202.86 91.5588 202.46 91.6255 202.14L93.5255 202.34C93.4588 202.633 93.3521 202.993 93.2055 203.42C93.0588 203.847 92.9121 204.227 92.7655 204.56H97.7055V209.76H90.0455V211.42H98.2455V216.82H88.2055ZM92.7855 220.04C91.4121 220.04 90.2455 219.967 89.2855 219.82C88.3255 219.687 87.5121 219.467 86.8455 219.16C86.1788 218.867 85.5988 218.48 85.1055 218C84.8788 218.16 84.5721 218.367 84.1855 218.62C83.8121 218.86 83.4321 219.1 83.0455 219.34C82.6721 219.58 82.3588 219.787 82.1055 219.96L81.2855 218.16C81.5121 218.067 81.8121 217.927 82.1855 217.74C82.5721 217.553 82.9521 217.36 83.3255 217.16C83.7121 216.96 84.0055 216.793 84.2055 216.66V211.32H81.6855V209.7H85.9655V216.52C86.2988 216.987 86.7388 217.36 87.2855 217.64C87.8321 217.907 88.5521 218.1 89.4455 218.22C90.3388 218.327 91.4521 218.38 92.7855 218.38C94.3988 218.38 95.7788 218.353 96.9255 218.3C98.0855 218.247 99.0588 218.173 99.8455 218.08C99.8055 218.173 99.7521 218.347 99.6855 218.6C99.6188 218.853 99.5588 219.113 99.5055 219.38C99.4521 219.647 99.4188 219.853 99.4055 220C99.0721 220 98.6388 220 98.1055 220C97.5855 220.013 97.0188 220.02 96.4055 220.02C95.7921 220.033 95.1721 220.04 94.5455 220.04C93.9188 220.04 93.3321 220.04 92.7855 220.04ZM90.0455 215.26H96.4655V212.94H90.0455V215.26ZM90.0455 208.2H95.9455V206.1H90.0455V208.2ZM85.3655 207.08C85.1388 206.787 84.8388 206.447 84.4655 206.06C84.0921 205.673 83.7055 205.3 83.3055 204.94C82.9055 204.567 82.5321 204.26 82.1855 204.02L83.3655 202.86C83.6855 203.073 84.0521 203.36 84.4655 203.72C84.8921 204.08 85.2988 204.453 85.6855 204.84C86.0855 205.213 86.4055 205.547 86.6455 205.84C86.5521 205.907 86.4121 206.02 86.2255 206.18C86.0521 206.34 85.8788 206.507 85.7055 206.68C85.5455 206.853 85.4321 206.987 85.3655 207.08ZM112.045 219.02V205.38H118.665V219.02H112.045ZM102.505 220.26C102.359 220.127 102.125 219.947 101.805 219.72C101.499 219.493 101.225 219.327 100.985 219.22C101.959 218.26 102.705 217.233 103.225 216.14C103.759 215.033 104.132 213.813 104.345 212.48C104.572 211.147 104.692 209.66 104.705 208.02H101.745V206.24H104.705V202.38H106.525V206.24H110.385C110.385 206.253 110.385 206.307 110.385 206.4C110.385 206.573 110.385 206.827 110.385 207.16C110.399 207.48 110.399 207.76 110.385 208C110.385 209.947 110.339 211.647 110.245 213.1C110.165 214.54 110.045 215.767 109.885 216.78C109.739 217.647 109.539 218.32 109.285 218.8C109.032 219.28 108.685 219.613 108.245 219.8C107.805 219.987 107.232 220.08 106.525 220.08H105.525C105.512 219.813 105.459 219.5 105.365 219.14C105.285 218.78 105.199 218.493 105.105 218.28H106.385C106.905 218.28 107.279 218.16 107.505 217.92C107.732 217.68 107.919 217.227 108.065 216.56C108.172 216.08 108.265 215.407 108.345 214.54C108.425 213.673 108.485 212.68 108.525 211.56C108.579 210.44 108.605 209.26 108.605 208.02H106.525C106.499 209.74 106.359 211.34 106.105 212.82C105.852 214.3 105.439 215.66 104.865 216.9C104.292 218.127 103.505 219.247 102.505 220.26ZM113.865 217.18H116.845V207.18H113.865V217.18Z" fill="black"/>
</svg>
