<svg width="343" height="160" viewBox="0 0 343 160" fill="none" xmlns="http://www.w3.org/2000/svg">
<mask id="path-1-inside-1_5301_8979" fill="white">
<path d="M343 152C343 156.418 339.418 160 335 160H7.99999C3.58172 160 0 156.418 0 152V8C0 3.58172 3.58172 0 8 0H271.01C274.064 0 276.852 1.73855 278.195 4.48106L297.805 44.5189C299.148 47.2615 301.936 49 304.99 49H335C339.418 49 343 52.5817 343 57V152Z"/>
</mask>
<path d="M343 152C343 156.418 339.418 160 335 160H7.99999C3.58172 160 0 156.418 0 152V8C0 3.58172 3.58172 0 8 0H271.01C274.064 0 276.852 1.73855 278.195 4.48106L297.805 44.5189C299.148 47.2615 301.936 49 304.99 49H335C339.418 49 343 52.5817 343 57V152Z" fill="#E6EEFF"/>
<path d="M297.805 44.5189L296.907 44.9588L297.805 44.5189ZM278.195 4.48106L279.093 4.04119L278.195 4.48106ZM335 160V159H7.99999V160V161H335V160ZM0 152H1V8H0H-1V152H0ZM8 0V1H271.01V0V-1H8V0ZM278.195 4.48106L277.297 4.92093L296.907 44.9588L297.805 44.5189L298.703 44.0791L279.093 4.04119L278.195 4.48106ZM304.99 49V50H335V49V48H304.99V49ZM343 57H342V152H343H344V57H343ZM335 49V50C338.866 50 342 53.134 342 57H343H344C344 52.0294 339.971 48 335 48V49ZM297.805 44.5189L296.907 44.9588C298.418 48.0441 301.554 50 304.99 50V49V48C302.318 48 299.879 46.4788 298.703 44.0791L297.805 44.5189ZM271.01 0V1C273.682 1 276.121 2.52123 277.297 4.92093L278.195 4.48106L279.093 4.04119C277.582 0.955866 274.446 -1 271.01 -1V0ZM0 8H1C1 4.13401 4.13401 1 8 1V0V-1C3.02944 -1 -1 3.02944 -1 8H0ZM7.99999 160V159C4.134 159 1 155.866 1 152H0H-1C-1 156.971 3.02943 161 7.99999 161V160ZM335 160V161C339.971 161 344 156.971 344 152H343H342C342 155.866 338.866 159 335 159V160Z" fill="#D3D3D3" mask="url(#path-1-inside-1_5301_8979)"/>
<path d="M132.274 21.102C131.35 21.102 130.534 21.3 129.826 21.696C129.13 22.08 128.548 22.536 128.08 23.064C127.612 23.592 127.252 24.072 127 24.504C126.76 24.936 126.628 25.176 126.604 25.224L123.31 23.748C123.334 23.64 123.448 23.37 123.652 22.938C123.856 22.494 124.174 21.99 124.606 21.426C125.038 20.85 125.596 20.286 126.28 19.734C126.976 19.182 127.816 18.726 128.8 18.366C129.796 17.994 130.954 17.808 132.274 17.808C133.702 17.808 134.914 18.006 135.91 18.402C136.906 18.798 137.716 19.344 138.34 20.04C138.964 20.724 139.42 21.51 139.708 22.398C139.996 23.286 140.14 24.222 140.14 25.206C140.14 26.214 139.906 27.234 139.438 28.266C138.982 29.298 138.388 30.3 137.656 31.272C136.924 32.232 136.138 33.132 135.298 33.972C134.458 34.812 133.642 35.562 132.85 36.222C132.07 36.882 131.398 37.422 130.834 37.842C130.282 38.262 129.934 38.526 129.79 38.634H139.942V42H123.958V38.94C124.27 38.688 124.78 38.286 125.488 37.734C126.208 37.182 127.036 36.528 127.972 35.772C128.908 35.004 129.856 34.17 130.816 33.27C131.788 32.37 132.688 31.446 133.516 30.498C134.356 29.55 135.028 28.62 135.532 27.708C136.048 26.796 136.306 25.944 136.306 25.152C136.306 23.664 135.958 22.62 135.262 22.02C134.566 21.408 133.57 21.102 132.274 21.102ZM143.425 30.138C143.425 28.038 143.677 26.214 144.181 24.666C144.697 23.118 145.393 21.84 146.269 20.832C147.145 19.812 148.129 19.056 149.221 18.564C150.313 18.06 151.441 17.808 152.605 17.808C153.781 17.808 154.915 18.06 156.007 18.564C157.111 19.056 158.095 19.812 158.959 20.832C159.823 21.84 160.507 23.118 161.011 24.666C161.515 26.214 161.767 28.038 161.767 30.138C161.767 32.31 161.515 34.17 161.011 35.718C160.507 37.266 159.823 38.538 158.959 39.534C158.095 40.518 157.111 41.25 156.007 41.73C154.915 42.198 153.781 42.432 152.605 42.432C151.441 42.432 150.313 42.198 149.221 41.73C148.129 41.25 147.145 40.518 146.269 39.534C145.393 38.538 144.697 37.266 144.181 35.718C143.677 34.17 143.425 32.31 143.425 30.138ZM147.259 30.138C147.259 32.13 147.493 33.792 147.961 35.124C148.441 36.444 149.083 37.428 149.887 38.076C150.703 38.712 151.609 39.03 152.605 39.03C153.625 39.03 154.531 38.706 155.323 38.058C156.127 37.41 156.763 36.426 157.231 35.106C157.699 33.786 157.933 32.13 157.933 30.138C157.933 28.182 157.699 26.544 157.231 25.224C156.763 23.904 156.127 22.908 155.323 22.236C154.531 21.552 153.625 21.21 152.605 21.21C151.609 21.21 150.703 21.552 149.887 22.236C149.083 22.908 148.441 23.91 147.961 25.242C147.493 26.562 147.259 28.194 147.259 30.138ZM168.156 22.992L164.142 25.224V21.57L169.956 18.24H171.954V42H168.156V22.992ZM179.172 36.312C179.256 36.564 179.4 36.852 179.604 37.176C179.808 37.5 180.084 37.818 180.432 38.13C180.78 38.43 181.212 38.682 181.728 38.886C182.244 39.09 182.862 39.192 183.582 39.192C185.022 39.192 186.15 38.73 186.966 37.806C187.782 36.87 188.184 35.646 188.172 34.134C188.16 32.706 187.782 31.608 187.038 30.84C186.294 30.06 185.298 29.67 184.05 29.67C183.27 29.67 182.586 29.808 181.998 30.084C181.422 30.36 180.954 30.696 180.594 31.092C180.234 31.488 179.982 31.854 179.838 32.19L176.598 31.056L178.65 18.24H190.944V21.606H181.89L180.882 28.104C180.942 27.996 181.14 27.822 181.476 27.582C181.824 27.33 182.298 27.096 182.898 26.88C183.51 26.652 184.242 26.538 185.094 26.538C186.282 26.538 187.398 26.808 188.442 27.348C189.486 27.876 190.338 28.686 190.998 29.778C191.658 30.858 191.988 32.244 191.988 33.936C192 35.628 191.664 37.11 190.98 38.382C190.308 39.654 189.348 40.65 188.1 41.37C186.864 42.078 185.4 42.432 183.708 42.432C182.46 42.432 181.38 42.276 180.468 41.964C179.556 41.64 178.788 41.238 178.164 40.758C177.54 40.278 177.042 39.78 176.67 39.264C176.298 38.736 176.034 38.268 175.878 37.86L179.172 36.312Z" fill="#4E37A2"/>
<path d="M23.248 91.184V85.584H16.736V84.192H23.248V78.816H17.44V77.44H30.512V78.816H24.784V84.192H31.216L31.232 85.584H24.784V91.184H23.248ZM27.232 83.632C27.136 83.568 26.9973 83.488 26.816 83.392C26.6453 83.2853 26.4747 83.1893 26.304 83.104C26.1333 83.0187 26.0053 82.96 25.92 82.928C26.144 82.64 26.3947 82.2827 26.672 81.856C26.96 81.4187 27.232 80.976 27.488 80.528C27.744 80.08 27.9413 79.696 28.08 79.376L29.472 80.016C29.3547 80.2613 29.2 80.5493 29.008 80.88C28.816 81.2107 28.608 81.552 28.384 81.904C28.1707 82.256 27.9627 82.5867 27.76 82.896C27.5573 83.1947 27.3813 83.44 27.232 83.632ZM20.752 83.648C20.656 83.4133 20.5227 83.136 20.352 82.816C20.192 82.496 20.0107 82.16 19.808 81.808C19.616 81.456 19.424 81.1307 19.232 80.832C19.04 80.5227 18.864 80.2667 18.704 80.064L20 79.376C20.1493 79.5787 20.32 79.8347 20.512 80.144C20.7147 80.4533 20.9173 80.784 21.12 81.136C21.3227 81.4773 21.5093 81.808 21.68 82.128C21.8613 82.448 22 82.7147 22.096 82.928C21.9893 82.9707 21.8507 83.04 21.68 83.136C21.5093 83.2213 21.3387 83.312 21.168 83.408C20.9973 83.504 20.8587 83.584 20.752 83.648ZM38.672 90.944C38.5973 90.7947 38.4693 90.5973 38.288 90.352C38.1173 90.1067 37.968 89.9253 37.84 89.808C38.5973 89.456 39.296 89.0347 39.936 88.544C40.5867 88.0427 41.1733 87.4933 41.696 86.896C41.3547 86.1387 41.0507 85.264 40.784 84.272C40.528 83.2693 40.3307 82.1173 40.192 80.816H35.504V82.64H39.264C39.264 83.4827 39.2373 84.3147 39.184 85.136C39.1413 85.9467 39.0613 86.6347 38.944 87.2C38.8053 87.9147 38.5547 88.4053 38.192 88.672C37.84 88.9387 37.3173 89.072 36.624 89.072H35.696C35.6747 88.88 35.632 88.6347 35.568 88.336C35.504 88.0373 35.44 87.808 35.376 87.648H36.4C36.8373 87.648 37.12 87.584 37.248 87.456C37.376 87.3173 37.4773 87.0667 37.552 86.704C37.6267 86.3733 37.68 85.9573 37.712 85.456C37.7547 84.9547 37.776 84.4533 37.776 83.952H35.472C35.4293 85.104 35.328 86.1013 35.168 86.944C35.0187 87.776 34.8053 88.5067 34.528 89.136C34.2613 89.7547 33.9253 90.32 33.52 90.832C33.4347 90.768 33.296 90.688 33.104 90.592C32.9227 90.496 32.7467 90.4053 32.576 90.32C32.4053 90.2347 32.288 90.1813 32.224 90.16C32.6507 89.6267 32.992 89.0187 33.248 88.336C33.504 87.6427 33.6907 86.8213 33.808 85.872C33.9253 84.9227 33.984 83.7813 33.984 82.448V79.44H40.064C40.0427 79.0027 40.0213 78.5493 40 78.08C39.9893 77.6 39.984 77.1093 39.984 76.608H41.44C41.44 77.6107 41.472 78.5547 41.536 79.44H44.56C44.272 79.12 43.952 78.8053 43.6 78.496C43.248 78.176 42.928 77.92 42.64 77.728L43.536 76.768C43.7813 76.928 44.0533 77.1307 44.352 77.376C44.6507 77.6213 44.9333 77.872 45.2 78.128C45.4773 78.3733 45.6907 78.5867 45.84 78.768C45.7653 78.8213 45.6533 78.9173 45.504 79.056C45.3547 79.184 45.216 79.312 45.088 79.44H46.768V80.816H41.664C41.7707 81.7653 41.9147 82.6293 42.096 83.408C42.288 84.1867 42.5013 84.8907 42.736 85.52C43.088 84.976 43.3973 84.4053 43.664 83.808C43.9307 83.2107 44.1493 82.5973 44.32 81.968L45.712 82.432C45.1787 84.1387 44.4213 85.6533 43.44 86.976C43.76 87.52 44.1067 87.984 44.48 88.368C44.8533 88.7413 45.2373 89.0507 45.632 89.296C45.76 88.9547 45.8773 88.576 45.984 88.16C46.1013 87.7333 46.1813 87.3707 46.224 87.072C46.2987 87.1253 46.4213 87.1947 46.592 87.28C46.7627 87.3547 46.9387 87.4293 47.12 87.504C47.312 87.568 47.456 87.616 47.552 87.648C47.488 87.968 47.4027 88.3093 47.296 88.672C47.2 89.0347 47.0933 89.3813 46.976 89.712C46.8693 90.0427 46.7573 90.32 46.64 90.544C46.5013 90.8 46.3093 90.96 46.064 91.024C45.8293 91.088 45.568 91.04 45.28 90.88C44.7893 90.624 44.2987 90.2827 43.808 89.856C43.3173 89.4187 42.8533 88.8693 42.416 88.208C41.328 89.36 40.08 90.272 38.672 90.944Z" fill="black"/>
<path d="M58.688 72.424C57.8667 72.424 57.1413 72.6 56.512 72.952C55.8933 73.2933 55.376 73.6987 54.96 74.168C54.544 74.6373 54.224 75.064 54 75.448C53.7867 75.832 53.6693 76.0453 53.648 76.088L50.72 74.776C50.7413 74.68 50.8427 74.44 51.024 74.056C51.2053 73.6613 51.488 73.2133 51.872 72.712C52.256 72.2 52.752 71.6987 53.36 71.208C53.9787 70.7173 54.7253 70.312 55.6 69.992C56.4853 69.6613 57.5147 69.496 58.688 69.496C59.9573 69.496 61.0347 69.672 61.92 70.024C62.8053 70.376 63.5253 70.8613 64.08 71.48C64.6347 72.088 65.04 72.7867 65.296 73.576C65.552 74.3653 65.68 75.1973 65.68 76.072C65.68 76.968 65.472 77.8747 65.056 78.792C64.6507 79.7093 64.1227 80.6 63.472 81.464C62.8213 82.3173 62.1227 83.1173 61.376 83.864C60.6293 84.6107 59.904 85.2773 59.2 85.864C58.5067 86.4507 57.9093 86.9307 57.408 87.304C56.9173 87.6773 56.608 87.912 56.48 88.008H65.504V91H51.296V88.28C51.5733 88.056 52.0267 87.6987 52.656 87.208C53.296 86.7173 54.032 86.136 54.864 85.464C55.696 84.7813 56.5387 84.04 57.392 83.24C58.256 82.44 59.056 81.6187 59.792 80.776C60.5387 79.9333 61.136 79.1067 61.584 78.296C62.0427 77.4853 62.272 76.728 62.272 76.024C62.272 74.7013 61.9627 73.7733 61.344 73.24C60.7253 72.696 59.84 72.424 58.688 72.424ZM69.4483 69.88H83.5603V72.232L72.8883 91H69.1443L79.6083 72.872H69.4483V69.88Z" fill="#4E37A2"/>
<path d="M95.128 91.168V87.504H87.72V86.192H90.616V82.272H95.128V80.016H91.544C91.1493 80.6347 90.7173 81.2267 90.248 81.792C89.7787 82.3467 89.2773 82.8427 88.744 83.28C88.616 83.1627 88.44 83.008 88.216 82.816C87.992 82.624 87.7787 82.4747 87.576 82.368C88.216 81.8773 88.808 81.296 89.352 80.624C89.9067 79.952 90.3867 79.2533 90.792 78.528C91.1973 77.8027 91.5013 77.1147 91.704 76.464L93.096 76.896C92.9893 77.1947 92.8667 77.4933 92.728 77.792C92.6 78.0907 92.4613 78.3893 92.312 78.688H101.544V80.016H96.648V82.272H100.504V83.568H96.648V86.192H102.232V87.504H96.648V91.168H95.128ZM92.12 86.192H95.128V83.568H92.12V86.192Z" fill="black"/>
<path d="M109.208 74.104L105.64 76.088V72.84L110.808 69.88H112.584V91H109.208V74.104Z" fill="#4E37A2"/>
<path d="M119.192 91.216C119.075 91.0667 118.899 90.8907 118.664 90.688C118.44 90.4853 118.232 90.336 118.04 90.24C118.989 89.5787 119.699 88.752 120.168 87.76C120.637 86.768 120.872 85.5147 120.872 84V77.184H129.56V89.536C129.56 90.5707 128.952 91.088 127.736 91.088H126.44C126.419 90.8747 126.371 90.608 126.296 90.288C126.232 89.9787 126.163 89.7387 126.088 89.568H127.4C127.635 89.568 127.8 89.5307 127.896 89.456C127.992 89.3707 128.04 89.216 128.04 88.992V85.728H122.264C122.115 86.976 121.784 88.0373 121.272 88.912C120.771 89.7867 120.077 90.5547 119.192 91.216ZM122.36 84.368H128.04V82.144H122.376V83.984C122.376 84.048 122.371 84.112 122.36 84.176C122.36 84.24 122.36 84.304 122.36 84.368ZM122.376 80.768H128.04V78.576H122.376V80.768Z" fill="black"/>
<path d="M27.466 121.296V115.572C26.914 116.376 26.284 117.156 25.576 117.912C24.88 118.656 24.136 119.328 23.344 119.928C23.284 119.832 23.188 119.706 23.056 119.55C22.924 119.394 22.786 119.244 22.642 119.1C22.498 118.956 22.372 118.848 22.264 118.776C22.864 118.368 23.458 117.882 24.046 117.318C24.646 116.754 25.204 116.154 25.72 115.518C26.248 114.87 26.704 114.234 27.088 113.61H23.542V112.17H27.466V109.848H25.396C25.06 110.604 24.712 111.246 24.352 111.774C24.196 111.666 23.968 111.54 23.668 111.396C23.368 111.24 23.134 111.138 22.966 111.09C23.254 110.718 23.536 110.244 23.812 109.668C24.1 109.092 24.352 108.492 24.568 107.868C24.784 107.244 24.928 106.68 25 106.176L26.494 106.554C26.434 106.842 26.356 107.148 26.26 107.472C26.164 107.784 26.062 108.108 25.954 108.444H27.466V104.934H29.014V108.444H32.488V109.848H29.014V112.17H33.172V113.61H29.356C29.68 114.15 30.076 114.72 30.544 115.32C31.012 115.908 31.522 116.472 32.074 117.012C32.626 117.552 33.19 118.014 33.766 118.398C33.598 118.53 33.394 118.74 33.154 119.028C32.926 119.316 32.758 119.55 32.65 119.73C31.954 119.154 31.288 118.5 30.652 117.768C30.016 117.036 29.47 116.298 29.014 115.554V121.296H27.466ZM19.618 121.314V113.61C19.318 114.234 18.994 114.828 18.646 115.392C18.31 115.956 17.974 116.448 17.638 116.868C17.554 116.796 17.428 116.706 17.26 116.598C17.104 116.478 16.936 116.37 16.756 116.274C16.588 116.166 16.444 116.088 16.324 116.04C16.66 115.656 16.996 115.212 17.332 114.708C17.668 114.192 17.986 113.652 18.286 113.088C18.586 112.524 18.85 111.978 19.078 111.45C19.318 110.91 19.498 110.424 19.618 109.992V109.884H16.846V108.444H19.618V105.006H21.184V108.444H23.452V109.884H21.184V111.27C21.388 111.558 21.658 111.906 21.994 112.314C22.33 112.722 22.678 113.118 23.038 113.502C23.398 113.886 23.71 114.186 23.974 114.402C23.89 114.462 23.77 114.57 23.614 114.726C23.458 114.87 23.302 115.02 23.146 115.176C23.002 115.32 22.9 115.434 22.84 115.518C22.624 115.29 22.366 114.996 22.066 114.636C21.766 114.264 21.472 113.886 21.184 113.502V121.314H19.618ZM48.562 121.062C47.878 120.726 47.2 120.138 46.528 119.298C45.856 118.446 45.256 117.282 44.728 115.806C44.2 114.33 43.804 112.482 43.54 110.262H35.098V108.696H43.396C43.348 108.12 43.312 107.52 43.288 106.896C43.276 106.26 43.27 105.606 43.27 104.934H44.944C44.932 105.606 44.932 106.26 44.944 106.896C44.956 107.52 44.986 108.12 45.034 108.696H48.364C48.04 108.288 47.65 107.868 47.194 107.436C46.75 106.992 46.342 106.644 45.97 106.392L47.05 105.33C47.326 105.51 47.626 105.744 47.95 106.032C48.286 106.32 48.598 106.614 48.886 106.914C49.186 107.202 49.42 107.46 49.588 107.688C49.504 107.736 49.384 107.826 49.228 107.958C49.072 108.09 48.922 108.228 48.778 108.372C48.634 108.504 48.52 108.612 48.436 108.696H50.902V110.262H45.178C45.382 111.966 45.682 113.424 46.078 114.636C46.486 115.848 46.948 116.832 47.464 117.588C47.98 118.344 48.508 118.896 49.048 119.244C49.216 118.848 49.384 118.41 49.552 117.93C49.72 117.438 49.84 117.03 49.912 116.706C49.996 116.766 50.134 116.844 50.326 116.94C50.53 117.036 50.734 117.126 50.938 117.21C51.142 117.294 51.298 117.354 51.406 117.39C51.322 117.774 51.202 118.182 51.046 118.614C50.902 119.046 50.746 119.454 50.578 119.838C50.41 120.21 50.254 120.516 50.11 120.756C49.774 121.32 49.258 121.422 48.562 121.062ZM35.422 120.63L35.08 119.082C35.464 119.046 35.968 118.986 36.592 118.902C37.216 118.806 37.882 118.698 38.59 118.578V114.276H35.458V112.782H43.144V114.276H40.354V118.272C41.098 118.14 41.794 118.008 42.442 117.876C43.09 117.732 43.606 117.612 43.99 117.516V119.028C43.558 119.136 43.048 119.256 42.46 119.388C41.872 119.52 41.248 119.652 40.588 119.784C39.928 119.904 39.274 120.018 38.626 120.126C37.978 120.246 37.372 120.348 36.808 120.432C36.256 120.528 35.794 120.594 35.422 120.63ZM66.616 121.476C66.46 121.188 66.25 120.864 65.986 120.504C65.734 120.156 65.458 119.802 65.158 119.442C64.618 119.55 63.994 119.664 63.286 119.784C62.578 119.904 61.834 120.018 61.054 120.126C60.274 120.234 59.494 120.33 58.714 120.414C57.934 120.51 57.196 120.594 56.5 120.666C55.816 120.738 55.216 120.792 54.7 120.828L54.376 119.172C54.652 119.172 54.976 119.16 55.348 119.136C55.732 119.112 56.146 119.082 56.59 119.046C56.794 118.734 57.01 118.368 57.238 117.948C57.478 117.528 57.712 117.09 57.94 116.634C58.168 116.178 58.366 115.758 58.534 115.374H53.656V113.88H68.344V115.374H60.46C60.208 115.926 59.914 116.52 59.578 117.156C59.242 117.78 58.918 118.35 58.606 118.866C59.578 118.77 60.55 118.662 61.522 118.542C62.494 118.422 63.34 118.302 64.06 118.182C63.472 117.534 62.956 117.036 62.512 116.688L63.754 115.698C64.054 115.926 64.402 116.238 64.798 116.634C65.194 117.018 65.596 117.438 66.004 117.894C66.424 118.35 66.808 118.8 67.156 119.244C67.516 119.676 67.804 120.054 68.02 120.378C67.924 120.438 67.774 120.54 67.57 120.684C67.378 120.828 67.192 120.972 67.012 121.116C66.832 121.26 66.7 121.38 66.616 121.476ZM53.332 112.422C53.272 112.302 53.176 112.152 53.044 111.972C52.912 111.792 52.774 111.618 52.63 111.45C52.486 111.27 52.36 111.132 52.252 111.036C53.008 110.748 53.782 110.364 54.574 109.884C55.378 109.404 56.152 108.876 56.896 108.3C57.652 107.712 58.318 107.118 58.894 106.518C59.482 105.906 59.938 105.324 60.262 104.772L61.792 104.988C62.176 105.528 62.662 106.08 63.25 106.644C63.838 107.196 64.492 107.736 65.212 108.264C65.932 108.792 66.676 109.278 67.444 109.722C68.224 110.154 68.986 110.514 69.73 110.802C69.586 110.982 69.412 111.222 69.208 111.522C69.004 111.81 68.824 112.092 68.668 112.368C67.756 111.96 66.814 111.45 65.842 110.838C64.87 110.214 63.958 109.536 63.106 108.804C62.266 108.06 61.564 107.31 61 106.554C60.616 107.094 60.124 107.646 59.524 108.21C58.924 108.774 58.264 109.326 57.544 109.866C56.824 110.394 56.098 110.88 55.366 111.324C54.646 111.768 53.968 112.134 53.332 112.422ZM56.752 112.098V110.586H65.284V112.098H56.752ZM77.488 120.594V119.01H81.682V112.134H78.388V110.55H81.682V105.006H83.356V110.55H86.65V112.134H83.356V119.01H87.208V120.594H77.488ZM74.122 121.224V114.6C73.714 114.996 73.282 115.374 72.826 115.734C72.382 116.094 71.926 116.436 71.458 116.76C71.398 116.64 71.29 116.502 71.134 116.346C70.99 116.178 70.84 116.022 70.684 115.878C70.528 115.722 70.402 115.602 70.306 115.518C70.846 115.23 71.398 114.858 71.962 114.402C72.538 113.946 73.09 113.454 73.618 112.926C74.158 112.386 74.644 111.846 75.076 111.306C75.52 110.766 75.868 110.256 76.12 109.776H71.278V108.282H74.068V105.006H75.67V108.282H77.578L78.298 108.93C77.734 110.106 77.038 111.228 76.21 112.296C76.522 112.5 76.864 112.722 77.236 112.962C77.608 113.202 77.968 113.424 78.316 113.628C78.664 113.832 78.946 113.994 79.162 114.114C79.09 114.186 78.988 114.312 78.856 114.492C78.724 114.66 78.598 114.834 78.478 115.014C78.358 115.194 78.268 115.338 78.208 115.446C77.872 115.218 77.476 114.96 77.02 114.672C76.576 114.372 76.144 114.072 75.724 113.772V121.224H74.122ZM99.664 121.224C99.64 120.996 99.592 120.708 99.52 120.36C99.448 120.024 99.37 119.76 99.286 119.568H101.23C101.482 119.568 101.662 119.526 101.77 119.442C101.878 119.358 101.932 119.196 101.932 118.956V107.67H93.742V106.122H105.19V107.67H103.606V119.55C103.606 120.138 103.444 120.564 103.12 120.828C102.808 121.092 102.316 121.224 101.644 121.224H99.664ZM94.39 116.364V109.83H99.88V116.364H94.39ZM90.268 121.026L88.828 119.982C89.092 119.646 89.374 119.232 89.674 118.74C89.986 118.248 90.292 117.726 90.592 117.174C90.892 116.61 91.162 116.07 91.402 115.554C91.654 115.026 91.846 114.57 91.978 114.186C92.074 114.27 92.206 114.384 92.374 114.528C92.542 114.672 92.71 114.81 92.878 114.942C93.058 115.062 93.202 115.152 93.31 115.212C93.19 115.584 93.004 116.028 92.752 116.544C92.512 117.06 92.242 117.6 91.942 118.164C91.642 118.728 91.342 119.262 91.042 119.766C90.754 120.27 90.496 120.69 90.268 121.026ZM95.956 114.888H98.332V111.306H95.956V114.888ZM91.762 112.836C91.546 112.632 91.246 112.398 90.862 112.134C90.478 111.858 90.082 111.594 89.674 111.342C89.266 111.078 88.912 110.886 88.612 110.766L89.458 109.398C89.794 109.554 90.16 109.752 90.556 109.992C90.964 110.22 91.36 110.46 91.744 110.712C92.128 110.964 92.446 111.21 92.698 111.45C92.638 111.522 92.542 111.654 92.41 111.846C92.278 112.026 92.146 112.212 92.014 112.404C91.894 112.596 91.81 112.74 91.762 112.836ZM92.662 108.786C92.446 108.582 92.146 108.342 91.762 108.066C91.378 107.79 90.982 107.526 90.574 107.274C90.166 107.022 89.812 106.836 89.512 106.716L90.376 105.384C90.688 105.516 91.054 105.702 91.474 105.942C91.894 106.182 92.302 106.434 92.698 106.698C93.094 106.962 93.406 107.202 93.634 107.418C93.574 107.49 93.472 107.622 93.328 107.814C93.196 107.994 93.064 108.18 92.932 108.372C92.8 108.552 92.71 108.69 92.662 108.786ZM114.19 121.314V118.056H110.986V116.526H114.19V111.54C113.65 112.38 113.014 113.226 112.282 114.078C111.562 114.918 110.794 115.71 109.978 116.454C109.162 117.186 108.352 117.822 107.548 118.362C107.464 118.254 107.344 118.122 107.188 117.966C107.044 117.798 106.894 117.642 106.738 117.498C106.582 117.354 106.45 117.246 106.342 117.174C107.002 116.802 107.668 116.34 108.34 115.788C109.024 115.236 109.684 114.63 110.32 113.97C110.956 113.31 111.544 112.638 112.084 111.954C112.636 111.258 113.098 110.592 113.47 109.956H107.116V108.444H114.19V104.988H115.81V108.444H122.866V109.956H116.53C116.926 110.628 117.4 111.306 117.952 111.99C118.504 112.674 119.098 113.334 119.734 113.97C120.382 114.606 121.042 115.194 121.714 115.734C122.398 116.262 123.064 116.706 123.712 117.066C123.604 117.138 123.466 117.252 123.298 117.408C123.13 117.564 122.968 117.726 122.812 117.894C122.668 118.062 122.554 118.206 122.47 118.326C121.63 117.762 120.796 117.108 119.968 116.364C119.152 115.62 118.39 114.834 117.682 114.006C116.974 113.166 116.35 112.32 115.81 111.468V116.526H119.086V118.056H115.81V121.314H114.19ZM134.26 118.974V117.534H130.138V116.292H134.26V115.05H130.858V113.844H134.26V112.584H131.002V111.378H134.26V110.082H129.832V108.876H134.26V107.58H131.038V106.374H134.26V104.916H135.862V106.374H139.606V108.876H141.064V110.082H139.606V112.584H135.862V113.844H139.84V115.05H135.862V116.292H140.578V117.534H135.862V118.974H134.26ZM125.782 121.404C125.71 121.32 125.602 121.212 125.458 121.08C125.314 120.948 125.164 120.816 125.008 120.684C124.852 120.552 124.72 120.456 124.612 120.396C125.656 119.664 126.508 118.746 127.168 117.642C126.796 117.162 126.466 116.628 126.178 116.04C125.89 115.452 125.626 114.804 125.386 114.096L126.682 113.664C127.006 114.624 127.396 115.464 127.852 116.184C128.056 115.632 128.218 115.05 128.338 114.438C128.47 113.826 128.542 113.178 128.554 112.494H125.692V111.432C125.836 111.228 126.004 110.958 126.196 110.622C126.388 110.274 126.586 109.908 126.79 109.524C127.006 109.14 127.204 108.768 127.384 108.408C127.564 108.036 127.708 107.724 127.816 107.472H125.116V105.996H129.472L129.976 106.446C129.844 106.77 129.676 107.148 129.472 107.58C129.268 108.012 129.052 108.456 128.824 108.912C128.608 109.368 128.398 109.788 128.194 110.172C127.99 110.544 127.822 110.838 127.69 111.054H130.084C130.084 112.41 129.988 113.61 129.796 114.654C129.604 115.698 129.316 116.64 128.932 117.48C129.652 118.152 130.516 118.644 131.524 118.956C132.532 119.256 133.726 119.406 135.106 119.406C136.558 119.406 137.782 119.394 138.778 119.37C139.774 119.346 140.56 119.292 141.136 119.208C141.1 119.292 141.052 119.442 140.992 119.658C140.944 119.862 140.902 120.072 140.866 120.288C140.83 120.504 140.806 120.672 140.794 120.792C140.422 120.792 139.912 120.792 139.264 120.792C138.616 120.804 137.92 120.81 137.176 120.81C136.444 120.822 135.754 120.828 135.106 120.828C133.618 120.828 132.304 120.66 131.164 120.324C130.036 120 129.052 119.478 128.212 118.758C127.9 119.25 127.54 119.712 127.132 120.144C126.724 120.576 126.274 120.996 125.782 121.404ZM135.862 111.378H138.022V110.082H135.862V111.378ZM135.862 108.876H138.022V107.58H135.862V108.876ZM149.866 121.26C149.806 121.092 149.692 120.864 149.524 120.576C149.368 120.288 149.224 120.084 149.092 119.964C149.872 119.736 150.598 119.43 151.27 119.046C151.954 118.662 152.578 118.23 153.142 117.75C152.674 117.198 152.272 116.61 151.936 115.986C151.6 115.362 151.33 114.72 151.126 114.06H149.722V112.656H157.426L158.038 113.25C157.414 114.954 156.526 116.454 155.374 117.75C155.95 118.218 156.58 118.626 157.264 118.974C157.96 119.31 158.68 119.562 159.424 119.73C159.34 119.826 159.232 119.964 159.1 120.144C158.98 120.336 158.866 120.522 158.758 120.702C158.662 120.894 158.596 121.044 158.56 121.152C157.708 120.912 156.922 120.594 156.202 120.198C155.482 119.814 154.828 119.364 154.24 118.848C153.616 119.388 152.938 119.862 152.206 120.27C151.474 120.678 150.694 121.008 149.866 121.26ZM150.478 112.35C150.334 112.17 150.148 111.984 149.92 111.792C149.704 111.588 149.494 111.432 149.29 111.324C149.734 110.976 150.082 110.64 150.334 110.316C150.598 109.992 150.79 109.614 150.91 109.182C151.03 108.75 151.09 108.198 151.09 107.526V105.528H156.292V109.722C156.292 109.866 156.322 109.968 156.382 110.028C156.454 110.088 156.592 110.118 156.796 110.118H157.318C157.498 110.118 157.642 110.082 157.75 110.01C157.87 109.926 157.966 109.764 158.038 109.524C158.11 109.284 158.158 108.924 158.182 108.444C158.35 108.528 158.572 108.612 158.848 108.696C159.136 108.768 159.388 108.828 159.604 108.876C159.544 109.644 159.436 110.226 159.28 110.622C159.124 111.018 158.896 111.288 158.596 111.432C158.308 111.576 157.936 111.648 157.48 111.648H156.382C155.758 111.648 155.326 111.564 155.086 111.396C154.846 111.228 154.726 110.934 154.726 110.514V106.932H152.656V107.634C152.656 108.678 152.488 109.572 152.152 110.316C151.828 111.048 151.27 111.726 150.478 112.35ZM143.71 120.81V115.752H148.912V120.81H143.71ZM142.846 109.578V108.264H149.524V109.578H142.846ZM143.728 107.094V105.744H148.786V107.094H143.728ZM143.71 112.08V110.748H148.786V112.08H143.71ZM143.71 114.564V113.25H148.786V114.564H143.71ZM145.15 119.496H147.472V117.084H145.15V119.496ZM154.258 116.67C155.002 115.818 155.554 114.948 155.914 114.06H152.674C152.842 114.528 153.058 114.984 153.322 115.428C153.598 115.86 153.91 116.274 154.258 116.67ZM161.008 119.748V118.146H168.118V108.678H162.034V107.076H175.966V108.678H169.9V118.146H177.01V119.748H161.008ZM186.226 121.422V117.516C185.686 118.02 185.062 118.506 184.354 118.974C183.646 119.43 182.908 119.844 182.14 120.216C181.384 120.588 180.64 120.894 179.908 121.134C179.872 121.038 179.8 120.906 179.692 120.738C179.584 120.57 179.47 120.396 179.35 120.216C179.23 120.048 179.128 119.922 179.044 119.838C179.716 119.646 180.424 119.382 181.168 119.046C181.912 118.698 182.632 118.314 183.328 117.894C184.036 117.462 184.648 117.042 185.164 116.634H179.098V115.338H186.226V114.222H180.862V112.98H186.226V111.918H180.106V110.64H183.688C183.58 110.4 183.466 110.154 183.346 109.902C183.226 109.65 183.106 109.428 182.986 109.236H179.08V107.94H182.104C181.948 107.628 181.762 107.25 181.546 106.806C181.33 106.362 181.12 106.008 180.916 105.744L182.32 105.078C182.464 105.306 182.62 105.576 182.788 105.888C182.956 106.2 183.112 106.506 183.256 106.806C183.412 107.094 183.526 107.328 183.598 107.508L182.59 107.94H184.624V104.988H186.154V107.94H187.774V104.988H189.304V107.94H191.374L190.186 107.472C190.342 107.268 190.51 107.022 190.69 106.734C190.87 106.446 191.038 106.158 191.194 105.87C191.35 105.57 191.47 105.312 191.554 105.096L193.084 105.582C192.964 105.81 192.814 106.074 192.634 106.374C192.454 106.662 192.274 106.95 192.094 107.238C191.914 107.514 191.752 107.748 191.608 107.94H194.902V109.236H190.978C190.894 109.464 190.792 109.704 190.672 109.956C190.552 110.196 190.438 110.424 190.33 110.64H193.768V111.918H187.774V112.98H193.084V114.222H187.774V115.338H194.902V116.634H188.8C189.328 117.042 189.934 117.456 190.618 117.876C191.314 118.284 192.034 118.662 192.778 119.01C193.522 119.358 194.224 119.628 194.884 119.82C194.8 119.904 194.698 120.03 194.578 120.198C194.47 120.378 194.368 120.552 194.272 120.72C194.176 120.9 194.104 121.038 194.056 121.134C193.336 120.894 192.592 120.588 191.824 120.216C191.068 119.844 190.342 119.43 189.646 118.974C188.95 118.506 188.326 118.026 187.774 117.534V121.422H186.226ZM185.416 110.64H188.584C188.692 110.436 188.806 110.208 188.926 109.956C189.046 109.704 189.154 109.464 189.25 109.236H184.786C184.906 109.476 185.02 109.722 185.128 109.974C185.248 110.226 185.344 110.448 185.416 110.64ZM203.866 121.26C203.806 121.092 203.692 120.864 203.524 120.576C203.368 120.288 203.224 120.084 203.092 119.964C203.872 119.736 204.598 119.43 205.27 119.046C205.954 118.662 206.578 118.23 207.142 117.75C206.674 117.198 206.272 116.61 205.936 115.986C205.6 115.362 205.33 114.72 205.126 114.06H203.722V112.656H211.426L212.038 113.25C211.414 114.954 210.526 116.454 209.374 117.75C209.95 118.218 210.58 118.626 211.264 118.974C211.96 119.31 212.68 119.562 213.424 119.73C213.34 119.826 213.232 119.964 213.1 120.144C212.98 120.336 212.866 120.522 212.758 120.702C212.662 120.894 212.596 121.044 212.56 121.152C211.708 120.912 210.922 120.594 210.202 120.198C209.482 119.814 208.828 119.364 208.24 118.848C207.616 119.388 206.938 119.862 206.206 120.27C205.474 120.678 204.694 121.008 203.866 121.26ZM204.478 112.35C204.334 112.17 204.148 111.984 203.92 111.792C203.704 111.588 203.494 111.432 203.29 111.324C203.734 110.976 204.082 110.64 204.334 110.316C204.598 109.992 204.79 109.614 204.91 109.182C205.03 108.75 205.09 108.198 205.09 107.526V105.528H210.292V109.722C210.292 109.866 210.322 109.968 210.382 110.028C210.454 110.088 210.592 110.118 210.796 110.118H211.318C211.498 110.118 211.642 110.082 211.75 110.01C211.87 109.926 211.966 109.764 212.038 109.524C212.11 109.284 212.158 108.924 212.182 108.444C212.35 108.528 212.572 108.612 212.848 108.696C213.136 108.768 213.388 108.828 213.604 108.876C213.544 109.644 213.436 110.226 213.28 110.622C213.124 111.018 212.896 111.288 212.596 111.432C212.308 111.576 211.936 111.648 211.48 111.648H210.382C209.758 111.648 209.326 111.564 209.086 111.396C208.846 111.228 208.726 110.934 208.726 110.514V106.932H206.656V107.634C206.656 108.678 206.488 109.572 206.152 110.316C205.828 111.048 205.27 111.726 204.478 112.35ZM197.71 120.81V115.752H202.912V120.81H197.71ZM196.846 109.578V108.264H203.524V109.578H196.846ZM197.728 107.094V105.744H202.786V107.094H197.728ZM197.71 112.08V110.748H202.786V112.08H197.71ZM197.71 114.564V113.25H202.786V114.564H197.71ZM199.15 119.496H201.472V117.084H199.15V119.496ZM208.258 116.67C209.002 115.818 209.554 114.948 209.914 114.06H206.674C206.842 114.528 207.058 114.984 207.322 115.428C207.598 115.86 207.91 116.274 208.258 116.67ZM214.846 120.522V118.956H223.36C223.588 118.428 223.822 117.81 224.062 117.102C224.302 116.382 224.536 115.638 224.764 114.87C224.992 114.09 225.19 113.34 225.358 112.62C225.526 111.9 225.652 111.276 225.736 110.748L227.464 111.18C227.344 111.756 227.182 112.392 226.978 113.088C226.786 113.784 226.576 114.492 226.348 115.212C226.12 115.932 225.892 116.616 225.664 117.264C225.436 117.912 225.22 118.476 225.016 118.956H231.172V120.522H214.846ZM215.674 109.974V108.408H222.154V105.222H223.882V108.408H230.254V109.974H215.674ZM220.048 117.93C219.976 117.462 219.874 116.94 219.742 116.364C219.61 115.776 219.466 115.182 219.31 114.582C219.154 113.982 218.992 113.412 218.824 112.872C218.656 112.32 218.488 111.846 218.32 111.45L219.868 111C220.12 111.648 220.36 112.35 220.588 113.106C220.816 113.85 221.02 114.606 221.2 115.374C221.392 116.13 221.554 116.85 221.686 117.534C221.566 117.546 221.392 117.576 221.164 117.624C220.948 117.672 220.732 117.726 220.516 117.786C220.312 117.834 220.156 117.882 220.048 117.93Z" fill="black"/>
</svg>
