<svg width="320" height="259" viewBox="0 0 320 259" fill="none" xmlns="http://www.w3.org/2000/svg">
<mask id="path-1-inside-1_5513_2572" fill="white">
<path d="M320 251C320 255.418 316.418 259 312 259H7.99999C3.58171 259 0 255.418 0 251V8C0 3.58172 3.58172 0 8 0H195.056C198.086 0 200.856 1.71202 202.211 4.42229L237.789 75.5777C239.144 78.288 241.914 80 244.944 80H312C316.418 80 320 83.5817 320 88V251Z"/>
</mask>
<path d="M320 251C320 255.418 316.418 259 312 259H7.99999C3.58171 259 0 255.418 0 251V8C0 3.58172 3.58172 0 8 0H195.056C198.086 0 200.856 1.71202 202.211 4.42229L237.789 75.5777C239.144 78.288 241.914 80 244.944 80H312C316.418 80 320 83.5817 320 88V251Z" fill="#E4EBFF"/>
<path d="M237.789 75.5777L238.683 75.1305L237.789 75.5777ZM202.211 4.42229L201.317 4.8695L202.211 4.42229ZM312 259V258H7.99999V259V260H312V259ZM0 251H1V8H0H-1V251H0ZM8 0V1H195.056V0V-1H8V0ZM202.211 4.42229L201.317 4.8695L236.894 76.0249L237.789 75.5777L238.683 75.1305L203.106 3.97508L202.211 4.42229ZM244.944 80V81H312V80V79H244.944V80ZM320 88H319V251H320H321V88H320ZM312 80V81C315.866 81 319 84.134 319 88H320H321C321 83.0294 316.971 79 312 79V80ZM237.789 75.5777L236.894 76.0249C238.419 79.074 241.535 81 244.944 81V80V79C242.293 79 239.869 77.502 238.683 75.1305L237.789 75.5777ZM195.056 0V1C197.707 1 200.131 2.49802 201.317 4.8695L202.211 4.42229L203.106 3.97508C201.581 0.926021 198.465 -1 195.056 -1V0ZM0 8H1C1 4.134 4.13401 1 8 1V0V-1C3.02944 -1 -1 3.02943 -1 8H0ZM7.99999 259V258C4.134 258 1 254.866 1 251H0H-1C-1 255.971 3.02943 260 7.99999 260V259ZM312 259V260C316.971 260 321 255.971 321 251H320H319C319 254.866 315.866 258 312 258V259Z" fill="#D3D3D3" mask="url(#path-1-inside-1_5513_2572)"/>
<path d="M74.532 28.136C73.3 28.136 72.212 28.4 71.268 28.928C70.34 29.44 69.564 30.048 68.94 30.752C68.316 31.456 67.836 32.096 67.5 32.672C67.18 33.248 67.004 33.568 66.972 33.632L62.58 31.664C62.612 31.52 62.764 31.16 63.036 30.584C63.308 29.992 63.732 29.32 64.308 28.568C64.884 27.8 65.628 27.048 66.54 26.312C67.468 25.576 68.588 24.968 69.9 24.488C71.228 23.992 72.772 23.744 74.532 23.744C76.436 23.744 78.052 24.008 79.38 24.536C80.708 25.064 81.788 25.792 82.62 26.72C83.452 27.632 84.06 28.68 84.444 29.864C84.828 31.048 85.02 32.296 85.02 33.608C85.02 34.952 84.708 36.312 84.084 37.688C83.476 39.064 82.684 40.4 81.708 41.696C80.732 42.976 79.684 44.176 78.564 45.296C77.444 46.416 76.356 47.416 75.3 48.296C74.26 49.176 73.364 49.896 72.612 50.456C71.876 51.016 71.412 51.368 71.22 51.512H84.756V56H63.444V51.92C63.86 51.584 64.54 51.048 65.484 50.312C66.444 49.576 67.548 48.704 68.796 47.696C70.044 46.672 71.308 45.56 72.588 44.36C73.884 43.16 75.084 41.928 76.188 40.664C77.308 39.4 78.204 38.16 78.876 36.944C79.564 35.728 79.908 34.592 79.908 33.536C79.908 31.552 79.444 30.16 78.516 29.36C77.588 28.544 76.26 28.136 74.532 28.136ZM89.4004 40.184C89.4004 37.384 89.7364 34.952 90.4084 32.888C91.0964 30.824 92.0244 29.12 93.1924 27.776C94.3604 26.416 95.6724 25.408 97.1284 24.752C98.5844 24.08 100.088 23.744 101.64 23.744C103.208 23.744 104.72 24.08 106.176 24.752C107.648 25.408 108.96 26.416 110.112 27.776C111.264 29.12 112.176 30.824 112.848 32.888C113.52 34.952 113.856 37.384 113.856 40.184C113.856 43.08 113.52 45.56 112.848 47.624C112.176 49.688 111.264 51.384 110.112 52.712C108.96 54.024 107.648 55 106.176 55.64C104.72 56.264 103.208 56.576 101.64 56.576C100.088 56.576 98.5844 56.264 97.1284 55.64C95.6724 55 94.3604 54.024 93.1924 52.712C92.0244 51.384 91.0964 49.688 90.4084 47.624C89.7364 45.56 89.4004 43.08 89.4004 40.184ZM94.5124 40.184C94.5124 42.84 94.8244 45.056 95.4484 46.832C96.0884 48.592 96.9444 49.904 98.0164 50.768C99.1044 51.616 100.312 52.04 101.64 52.04C103 52.04 104.208 51.608 105.264 50.744C106.336 49.88 107.184 48.568 107.808 46.808C108.432 45.048 108.744 42.84 108.744 40.184C108.744 37.576 108.432 35.392 107.808 33.632C107.184 31.872 106.336 30.544 105.264 29.648C104.208 28.736 103 28.28 101.64 28.28C100.312 28.28 99.1044 28.736 98.0164 29.648C96.9444 30.544 96.0884 31.88 95.4484 33.656C94.8244 35.416 94.5124 37.592 94.5124 40.184ZM122.375 30.656L117.023 33.632V28.76L124.775 24.32H127.439V56H122.375V30.656ZM145.174 35.216C146.919 35.216 148.551 35.656 150.071 36.536C151.607 37.4 152.855 38.624 153.815 40.208C154.775 41.792 155.255 43.632 155.255 45.728C155.255 47.824 154.743 49.688 153.719 51.32C152.695 52.952 151.319 54.24 149.591 55.184C147.879 56.112 145.991 56.576 143.927 56.576C141.815 56.576 139.903 56.12 138.191 55.208C136.495 54.296 135.143 53 134.135 51.32C133.127 49.64 132.623 47.664 132.623 45.392C132.623 42.976 133.031 40.936 133.847 39.272C134.663 37.592 135.615 36.08 136.703 34.736L145.103 24.32H151.079L140.855 36.584C141.159 36.264 141.679 35.96 142.415 35.672C143.151 35.368 144.071 35.216 145.174 35.216ZM143.975 52.352C145.159 52.352 146.239 52.064 147.215 51.488C148.207 50.896 148.991 50.112 149.567 49.136C150.159 48.144 150.455 47.048 150.455 45.848C150.455 44.648 150.159 43.56 149.567 42.584C148.991 41.592 148.207 40.808 147.215 40.232C146.239 39.656 145.159 39.368 143.975 39.368C142.775 39.368 141.679 39.656 140.687 40.232C139.695 40.808 138.903 41.592 138.311 42.584C137.735 43.56 137.447 44.648 137.447 45.848C137.447 47.048 137.735 48.144 138.311 49.136C138.903 50.112 139.695 50.896 140.687 51.488C141.679 52.064 142.775 52.352 143.975 52.352Z" fill="#4E37A2"/>
<path d="M43.154 128.332V122.032H35.828V120.466H43.154V114.418H36.62V112.87H51.326V114.418H44.882V120.466H52.118L52.136 122.032H44.882V128.332H43.154ZM47.636 119.836C47.528 119.764 47.372 119.674 47.168 119.566C46.976 119.446 46.784 119.338 46.592 119.242C46.4 119.146 46.256 119.08 46.16 119.044C46.412 118.72 46.694 118.318 47.006 117.838C47.33 117.346 47.636 116.848 47.924 116.344C48.212 115.84 48.434 115.408 48.59 115.048L50.156 115.768C50.024 116.044 49.85 116.368 49.634 116.74C49.418 117.112 49.184 117.496 48.932 117.892C48.692 118.288 48.458 118.66 48.23 119.008C48.002 119.344 47.804 119.62 47.636 119.836ZM40.346 119.854C40.238 119.59 40.088 119.278 39.896 118.918C39.716 118.558 39.512 118.18 39.284 117.784C39.068 117.388 38.852 117.022 38.636 116.686C38.42 116.338 38.222 116.05 38.042 115.822L39.5 115.048C39.668 115.276 39.86 115.564 40.076 115.912C40.304 116.26 40.532 116.632 40.76 117.028C40.988 117.412 41.198 117.784 41.39 118.144C41.594 118.504 41.75 118.804 41.858 119.044C41.738 119.092 41.582 119.17 41.39 119.278C41.198 119.374 41.006 119.476 40.814 119.584C40.622 119.692 40.466 119.782 40.346 119.854ZM60.506 128.062C60.422 127.894 60.278 127.672 60.074 127.396C59.882 127.12 59.714 126.916 59.57 126.784C60.422 126.388 61.208 125.914 61.928 125.362C62.66 124.798 63.32 124.18 63.908 123.508C63.524 122.656 63.182 121.672 62.882 120.556C62.594 119.428 62.372 118.132 62.216 116.668H56.942V118.72H61.172C61.172 119.668 61.142 120.604 61.082 121.528C61.034 122.44 60.944 123.214 60.812 123.85C60.656 124.654 60.374 125.206 59.966 125.506C59.57 125.806 58.982 125.956 58.202 125.956H57.158C57.134 125.74 57.086 125.464 57.014 125.128C56.942 124.792 56.87 124.534 56.798 124.354H57.95C58.442 124.354 58.76 124.282 58.904 124.138C59.048 123.982 59.162 123.7 59.246 123.292C59.33 122.92 59.39 122.452 59.426 121.888C59.474 121.324 59.498 120.76 59.498 120.196H56.906C56.858 121.492 56.744 122.614 56.564 123.562C56.396 124.498 56.156 125.32 55.844 126.028C55.544 126.724 55.166 127.36 54.71 127.936C54.614 127.864 54.458 127.774 54.242 127.666C54.038 127.558 53.84 127.456 53.648 127.36C53.456 127.264 53.324 127.204 53.252 127.18C53.732 126.58 54.116 125.896 54.404 125.128C54.692 124.348 54.902 123.424 55.034 122.356C55.166 121.288 55.232 120.004 55.232 118.504V115.12H62.072C62.048 114.628 62.024 114.118 62 113.59C61.988 113.05 61.982 112.498 61.982 111.934H63.62C63.62 113.062 63.656 114.124 63.728 115.12H67.13C66.806 114.76 66.446 114.406 66.05 114.058C65.654 113.698 65.294 113.41 64.97 113.194L65.978 112.114C66.254 112.294 66.56 112.522 66.896 112.798C67.232 113.074 67.55 113.356 67.85 113.644C68.162 113.92 68.402 114.16 68.57 114.364C68.486 114.424 68.36 114.532 68.192 114.688C68.024 114.832 67.868 114.976 67.724 115.12H69.614V116.668H63.872C63.992 117.736 64.154 118.708 64.358 119.584C64.574 120.46 64.814 121.252 65.078 121.96C65.474 121.348 65.822 120.706 66.122 120.034C66.422 119.362 66.668 118.672 66.86 117.964L68.426 118.486C67.826 120.406 66.974 122.11 65.87 123.598C66.23 124.21 66.62 124.732 67.04 125.164C67.46 125.584 67.892 125.932 68.336 126.208C68.48 125.824 68.612 125.398 68.732 124.93C68.864 124.45 68.954 124.042 69.002 123.706C69.086 123.766 69.224 123.844 69.416 123.94C69.608 124.024 69.806 124.108 70.01 124.192C70.226 124.264 70.388 124.318 70.496 124.354C70.424 124.714 70.328 125.098 70.208 125.506C70.1 125.914 69.98 126.304 69.848 126.676C69.728 127.048 69.602 127.36 69.47 127.612C69.314 127.9 69.098 128.08 68.822 128.152C68.558 128.224 68.264 128.17 67.94 127.99C67.388 127.702 66.836 127.318 66.284 126.838C65.732 126.346 65.21 125.728 64.718 124.984C63.494 126.28 62.09 127.306 60.506 128.062Z" fill="black"/>
<path d="M82.774 107.102C81.85 107.102 81.034 107.3 80.326 107.696C79.63 108.08 79.048 108.536 78.58 109.064C78.112 109.592 77.752 110.072 77.5 110.504C77.26 110.936 77.128 111.176 77.104 111.224L73.81 109.748C73.834 109.64 73.948 109.37 74.152 108.938C74.356 108.494 74.674 107.99 75.106 107.426C75.538 106.85 76.096 106.286 76.78 105.734C77.476 105.182 78.316 104.726 79.3 104.366C80.296 103.994 81.454 103.808 82.774 103.808C84.202 103.808 85.414 104.006 86.41 104.402C87.406 104.798 88.216 105.344 88.84 106.04C89.464 106.724 89.92 107.51 90.208 108.398C90.496 109.286 90.64 110.222 90.64 111.206C90.64 112.214 90.406 113.234 89.938 114.266C89.482 115.298 88.888 116.3 88.156 117.272C87.424 118.232 86.638 119.132 85.798 119.972C84.958 120.812 84.142 121.562 83.35 122.222C82.57 122.882 81.898 123.422 81.334 123.842C80.782 124.262 80.434 124.526 80.29 124.634H90.442V128H74.458V124.94C74.77 124.688 75.28 124.286 75.988 123.734C76.708 123.182 77.536 122.528 78.472 121.772C79.408 121.004 80.356 120.17 81.316 119.27C82.288 118.37 83.188 117.446 84.016 116.498C84.856 115.55 85.528 114.62 86.032 113.708C86.548 112.796 86.806 111.944 86.806 111.152C86.806 109.664 86.458 108.62 85.762 108.02C85.066 107.408 84.07 107.102 82.774 107.102ZM102.529 128.432C101.017 128.432 99.6493 128.126 98.4253 127.514C97.2013 126.902 96.2233 126.074 95.4913 125.03C94.7713 123.974 94.4113 122.786 94.4113 121.466C94.4113 120.302 94.6093 119.318 95.0053 118.514C95.4013 117.698 95.9293 117.02 96.5893 116.48C97.2613 115.928 97.9993 115.496 98.8033 115.184C98.2153 114.896 97.6633 114.53 97.1473 114.086C96.6433 113.63 96.2293 113.066 95.9053 112.394C95.5933 111.71 95.4373 110.888 95.4373 109.928C95.4373 108.704 95.7493 107.636 96.3733 106.724C97.0093 105.8 97.8613 105.086 98.9293 104.582C100.009 104.066 101.203 103.808 102.511 103.808C103.831 103.808 105.019 104.066 106.075 104.582C107.131 105.086 107.965 105.8 108.577 106.724C109.201 107.636 109.513 108.704 109.513 109.928C109.513 111.368 109.189 112.49 108.541 113.294C107.893 114.098 107.113 114.728 106.201 115.184C107.005 115.496 107.737 115.928 108.397 116.48C109.069 117.02 109.603 117.698 109.999 118.514C110.407 119.318 110.611 120.302 110.611 121.466C110.611 122.786 110.251 123.974 109.531 125.03C108.811 126.074 107.839 126.902 106.615 127.514C105.403 128.126 104.041 128.432 102.529 128.432ZM102.511 125.066C103.279 125.066 103.969 124.892 104.581 124.544C105.205 124.184 105.703 123.698 106.075 123.086C106.447 122.462 106.633 121.772 106.633 121.016C106.633 120.248 106.447 119.558 106.075 118.946C105.703 118.334 105.205 117.848 104.581 117.488C103.969 117.128 103.279 116.948 102.511 116.948C101.743 116.948 101.041 117.128 100.405 117.488C99.7813 117.848 99.2833 118.334 98.9113 118.946C98.5513 119.558 98.3713 120.248 98.3713 121.016C98.3713 121.772 98.5513 122.456 98.9113 123.068C99.2833 123.68 99.7813 124.166 100.405 124.526C101.041 124.886 101.743 125.066 102.511 125.066ZM102.529 113.942C103.177 113.942 103.765 113.78 104.293 113.456C104.833 113.132 105.259 112.7 105.571 112.16C105.895 111.62 106.057 111.026 106.057 110.378C106.057 109.73 105.895 109.142 105.571 108.614C105.247 108.074 104.815 107.648 104.275 107.336C103.747 107.012 103.159 106.85 102.511 106.85C101.875 106.85 101.281 107.012 100.729 107.336C100.189 107.648 99.7573 108.074 99.4333 108.614C99.1213 109.142 98.9653 109.73 98.9653 110.378C98.9653 111.026 99.1213 111.62 99.4333 112.16C99.7573 112.7 100.189 113.132 100.729 113.456C101.281 113.78 101.881 113.942 102.529 113.942Z" fill="#4E37A2"/>
<path d="M124.144 128.314V124.192H115.81V122.716H119.068V118.306H124.144V115.768H120.112C119.668 116.464 119.182 117.13 118.654 117.766C118.126 118.39 117.562 118.948 116.962 119.44C116.818 119.308 116.62 119.134 116.368 118.918C116.116 118.702 115.876 118.534 115.648 118.414C116.368 117.862 117.034 117.208 117.646 116.452C118.27 115.696 118.81 114.91 119.266 114.094C119.722 113.278 120.064 112.504 120.292 111.772L121.858 112.258C121.738 112.594 121.6 112.93 121.444 113.266C121.3 113.602 121.144 113.938 120.976 114.274H131.362V115.768H125.854V118.306H130.192V119.764H125.854V122.716H132.136V124.192H125.854V128.314H124.144ZM120.76 122.716H124.144V119.764H120.76V122.716Z" fill="black"/>
<path d="M145.584 112.412C146.892 112.412 148.116 112.742 149.256 113.402C150.408 114.05 151.344 114.968 152.064 116.156C152.784 117.344 153.144 118.724 153.144 120.296C153.144 121.868 152.76 123.266 151.992 124.49C151.224 125.714 150.192 126.68 148.896 127.388C147.612 128.084 146.196 128.432 144.648 128.432C143.064 128.432 141.63 128.09 140.346 127.406C139.074 126.722 138.06 125.75 137.304 124.49C136.548 123.23 136.17 121.748 136.17 120.044C136.17 118.232 136.476 116.702 137.088 115.454C137.7 114.194 138.414 113.06 139.23 112.052L145.53 104.24H150.012L142.344 113.438C142.572 113.198 142.962 112.97 143.514 112.754C144.066 112.526 144.756 112.412 145.584 112.412ZM144.684 125.264C145.572 125.264 146.382 125.048 147.114 124.616C147.858 124.172 148.446 123.584 148.878 122.852C149.322 122.108 149.544 121.286 149.544 120.386C149.544 119.486 149.322 118.67 148.878 117.938C148.446 117.194 147.858 116.606 147.114 116.174C146.382 115.742 145.572 115.526 144.684 115.526C143.784 115.526 142.962 115.742 142.218 116.174C141.474 116.606 140.88 117.194 140.436 117.938C140.004 118.67 139.788 119.486 139.788 120.386C139.788 121.286 140.004 122.108 140.436 122.852C140.88 123.584 141.474 124.172 142.218 124.616C142.962 125.048 143.784 125.264 144.684 125.264Z" fill="#4E37A2"/>
<path d="M159.466 128.368C159.334 128.2 159.136 128.002 158.872 127.774C158.62 127.546 158.386 127.378 158.17 127.27C159.238 126.526 160.036 125.596 160.564 124.48C161.092 123.364 161.356 121.954 161.356 120.25V112.582H171.13V126.478C171.13 127.642 170.446 128.224 169.078 128.224H167.62C167.596 127.984 167.542 127.684 167.458 127.324C167.386 126.976 167.308 126.706 167.224 126.514H168.7C168.964 126.514 169.15 126.472 169.258 126.388C169.366 126.292 169.42 126.118 169.42 125.866V122.194H162.922C162.754 123.598 162.382 124.792 161.806 125.776C161.242 126.76 160.462 127.624 159.466 128.368ZM163.03 120.664H169.42V118.162H163.048V120.232C163.048 120.304 163.042 120.376 163.03 120.448C163.03 120.52 163.03 120.592 163.03 120.664ZM163.048 116.614H169.42V114.148H163.048V116.614Z" fill="black"/>
<path d="M41.84 175.5C41.8133 175.247 41.76 174.96 41.68 174.64C41.6 174.333 41.5133 174.073 41.42 173.86H43.34C43.62 173.86 43.82 173.813 43.94 173.72C44.06 173.627 44.12 173.447 44.12 173.18V172.02H37.38V170.66H44.12V169.5H35.82V168.24H44.12V167.14H37.36V165.88H44.12V164.82H38.86V161.2H44.12V160.24H36.4V158.88H44.12V157.32H45.96V158.88H53.68V160.24H45.96V161.2H51.18V164.82H45.96V165.88H52.08V168.24H54.22V169.5H52.08V172.02H45.96V173.62C45.96 174.273 45.78 174.747 45.42 175.04C45.06 175.347 44.5067 175.5 43.76 175.5H41.84ZM45.96 170.66H50.3V169.5H45.96V170.66ZM45.96 168.24H50.3V167.14H45.96V168.24ZM40.56 163.58H44.12V162.44H40.56V163.58ZM45.96 163.58H49.48V162.44H45.96V163.58ZM57.76 175.5C57.7333 175.273 57.68 174.98 57.6 174.62C57.5333 174.273 57.46 174.007 57.38 173.82H58.78C59.0467 173.82 59.24 173.78 59.36 173.7C59.48 173.607 59.54 173.433 59.54 173.18V168.52C59.1133 169.187 58.6533 169.827 58.16 170.44C57.68 171.053 57.2067 171.593 56.74 172.06C56.6067 171.887 56.4 171.687 56.12 171.46C55.8533 171.22 55.6267 171.053 55.44 170.96C55.9467 170.507 56.46 169.953 56.98 169.3C57.5 168.647 57.98 167.967 58.42 167.26C58.8733 166.553 59.2267 165.907 59.48 165.32H55.92V163.82H60.82C60.5 163.553 60.14 163.28 59.74 163C59.34 162.707 58.94 162.433 58.54 162.18C58.1533 161.927 57.8067 161.713 57.5 161.54L58.46 160.34C58.7 160.473 58.9667 160.633 59.26 160.82C59.5533 160.993 59.8467 161.18 60.14 161.38C60.4067 161.087 60.7067 160.753 61.04 160.38C61.3733 159.993 61.6333 159.693 61.82 159.48H56.52V158.02H63.74L64.46 158.6C64.2467 158.907 63.9533 159.28 63.58 159.72C63.2067 160.16 62.82 160.607 62.42 161.06C62.02 161.5 61.6667 161.887 61.36 162.22C61.5467 162.353 61.7267 162.493 61.9 162.64C62.0867 162.773 62.2467 162.9 62.38 163.02C62.3267 163.087 62.2333 163.2 62.1 163.36C61.98 163.507 61.86 163.66 61.74 163.82H64.04L64.72 164.34C64.6533 164.527 64.56 164.767 64.44 165.06C64.32 165.353 64.1867 165.673 64.04 166.02C64.8 165.793 65.5 165.52 66.14 165.2C66.78 164.867 67.3533 164.487 67.86 164.06C67.5133 163.7 67.1867 163.32 66.88 162.92C66.5867 162.507 66.3133 162.067 66.06 161.6C65.8067 161.933 65.5467 162.247 65.28 162.54C65.0133 162.833 64.7467 163.093 64.48 163.32C64.3067 163.16 64.1 162.987 63.86 162.8C63.62 162.6 63.4067 162.46 63.22 162.38C63.5667 162.1 63.92 161.747 64.28 161.32C64.64 160.893 64.9867 160.433 65.32 159.94C65.6533 159.447 65.94 158.96 66.18 158.48C66.4333 158 66.6267 157.56 66.76 157.16L68.36 157.6C68.16 158.12 67.9067 158.667 67.6 159.24H73.8V160.7H72.12C71.88 161.313 71.6067 161.893 71.3 162.44C70.9933 162.973 70.6467 163.473 70.26 163.94C70.8733 164.353 71.5267 164.713 72.22 165.02C72.9133 165.327 73.6333 165.587 74.38 165.8C74.2867 165.893 74.18 166.04 74.06 166.24C73.9533 166.427 73.8533 166.62 73.76 166.82C73.6667 167.02 73.6 167.187 73.56 167.32C72.7333 167.093 71.94 166.8 71.18 166.44C70.4333 166.08 69.7333 165.653 69.08 165.16C68.5867 165.587 68.0133 165.987 67.36 166.36L69.1 166.46C69.0867 166.78 69.0667 167.087 69.04 167.38C69.0133 167.673 68.98 167.967 68.94 168.26H73.18C73.1667 169.127 73.1133 170.027 73.02 170.96C72.94 171.88 72.8333 172.653 72.7 173.28C72.5267 174.16 72.2133 174.747 71.76 175.04C71.32 175.333 70.6933 175.48 69.88 175.48H68.62C68.5933 175.253 68.54 174.953 68.46 174.58C68.38 174.207 68.3 173.933 68.22 173.76H69.58C70.0867 173.76 70.4267 173.687 70.6 173.54C70.7867 173.393 70.9333 173.087 71.04 172.62C71.12 172.247 71.1867 171.813 71.24 171.32C71.2933 170.813 71.3267 170.32 71.34 169.84H68.66C68.4467 170.733 68.1333 171.54 67.72 172.26C67.3067 172.98 66.7467 173.607 66.04 174.14C65.3467 174.673 64.46 175.127 63.38 175.5C63.3267 175.38 63.24 175.22 63.12 175.02C63 174.82 62.8733 174.62 62.74 174.42C62.62 174.233 62.5067 174.093 62.4 174C63.7067 173.653 64.7133 173.133 65.42 172.44C66.1267 171.733 66.6267 170.867 66.92 169.84H63.74V168.26H67.22C67.3 167.66 67.34 167.027 67.34 166.36C66.94 166.587 66.5133 166.8 66.06 167C65.6067 167.187 65.1267 167.373 64.62 167.56C64.5533 167.387 64.4533 167.173 64.32 166.92C64.2 166.667 64.08 166.44 63.96 166.24C63.7333 166.76 63.4933 167.28 63.24 167.8C63 168.307 62.8 168.7 62.64 168.98C62.4933 168.887 62.2667 168.773 61.96 168.64C61.6533 168.507 61.4067 168.42 61.22 168.38V173.74C61.22 174.913 60.54 175.5 59.18 175.5H57.76ZM69 162.92C69.2667 162.587 69.5067 162.24 69.72 161.88C69.9333 161.507 70.12 161.113 70.28 160.7H67.3C67.5267 161.113 67.78 161.507 68.06 161.88C68.3533 162.253 68.6667 162.6 69 162.92ZM61.22 168.36C61.38 168.093 61.56 167.76 61.76 167.36C61.9733 166.947 62.1667 166.547 62.34 166.16C62.5267 165.773 62.6533 165.493 62.72 165.32H61.22V168.36ZM89.84 175.46V165.24H87.54C87.5 166.787 87.2667 168.173 86.84 169.4C86.4267 170.613 85.8667 171.68 85.16 172.6C84.4667 173.507 83.6733 174.287 82.78 174.94C82.7 174.847 82.5667 174.713 82.38 174.54C82.2067 174.367 82.02 174.2 81.82 174.04C81.6333 173.88 81.4733 173.767 81.34 173.7C82.2067 173.127 82.9667 172.44 83.62 171.64C84.2733 170.84 84.78 169.873 85.14 168.74C85.5133 167.607 85.7 166.267 85.7 164.72V158.72C86.4733 158.68 87.3 158.593 88.18 158.46C89.0733 158.313 89.9333 158.133 90.76 157.92C91.5867 157.707 92.2933 157.48 92.88 157.24L93.84 158.76C93.28 158.987 92.6267 159.2 91.88 159.4C91.1467 159.6 90.4 159.773 89.64 159.92C88.88 160.053 88.18 160.153 87.54 160.22V163.52H94.06V165.24H91.64V175.46H89.84ZM76.86 175.54C76.74 175.46 76.5733 175.367 76.36 175.26C76.16 175.153 75.9533 175.047 75.74 174.94C75.54 174.847 75.3667 174.78 75.22 174.74C75.9267 173.873 76.44 172.793 76.76 171.5C77.0933 170.207 77.26 168.813 77.26 167.32V161.78H84.08V168.16H79.02C78.9667 169.747 78.7533 171.14 78.38 172.34C78.02 173.527 77.5133 174.593 76.86 175.54ZM76.34 160.04V158.44H84.6V160.04H76.34ZM79.04 166.54H82.34V163.42H79.04V166.54ZM98.88 175.5V167.8C98.5467 168.507 98.2 169.18 97.84 169.82C97.48 170.46 97.1467 170.987 96.84 171.4C96.7733 171.307 96.6467 171.193 96.46 171.06C96.2733 170.927 96.08 170.8 95.88 170.68C95.6933 170.56 95.5533 170.48 95.46 170.44C95.7667 170.093 96.0867 169.653 96.42 169.12C96.7667 168.587 97.1 168.013 97.42 167.4C97.74 166.773 98.0267 166.147 98.28 165.52C98.5333 164.893 98.72 164.32 98.84 163.8H95.88V162.22H98.88V160.1C98.4533 160.193 98.0333 160.28 97.62 160.36C97.2067 160.427 96.8067 160.487 96.42 160.54C96.4067 160.433 96.3667 160.28 96.3 160.08C96.2333 159.88 96.16 159.68 96.08 159.48C96 159.267 95.9333 159.113 95.88 159.02C96.5333 158.953 97.2533 158.84 98.04 158.68C98.8267 158.52 99.58 158.327 100.3 158.1C101.02 157.873 101.607 157.633 102.06 157.38L103.06 158.74C102.727 158.913 102.347 159.073 101.92 159.22C101.507 159.367 101.067 159.513 100.6 159.66V162.22H102.66C102.647 162.207 102.633 162.2 102.62 162.2C102.607 162.187 102.593 162.173 102.58 162.16C103.06 161.907 103.547 161.58 104.04 161.18C104.547 160.767 105.033 160.327 105.5 159.86C105.967 159.38 106.38 158.9 106.74 158.42C107.113 157.94 107.407 157.5 107.62 157.1L109.2 157.82C109.067 158.033 108.927 158.247 108.78 158.46C108.647 158.673 108.507 158.887 108.36 159.1H112.5L113.1 159.78C112.073 161.647 110.793 163.213 109.26 164.48C107.727 165.733 105.867 166.787 103.68 167.64C103.587 167.44 103.44 167.187 103.24 166.88C103.04 166.573 102.867 166.333 102.72 166.16C103.48 165.933 104.24 165.633 105 165.26C105.76 164.873 106.48 164.447 107.16 163.98C106.907 163.673 106.627 163.367 106.32 163.06C106.013 162.753 105.727 162.473 105.46 162.22C105.207 162.433 104.94 162.64 104.66 162.84C104.393 163.04 104.113 163.233 103.82 163.42C103.727 163.3 103.587 163.14 103.4 162.94C103.213 162.727 103.033 162.54 102.86 162.38V163.8H100.6V165.04C100.827 165.333 101.113 165.667 101.46 166.04C101.807 166.413 102.16 166.767 102.52 167.1C102.88 167.433 103.193 167.693 103.46 167.88C103.38 167.947 103.26 168.06 103.1 168.22C102.953 168.367 102.807 168.527 102.66 168.7C102.527 168.86 102.433 168.987 102.38 169.08C102.127 168.853 101.84 168.58 101.52 168.26C101.213 167.927 100.907 167.573 100.6 167.2V175.5H98.88ZM103.18 175.58C103.153 175.46 103.093 175.3 103 175.1C102.907 174.9 102.807 174.7 102.7 174.5C102.593 174.3 102.5 174.14 102.42 174.02C103.407 173.833 104.36 173.573 105.28 173.24C106.213 172.907 107.08 172.5 107.88 172.02C107.627 171.687 107.34 171.333 107.02 170.96C106.713 170.573 106.427 170.253 106.16 170C105.36 170.493 104.547 170.927 103.72 171.3C103.613 171.113 103.44 170.867 103.2 170.56C102.96 170.253 102.76 170.033 102.6 169.9C103.493 169.567 104.38 169.12 105.26 168.56C106.14 168 106.94 167.387 107.66 166.72C108.38 166.04 108.94 165.367 109.34 164.7L110.94 165.54C110.793 165.767 110.633 165.993 110.46 166.22C110.287 166.433 110.107 166.653 109.92 166.88H113.7L114.26 167.66C113.167 169.793 111.693 171.5 109.84 172.78C108 174.06 105.78 174.993 103.18 175.58ZM109.32 171.04C109.813 170.64 110.26 170.213 110.66 169.76C111.06 169.307 111.4 168.833 111.68 168.34H108.42C108.287 168.46 108.14 168.58 107.98 168.7C107.833 168.82 107.687 168.94 107.54 169.06C107.833 169.34 108.14 169.667 108.46 170.04C108.793 170.4 109.08 170.733 109.32 171.04ZM108.46 162.96C108.9 162.587 109.307 162.2 109.68 161.8C110.053 161.4 110.367 160.993 110.62 160.58H107.16C107.067 160.673 106.98 160.767 106.9 160.86C106.82 160.94 106.733 161.027 106.64 161.12C106.947 161.387 107.26 161.687 107.58 162.02C107.913 162.353 108.207 162.667 108.46 162.96ZM119.76 175.44V172H115.9V170.42H119.76V168.98H116.64V162.1H119.76V160.72H116V159.22H119.76V157.24H121.28V159.22H124.84V160.72H121.28V162.1H124.4V168.98H121.28V170.42H124.92V172H121.28V175.44H119.76ZM132.72 175.18C132.613 174.9 132.487 174.587 132.34 174.24C132.207 173.907 132.067 173.56 131.92 173.2C131.427 173.293 130.847 173.407 130.18 173.54C129.527 173.66 128.847 173.787 128.14 173.92C127.433 174.04 126.767 174.147 126.14 174.24C125.527 174.347 125.013 174.427 124.6 174.48L124.22 172.76C124.473 172.747 124.773 172.727 125.12 172.7C125.48 172.66 125.867 172.613 126.28 172.56C126.467 172 126.667 171.34 126.88 170.58C127.093 169.82 127.293 169.047 127.48 168.26C127.667 167.473 127.82 166.773 127.94 166.16H125.08V164.54H134V166.16H129.76C129.627 166.787 129.467 167.467 129.28 168.2C129.093 168.933 128.9 169.66 128.7 170.38C128.5 171.1 128.307 171.753 128.12 172.34C128.68 172.26 129.24 172.18 129.8 172.1C130.36 172.007 130.867 171.92 131.32 171.84C131.12 171.413 130.913 170.993 130.7 170.58C130.5 170.167 130.293 169.773 130.08 169.4L131.56 168.78C131.867 169.273 132.187 169.86 132.52 170.54C132.867 171.207 133.2 171.893 133.52 172.6C133.84 173.293 134.107 173.927 134.32 174.5C134.107 174.567 133.833 174.667 133.5 174.8C133.18 174.947 132.92 175.073 132.72 175.18ZM125.68 160.74V159.12H133.26V160.74H125.68ZM118.2 167.64H119.76V166.14H118.2V167.64ZM121.28 167.64H122.84V166.14H121.28V167.64ZM118.2 164.94H119.76V163.46H118.2V164.94ZM121.28 164.94H122.84V163.46H121.28V164.94ZM36.9 205.5C36.8333 205.353 36.7267 205.167 36.58 204.94C36.4467 204.713 36.3 204.493 36.14 204.28C35.98 204.067 35.8467 203.913 35.74 203.82C36.8467 203.433 37.8733 202.913 38.82 202.26C39.78 201.607 40.62 200.86 41.34 200.02C42.0733 199.18 42.66 198.28 43.1 197.32C43.5533 196.347 43.84 195.353 43.96 194.34H36.24V192.56H44.02V187.36H45.94V192.56H53.74V194.34H46C46.12 195.327 46.4133 196.3 46.88 197.26C47.3467 198.22 47.9467 199.12 48.68 199.96C49.4133 200.8 50.2467 201.553 51.18 202.22C52.1267 202.873 53.14 203.393 54.22 203.78C54.1133 203.9 53.9733 204.067 53.8 204.28C53.64 204.507 53.4867 204.727 53.34 204.94C53.1933 205.167 53.0867 205.353 53.02 205.5C51.86 204.953 50.7467 204.28 49.68 203.48C48.6267 202.667 47.6867 201.74 46.86 200.7C46.0467 199.66 45.42 198.527 44.98 197.3C44.54 198.553 43.9067 199.7 43.08 200.74C42.2533 201.78 41.3067 202.7 40.24 203.5C39.1733 204.3 38.06 204.967 36.9 205.5ZM57.88 205.38C57.84 205.26 57.76 205.1 57.64 204.9C57.5333 204.7 57.4133 204.493 57.28 204.28C57.1467 204.08 57.02 203.927 56.9 203.82C58.7267 203.26 60.1267 202.373 61.1 201.16C62.0733 199.947 62.6267 198.533 62.76 196.92H59.46V195.12H70.48C70.48 195.733 70.46 196.407 70.42 197.14C70.3933 197.86 70.34 198.58 70.26 199.3C70.1933 200.02 70.1067 200.7 70 201.34C69.9067 201.967 69.8 202.5 69.68 202.94C69.4267 203.82 69.0333 204.42 68.5 204.74C67.98 205.073 67.26 205.24 66.34 205.24H64.7C64.6867 204.973 64.6333 204.647 64.54 204.26C64.46 203.873 64.3733 203.573 64.28 203.36H66.1C66.6467 203.36 67.0467 203.28 67.3 203.12C67.5533 202.947 67.7533 202.613 67.9 202.12C68.0333 201.72 68.14 201.207 68.22 200.58C68.3133 199.94 68.3867 199.287 68.44 198.62C68.4933 197.953 68.52 197.387 68.52 196.92H64.62C64.5267 198.187 64.22 199.373 63.7 200.48C63.1933 201.587 62.46 202.56 61.5 203.4C60.54 204.24 59.3333 204.9 57.88 205.38ZM73.4 196.94C72.4267 196.42 71.4867 195.8 70.58 195.08C69.6867 194.347 68.9067 193.52 68.24 192.6C67.5867 191.68 67.12 190.68 66.84 189.6H63.26V187.86H68.34C68.5133 188.967 68.8933 189.98 69.48 190.9C70.08 191.807 70.8267 192.627 71.72 193.36C72.6267 194.08 73.6333 194.707 74.74 195.24C74.6067 195.347 74.4467 195.513 74.26 195.74C74.0867 195.953 73.92 196.173 73.76 196.4C73.6 196.613 73.48 196.793 73.4 196.94ZM56.6 197.18C56.5333 197.06 56.42 196.907 56.26 196.72C56.1 196.533 55.9333 196.347 55.76 196.16C55.5867 195.973 55.4267 195.827 55.28 195.72C56.0667 195.307 56.8467 194.76 57.62 194.08C58.4067 193.4 59.1267 192.647 59.78 191.82C60.4333 190.993 60.94 190.16 61.3 189.32L63.06 190.16C62.62 191.12 62.0533 192.04 61.36 192.92C60.6667 193.787 59.9067 194.587 59.08 195.32C58.2533 196.04 57.4267 196.66 56.6 197.18ZM84.04 205.48V195.7H80.06V203.7H78.18V193.94H84.04V191.78H75.94V190.06H84.04V187.32H85.92V190.06H94.06V191.78H85.92V193.94H91.96V201.66C91.96 202.327 91.7733 202.813 91.4 203.12C91.04 203.427 90.4867 203.58 89.74 203.58H88C87.9733 203.313 87.92 202.993 87.84 202.62C87.76 202.233 87.6733 201.933 87.58 201.72H89.3C89.58 201.72 89.78 201.673 89.9 201.58C90.02 201.473 90.08 201.287 90.08 201.02V195.7H85.92V205.48H84.04ZM96.98 205.2V190.46H101.9C102.073 190.14 102.253 189.773 102.44 189.36C102.64 188.947 102.82 188.54 102.98 188.14C103.14 187.74 103.267 187.4 103.36 187.12L105.46 187.42C105.327 187.807 105.12 188.293 104.84 188.88C104.573 189.467 104.32 189.993 104.08 190.46H113.06V203.3C113.06 203.953 112.88 204.433 112.52 204.74C112.16 205.047 111.607 205.2 110.86 205.2H108.66C108.633 204.947 108.573 204.627 108.48 204.24C108.4 203.867 108.32 203.573 108.24 203.36H110.44C110.72 203.36 110.92 203.313 111.04 203.22C111.16 203.113 111.22 202.927 111.22 202.66V192.16H98.8V205.2H96.98ZM101.42 201.14V194.58H108.46V201.14H101.42ZM103.16 199.5H106.7V196.24H103.16V199.5ZM124.18 205.46C124.153 205.22 124.1 204.927 124.02 204.58C123.94 204.233 123.853 203.96 123.76 203.76H125.1C125.367 203.76 125.56 203.713 125.68 203.62C125.8 203.513 125.86 203.333 125.86 203.08V198.88H121.36V191.52H125.02C125.127 191.213 125.233 190.88 125.34 190.52C125.447 190.147 125.533 189.833 125.6 189.58H119.46V194.32C119.46 195.947 119.387 197.36 119.24 198.56C119.093 199.76 118.86 200.84 118.54 201.8C118.22 202.747 117.8 203.66 117.28 204.54C117.107 204.42 116.847 204.28 116.5 204.12C116.167 203.973 115.887 203.873 115.66 203.82C116.02 203.18 116.327 202.547 116.58 201.92C116.847 201.293 117.053 200.62 117.2 199.9C117.36 199.18 117.473 198.367 117.54 197.46C117.62 196.553 117.66 195.513 117.66 194.34V188.02H133.66V189.58H127.62C127.527 189.873 127.427 190.2 127.32 190.56C127.227 190.907 127.133 191.227 127.04 191.52H132.08V198.88H127.66V203.62C127.66 204.26 127.48 204.727 127.12 205.02C126.773 205.313 126.24 205.46 125.52 205.46H124.18ZM123.16 197.42H130.26V195.8H123.16V197.42ZM123.16 194.52H130.26V192.98H123.16V194.52ZM120.9 204.38C120.753 204.193 120.54 203.973 120.26 203.72C119.98 203.467 119.747 203.3 119.56 203.22C119.947 202.953 120.353 202.613 120.78 202.2C121.207 201.787 121.607 201.347 121.98 200.88C122.367 200.413 122.667 199.98 122.88 199.58L124.34 200.48C124.073 200.933 123.747 201.407 123.36 201.9C122.987 202.38 122.587 202.84 122.16 203.28C121.733 203.707 121.313 204.073 120.9 204.38ZM132.56 204.38C132.147 204.073 131.72 203.7 131.28 203.26C130.853 202.82 130.447 202.36 130.06 201.88C129.673 201.4 129.347 200.947 129.08 200.52L130.54 199.62C130.767 200.02 131.067 200.453 131.44 200.92C131.827 201.373 132.233 201.807 132.66 202.22C133.1 202.62 133.513 202.953 133.9 203.22C133.727 203.3 133.493 203.467 133.2 203.72C132.92 203.973 132.707 204.193 132.56 204.38ZM137.08 204.66V193.24H142.02V190.2H135.96V188.6H154.02V190.2H147.5V193.24H152.94V204.66H137.08ZM138.86 203H151.18V198.84C150.967 199.413 150.673 199.8 150.3 200C149.94 200.187 149.467 200.28 148.88 200.28H147.52C146.907 200.28 146.46 200.173 146.18 199.96C145.9 199.747 145.76 199.387 145.76 198.88V194.9H143.74C143.687 195.94 143.527 196.833 143.26 197.58C142.993 198.327 142.6 198.993 142.08 199.58C141.56 200.153 140.887 200.7 140.06 201.22C139.94 201.06 139.753 200.853 139.5 200.6C139.247 200.347 139.033 200.153 138.86 200.02V203ZM138.86 199.92C139.567 199.493 140.14 199.06 140.58 198.62C141.02 198.18 141.353 197.667 141.58 197.08C141.807 196.48 141.947 195.753 142 194.9H138.86V199.92ZM148.12 198.56H148.7C148.993 198.56 149.213 198.513 149.36 198.42C149.52 198.313 149.633 198.12 149.7 197.84C149.78 197.547 149.847 197.127 149.9 196.58C150.073 196.66 150.273 196.747 150.5 196.84C150.74 196.92 150.967 196.993 151.18 197.06V194.9H147.5V198C147.5 198.173 147.54 198.313 147.62 198.42C147.7 198.513 147.867 198.56 148.12 198.56ZM143.76 193.24H145.76V190.2H143.76V193.24ZM155.64 204V203.44C155.64 202.453 155.92 201.507 156.48 200.6C157.053 199.693 157.88 198.727 158.96 197.7C159.413 197.26 159.833 196.827 160.22 196.4C160.62 195.96 160.947 195.527 161.2 195.1C161.453 194.673 161.587 194.26 161.6 193.86C161.627 193.073 161.447 192.487 161.06 192.1C160.673 191.713 160.127 191.52 159.42 191.52C158.807 191.52 158.32 191.747 157.96 192.2C157.6 192.64 157.42 193.273 157.42 194.1H155.72C155.72 192.793 156.06 191.767 156.74 191.02C157.433 190.26 158.327 189.88 159.42 189.88C160.193 189.88 160.873 190.04 161.46 190.36C162.06 190.667 162.52 191.12 162.84 191.72C163.173 192.32 163.327 193.047 163.3 193.9C163.287 194.527 163.133 195.113 162.84 195.66C162.547 196.193 162.167 196.713 161.7 197.22C161.233 197.727 160.713 198.26 160.14 198.82C159.5 199.473 158.913 200.107 158.38 200.72C157.86 201.32 157.553 201.887 157.46 202.42H163.1V204H155.64ZM170.585 205.16C170.559 204.893 170.499 204.553 170.405 204.14C170.325 203.727 170.232 203.407 170.125 203.18H172.525C172.819 203.18 173.025 203.133 173.145 203.04C173.279 202.933 173.345 202.74 173.345 202.46V190.66H165.085V188.88H182.825V190.66H175.305V203.16C175.305 203.853 175.119 204.36 174.745 204.68C174.372 205 173.785 205.16 172.985 205.16H170.585ZM187.885 204.64V188.28H200.005V204.64H187.885ZM189.785 202.94H198.165V199.66H189.785V202.94ZM189.785 197.94H198.165V194.8H189.785V197.94ZM189.785 193.1H198.165V189.98H189.785V193.1ZM40.2 234.22C39.6133 234.22 39.06 234.113 38.54 233.9C38.02 233.687 37.56 233.32 37.16 232.8C36.7733 232.28 36.4733 231.573 36.26 230.68C36.06 229.773 35.9733 228.633 36 227.26C36.0533 224.673 36.4733 222.78 37.26 221.58C38.0467 220.367 39.1667 219.76 40.62 219.76C41.3267 219.76 41.9733 219.94 42.56 220.3C43.16 220.647 43.6467 221.093 44.02 221.64L42.74 222.64C42.4867 222.253 42.1867 221.947 41.84 221.72C41.5067 221.493 41.1067 221.38 40.64 221.38C39.9067 221.38 39.32 221.627 38.88 222.12C38.4533 222.6 38.1467 223.28 37.96 224.16C37.7733 225.027 37.6733 226.033 37.66 227.18C37.9133 226.74 38.2667 226.4 38.72 226.16C39.1867 225.907 39.6867 225.78 40.22 225.78C40.94 225.78 41.5867 225.947 42.16 226.28C42.7333 226.613 43.1867 227.087 43.52 227.7C43.8533 228.3 44.02 229.027 44.02 229.88C44.02 230.72 43.86 231.467 43.54 232.12C43.22 232.773 42.7733 233.287 42.2 233.66C41.6267 234.033 40.96 234.22 40.2 234.22ZM40.1 232.58C40.8067 232.58 41.3467 232.32 41.72 231.8C42.0933 231.28 42.28 230.64 42.28 229.88C42.28 229.12 42.0867 228.513 41.7 228.06C41.3133 227.593 40.8067 227.36 40.18 227.36C39.4867 227.36 38.92 227.613 38.48 228.12C38.04 228.613 37.8533 229.247 37.92 230.02C37.9867 230.847 38.2067 231.48 38.58 231.92C38.9533 232.36 39.46 232.58 40.1 232.58ZM49.1023 235.46V228.18C48.609 228.473 48.109 228.747 47.6023 229C47.109 229.253 46.6223 229.487 46.1423 229.7C46.049 229.513 45.8957 229.273 45.6823 228.98C45.4823 228.673 45.289 228.44 45.1023 228.28C45.889 228 46.6957 227.64 47.5223 227.2C48.349 226.76 49.1557 226.26 49.9423 225.7C50.729 225.14 51.449 224.56 52.1023 223.96H46.1023V222.54H50.4823C50.309 222.193 50.109 221.82 49.8823 221.42C49.6557 221.007 49.429 220.653 49.2023 220.36L50.7823 219.66C50.249 219.687 49.7223 219.707 49.2023 219.72C48.6957 219.733 48.209 219.747 47.7423 219.76C47.7157 219.587 47.6623 219.34 47.5823 219.02C47.5157 218.7 47.449 218.46 47.3823 218.3C48.609 218.3 49.8623 218.273 51.1423 218.22C52.4223 218.167 53.6557 218.087 54.8423 217.98C56.0423 217.873 57.129 217.74 58.1023 217.58C59.089 217.42 59.9023 217.24 60.5423 217.04L61.5623 218.4C60.829 218.6 59.9623 218.78 58.9623 218.94C57.9623 219.087 56.9023 219.213 55.7823 219.32V222.54H57.0823C57.269 222.247 57.469 221.907 57.6823 221.52C57.909 221.12 58.1223 220.727 58.3223 220.34C58.5223 219.953 58.6757 219.627 58.7823 219.36L60.5423 219.88C60.369 220.213 60.1357 220.633 59.8423 221.14C59.549 221.647 59.2623 222.113 58.9823 222.54H63.7223V223.96H57.6623C58.3023 224.533 59.0157 225.093 59.8023 225.64C60.6023 226.187 61.4223 226.68 62.2623 227.12C63.1157 227.547 63.929 227.893 64.7023 228.16C64.529 228.32 64.3223 228.56 64.0823 228.88C63.8557 229.2 63.6957 229.453 63.6023 229.64C63.1357 229.44 62.6557 229.22 62.1623 228.98C61.669 228.727 61.1823 228.453 60.7023 228.16V235.46H49.1023ZM49.6223 227.86H60.2023C59.3623 227.34 58.5623 226.773 57.8023 226.16C57.0423 225.533 56.369 224.86 55.7823 224.14V227.4H54.0023V224.22C53.4423 224.9 52.7823 225.547 52.0223 226.16C51.2623 226.773 50.4623 227.34 49.6223 227.86ZM51.3223 222.54H54.0023V219.48C52.9623 219.56 51.8957 219.62 50.8023 219.66C51.0557 219.993 51.3023 220.387 51.5423 220.84C51.7957 221.28 52.0223 221.713 52.2223 222.14L51.3223 222.54ZM50.8823 234.06H54.0423V232.24H50.8823V234.06ZM55.8023 234.06H58.9423V232.24H55.8023V234.06ZM50.8823 231.04H54.0423V229.24H50.8823V231.04ZM55.8023 231.04H58.9423V229.24H55.8023V231.04ZM70.0023 234.22C69.2023 234.22 68.489 234.047 67.8623 233.7C67.249 233.34 66.769 232.84 66.4223 232.2C66.0757 231.56 65.9023 230.827 65.9023 230C65.9023 229.227 66.0957 228.547 66.4823 227.96C66.8823 227.36 67.369 226.913 67.9423 226.62C67.449 226.313 67.0423 225.913 66.7223 225.42C66.4157 224.913 66.2623 224.313 66.2623 223.62C66.2623 222.86 66.4223 222.193 66.7423 221.62C67.0623 221.033 67.5023 220.58 68.0623 220.26C68.6223 219.94 69.269 219.78 70.0023 219.78C70.7357 219.78 71.3823 219.94 71.9423 220.26C72.5023 220.58 72.9423 221.033 73.2623 221.62C73.5823 222.193 73.7423 222.86 73.7423 223.62C73.7423 224.313 73.5823 224.913 73.2623 225.42C72.9423 225.913 72.5357 226.313 72.0423 226.62C72.629 226.913 73.1157 227.36 73.5023 227.96C73.889 228.547 74.0823 229.227 74.0823 230C74.0823 230.827 73.909 231.56 73.5623 232.2C73.2157 232.84 72.7357 233.34 72.1223 233.7C71.509 234.047 70.8023 234.22 70.0023 234.22ZM70.0023 232.58C70.7357 232.58 71.3157 232.36 71.7423 231.92C72.169 231.48 72.3823 230.833 72.3823 229.98C72.3823 229.153 72.169 228.507 71.7423 228.04C71.3157 227.573 70.7357 227.34 70.0023 227.34C69.269 227.34 68.6823 227.573 68.2423 228.04C67.8157 228.507 67.6023 229.153 67.6023 229.98C67.6023 230.833 67.8157 231.48 68.2423 231.92C68.6823 232.36 69.269 232.58 70.0023 232.58ZM70.0023 225.94C70.6423 225.94 71.1357 225.74 71.4823 225.34C71.8423 224.927 72.0223 224.36 72.0223 223.64C72.0223 222.933 71.829 222.387 71.4423 222C71.069 221.613 70.589 221.42 70.0023 221.42C69.4023 221.42 68.9157 221.613 68.5423 222C68.169 222.387 67.9823 222.933 67.9823 223.64C67.9823 224.36 68.1557 224.927 68.5023 225.34C68.849 225.74 69.349 225.94 70.0023 225.94ZM79.3981 223.56V217.8H90.7781V223.56H79.3981ZM84.3581 235.6C84.3315 235.373 84.2781 235.073 84.1981 234.7C84.1315 234.327 84.0581 234.053 83.9781 233.88H86.1381C86.7248 233.88 87.1448 233.813 87.3981 233.68C87.6515 233.533 87.8648 233.2 88.0381 232.68C88.1581 232.32 88.2715 231.887 88.3781 231.38C88.4848 230.873 88.5715 230.373 88.6381 229.88H79.9981C80.1848 229.44 80.3781 228.92 80.5781 228.32C80.7915 227.707 80.9781 227.127 81.1381 226.58H75.9781V225H94.1781V226.58H83.1181C83.0381 226.873 82.9448 227.187 82.8381 227.52C82.7315 227.84 82.6448 228.107 82.5781 228.32H90.7581C90.7181 228.84 90.6515 229.413 90.5581 230.04C90.4648 230.667 90.3581 231.267 90.2381 231.84C90.1315 232.413 90.0248 232.88 89.9181 233.24C89.7315 233.867 89.4981 234.347 89.2181 234.68C88.9381 235.027 88.5648 235.267 88.0981 235.4C87.6315 235.533 87.0115 235.6 86.2381 235.6H84.3581ZM81.2581 221.98H88.9181V219.38H81.2581V221.98Z" fill="black"/>
</svg>
