<svg width="320" height="259" viewBox="0 0 320 259" fill="none" xmlns="http://www.w3.org/2000/svg">
<mask id="path-1-inside-1_5513_2592" fill="white">
<path d="M320 251C320 255.418 316.418 259 312 259H7.99999C3.58171 259 0 255.418 0 251V8C0 3.58172 3.58172 0 8 0H195.056C198.086 0 200.856 1.71202 202.211 4.42229L237.789 75.5777C239.144 78.288 241.914 80 244.944 80H312C316.418 80 320 83.5817 320 88V251Z"/>
</mask>
<path d="M320 251C320 255.418 316.418 259 312 259H7.99999C3.58171 259 0 255.418 0 251V8C0 3.58172 3.58172 0 8 0H195.056C198.086 0 200.856 1.71202 202.211 4.42229L237.789 75.5777C239.144 78.288 241.914 80 244.944 80H312C316.418 80 320 83.5817 320 88V251Z" fill="#E3E7FF"/>
<path d="M237.789 75.5777L238.683 75.1305L237.789 75.5777ZM202.211 4.42229L201.317 4.8695L202.211 4.42229ZM312 259V258H7.99999V259V260H312V259ZM0 251H1V8H0H-1V251H0ZM8 0V1H195.056V0V-1H8V0ZM202.211 4.42229L201.317 4.8695L236.894 76.0249L237.789 75.5777L238.683 75.1305L203.106 3.97508L202.211 4.42229ZM244.944 80V81H312V80V79H244.944V80ZM320 88H319V251H320H321V88H320ZM312 80V81C315.866 81 319 84.134 319 88H320H321C321 83.0294 316.971 79 312 79V80ZM237.789 75.5777L236.894 76.0249C238.419 79.074 241.535 81 244.944 81V80V79C242.293 79 239.869 77.502 238.683 75.1305L237.789 75.5777ZM195.056 0V1C197.707 1 200.131 2.49802 201.317 4.8695L202.211 4.42229L203.106 3.97508C201.581 0.926021 198.465 -1 195.056 -1V0ZM0 8H1C1 4.134 4.13401 1 8 1V0V-1C3.02944 -1 -1 3.02943 -1 8H0ZM7.99999 259V258C4.134 258 1 254.866 1 251H0H-1C-1 255.971 3.02943 260 7.99999 260V259ZM312 259V260C316.971 260 321 255.971 321 251H320H319C319 254.866 315.866 258 312 258V259Z" fill="#D3D3D3" mask="url(#path-1-inside-1_5513_2592)"/>
<path d="M75.532 28.136C74.3 28.136 73.212 28.4 72.268 28.928C71.34 29.44 70.564 30.048 69.94 30.752C69.316 31.456 68.836 32.096 68.5 32.672C68.18 33.248 68.004 33.568 67.972 33.632L63.58 31.664C63.612 31.52 63.764 31.16 64.036 30.584C64.308 29.992 64.732 29.32 65.308 28.568C65.884 27.8 66.628 27.048 67.54 26.312C68.468 25.576 69.588 24.968 70.9 24.488C72.228 23.992 73.772 23.744 75.532 23.744C77.436 23.744 79.052 24.008 80.38 24.536C81.708 25.064 82.788 25.792 83.62 26.72C84.452 27.632 85.06 28.68 85.444 29.864C85.828 31.048 86.02 32.296 86.02 33.608C86.02 34.952 85.708 36.312 85.084 37.688C84.476 39.064 83.684 40.4 82.708 41.696C81.732 42.976 80.684 44.176 79.564 45.296C78.444 46.416 77.356 47.416 76.3 48.296C75.26 49.176 74.364 49.896 73.612 50.456C72.876 51.016 72.412 51.368 72.22 51.512H85.756V56H64.444V51.92C64.86 51.584 65.54 51.048 66.484 50.312C67.444 49.576 68.548 48.704 69.796 47.696C71.044 46.672 72.308 45.56 73.588 44.36C74.884 43.16 76.084 41.928 77.188 40.664C78.308 39.4 79.204 38.16 79.876 36.944C80.564 35.728 80.908 34.592 80.908 33.536C80.908 31.552 80.444 30.16 79.516 29.36C78.588 28.544 77.26 28.136 75.532 28.136ZM90.4004 40.184C90.4004 37.384 90.7364 34.952 91.4084 32.888C92.0964 30.824 93.0244 29.12 94.1924 27.776C95.3604 26.416 96.6724 25.408 98.1284 24.752C99.5844 24.08 101.088 23.744 102.64 23.744C104.208 23.744 105.72 24.08 107.176 24.752C108.648 25.408 109.96 26.416 111.112 27.776C112.264 29.12 113.176 30.824 113.848 32.888C114.52 34.952 114.856 37.384 114.856 40.184C114.856 43.08 114.52 45.56 113.848 47.624C113.176 49.688 112.264 51.384 111.112 52.712C109.96 54.024 108.648 55 107.176 55.64C105.72 56.264 104.208 56.576 102.64 56.576C101.088 56.576 99.5844 56.264 98.1284 55.64C96.6724 55 95.3604 54.024 94.1924 52.712C93.0244 51.384 92.0964 49.688 91.4084 47.624C90.7364 45.56 90.4004 43.08 90.4004 40.184ZM95.5124 40.184C95.5124 42.84 95.8244 45.056 96.4484 46.832C97.0884 48.592 97.9444 49.904 99.0164 50.768C100.104 51.616 101.312 52.04 102.64 52.04C104 52.04 105.208 51.608 106.264 50.744C107.336 49.88 108.184 48.568 108.808 46.808C109.432 45.048 109.744 42.84 109.744 40.184C109.744 37.576 109.432 35.392 108.808 33.632C108.184 31.872 107.336 30.544 106.264 29.648C105.208 28.736 104 28.28 102.64 28.28C101.312 28.28 100.104 28.736 99.0164 29.648C97.9444 30.544 97.0884 31.88 96.4484 33.656C95.8244 35.416 95.5124 37.592 95.5124 40.184ZM123.375 30.656L118.023 33.632V28.76L125.775 24.32H128.439V56H123.375V30.656ZM134.751 24.32H155.919V27.848L139.911 56H134.295L149.991 28.808H134.751V24.32Z" fill="#4E37A2"/>
<path d="M43.154 128.332V122.032H35.828V120.466H43.154V114.418H36.62V112.87H51.326V114.418H44.882V120.466H52.118L52.136 122.032H44.882V128.332H43.154ZM47.636 119.836C47.528 119.764 47.372 119.674 47.168 119.566C46.976 119.446 46.784 119.338 46.592 119.242C46.4 119.146 46.256 119.08 46.16 119.044C46.412 118.72 46.694 118.318 47.006 117.838C47.33 117.346 47.636 116.848 47.924 116.344C48.212 115.84 48.434 115.408 48.59 115.048L50.156 115.768C50.024 116.044 49.85 116.368 49.634 116.74C49.418 117.112 49.184 117.496 48.932 117.892C48.692 118.288 48.458 118.66 48.23 119.008C48.002 119.344 47.804 119.62 47.636 119.836ZM40.346 119.854C40.238 119.59 40.088 119.278 39.896 118.918C39.716 118.558 39.512 118.18 39.284 117.784C39.068 117.388 38.852 117.022 38.636 116.686C38.42 116.338 38.222 116.05 38.042 115.822L39.5 115.048C39.668 115.276 39.86 115.564 40.076 115.912C40.304 116.26 40.532 116.632 40.76 117.028C40.988 117.412 41.198 117.784 41.39 118.144C41.594 118.504 41.75 118.804 41.858 119.044C41.738 119.092 41.582 119.17 41.39 119.278C41.198 119.374 41.006 119.476 40.814 119.584C40.622 119.692 40.466 119.782 40.346 119.854ZM60.506 128.062C60.422 127.894 60.278 127.672 60.074 127.396C59.882 127.12 59.714 126.916 59.57 126.784C60.422 126.388 61.208 125.914 61.928 125.362C62.66 124.798 63.32 124.18 63.908 123.508C63.524 122.656 63.182 121.672 62.882 120.556C62.594 119.428 62.372 118.132 62.216 116.668H56.942V118.72H61.172C61.172 119.668 61.142 120.604 61.082 121.528C61.034 122.44 60.944 123.214 60.812 123.85C60.656 124.654 60.374 125.206 59.966 125.506C59.57 125.806 58.982 125.956 58.202 125.956H57.158C57.134 125.74 57.086 125.464 57.014 125.128C56.942 124.792 56.87 124.534 56.798 124.354H57.95C58.442 124.354 58.76 124.282 58.904 124.138C59.048 123.982 59.162 123.7 59.246 123.292C59.33 122.92 59.39 122.452 59.426 121.888C59.474 121.324 59.498 120.76 59.498 120.196H56.906C56.858 121.492 56.744 122.614 56.564 123.562C56.396 124.498 56.156 125.32 55.844 126.028C55.544 126.724 55.166 127.36 54.71 127.936C54.614 127.864 54.458 127.774 54.242 127.666C54.038 127.558 53.84 127.456 53.648 127.36C53.456 127.264 53.324 127.204 53.252 127.18C53.732 126.58 54.116 125.896 54.404 125.128C54.692 124.348 54.902 123.424 55.034 122.356C55.166 121.288 55.232 120.004 55.232 118.504V115.12H62.072C62.048 114.628 62.024 114.118 62 113.59C61.988 113.05 61.982 112.498 61.982 111.934H63.62C63.62 113.062 63.656 114.124 63.728 115.12H67.13C66.806 114.76 66.446 114.406 66.05 114.058C65.654 113.698 65.294 113.41 64.97 113.194L65.978 112.114C66.254 112.294 66.56 112.522 66.896 112.798C67.232 113.074 67.55 113.356 67.85 113.644C68.162 113.92 68.402 114.16 68.57 114.364C68.486 114.424 68.36 114.532 68.192 114.688C68.024 114.832 67.868 114.976 67.724 115.12H69.614V116.668H63.872C63.992 117.736 64.154 118.708 64.358 119.584C64.574 120.46 64.814 121.252 65.078 121.96C65.474 121.348 65.822 120.706 66.122 120.034C66.422 119.362 66.668 118.672 66.86 117.964L68.426 118.486C67.826 120.406 66.974 122.11 65.87 123.598C66.23 124.21 66.62 124.732 67.04 125.164C67.46 125.584 67.892 125.932 68.336 126.208C68.48 125.824 68.612 125.398 68.732 124.93C68.864 124.45 68.954 124.042 69.002 123.706C69.086 123.766 69.224 123.844 69.416 123.94C69.608 124.024 69.806 124.108 70.01 124.192C70.226 124.264 70.388 124.318 70.496 124.354C70.424 124.714 70.328 125.098 70.208 125.506C70.1 125.914 69.98 126.304 69.848 126.676C69.728 127.048 69.602 127.36 69.47 127.612C69.314 127.9 69.098 128.08 68.822 128.152C68.558 128.224 68.264 128.17 67.94 127.99C67.388 127.702 66.836 127.318 66.284 126.838C65.732 126.346 65.21 125.728 64.718 124.984C63.494 126.28 62.09 127.306 60.506 128.062Z" fill="black"/>
<path d="M82.774 107.102C81.85 107.102 81.034 107.3 80.326 107.696C79.63 108.08 79.048 108.536 78.58 109.064C78.112 109.592 77.752 110.072 77.5 110.504C77.26 110.936 77.128 111.176 77.104 111.224L73.81 109.748C73.834 109.64 73.948 109.37 74.152 108.938C74.356 108.494 74.674 107.99 75.106 107.426C75.538 106.85 76.096 106.286 76.78 105.734C77.476 105.182 78.316 104.726 79.3 104.366C80.296 103.994 81.454 103.808 82.774 103.808C84.202 103.808 85.414 104.006 86.41 104.402C87.406 104.798 88.216 105.344 88.84 106.04C89.464 106.724 89.92 107.51 90.208 108.398C90.496 109.286 90.64 110.222 90.64 111.206C90.64 112.214 90.406 113.234 89.938 114.266C89.482 115.298 88.888 116.3 88.156 117.272C87.424 118.232 86.638 119.132 85.798 119.972C84.958 120.812 84.142 121.562 83.35 122.222C82.57 122.882 81.898 123.422 81.334 123.842C80.782 124.262 80.434 124.526 80.29 124.634H90.442V128H74.458V124.94C74.77 124.688 75.28 124.286 75.988 123.734C76.708 123.182 77.536 122.528 78.472 121.772C79.408 121.004 80.356 120.17 81.316 119.27C82.288 118.37 83.188 117.446 84.016 116.498C84.856 115.55 85.528 114.62 86.032 113.708C86.548 112.796 86.806 111.944 86.806 111.152C86.806 109.664 86.458 108.62 85.762 108.02C85.066 107.408 84.07 107.102 82.774 107.102ZM97.2193 128L104.887 118.802C104.659 119.042 104.269 119.276 103.717 119.504C103.165 119.72 102.475 119.828 101.647 119.828C100.351 119.828 99.1213 119.504 97.9573 118.856C96.8053 118.196 95.8693 117.272 95.1493 116.084C94.4413 114.896 94.0873 113.516 94.0873 111.944C94.0873 110.372 94.4713 108.974 95.2393 107.75C96.0073 106.526 97.0333 105.566 98.3173 104.87C99.6013 104.162 101.023 103.808 102.583 103.808C104.167 103.808 105.595 104.15 106.867 104.834C108.151 105.518 109.171 106.49 109.927 107.75C110.683 109.01 111.061 110.492 111.061 112.196C111.061 114.008 110.755 115.544 110.143 116.804C109.531 118.052 108.817 119.18 108.001 120.188L101.701 128H97.2193ZM102.547 116.714C103.447 116.714 104.263 116.498 104.995 116.066C105.739 115.634 106.333 115.046 106.777 114.302C107.221 113.558 107.443 112.742 107.443 111.854C107.443 110.954 107.221 110.138 106.777 109.406C106.333 108.662 105.739 108.074 104.995 107.642C104.263 107.198 103.447 106.976 102.547 106.976C101.659 106.976 100.843 107.198 100.099 107.642C99.3673 108.074 98.7793 108.662 98.3353 109.406C97.9033 110.138 97.6873 110.954 97.6873 111.854C97.6873 112.742 97.9033 113.558 98.3353 114.302C98.7793 115.046 99.3673 115.634 100.099 116.066C100.843 116.498 101.659 116.714 102.547 116.714Z" fill="#4E37A2"/>
<path d="M124.144 128.314V124.192H115.81V122.716H119.068V118.306H124.144V115.768H120.112C119.668 116.464 119.182 117.13 118.654 117.766C118.126 118.39 117.562 118.948 116.962 119.44C116.818 119.308 116.62 119.134 116.368 118.918C116.116 118.702 115.876 118.534 115.648 118.414C116.368 117.862 117.034 117.208 117.646 116.452C118.27 115.696 118.81 114.91 119.266 114.094C119.722 113.278 120.064 112.504 120.292 111.772L121.858 112.258C121.738 112.594 121.6 112.93 121.444 113.266C121.3 113.602 121.144 113.938 120.976 114.274H131.362V115.768H125.854V118.306H130.192V119.764H125.854V122.716H132.136V124.192H125.854V128.314H124.144ZM120.76 122.716H124.144V119.764H120.76V122.716Z" fill="black"/>
<path d="M139.734 108.992L135.72 111.224V107.57L141.534 104.24H143.532V128H139.734V108.992Z" fill="#4E37A2"/>
<path d="M151.466 128.368C151.334 128.2 151.136 128.002 150.872 127.774C150.62 127.546 150.386 127.378 150.17 127.27C151.238 126.526 152.036 125.596 152.564 124.48C153.092 123.364 153.356 121.954 153.356 120.25V112.582H163.13V126.478C163.13 127.642 162.446 128.224 161.078 128.224H159.62C159.596 127.984 159.542 127.684 159.458 127.324C159.386 126.976 159.308 126.706 159.224 126.514H160.7C160.964 126.514 161.15 126.472 161.258 126.388C161.366 126.292 161.42 126.118 161.42 125.866V122.194H154.922C154.754 123.598 154.382 124.792 153.806 125.776C153.242 126.76 152.462 127.624 151.466 128.368ZM155.03 120.664H161.42V118.162H155.048V120.232C155.048 120.304 155.042 120.376 155.03 120.448C155.03 120.52 155.03 120.592 155.03 120.664ZM155.048 116.614H161.42V114.148H155.048V116.614Z" fill="black"/>
<path d="M46.4 172.86V171.26H41.82V169.88H46.4V168.5H42.62V167.16H46.4V165.76H42.78V164.42H46.4V162.98H41.48V161.64H46.4V160.2H42.82V158.86H46.4V157.24H48.18V158.86H52.34V161.64H53.96V162.98H52.34V165.76H48.18V167.16H52.6V168.5H48.18V169.88H53.42V171.26H48.18V172.86H46.4ZM36.98 175.56C36.9 175.467 36.78 175.347 36.62 175.2C36.46 175.053 36.2933 174.907 36.12 174.76C35.9467 174.613 35.8 174.507 35.68 174.44C36.84 173.627 37.7867 172.607 38.52 171.38C38.1067 170.847 37.74 170.253 37.42 169.6C37.1 168.947 36.8067 168.227 36.54 167.44L37.98 166.96C38.34 168.027 38.7733 168.96 39.28 169.76C39.5067 169.147 39.6867 168.5 39.82 167.82C39.9667 167.14 40.0467 166.42 40.06 165.66H36.88V164.48C37.04 164.253 37.2267 163.953 37.44 163.58C37.6533 163.193 37.8733 162.787 38.1 162.36C38.34 161.933 38.56 161.52 38.76 161.12C38.96 160.707 39.12 160.36 39.24 160.08H36.24V158.44H41.08L41.64 158.94C41.4933 159.3 41.3067 159.72 41.08 160.2C40.8533 160.68 40.6133 161.173 40.36 161.68C40.12 162.187 39.8867 162.653 39.66 163.08C39.4333 163.493 39.2467 163.82 39.1 164.06H41.76C41.76 165.567 41.6533 166.9 41.44 168.06C41.2267 169.22 40.9067 170.267 40.48 171.2C41.28 171.947 42.24 172.493 43.36 172.84C44.48 173.173 45.8067 173.34 47.34 173.34C48.9533 173.34 50.3133 173.327 51.42 173.3C52.5267 173.273 53.4 173.213 54.04 173.12C54 173.213 53.9467 173.38 53.88 173.62C53.8267 173.847 53.78 174.08 53.74 174.32C53.7 174.56 53.6733 174.747 53.66 174.88C53.2467 174.88 52.68 174.88 51.96 174.88C51.24 174.893 50.4667 174.9 49.64 174.9C48.8267 174.913 48.06 174.92 47.34 174.92C45.6867 174.92 44.2267 174.733 42.96 174.36C41.7067 174 40.6133 173.42 39.68 172.62C39.3333 173.167 38.9333 173.68 38.48 174.16C38.0267 174.64 37.5267 175.107 36.98 175.56ZM48.18 164.42H50.58V162.98H48.18V164.42ZM48.18 161.64H50.58V160.2H48.18V161.64ZM63.74 175.4C63.6733 175.213 63.5467 174.96 63.36 174.64C63.1867 174.32 63.0267 174.093 62.88 173.96C63.7467 173.707 64.5533 173.367 65.3 172.94C66.06 172.513 66.7533 172.033 67.38 171.5C66.86 170.887 66.4133 170.233 66.04 169.54C65.6667 168.847 65.3667 168.133 65.14 167.4H63.58V165.84H72.14L72.82 166.5C72.1267 168.393 71.14 170.06 69.86 171.5C70.5 172.02 71.2 172.473 71.96 172.86C72.7333 173.233 73.5333 173.513 74.36 173.7C74.2667 173.807 74.1467 173.96 74 174.16C73.8667 174.373 73.74 174.58 73.62 174.78C73.5133 174.993 73.44 175.16 73.4 175.28C72.4533 175.013 71.58 174.66 70.78 174.22C69.98 173.793 69.2533 173.293 68.6 172.72C67.9067 173.32 67.1533 173.847 66.34 174.3C65.5267 174.753 64.66 175.12 63.74 175.4ZM64.42 165.5C64.26 165.3 64.0533 165.093 63.8 164.88C63.56 164.653 63.3267 164.48 63.1 164.36C63.5933 163.973 63.98 163.6 64.26 163.24C64.5533 162.88 64.7667 162.46 64.9 161.98C65.0333 161.5 65.1 160.887 65.1 160.14V157.92H70.88V162.58C70.88 162.74 70.9133 162.853 70.98 162.92C71.06 162.987 71.2133 163.02 71.44 163.02H72.02C72.22 163.02 72.38 162.98 72.5 162.9C72.6333 162.807 72.74 162.627 72.82 162.36C72.9 162.093 72.9533 161.693 72.98 161.16C73.1667 161.253 73.4133 161.347 73.72 161.44C74.04 161.52 74.32 161.587 74.56 161.64C74.4933 162.493 74.3733 163.14 74.2 163.58C74.0267 164.02 73.7733 164.32 73.44 164.48C73.12 164.64 72.7067 164.72 72.2 164.72H70.98C70.2867 164.72 69.8067 164.627 69.54 164.44C69.2733 164.253 69.14 163.927 69.14 163.46V159.48H66.84V160.26C66.84 161.42 66.6533 162.413 66.28 163.24C65.92 164.053 65.3 164.807 64.42 165.5ZM56.9 174.9V169.28H62.68V174.9H56.9ZM55.94 162.42V160.96H63.36V162.42H55.94ZM56.92 159.66V158.16H62.54V159.66H56.92ZM56.9 165.2V163.72H62.54V165.2H56.9ZM56.9 167.96V166.5H62.54V167.96H56.9ZM58.5 173.44H61.08V170.76H58.5V173.44ZM68.62 170.3C69.4467 169.353 70.06 168.387 70.46 167.4H66.86C67.0467 167.92 67.2867 168.427 67.58 168.92C67.8867 169.4 68.2333 169.86 68.62 170.3ZM84.14 175.58V171.24C83.54 171.8 82.8467 172.34 82.06 172.86C81.2733 173.367 80.4533 173.827 79.6 174.24C78.76 174.653 77.9333 174.993 77.12 175.26C77.08 175.153 77 175.007 76.88 174.82C76.76 174.633 76.6333 174.44 76.5 174.24C76.3667 174.053 76.2533 173.913 76.16 173.82C76.9067 173.607 77.6933 173.313 78.52 172.94C79.3467 172.553 80.1467 172.127 80.92 171.66C81.7067 171.18 82.3867 170.713 82.96 170.26H76.22V168.82H84.14V167.58H78.18V166.2H84.14V165.02H77.34V163.6H81.32C81.2 163.333 81.0733 163.06 80.94 162.78C80.8067 162.5 80.6733 162.253 80.54 162.04H76.2V160.6H79.56C79.3867 160.253 79.18 159.833 78.94 159.34C78.7 158.847 78.4667 158.453 78.24 158.16L79.8 157.42C79.96 157.673 80.1333 157.973 80.32 158.32C80.5067 158.667 80.68 159.007 80.84 159.34C81.0133 159.66 81.14 159.92 81.22 160.12L80.1 160.6H82.36V157.32H84.06V160.6H85.86V157.32H87.56V160.6H89.86L88.54 160.08C88.7133 159.853 88.9 159.58 89.1 159.26C89.3 158.94 89.4867 158.62 89.66 158.3C89.8333 157.967 89.9667 157.68 90.06 157.44L91.76 157.98C91.6267 158.233 91.46 158.527 91.26 158.86C91.06 159.18 90.86 159.5 90.66 159.82C90.46 160.127 90.28 160.387 90.12 160.6H93.78V162.04H89.42C89.3267 162.293 89.2133 162.56 89.08 162.84C88.9467 163.107 88.82 163.36 88.7 163.6H92.52V165.02H85.86V166.2H91.76V167.58H85.86V168.82H93.78V170.26H87C87.5867 170.713 88.26 171.173 89.02 171.64C89.7933 172.093 90.5933 172.513 91.42 172.9C92.2467 173.287 93.0267 173.587 93.76 173.8C93.6667 173.893 93.5533 174.033 93.42 174.22C93.3 174.42 93.1867 174.613 93.08 174.8C92.9733 175 92.8933 175.153 92.84 175.26C92.04 174.993 91.2133 174.653 90.36 174.24C89.52 173.827 88.7133 173.367 87.94 172.86C87.1667 172.34 86.4733 171.807 85.86 171.26V175.58H84.14ZM83.24 163.6H86.76C86.88 163.373 87.0067 163.12 87.14 162.84C87.2733 162.56 87.3933 162.293 87.5 162.04H82.54C82.6733 162.307 82.8 162.58 82.92 162.86C83.0533 163.14 83.16 163.387 83.24 163.6ZM107.86 175.3V167.92H103.3V166.26H107.86V161.88H106.26C105.967 162.507 105.653 163.1 105.32 163.66C104.987 164.22 104.633 164.733 104.26 165.2C104.153 165.093 104 164.98 103.8 164.86C103.6 164.727 103.393 164.6 103.18 164.48C102.98 164.36 102.813 164.273 102.68 164.22C103.173 163.66 103.64 162.987 104.08 162.2C104.52 161.4 104.907 160.573 105.24 159.72C105.573 158.853 105.807 158.053 105.94 157.32L107.76 157.68C107.653 158.107 107.527 158.54 107.38 158.98C107.247 159.42 107.1 159.86 106.94 160.3H113.4V161.88H109.68V166.26H114.08V167.92H109.68V175.3H107.86ZM96.84 174.86V169.26H102.62V174.86H96.84ZM95.98 162.38V160.92H103.28V162.38H95.98ZM96.94 159.62V158.12H102.38V159.62H96.94ZM96.94 167.94V166.46H102.38V167.94H96.94ZM96.94 165.16V163.7H102.38V165.16H96.94ZM98.42 173.4H101.02V170.72H98.42V173.4ZM126.48 175.12C126.453 174.853 126.393 174.52 126.3 174.12C126.22 173.733 126.133 173.433 126.04 173.22H128.46C128.74 173.22 128.94 173.173 129.06 173.08C129.193 172.987 129.26 172.8 129.26 172.52V160.62H115.78V158.92H134.12V160.62H131.18V173.18C131.18 173.847 130.993 174.333 130.62 174.64C130.247 174.96 129.673 175.12 128.9 175.12H126.48ZM118.66 170.32V162.96H125.82V170.32H118.66ZM120.5 168.62H124V164.64H120.5V168.62ZM147.985 175.5V171.22C147.585 171.367 147.112 171.533 146.565 171.72C146.019 171.893 145.452 172.073 144.865 172.26C144.279 172.433 143.719 172.6 143.185 172.76C142.652 172.92 142.205 173.047 141.845 173.14L141.285 171.44C141.485 171.4 141.752 171.34 142.085 171.26C142.432 171.167 142.812 171.073 143.225 170.98V159.68H141.625V158.06H151.265V159.52H158.645C158.445 163.267 157.545 166.5 155.945 169.22C157.105 170.793 158.499 172.087 160.125 173.1C160.005 173.207 159.859 173.353 159.685 173.54C159.525 173.727 159.365 173.913 159.205 174.1C159.045 174.3 158.925 174.467 158.845 174.6C157.325 173.507 156.012 172.227 154.905 170.76C153.812 172.24 152.485 173.527 150.925 174.62C150.872 174.54 150.779 174.413 150.645 174.24C150.512 174.08 150.365 173.913 150.205 173.74C150.059 173.553 149.925 173.413 149.805 173.32V175.5H147.985ZM149.805 173.24C150.645 172.707 151.405 172.107 152.085 171.44C152.765 170.76 153.372 170.033 153.905 169.26C153.292 168.247 152.772 167.153 152.345 165.98C151.932 164.793 151.632 163.52 151.445 162.16L153.085 161.88C153.219 162.907 153.439 163.9 153.745 164.86C154.065 165.807 154.452 166.713 154.905 167.58C155.439 166.567 155.852 165.52 156.145 164.44C156.452 163.347 156.645 162.26 156.725 161.18H150.925V159.68H149.805V173.24ZM145.045 170.5C145.619 170.353 146.165 170.207 146.685 170.06C147.219 169.9 147.652 169.773 147.985 169.68V167.6H145.045V170.5ZM145.045 166.04H147.985V163.64H145.045V166.04ZM145.045 162.08H147.985V159.68H145.045V162.08ZM168.925 164.66V158.04H178.385V164.66H168.925ZM172.945 175.52C172.919 175.267 172.872 174.96 172.805 174.6C172.752 174.253 172.679 173.973 172.585 173.76H174.265C174.545 173.76 174.732 173.727 174.825 173.66C174.932 173.58 174.985 173.407 174.985 173.14V170H167.485V168.52H174.985V167.22H167.845V165.76H179.485V167.22H176.825V168.52H179.865V170H176.825V173.62C176.825 174.273 176.645 174.753 176.285 175.06C175.939 175.367 175.392 175.52 174.645 175.52H172.945ZM164.385 175.52V167.2C164.052 167.533 163.712 167.847 163.365 168.14C163.032 168.433 162.699 168.707 162.365 168.96C162.299 168.853 162.185 168.713 162.025 168.54C161.865 168.367 161.692 168.193 161.505 168.02C161.332 167.847 161.185 167.727 161.065 167.66C161.492 167.367 161.959 166.987 162.465 166.52C162.985 166.053 163.492 165.54 163.985 164.98C164.492 164.42 164.959 163.853 165.385 163.28C165.812 162.693 166.145 162.153 166.385 161.66L167.945 162.5C167.692 162.967 167.412 163.433 167.105 163.9C166.799 164.353 166.472 164.8 166.125 165.24V175.52H164.385ZM162.765 162.82C162.659 162.66 162.479 162.433 162.225 162.14C161.985 161.847 161.765 161.62 161.565 161.46C162.165 161.127 162.765 160.74 163.365 160.3C163.965 159.847 164.525 159.367 165.045 158.86C165.565 158.353 165.985 157.867 166.305 157.4L167.745 158.44C167.319 159.013 166.812 159.58 166.225 160.14C165.652 160.687 165.059 161.193 164.445 161.66C163.845 162.127 163.285 162.513 162.765 162.82ZM170.785 163.32H176.525V162.02H170.785V163.32ZM170.785 160.68H176.525V159.38H170.785V160.68ZM171.385 173.82C171.185 173.553 170.932 173.26 170.625 172.94C170.332 172.62 170.025 172.313 169.705 172.02C169.399 171.727 169.112 171.493 168.845 171.32L169.985 170.26C170.265 170.46 170.572 170.7 170.905 170.98C171.239 171.26 171.559 171.553 171.865 171.86C172.172 172.153 172.432 172.433 172.645 172.7C172.472 172.833 172.252 173.007 171.985 173.22C171.732 173.433 171.532 173.633 171.385 173.82ZM38.66 199.355C37.9 198.265 37.31 197.11 36.89 195.89C36.48 194.67 36.275 193.425 36.275 192.155C36.275 190.855 36.485 189.585 36.905 188.345C37.325 187.095 37.905 185.97 38.645 184.97L39.71 185.555C39.03 186.495 38.49 187.525 38.09 188.645C37.7 189.755 37.505 190.925 37.505 192.155C37.505 193.365 37.7 194.515 38.09 195.605C38.48 196.685 39.025 197.745 39.725 198.785L38.66 199.355ZM52.1503 196.925C51.2503 197.085 50.3753 197.195 49.5253 197.255C48.6753 197.315 47.8803 197.31 47.1403 197.24C46.4003 197.17 45.7503 197.025 45.1903 196.805C44.6303 196.575 44.1903 196.255 43.8703 195.845C43.5603 195.435 43.4053 194.915 43.4053 194.285C43.4053 193.485 43.7153 192.79 44.3353 192.2C44.9653 191.61 45.7953 191.1 46.8253 190.67C46.5553 190.07 46.3603 189.29 46.2403 188.33C46.1203 187.36 46.0803 186.24 46.1203 184.97H47.6203C47.5603 185.56 47.5353 186.185 47.5453 186.845C47.5653 187.495 47.6203 188.115 47.7103 188.705C47.8003 189.285 47.9203 189.78 48.0703 190.19C48.5703 190.02 49.0903 189.86 49.6303 189.71C50.1803 189.55 50.7403 189.4 51.3103 189.26L51.6253 190.7C50.7253 190.82 49.8653 191 49.0453 191.24C48.2253 191.47 47.5003 191.745 46.8703 192.065C46.2403 192.375 45.7403 192.715 45.3703 193.085C45.0103 193.455 44.8303 193.83 44.8303 194.21C44.8303 194.68 45.0303 195.055 45.4303 195.335C45.8403 195.605 46.3953 195.785 47.0953 195.875C47.8053 195.965 48.6103 195.97 49.5103 195.89C50.4203 195.81 51.3753 195.65 52.3753 195.41C52.3053 195.6 52.2503 195.85 52.2103 196.16C52.1703 196.46 52.1503 196.715 52.1503 196.925ZM61.6903 197.33C60.5203 197.33 59.6053 197.01 58.9453 196.37C58.2953 195.72 57.9703 194.795 57.9703 193.595C57.9703 192.925 58.0703 192.26 58.2703 191.6C58.4703 190.93 58.7353 190.28 59.0653 189.65C59.3953 189.01 59.7553 188.405 60.1453 187.835C59.6253 188.065 59.0953 188.25 58.5553 188.39C58.0153 188.53 57.5503 188.625 57.1603 188.675L56.8303 187.415C57.1903 187.395 57.5903 187.34 58.0303 187.25C58.4803 187.15 58.9253 187.025 59.3653 186.875C59.8153 186.715 60.2153 186.54 60.5653 186.35C60.9253 186.16 61.1903 185.955 61.3603 185.735L62.4703 186.635C61.9003 187.285 61.3753 187.995 60.8953 188.765C60.4253 189.535 60.0453 190.325 59.7553 191.135C59.4653 191.945 59.3203 192.74 59.3203 193.52C59.3203 194.31 59.5303 194.905 59.9503 195.305C60.3803 195.705 60.9603 195.905 61.6903 195.905C62.3403 195.905 62.9003 195.73 63.3703 195.38C63.8403 195.02 64.2153 194.525 64.4953 193.895C64.7753 193.265 64.9603 192.53 65.0503 191.69C65.1403 190.85 65.1253 189.945 65.0053 188.975C64.8953 187.995 64.6803 186.985 64.3603 185.945L65.7103 185.51C65.8403 186.1 66.0403 186.655 66.3103 187.175C66.5903 187.685 66.9103 188.155 67.2703 188.585C67.6303 189.005 67.9953 189.375 68.3653 189.695C68.7453 190.005 69.1003 190.26 69.4303 190.46C69.3003 190.59 69.1553 190.785 68.9953 191.045C68.8353 191.295 68.7253 191.505 68.6653 191.675C68.2953 191.445 67.8903 191.11 67.4503 190.67C67.0203 190.23 66.6003 189.705 66.1903 189.095C66.3303 190.245 66.3403 191.32 66.2203 192.32C66.1103 193.31 65.8703 194.18 65.5003 194.93C65.1303 195.68 64.6253 196.27 63.9853 196.7C63.3553 197.12 62.5903 197.33 61.6903 197.33ZM68.4403 187.715C68.3103 187.515 68.1403 187.3 67.9303 187.07C67.7203 186.83 67.5003 186.605 67.2703 186.395C67.0503 186.175 66.8503 186 66.6703 185.87L67.3153 185.3C67.4753 185.42 67.6703 185.595 67.9003 185.825C68.1403 186.055 68.3753 186.29 68.6053 186.53C68.8353 186.77 69.0103 186.975 69.1303 187.145L68.4403 187.715ZM69.6703 186.56C69.5303 186.36 69.3503 186.145 69.1303 185.915C68.9203 185.685 68.7003 185.47 68.4703 185.27C68.2503 185.06 68.0453 184.89 67.8553 184.76L68.5003 184.175C68.6603 184.295 68.8603 184.47 69.1003 184.7C69.3403 184.92 69.5753 185.15 69.8053 185.39C70.0453 185.62 70.2253 185.815 70.3453 185.975L69.6703 186.56ZM77.9053 192.755C77.5053 192.755 77.1603 192.615 76.8703 192.335C76.5903 192.045 76.4503 191.7 76.4503 191.3C76.4503 190.89 76.5903 190.545 76.8703 190.265C77.1603 189.985 77.5053 189.845 77.9053 189.845C78.3153 189.845 78.6603 189.985 78.9403 190.265C79.2203 190.545 79.3603 190.89 79.3603 191.3C79.3603 191.7 79.2203 192.045 78.9403 192.335C78.6603 192.615 78.3153 192.755 77.9053 192.755ZM86.0953 197.375V196.07H92.1853V190.43H87.1303V189.125H92.1853V184.745H93.6403V189.125H98.7403V190.43H93.6403V196.07H99.7603V197.375H86.0953ZM101.245 196.79V195.455H107.17V187.565H102.1V186.23H113.71V187.565H108.655V195.455H114.58V196.79H101.245ZM119.17 197.795C118.99 197.485 118.74 197.15 118.42 196.79C118.1 196.42 117.765 196.065 117.415 195.725C117.065 195.375 116.745 195.095 116.455 194.885L117.355 194.06C117.655 194.28 117.99 194.56 118.36 194.9C118.74 195.24 119.1 195.585 119.44 195.935C119.78 196.285 120.045 196.59 120.235 196.85L119.17 197.795ZM131.095 197.375V196.07H137.185V190.43H132.13V189.125H137.185V184.745H138.64V189.125H143.74V190.43H138.64V196.07H144.76V197.375H131.095ZM152.23 198.05V190.385C151.8 191.135 151.295 191.875 150.715 192.605C150.135 193.325 149.52 194 148.87 194.63C148.23 195.26 147.585 195.815 146.935 196.295C146.875 196.205 146.78 196.095 146.65 195.965C146.52 195.825 146.385 195.695 146.245 195.575C146.105 195.445 145.985 195.35 145.885 195.29C146.415 194.96 146.95 194.56 147.49 194.09C148.03 193.62 148.555 193.105 149.065 192.545C149.585 191.985 150.065 191.41 150.505 190.82C150.945 190.23 151.32 189.655 151.63 189.095H146.47V187.82H152.23V184.505H153.595V187.82H159.34V189.095H154.165C154.585 189.805 155.1 190.535 155.71 191.285C156.32 192.025 156.99 192.74 157.72 193.43C158.46 194.12 159.215 194.73 159.985 195.26C159.885 195.32 159.76 195.42 159.61 195.56C159.47 195.69 159.335 195.83 159.205 195.98C159.075 196.12 158.98 196.235 158.92 196.325C158.24 195.805 157.57 195.225 156.91 194.585C156.26 193.935 155.65 193.255 155.08 192.545C154.52 191.825 154.025 191.105 153.595 190.385V198.05H152.23ZM164.17 197.795C163.99 197.485 163.74 197.15 163.42 196.79C163.1 196.42 162.765 196.065 162.415 195.725C162.065 195.375 161.745 195.095 161.455 194.885L162.355 194.06C162.655 194.28 162.99 194.56 163.36 194.9C163.74 195.24 164.1 195.585 164.44 195.935C164.78 196.285 165.045 196.59 165.235 196.85L164.17 197.795ZM37.58 221.005V214.645C37.37 215.135 37.145 215.605 36.905 216.055C36.675 216.505 36.44 216.905 36.2 217.255C36.08 217.155 35.91 217.045 35.69 216.925C35.47 216.795 35.3 216.705 35.18 216.655C35.42 216.365 35.66 216.02 35.9 215.62C36.15 215.21 36.38 214.775 36.59 214.315C36.81 213.855 37 213.41 37.16 212.98C37.33 212.54 37.455 212.145 37.535 211.795H35.72V210.7H37.58V207.625H38.72V210.7H40.1V211.795H38.72V212.935C38.89 213.225 39.115 213.565 39.395 213.955C39.675 214.345 39.955 214.695 40.235 215.005V214.525H44.105C44.085 214.415 44.065 214.305 44.045 214.195C44.025 214.075 44.005 213.955 43.985 213.835C43.865 213.865 43.71 213.915 43.52 213.985C43.33 214.045 43.18 214.1 43.07 214.15C43.05 214.07 43.02 213.98 42.98 213.88C42.95 213.78 42.915 213.675 42.875 213.565C42.675 213.605 42.43 213.65 42.14 213.7C41.86 213.74 41.57 213.785 41.27 213.835C40.97 213.875 40.695 213.91 40.445 213.94C40.195 213.97 40 213.99 39.86 214L39.59 212.92H40.01C40.14 212.78 40.3 212.585 40.49 212.335C40.69 212.075 40.895 211.795 41.105 211.495C40.935 211.325 40.72 211.13 40.46 210.91C40.21 210.69 39.965 210.48 39.725 210.28C39.485 210.08 39.295 209.93 39.155 209.83L39.815 209.065C39.895 209.125 39.985 209.195 40.085 209.275C40.185 209.355 40.285 209.44 40.385 209.53C40.575 209.27 40.78 208.96 41 208.6C41.23 208.23 41.395 207.915 41.495 207.655L42.44 208.075C42.35 208.255 42.225 208.47 42.065 208.72C41.915 208.96 41.75 209.205 41.57 209.455C41.4 209.695 41.24 209.91 41.09 210.1C41.2 210.2 41.305 210.295 41.405 210.385C41.515 210.465 41.61 210.545 41.69 210.625C41.87 210.345 42.03 210.085 42.17 209.845C42.32 209.605 42.43 209.405 42.5 209.245L43.415 209.74C43.285 209.99 43.095 210.3 42.845 210.67C42.595 211.04 42.33 211.42 42.05 211.81C41.77 212.19 41.5 212.53 41.24 212.83C41.47 212.81 41.695 212.79 41.915 212.77C42.135 212.75 42.335 212.73 42.515 212.71C42.455 212.57 42.395 212.445 42.335 212.335C42.285 212.225 42.235 212.13 42.185 212.05L43.085 211.66C43.245 211.92 43.405 212.25 43.565 212.65C43.725 213.05 43.855 213.39 43.955 213.67C43.815 212.79 43.715 211.835 43.655 210.805C43.595 209.775 43.585 208.67 43.625 207.49L44.78 207.55C44.77 207.88 44.76 208.205 44.75 208.525C44.75 208.845 44.755 209.16 44.765 209.47L45.065 209.065C45.145 209.105 45.225 209.155 45.305 209.215C45.385 209.275 45.47 209.335 45.56 209.395C45.74 209.135 45.93 208.83 46.13 208.48C46.34 208.13 46.5 207.825 46.61 207.565L47.54 207.97C47.41 208.22 47.225 208.535 46.985 208.915C46.755 209.285 46.535 209.615 46.325 209.905C46.435 209.975 46.54 210.05 46.64 210.13C46.74 210.2 46.835 210.27 46.925 210.34C47.145 210.01 47.345 209.695 47.525 209.395C47.705 209.095 47.83 208.855 47.9 208.675L48.785 209.17C48.665 209.42 48.48 209.73 48.23 210.1C47.99 210.47 47.73 210.85 47.45 211.24C47.17 211.62 46.9 211.965 46.64 212.275C46.87 212.255 47.1 212.23 47.33 212.2C47.56 212.17 47.77 212.14 47.96 212.11C47.84 211.87 47.72 211.665 47.6 211.495L48.455 211.15C48.585 211.31 48.72 211.525 48.86 211.795C49 212.055 49.13 212.32 49.25 212.59C49.38 212.85 49.475 213.07 49.535 213.25C49.435 213.27 49.285 213.325 49.085 213.415C48.885 213.505 48.73 213.575 48.62 213.625C48.59 213.535 48.55 213.43 48.5 213.31C48.45 213.18 48.395 213.05 48.335 212.92C48.155 212.96 47.935 213.01 47.675 213.07C47.425 213.12 47.16 213.17 46.88 213.22C47.05 213.34 47.24 213.485 47.45 213.655C47.66 213.825 47.835 213.98 47.975 214.12L47.54 214.525H49.31V215.53H45.56C45.65 215.86 45.75 216.175 45.86 216.475C45.97 216.775 46.09 217.06 46.22 217.33C46.42 217.1 46.61 216.86 46.79 216.61C46.97 216.36 47.13 216.105 47.27 215.845L48.245 216.415C48.025 216.775 47.79 217.115 47.54 217.435C47.3 217.755 47.045 218.055 46.775 218.335C47.205 218.995 47.68 219.48 48.2 219.79C48.3 219.53 48.395 219.255 48.485 218.965C48.575 218.665 48.64 218.395 48.68 218.155C48.74 218.195 48.835 218.245 48.965 218.305C49.105 218.365 49.245 218.425 49.385 218.485C49.535 218.535 49.645 218.57 49.715 218.59C49.645 218.99 49.535 219.385 49.385 219.775C49.245 220.165 49.11 220.49 48.98 220.75C48.88 220.96 48.72 221.085 48.5 221.125C48.28 221.175 48.055 221.135 47.825 221.005C47.475 220.805 47.135 220.55 46.805 220.24C46.485 219.94 46.18 219.58 45.89 219.16C45.03 219.87 44.05 220.455 42.95 220.915C42.9 220.805 42.805 220.64 42.665 220.42C42.525 220.21 42.395 220.05 42.275 219.94C42.835 219.77 43.37 219.535 43.88 219.235C44.4 218.935 44.885 218.59 45.335 218.2C44.945 217.44 44.615 216.55 44.345 215.53H42.47C42.46 215.72 42.445 215.91 42.425 216.1C42.405 216.29 42.38 216.475 42.35 216.655C42.66 216.835 42.985 217.035 43.325 217.255C43.665 217.475 43.955 217.685 44.195 217.885C44.135 217.945 44.06 218.035 43.97 218.155C43.88 218.275 43.795 218.395 43.715 218.515C43.645 218.625 43.59 218.71 43.55 218.77C43.36 218.6 43.135 218.415 42.875 218.215C42.625 218.015 42.375 217.83 42.125 217.66C41.935 218.3 41.67 218.89 41.33 219.43C41 219.97 40.585 220.435 40.085 220.825C39.995 220.725 39.855 220.59 39.665 220.42C39.475 220.25 39.32 220.13 39.2 220.06C39.93 219.54 40.455 218.905 40.775 218.155C41.095 217.405 41.275 216.53 41.315 215.53H40.28C40.17 215.63 40.065 215.735 39.965 215.845C39.865 215.945 39.79 216.02 39.74 216.07C39.59 215.9 39.425 215.69 39.245 215.44C39.065 215.19 38.89 214.93 38.72 214.66V221.005H37.58ZM45.305 214.525H46.85C46.58 214.245 46.295 214 45.995 213.79L46.505 213.28C46.275 213.32 46.055 213.36 45.845 213.4C45.645 213.43 45.475 213.455 45.335 213.475L45.035 212.425C45.095 212.425 45.155 212.425 45.215 212.425C45.275 212.425 45.34 212.42 45.41 212.41C45.53 212.29 45.67 212.12 45.83 211.9C46 211.68 46.175 211.445 46.355 211.195C46.135 211.015 45.875 210.82 45.575 210.61C45.275 210.39 45.01 210.205 44.78 210.055C44.82 211.705 44.995 213.195 45.305 214.525ZM52.745 221.095V214.465C52.525 214.965 52.29 215.445 52.04 215.905C51.79 216.355 51.54 216.755 51.29 217.105C51.18 217.025 51.01 216.915 50.78 216.775C50.55 216.625 50.375 216.52 50.255 216.46C50.505 216.17 50.755 215.81 51.005 215.38C51.255 214.95 51.495 214.495 51.725 214.015C51.955 213.525 52.16 213.05 52.34 212.59C52.52 212.13 52.655 211.725 52.745 211.375V211.345H50.63V210.205H52.745V207.505H53.93V210.205H55.415V211.345H53.93V212.47C54.1 212.75 54.33 213.08 54.62 213.46C54.92 213.84 55.215 214.185 55.505 214.495V214.165H56.195V212.14H57.245V214.165H58.115V212.125H59.18V214.165H60.08C60.02 213.735 59.97 213.285 59.93 212.815C59.89 212.345 59.855 211.85 59.825 211.33H55.79V210.205H59.765C59.735 209.365 59.72 208.45 59.72 207.46H60.935C60.935 207.95 60.94 208.425 60.95 208.885C60.96 209.335 60.975 209.775 60.995 210.205H64.07V211.33H61.04C61.09 212.15 61.155 212.91 61.235 213.61C61.325 214.31 61.43 214.955 61.55 215.545C61.78 215.105 61.985 214.655 62.165 214.195C62.355 213.725 62.515 213.255 62.645 212.785L63.785 213.19C63.545 213.94 63.27 214.645 62.96 215.305C62.66 215.955 62.325 216.57 61.955 217.15C62.275 218.13 62.66 218.89 63.11 219.43C63.22 219.15 63.32 218.85 63.41 218.53C63.51 218.21 63.58 217.925 63.62 217.675C63.69 217.715 63.79 217.77 63.92 217.84C64.06 217.91 64.2 217.98 64.34 218.05C64.49 218.12 64.605 218.18 64.685 218.23C64.635 218.46 64.56 218.725 64.46 219.025C64.37 219.325 64.27 219.62 64.16 219.91C64.05 220.2 63.935 220.45 63.815 220.66C63.645 220.95 63.435 221.095 63.185 221.095C62.935 221.095 62.69 220.955 62.45 220.675C62.19 220.375 61.945 220.04 61.715 219.67C61.485 219.29 61.27 218.86 61.07 218.38C60.19 219.47 59.145 220.37 57.935 221.08C57.855 220.96 57.725 220.795 57.545 220.585C57.375 220.375 57.225 220.225 57.095 220.135C57.775 219.815 58.415 219.39 59.015 218.86C59.615 218.32 60.155 217.715 60.635 217.045C60.495 216.545 60.37 215.975 60.26 215.335H59.18V218.575H58.115V215.335H57.245C57.225 216.035 57.135 216.645 56.975 217.165C56.815 217.685 56.58 218.145 56.27 218.545C55.96 218.945 55.565 219.325 55.085 219.685C54.985 219.575 54.85 219.44 54.68 219.28C54.52 219.11 54.385 218.995 54.275 218.935C54.875 218.535 55.335 218.06 55.655 217.51C55.975 216.96 56.15 216.235 56.18 215.335H55.505V215.26C55.285 215.46 55.125 215.62 55.025 215.74C54.865 215.56 54.685 215.345 54.485 215.095C54.295 214.835 54.11 214.57 53.93 214.3V221.095H52.745ZM62.93 210.115C62.82 209.945 62.67 209.75 62.48 209.53C62.29 209.31 62.1 209.095 61.91 208.885C61.72 208.675 61.56 208.515 61.43 208.405L62.315 207.73C62.475 207.86 62.65 208.025 62.84 208.225C63.03 208.415 63.215 208.61 63.395 208.81C63.575 209.01 63.725 209.19 63.845 209.35C63.765 209.4 63.66 209.48 63.53 209.59C63.41 209.69 63.295 209.79 63.185 209.89C63.075 209.99 62.99 210.065 62.93 210.115ZM67.13 220.885V217.39C66.7 217.58 66.265 217.745 65.825 217.885C65.785 217.755 65.695 217.575 65.555 217.345C65.425 217.105 65.31 216.925 65.21 216.805C66.16 216.535 67.045 216.19 67.865 215.77C68.695 215.34 69.415 214.84 70.025 214.27H65.825V213.13H71.03C71.26 212.81 71.455 212.48 71.615 212.14H66.965V207.805H71.645V212.065C71.755 211.815 71.845 211.57 71.915 211.33L73.115 211.57C73.045 211.85 72.955 212.12 72.845 212.38C72.735 212.64 72.61 212.89 72.47 213.13H79.205V214.27H75.05C75.7 214.87 76.445 215.37 77.285 215.77C78.135 216.16 78.975 216.445 79.805 216.625C79.745 216.705 79.67 216.825 79.58 216.985C79.49 217.135 79.405 217.29 79.325 217.45C79.255 217.61 79.205 217.74 79.175 217.84C78.735 217.72 78.3 217.575 77.87 217.405V220.885H73.235V216.49H76.01C75.55 216.2 75.11 215.875 74.69 215.515C74.27 215.145 73.88 214.73 73.52 214.27H71.675C71.305 214.7 70.89 215.1 70.43 215.47C69.98 215.84 69.495 216.18 68.975 216.49H71.765V220.885H67.13ZM73.355 212.14V207.805H78.035V212.14H73.355ZM68.39 219.805H70.505V217.57H68.39V219.805ZM74.495 219.805H76.61V217.57H74.495V219.805ZM68.255 211.06H70.355V208.885H68.255V211.06ZM74.645 211.06H76.745V208.885H74.645V211.06ZM83.39 215.935V207.79H91.64V215.935H83.39ZM81.995 221.17C81.965 221.08 81.905 220.955 81.815 220.795C81.735 220.645 81.65 220.49 81.56 220.33C81.47 220.18 81.395 220.07 81.335 220C81.645 219.92 81.99 219.805 82.37 219.655C82.76 219.505 83.155 219.33 83.555 219.13C83.955 218.93 84.335 218.725 84.695 218.515C85.055 218.295 85.36 218.085 85.61 217.885H80.81V216.73H94.19V217.885H89.48C89.83 218.155 90.255 218.43 90.755 218.71C91.255 218.99 91.765 219.245 92.285 219.475C92.815 219.705 93.29 219.875 93.71 219.985C93.65 220.055 93.57 220.17 93.47 220.33C93.37 220.49 93.275 220.645 93.185 220.795C93.105 220.955 93.045 221.08 93.005 221.17C92.565 221.02 92.085 220.82 91.565 220.57C91.045 220.32 90.53 220.04 90.02 219.73C89.51 219.42 89.05 219.095 88.64 218.755L89.36 217.885H85.64L86.39 218.815C85.98 219.145 85.515 219.465 84.995 219.775C84.485 220.075 83.97 220.345 83.45 220.585C82.93 220.825 82.445 221.02 81.995 221.17ZM84.77 214.795H90.26V213.505H84.77V214.795ZM84.77 212.5H90.26V211.21H84.77V212.5ZM84.77 210.22H90.26V208.945H84.77V210.22ZM101.555 221.05C101.505 220.91 101.41 220.72 101.27 220.48C101.14 220.24 101.02 220.07 100.91 219.97C101.56 219.78 102.165 219.525 102.725 219.205C103.295 218.885 103.815 218.525 104.285 218.125C103.895 217.665 103.56 217.175 103.28 216.655C103 216.135 102.775 215.6 102.605 215.05H101.435V213.88H107.855L108.365 214.375C107.845 215.795 107.105 217.045 106.145 218.125C106.625 218.515 107.15 218.855 107.72 219.145C108.3 219.425 108.9 219.635 109.52 219.775C109.45 219.855 109.36 219.97 109.25 220.12C109.15 220.28 109.055 220.435 108.965 220.585C108.885 220.745 108.83 220.87 108.8 220.96C108.09 220.76 107.435 220.495 106.835 220.165C106.235 219.845 105.69 219.47 105.2 219.04C104.68 219.49 104.115 219.885 103.505 220.225C102.895 220.565 102.245 220.84 101.555 221.05ZM102.065 213.625C101.945 213.475 101.79 213.32 101.6 213.16C101.42 212.99 101.245 212.86 101.075 212.77C101.445 212.48 101.735 212.2 101.945 211.93C102.165 211.66 102.325 211.345 102.425 210.985C102.525 210.625 102.575 210.165 102.575 209.605V207.94H106.91V211.435C106.91 211.555 106.935 211.64 106.985 211.69C107.045 211.74 107.16 211.765 107.33 211.765H107.765C107.915 211.765 108.035 211.735 108.125 211.675C108.225 211.605 108.305 211.47 108.365 211.27C108.425 211.07 108.465 210.77 108.485 210.37C108.625 210.44 108.81 210.51 109.04 210.58C109.28 210.64 109.49 210.69 109.67 210.73C109.62 211.37 109.53 211.855 109.4 212.185C109.27 212.515 109.08 212.74 108.83 212.86C108.59 212.98 108.28 213.04 107.9 213.04H106.985C106.465 213.04 106.105 212.97 105.905 212.83C105.705 212.69 105.605 212.445 105.605 212.095V209.11H103.88V209.695C103.88 210.565 103.74 211.31 103.46 211.93C103.19 212.54 102.725 213.105 102.065 213.625ZM96.425 220.675V216.46H100.76V220.675H96.425ZM95.705 211.315V210.22H101.27V211.315H95.705ZM96.44 209.245V208.12H100.655V209.245H96.44ZM96.425 213.4V212.29H100.655V213.4H96.425ZM96.425 215.47V214.375H100.655V215.47H96.425ZM97.625 219.58H99.56V217.57H97.625V219.58ZM105.215 217.225C105.835 216.515 106.295 215.79 106.595 215.05H103.895C104.035 215.44 104.215 215.82 104.435 216.19C104.665 216.55 104.925 216.895 105.215 217.225ZM114.41 219.19V213.31H117.125V212.59H110.72V211.435H117.125V210.775H112.01V207.73H122.99V210.775H118.475V211.435H124.265V212.59H118.475V213.31H122.285V219.19H114.41ZM111.545 220.945V214.21H112.85V219.805H124.16V220.945H111.545ZM115.7 216.58H120.995V215.89H115.7V216.58ZM115.7 218.185H120.995V217.51H115.7V218.185ZM115.7 214.975H120.995V214.315H115.7V214.975ZM113.33 209.755H115.31V208.75H113.33V209.755ZM116.51 209.755H118.49V208.75H116.51V209.755ZM119.69 209.755H121.655V208.75H119.69V209.755ZM128.765 220.795C128.585 220.485 128.335 220.15 128.015 219.79C127.695 219.42 127.36 219.065 127.01 218.725C126.66 218.375 126.34 218.095 126.05 217.885L126.95 217.06C127.25 217.28 127.585 217.56 127.955 217.9C128.335 218.24 128.695 218.585 129.035 218.935C129.375 219.285 129.64 219.59 129.83 219.85L128.765 220.795ZM151.67 221.095C151.65 220.925 151.61 220.715 151.55 220.465C151.5 220.225 151.445 220.04 151.385 219.91H152.375C152.575 219.91 152.715 219.88 152.795 219.82C152.875 219.75 152.915 219.62 152.915 219.43V213.325H150.665V217.42H151.325V214.33H152.255V218.47H148.16V214.33H149.075V217.42H149.72V213.325H147.545V221.08H146.42V210.325C146.32 210.415 146.17 210.555 145.97 210.745C145.78 210.925 145.645 211.07 145.565 211.18C145.225 210.88 144.875 210.515 144.515 210.085C144.155 209.655 143.86 209.26 143.63 208.9C143.45 209.28 143.2 209.7 142.88 210.16C142.56 210.62 142.225 211.055 141.875 211.465H145.565V212.56H144.095V214.015H145.79V215.11H144.095V218.965C144.445 218.885 144.78 218.81 145.1 218.74C145.42 218.66 145.695 218.585 145.925 218.515V219.625C145.495 219.755 144.98 219.895 144.38 220.045C143.78 220.205 143.175 220.35 142.565 220.48C141.955 220.61 141.415 220.715 140.945 220.795L140.57 219.64C140.87 219.59 141.225 219.53 141.635 219.46C142.055 219.39 142.485 219.31 142.925 219.22V215.11H140.9V214.015H142.925V212.56H141.59V211.78C141.49 211.88 141.395 211.975 141.305 212.065C141.215 212.155 141.125 212.24 141.035 212.32C140.945 212.18 140.81 212.02 140.63 211.84C140.46 211.65 140.315 211.505 140.195 211.405C140.615 211.075 141.01 210.69 141.38 210.25C141.75 209.8 142.08 209.335 142.37 208.855C142.67 208.365 142.9 207.91 143.06 207.49L144.17 207.685C144.32 207.945 144.52 208.245 144.77 208.585C145.02 208.915 145.29 209.235 145.58 209.545C145.88 209.855 146.16 210.115 146.42 210.325V207.97H154.055V219.82C154.055 220.26 153.935 220.58 153.695 220.78C153.455 220.99 153.085 221.095 152.585 221.095H151.67ZM147.545 212.29H150.23C150.35 212.05 150.48 211.765 150.62 211.435C150.76 211.095 150.885 210.76 150.995 210.43C151.115 210.1 151.205 209.825 151.265 209.605L152.33 209.905C152.27 210.105 152.18 210.345 152.06 210.625C151.95 210.905 151.83 211.19 151.7 211.48C151.57 211.77 151.445 212.04 151.325 212.29H152.915V209.065H147.545V212.29ZM141.695 218.665C141.635 218.415 141.555 218.135 141.455 217.825C141.365 217.505 141.265 217.19 141.155 216.88C141.045 216.57 140.94 216.31 140.84 216.1L141.86 215.77C141.96 215.97 142.065 216.23 142.175 216.55C142.285 216.86 142.385 217.175 142.475 217.495C142.575 217.815 142.65 218.085 142.7 218.305C142.57 218.335 142.395 218.39 142.175 218.47C141.965 218.54 141.805 218.605 141.695 218.665ZM145.115 218.365C145.025 218.315 144.88 218.26 144.68 218.2C144.48 218.13 144.32 218.075 144.2 218.035C144.3 217.845 144.41 217.6 144.53 217.3C144.65 216.99 144.76 216.68 144.86 216.37C144.96 216.06 145.035 215.805 145.085 215.605L146.12 215.92C146.06 216.14 145.97 216.405 145.85 216.715C145.73 217.015 145.605 217.315 145.475 217.615C145.345 217.905 145.225 218.155 145.115 218.365ZM148.985 212.245C148.915 212.045 148.82 211.815 148.7 211.555C148.58 211.285 148.455 211.02 148.325 210.76C148.195 210.5 148.075 210.28 147.965 210.1L148.895 209.665C148.995 209.835 149.11 210.055 149.24 210.325C149.38 210.585 149.51 210.85 149.63 211.12C149.76 211.38 149.855 211.6 149.915 211.78C149.815 211.82 149.655 211.895 149.435 212.005C149.225 212.105 149.075 212.185 148.985 212.245ZM165.77 221.095C165.75 220.925 165.71 220.73 165.65 220.51C165.6 220.3 165.545 220.13 165.485 220H166.475C166.675 220 166.815 219.97 166.895 219.91C166.985 219.84 167.03 219.71 167.03 219.52V218.485H162.53V221.08H161.27V218.485H160.025V217.465H161.27V213.895H164.165V213.205H160.31V212.2H162.635V211.36H161.195V210.43H162.635V209.65H160.61V208.735H162.635V207.49H163.865V208.735H165.68V207.49H166.925V208.735H168.98V209.65H166.925V210.43H168.665V211.36H166.925V212.2H169.19V213.205H165.395V213.895H168.29V217.465H169.445V218.485H168.29V219.805C168.29 220.255 168.165 220.58 167.915 220.78C167.675 220.99 167.305 221.095 166.805 221.095H165.77ZM157.76 221.095V214.75C157.53 215.24 157.285 215.715 157.025 216.175C156.775 216.635 156.52 217.035 156.26 217.375C156.15 217.285 155.98 217.17 155.75 217.03C155.52 216.88 155.35 216.775 155.24 216.715C155.48 216.445 155.725 216.11 155.975 215.71C156.225 215.3 156.465 214.865 156.695 214.405C156.925 213.945 157.13 213.495 157.31 213.055C157.5 212.605 157.65 212.2 157.76 211.84V211.6H155.675V210.475H157.76V207.505H158.975V210.475H160.55V211.6H158.975V212.92C159.125 213.14 159.315 213.405 159.545 213.715C159.775 214.015 160.015 214.31 160.265 214.6C160.525 214.89 160.76 215.13 160.97 215.32C160.9 215.37 160.805 215.45 160.685 215.56C160.565 215.67 160.445 215.78 160.325 215.89C160.215 216 160.13 216.09 160.07 216.16C159.91 215.98 159.73 215.765 159.53 215.515C159.34 215.255 159.155 214.99 158.975 214.72V221.095H157.76ZM163.865 212.2H165.68V211.36H163.865V212.2ZM162.53 217.465H164.165V216.58H162.53V217.465ZM165.395 217.465H167.03V216.58H165.395V217.465ZM163.865 210.43H165.68V209.65H163.865V210.43ZM162.53 215.665H164.165V214.84H162.53V215.665ZM165.395 215.665H167.03V214.84H165.395V215.665ZM175.955 218.545V214.195H182.6V218.545H175.955ZM174.5 213.295V212.155H178.625V210.565H176.525C176.225 211.065 175.91 211.51 175.58 211.9C175.44 211.76 175.265 211.62 175.055 211.48C174.845 211.34 174.65 211.235 174.47 211.165C174.75 210.875 175.015 210.53 175.265 210.13C175.525 209.73 175.755 209.315 175.955 208.885C176.165 208.455 176.32 208.055 176.42 207.685L177.695 208.06C177.625 208.27 177.54 208.49 177.44 208.72C177.35 208.95 177.25 209.18 177.14 209.41H178.625V207.475H180.005V209.41H183.095V210.565H180.005V212.155H184.115V213.295H174.5ZM179.135 220.78C178.105 220.78 177.225 220.725 176.495 220.615C175.765 220.515 175.145 220.35 174.635 220.12C174.125 219.9 173.68 219.61 173.3 219.25C173.13 219.38 172.91 219.535 172.64 219.715C172.37 219.895 172.095 220.075 171.815 220.255C171.545 220.435 171.315 220.59 171.125 220.72L170.54 219.415C170.71 219.345 170.925 219.245 171.185 219.115C171.455 218.975 171.72 218.83 171.98 218.68C172.25 218.53 172.465 218.4 172.625 218.29V214.24H170.78V213.025H173.9V218.185C174.15 218.535 174.49 218.815 174.92 219.025C175.35 219.225 175.91 219.37 176.6 219.46C177.29 219.54 178.135 219.58 179.135 219.58C180.345 219.58 181.38 219.56 182.24 219.52C183.11 219.48 183.84 219.425 184.43 219.355C184.4 219.425 184.36 219.555 184.31 219.745C184.26 219.925 184.215 220.11 184.175 220.3C184.135 220.49 184.11 220.64 184.1 220.75C183.85 220.75 183.525 220.75 183.125 220.75C182.735 220.76 182.31 220.765 181.85 220.765C181.39 220.775 180.925 220.78 180.455 220.78C179.985 220.78 179.545 220.78 179.135 220.78ZM177.32 217.405H181.235V215.335H177.32V217.405ZM173.3 211.15C173.14 210.9 172.93 210.625 172.67 210.325C172.41 210.025 172.14 209.735 171.86 209.455C171.58 209.175 171.315 208.945 171.065 208.765L172.025 207.94C172.265 208.12 172.53 208.35 172.82 208.63C173.12 208.91 173.405 209.195 173.675 209.485C173.945 209.775 174.16 210.03 174.32 210.25C174.25 210.3 174.145 210.385 174.005 210.505C173.865 210.625 173.725 210.745 173.585 210.865C173.455 210.985 173.36 211.08 173.3 211.15ZM194.525 220.975C194.505 220.775 194.46 220.53 194.39 220.24C194.33 219.96 194.265 219.74 194.195 219.58H195.605C196.015 219.58 196.325 219.48 196.535 219.28C196.755 219.08 196.925 218.695 197.045 218.125C197.095 217.875 197.15 217.525 197.21 217.075C197.28 216.615 197.34 216.09 197.39 215.5C197.45 214.9 197.5 214.27 197.54 213.61C197.59 212.95 197.615 212.295 197.615 211.645H196.865C196.675 213.145 196.35 214.435 195.89 215.515C195.44 216.595 194.84 217.54 194.09 218.35C193.35 219.15 192.44 219.88 191.36 220.54C191.31 220.43 191.23 220.305 191.12 220.165C191.01 220.025 190.895 219.895 190.775 219.775C190.655 219.645 190.555 219.55 190.475 219.49C191.935 218.73 193.1 217.72 193.97 216.46C194.84 215.2 195.415 213.595 195.695 211.645H194.735C194.485 212.985 194.055 214.17 193.445 215.2C192.835 216.23 191.995 217.13 190.925 217.9C190.845 217.77 190.705 217.605 190.505 217.405C190.305 217.205 190.14 217.065 190.01 216.985C190.95 216.405 191.715 215.65 192.305 214.72C192.905 213.79 193.33 212.765 193.58 211.645H192.725C192.535 212.075 192.32 212.485 192.08 212.875C191.85 213.265 191.605 213.63 191.345 213.97C191.205 213.88 191.015 213.775 190.775 213.655C190.535 213.525 190.355 213.445 190.235 213.415C190.615 212.945 190.97 212.385 191.3 211.735C191.63 211.075 191.915 210.385 192.155 209.665C192.405 208.945 192.58 208.255 192.68 207.595L193.955 207.775C193.805 208.645 193.56 209.535 193.22 210.445H198.89C198.89 211.185 198.875 211.945 198.845 212.725C198.815 213.495 198.775 214.24 198.725 214.96C198.675 215.67 198.62 216.32 198.56 216.91C198.5 217.49 198.44 217.96 198.38 218.32C198.27 219.04 198.105 219.59 197.885 219.97C197.675 220.35 197.39 220.61 197.03 220.75C196.68 220.9 196.23 220.975 195.68 220.975H194.525ZM188.345 221.08V216.31C187.825 216.5 187.335 216.675 186.875 216.835C186.415 216.995 186.085 217.105 185.885 217.165L185.555 215.755C185.825 215.695 186.215 215.585 186.725 215.425C187.245 215.265 187.785 215.09 188.345 214.9V211.84H187.205C187.115 212.24 187.015 212.62 186.905 212.98C186.805 213.33 186.7 213.635 186.59 213.895C186.52 213.865 186.405 213.83 186.245 213.79C186.085 213.75 185.92 213.715 185.75 213.685C185.59 213.655 185.46 213.64 185.36 213.64C185.65 212.99 185.885 212.24 186.065 211.39C186.245 210.53 186.35 209.69 186.38 208.87L187.595 208.99C187.585 209.47 187.53 210.01 187.43 210.61H188.345V207.46H189.68V210.61H191.03V211.84H189.68V214.435C190 214.325 190.29 214.225 190.55 214.135C190.81 214.035 191.005 213.955 191.135 213.895V215.185C191.005 215.255 190.81 215.345 190.55 215.455C190.29 215.555 190 215.67 189.68 215.8V221.08H188.345ZM207.335 220.765C206.815 220.765 206.445 220.675 206.225 220.495C206.005 220.325 205.895 220.04 205.895 219.64V214.06L204.425 214.51L204.095 213.22L205.895 212.665V208.585H207.23V212.26L208.805 211.78V207.52H210.095V211.375L212.585 210.61L213.26 210.88V215.905C213.26 216.265 213.155 216.56 212.945 216.79C212.735 217.02 212.41 217.17 211.97 217.24C211.84 217.25 211.67 217.265 211.46 217.285C211.26 217.305 211.09 217.32 210.95 217.33C210.92 217.08 210.86 216.83 210.77 216.58C210.69 216.33 210.625 216.155 210.575 216.055H211.415C211.595 216.055 211.725 216.02 211.805 215.95C211.885 215.88 211.925 215.76 211.925 215.59V212.215L210.095 212.77V218.005H208.805V213.175L207.23 213.655V219.04C207.23 219.2 207.27 219.32 207.35 219.4C207.43 219.47 207.585 219.505 207.815 219.505H211.76C212.05 219.505 212.28 219.465 212.45 219.385C212.62 219.305 212.75 219.13 212.84 218.86C212.93 218.58 213 218.155 213.05 217.585C213.2 217.665 213.41 217.755 213.68 217.855C213.96 217.945 214.2 218.015 214.4 218.065C214.31 218.865 214.175 219.46 213.995 219.85C213.815 220.23 213.58 220.475 213.29 220.585C213.01 220.705 212.65 220.765 212.21 220.765H207.335ZM202.64 221.125V213.055C202.42 213.405 202.19 213.735 201.95 214.045C201.72 214.355 201.49 214.64 201.26 214.9C201.12 214.77 200.95 214.635 200.75 214.495C200.55 214.355 200.365 214.235 200.195 214.135C200.575 213.755 200.955 213.28 201.335 212.71C201.725 212.13 202.085 211.52 202.415 210.88C202.755 210.23 203.05 209.605 203.3 209.005C203.55 208.405 203.725 207.89 203.825 207.46L205.13 207.79C204.99 208.28 204.815 208.775 204.605 209.275C204.405 209.775 204.18 210.275 203.93 210.775V221.125H202.64ZM216.74 222.355L215.675 221.785C216.385 220.745 216.93 219.685 217.31 218.605C217.7 217.515 217.895 216.365 217.895 215.155C217.895 213.925 217.695 212.755 217.295 211.645C216.905 210.525 216.37 209.495 215.69 208.555L216.755 207.97C217.495 208.97 218.075 210.095 218.495 211.345C218.915 212.585 219.125 213.855 219.125 215.155C219.125 216.425 218.92 217.67 218.51 218.89C218.1 220.11 217.51 221.265 216.74 222.355Z" fill="black"/>
</svg>
