<svg width="343" height="160" viewBox="0 0 343 160" fill="none" xmlns="http://www.w3.org/2000/svg">
<mask id="path-1-inside-1_5301_9036" fill="white">
<path d="M343 152C343 156.418 339.418 160 335 160H7.99999C3.58172 160 0 156.418 0 152V8C0 3.58172 3.58172 0 8 0H271.01C274.064 0 276.852 1.73855 278.195 4.48106L297.805 44.5189C299.148 47.2615 301.936 49 304.99 49H335C339.418 49 343 52.5817 343 57V152Z"/>
</mask>
<path d="M343 152C343 156.418 339.418 160 335 160H7.99999C3.58172 160 0 156.418 0 152V8C0 3.58172 3.58172 0 8 0H271.01C274.064 0 276.852 1.73855 278.195 4.48106L297.805 44.5189C299.148 47.2615 301.936 49 304.99 49H335C339.418 49 343 52.5817 343 57V152Z" fill="#E1E3FF"/>
<path d="M297.805 44.5189L296.907 44.9588L297.805 44.5189ZM278.195 4.48106L279.093 4.04119L278.195 4.48106ZM335 160V159H7.99999V160V161H335V160ZM0 152H1V8H0H-1V152H0ZM8 0V1H271.01V0V-1H8V0ZM278.195 4.48106L277.297 4.92093L296.907 44.9588L297.805 44.5189L298.703 44.0791L279.093 4.04119L278.195 4.48106ZM304.99 49V50H335V49V48H304.99V49ZM343 57H342V152H343H344V57H343ZM335 49V50C338.866 50 342 53.134 342 57H343H344C344 52.0294 339.971 48 335 48V49ZM297.805 44.5189L296.907 44.9588C298.418 48.0441 301.554 50 304.99 50V49V48C302.318 48 299.879 46.4788 298.703 44.0791L297.805 44.5189ZM271.01 0V1C273.682 1 276.121 2.52123 277.297 4.92093L278.195 4.48106L279.093 4.04119C277.582 0.955866 274.446 -1 271.01 -1V0ZM0 8H1C1 4.13401 4.13401 1 8 1V0V-1C3.02944 -1 -1 3.02944 -1 8H0ZM7.99999 160V159C4.134 159 1 155.866 1 152H0H-1C-1 156.971 3.02943 161 7.99999 161V160ZM335 160V161C339.971 161 344 156.971 344 152H343H342C342 155.866 338.866 159 335 159V160Z" fill="#D3D3D3" mask="url(#path-1-inside-1_5301_9036)"/>
<path d="M128.274 21.102C127.35 21.102 126.534 21.3 125.826 21.696C125.13 22.08 124.548 22.536 124.08 23.064C123.612 23.592 123.252 24.072 123 24.504C122.76 24.936 122.628 25.176 122.604 25.224L119.31 23.748C119.334 23.64 119.448 23.37 119.652 22.938C119.856 22.494 120.174 21.99 120.606 21.426C121.038 20.85 121.596 20.286 122.28 19.734C122.976 19.182 123.816 18.726 124.8 18.366C125.796 17.994 126.954 17.808 128.274 17.808C129.702 17.808 130.914 18.006 131.91 18.402C132.906 18.798 133.716 19.344 134.34 20.04C134.964 20.724 135.42 21.51 135.708 22.398C135.996 23.286 136.14 24.222 136.14 25.206C136.14 26.214 135.906 27.234 135.438 28.266C134.982 29.298 134.388 30.3 133.656 31.272C132.924 32.232 132.138 33.132 131.298 33.972C130.458 34.812 129.642 35.562 128.85 36.222C128.07 36.882 127.398 37.422 126.834 37.842C126.282 38.262 125.934 38.526 125.79 38.634H135.942V42H119.958V38.94C120.27 38.688 120.78 38.286 121.488 37.734C122.208 37.182 123.036 36.528 123.972 35.772C124.908 35.004 125.856 34.17 126.816 33.27C127.788 32.37 128.688 31.446 129.516 30.498C130.356 29.55 131.028 28.62 131.532 27.708C132.048 26.796 132.306 25.944 132.306 25.152C132.306 23.664 131.958 22.62 131.262 22.02C130.566 21.408 129.57 21.102 128.274 21.102ZM139.425 30.138C139.425 28.038 139.677 26.214 140.181 24.666C140.697 23.118 141.393 21.84 142.269 20.832C143.145 19.812 144.129 19.056 145.221 18.564C146.313 18.06 147.441 17.808 148.605 17.808C149.781 17.808 150.915 18.06 152.007 18.564C153.111 19.056 154.095 19.812 154.959 20.832C155.823 21.84 156.507 23.118 157.011 24.666C157.515 26.214 157.767 28.038 157.767 30.138C157.767 32.31 157.515 34.17 157.011 35.718C156.507 37.266 155.823 38.538 154.959 39.534C154.095 40.518 153.111 41.25 152.007 41.73C150.915 42.198 149.781 42.432 148.605 42.432C147.441 42.432 146.313 42.198 145.221 41.73C144.129 41.25 143.145 40.518 142.269 39.534C141.393 38.538 140.697 37.266 140.181 35.718C139.677 34.17 139.425 32.31 139.425 30.138ZM143.259 30.138C143.259 32.13 143.493 33.792 143.961 35.124C144.441 36.444 145.083 37.428 145.887 38.076C146.703 38.712 147.609 39.03 148.605 39.03C149.625 39.03 150.531 38.706 151.323 38.058C152.127 37.41 152.763 36.426 153.231 35.106C153.699 33.786 153.933 32.13 153.933 30.138C153.933 28.182 153.699 26.544 153.231 25.224C152.763 23.904 152.127 22.908 151.323 22.236C150.531 21.552 149.625 21.21 148.605 21.21C147.609 21.21 146.703 21.552 145.887 22.236C145.083 22.908 144.441 23.91 143.961 25.242C143.493 26.562 143.259 28.194 143.259 30.138ZM169.196 21.102C168.272 21.102 167.456 21.3 166.748 21.696C166.052 22.08 165.47 22.536 165.002 23.064C164.534 23.592 164.174 24.072 163.922 24.504C163.682 24.936 163.55 25.176 163.526 25.224L160.232 23.748C160.256 23.64 160.37 23.37 160.574 22.938C160.778 22.494 161.096 21.99 161.528 21.426C161.96 20.85 162.518 20.286 163.202 19.734C163.898 19.182 164.738 18.726 165.722 18.366C166.718 17.994 167.876 17.808 169.196 17.808C170.624 17.808 171.836 18.006 172.832 18.402C173.828 18.798 174.638 19.344 175.262 20.04C175.886 20.724 176.342 21.51 176.63 22.398C176.918 23.286 177.062 24.222 177.062 25.206C177.062 26.214 176.828 27.234 176.36 28.266C175.904 29.298 175.31 30.3 174.578 31.272C173.846 32.232 173.06 33.132 172.22 33.972C171.38 34.812 170.564 35.562 169.772 36.222C168.992 36.882 168.32 37.422 167.756 37.842C167.204 38.262 166.856 38.526 166.712 38.634H176.864V42H160.88V38.94C161.192 38.688 161.702 38.286 162.41 37.734C163.13 37.182 163.958 36.528 164.894 35.772C165.83 35.004 166.778 34.17 167.738 33.27C168.71 32.37 169.61 31.446 170.438 30.498C171.278 29.55 171.95 28.62 172.454 27.708C172.97 26.796 173.228 25.944 173.228 25.152C173.228 23.664 172.88 22.62 172.184 22.02C171.488 21.408 170.492 21.102 169.196 21.102ZM183.785 36.312C183.869 36.564 184.013 36.852 184.217 37.176C184.421 37.5 184.697 37.818 185.045 38.13C185.393 38.43 185.825 38.682 186.341 38.886C186.857 39.09 187.475 39.192 188.195 39.192C189.635 39.192 190.763 38.73 191.579 37.806C192.395 36.87 192.797 35.646 192.785 34.134C192.773 32.706 192.395 31.608 191.651 30.84C190.907 30.06 189.911 29.67 188.663 29.67C187.883 29.67 187.199 29.808 186.611 30.084C186.035 30.36 185.567 30.696 185.207 31.092C184.847 31.488 184.595 31.854 184.451 32.19L181.211 31.056L183.263 18.24H195.557V21.606H186.503L185.495 28.104C185.555 27.996 185.753 27.822 186.089 27.582C186.437 27.33 186.911 27.096 187.511 26.88C188.123 26.652 188.855 26.538 189.707 26.538C190.895 26.538 192.011 26.808 193.055 27.348C194.099 27.876 194.951 28.686 195.611 29.778C196.271 30.858 196.601 32.244 196.601 33.936C196.613 35.628 196.277 37.11 195.593 38.382C194.921 39.654 193.961 40.65 192.713 41.37C191.477 42.078 190.013 42.432 188.321 42.432C187.073 42.432 185.993 42.276 185.081 41.964C184.169 41.64 183.401 41.238 182.777 40.758C182.153 40.278 181.655 39.78 181.283 39.264C180.911 38.736 180.647 38.268 180.491 37.86L183.785 36.312Z" fill="#4E37A2"/>
<path d="M17.184 83.264C17.1307 83.1573 17.0453 83.024 16.928 82.864C16.8107 82.704 16.688 82.5493 16.56 82.4C16.432 82.24 16.32 82.1173 16.224 82.032C16.896 81.776 17.584 81.4347 18.288 81.008C19.0027 80.5813 19.6907 80.112 20.352 79.6C21.024 79.0773 21.616 78.5493 22.128 78.016C22.6507 77.472 23.056 76.9547 23.344 76.464L24.704 76.656C25.0453 77.136 25.4773 77.6267 26 78.128C26.5227 78.6187 27.104 79.0987 27.744 79.568C28.384 80.0267 29.0453 80.4533 29.728 80.848C30.4213 81.232 31.0987 81.552 31.76 81.808C31.664 81.8933 31.5413 82.0267 31.392 82.208C31.2533 82.3787 31.12 82.5493 30.992 82.72C30.8747 82.8907 30.7893 83.0293 30.736 83.136C29.6053 82.6453 28.4853 82 27.376 81.2V82.56H20.56V81.232C19.376 82.0853 18.2507 82.7627 17.184 83.264ZM22.624 91.184V85.408H18.4V84.016H29.072V88.56C29.072 89.5947 28.48 90.112 27.296 90.112H25.904C25.8827 89.8987 25.8347 89.6373 25.76 89.328C25.696 89.0187 25.632 88.7787 25.568 88.608H26.96C27.184 88.608 27.344 88.5707 27.44 88.496C27.536 88.4107 27.584 88.2613 27.584 88.048V85.408H24.128V91.184H22.624ZM20.656 81.168H27.328C26.6773 80.6987 26.0587 80.1973 25.472 79.664C24.896 79.12 24.4053 78.5707 24 78.016C23.6373 78.528 23.1573 79.056 22.56 79.6C21.9733 80.144 21.3387 80.6667 20.656 81.168ZM40.8 89.568V78.72H46.784V89.568H40.8ZM36.064 91.136V85.104C35.7013 85.7227 35.3013 86.3253 34.864 86.912C34.4373 87.488 34.0427 87.9467 33.68 88.288C33.616 88.2027 33.5093 88.1013 33.36 87.984C33.2107 87.856 33.0613 87.7387 32.912 87.632C32.7627 87.5147 32.64 87.4293 32.544 87.376C32.8427 87.12 33.1573 86.8 33.488 86.416C33.8187 86.0213 34.144 85.6 34.464 85.152C34.7947 84.6933 35.0933 84.2347 35.36 83.776C35.6267 83.3067 35.84 82.8693 36 82.464H32.96V81.136H36.064V79.088C35.6267 79.1947 35.1947 79.2853 34.768 79.36C34.352 79.424 33.968 79.4773 33.616 79.52C33.5947 79.4133 33.552 79.2747 33.488 79.104C33.424 78.9227 33.3493 78.752 33.264 78.592C33.1893 78.4213 33.1253 78.304 33.072 78.24C33.4773 78.208 33.952 78.1493 34.496 78.064C35.0507 77.968 35.616 77.8507 36.192 77.712C36.768 77.5733 37.3067 77.424 37.808 77.264C38.32 77.0933 38.7307 76.9227 39.04 76.752L39.872 77.936C39.5733 78.0747 39.2213 78.2133 38.816 78.352C38.4107 78.48 37.9733 78.608 37.504 78.736V81.136H40.096V82.464H37.504V83.104C37.7173 83.3813 37.9893 83.696 38.32 84.048C38.6507 84.3893 39.0027 84.7253 39.376 85.056C39.7493 85.376 40.1013 85.6533 40.432 85.888C40.3573 85.952 40.2507 86.0533 40.112 86.192C39.9733 86.3307 39.84 86.4747 39.712 86.624C39.5947 86.7627 39.5093 86.88 39.456 86.976C39.1467 86.72 38.8213 86.4213 38.48 86.08C38.1387 85.728 37.8133 85.3707 37.504 85.008V91.136H36.064ZM42.272 88.208H45.312V80.096H42.272V88.208Z" fill="black"/>
<path d="M51.792 69.88H65.904V72.232L55.232 91H51.488L61.952 72.872H51.792V69.88Z" fill="#4E37A2"/>
<path d="M77.128 91.168V87.504H69.72V86.192H72.616V82.272H77.128V80.016H73.544C73.1493 80.6347 72.7173 81.2267 72.248 81.792C71.7787 82.3467 71.2773 82.8427 70.744 83.28C70.616 83.1627 70.44 83.008 70.216 82.816C69.992 82.624 69.7787 82.4747 69.576 82.368C70.216 81.8773 70.808 81.296 71.352 80.624C71.9067 79.952 72.3867 79.2533 72.792 78.528C73.1973 77.8027 73.5013 77.1147 73.704 76.464L75.096 76.896C74.9893 77.1947 74.8667 77.4933 74.728 77.792C74.6 78.0907 74.4613 78.3893 74.312 78.688H83.544V80.016H78.648V82.272H82.504V83.568H78.648V86.192H84.232V87.504H78.648V91.168H77.128ZM74.12 86.192H77.128V83.568H74.12V86.192Z" fill="black"/>
<path d="M90.872 91L97.688 82.824C97.4853 83.0373 97.1387 83.2453 96.648 83.448C96.1573 83.64 95.544 83.736 94.808 83.736C93.656 83.736 92.5627 83.448 91.528 82.872C90.504 82.2853 89.672 81.464 89.032 80.408C88.4027 79.352 88.088 78.1253 88.088 76.728C88.088 75.3307 88.4293 74.088 89.112 73C89.7947 71.912 90.7067 71.0587 91.848 70.44C92.9893 69.8107 94.2533 69.496 95.64 69.496C97.048 69.496 98.3173 69.8 99.448 70.408C100.589 71.016 101.496 71.88 102.168 73C102.84 74.12 103.176 75.4373 103.176 76.952C103.176 78.5627 102.904 79.928 102.36 81.048C101.816 82.1573 101.181 83.16 100.456 84.056L94.856 91H90.872ZM95.608 80.968C96.408 80.968 97.1333 80.776 97.784 80.392C98.4453 80.008 98.9733 79.4853 99.368 78.824C99.7627 78.1627 99.96 77.4373 99.96 76.648C99.96 75.848 99.7627 75.1227 99.368 74.472C98.9733 73.8107 98.4453 73.288 97.784 72.904C97.1333 72.5093 96.408 72.312 95.608 72.312C94.8187 72.312 94.0933 72.5093 93.432 72.904C92.7813 73.288 92.2587 73.8107 91.864 74.472C91.48 75.1227 91.288 75.848 91.288 76.648C91.288 77.4373 91.48 78.1627 91.864 78.824C92.2587 79.4853 92.7813 80.008 93.432 80.392C94.0933 80.776 94.8187 80.968 95.608 80.968Z" fill="#4E37A2"/>
<path d="M109.192 91.216C109.075 91.0667 108.899 90.8907 108.664 90.688C108.44 90.4853 108.232 90.336 108.04 90.24C108.989 89.5787 109.699 88.752 110.168 87.76C110.637 86.768 110.872 85.5147 110.872 84V77.184H119.56V89.536C119.56 90.5707 118.952 91.088 117.736 91.088H116.44C116.419 90.8747 116.371 90.608 116.296 90.288C116.232 89.9787 116.163 89.7387 116.088 89.568H117.4C117.635 89.568 117.8 89.5307 117.896 89.456C117.992 89.3707 118.04 89.216 118.04 88.992V85.728H112.264C112.115 86.976 111.784 88.0373 111.272 88.912C110.771 89.7867 110.077 90.5547 109.192 91.216ZM112.36 84.368H118.04V82.144H112.376V83.984C112.376 84.048 112.371 84.112 112.36 84.176C112.36 84.24 112.36 84.304 112.36 84.368ZM112.376 80.768H118.04V78.576H112.376V80.768Z" fill="black"/>
<path d="M26.26 118.974V117.534H22.138V116.292H26.26V115.05H22.858V113.844H26.26V112.584H23.002V111.378H26.26V110.082H21.832V108.876H26.26V107.58H23.038V106.374H26.26V104.916H27.862V106.374H31.606V108.876H33.064V110.082H31.606V112.584H27.862V113.844H31.84V115.05H27.862V116.292H32.578V117.534H27.862V118.974H26.26ZM17.782 121.404C17.71 121.32 17.602 121.212 17.458 121.08C17.314 120.948 17.164 120.816 17.008 120.684C16.852 120.552 16.72 120.456 16.612 120.396C17.656 119.664 18.508 118.746 19.168 117.642C18.796 117.162 18.466 116.628 18.178 116.04C17.89 115.452 17.626 114.804 17.386 114.096L18.682 113.664C19.006 114.624 19.396 115.464 19.852 116.184C20.056 115.632 20.218 115.05 20.338 114.438C20.47 113.826 20.542 113.178 20.554 112.494H17.692V111.432C17.836 111.228 18.004 110.958 18.196 110.622C18.388 110.274 18.586 109.908 18.79 109.524C19.006 109.14 19.204 108.768 19.384 108.408C19.564 108.036 19.708 107.724 19.816 107.472H17.116V105.996H21.472L21.976 106.446C21.844 106.77 21.676 107.148 21.472 107.58C21.268 108.012 21.052 108.456 20.824 108.912C20.608 109.368 20.398 109.788 20.194 110.172C19.99 110.544 19.822 110.838 19.69 111.054H22.084C22.084 112.41 21.988 113.61 21.796 114.654C21.604 115.698 21.316 116.64 20.932 117.48C21.652 118.152 22.516 118.644 23.524 118.956C24.532 119.256 25.726 119.406 27.106 119.406C28.558 119.406 29.782 119.394 30.778 119.37C31.774 119.346 32.56 119.292 33.136 119.208C33.1 119.292 33.052 119.442 32.992 119.658C32.944 119.862 32.902 120.072 32.866 120.288C32.83 120.504 32.806 120.672 32.794 120.792C32.422 120.792 31.912 120.792 31.264 120.792C30.616 120.804 29.92 120.81 29.176 120.81C28.444 120.822 27.754 120.828 27.106 120.828C25.618 120.828 24.304 120.66 23.164 120.324C22.036 120 21.052 119.478 20.212 118.758C19.9 119.25 19.54 119.712 19.132 120.144C18.724 120.576 18.274 120.996 17.782 121.404ZM27.862 111.378H30.022V110.082H27.862V111.378ZM27.862 108.876H30.022V107.58H27.862V108.876ZM41.866 121.26C41.806 121.092 41.692 120.864 41.524 120.576C41.368 120.288 41.224 120.084 41.092 119.964C41.872 119.736 42.598 119.43 43.27 119.046C43.954 118.662 44.578 118.23 45.142 117.75C44.674 117.198 44.272 116.61 43.936 115.986C43.6 115.362 43.33 114.72 43.126 114.06H41.722V112.656H49.426L50.038 113.25C49.414 114.954 48.526 116.454 47.374 117.75C47.95 118.218 48.58 118.626 49.264 118.974C49.96 119.31 50.68 119.562 51.424 119.73C51.34 119.826 51.232 119.964 51.1 120.144C50.98 120.336 50.866 120.522 50.758 120.702C50.662 120.894 50.596 121.044 50.56 121.152C49.708 120.912 48.922 120.594 48.202 120.198C47.482 119.814 46.828 119.364 46.24 118.848C45.616 119.388 44.938 119.862 44.206 120.27C43.474 120.678 42.694 121.008 41.866 121.26ZM42.478 112.35C42.334 112.17 42.148 111.984 41.92 111.792C41.704 111.588 41.494 111.432 41.29 111.324C41.734 110.976 42.082 110.64 42.334 110.316C42.598 109.992 42.79 109.614 42.91 109.182C43.03 108.75 43.09 108.198 43.09 107.526V105.528H48.292V109.722C48.292 109.866 48.322 109.968 48.382 110.028C48.454 110.088 48.592 110.118 48.796 110.118H49.318C49.498 110.118 49.642 110.082 49.75 110.01C49.87 109.926 49.966 109.764 50.038 109.524C50.11 109.284 50.158 108.924 50.182 108.444C50.35 108.528 50.572 108.612 50.848 108.696C51.136 108.768 51.388 108.828 51.604 108.876C51.544 109.644 51.436 110.226 51.28 110.622C51.124 111.018 50.896 111.288 50.596 111.432C50.308 111.576 49.936 111.648 49.48 111.648H48.382C47.758 111.648 47.326 111.564 47.086 111.396C46.846 111.228 46.726 110.934 46.726 110.514V106.932H44.656V107.634C44.656 108.678 44.488 109.572 44.152 110.316C43.828 111.048 43.27 111.726 42.478 112.35ZM35.71 120.81V115.752H40.912V120.81H35.71ZM34.846 109.578V108.264H41.524V109.578H34.846ZM35.728 107.094V105.744H40.786V107.094H35.728ZM35.71 112.08V110.748H40.786V112.08H35.71ZM35.71 114.564V113.25H40.786V114.564H35.71ZM37.15 119.496H39.472V117.084H37.15V119.496ZM46.258 116.67C47.002 115.818 47.554 114.948 47.914 114.06H44.674C44.842 114.528 45.058 114.984 45.322 115.428C45.598 115.86 45.91 116.274 46.258 116.67ZM60.226 121.422V117.516C59.686 118.02 59.062 118.506 58.354 118.974C57.646 119.43 56.908 119.844 56.14 120.216C55.384 120.588 54.64 120.894 53.908 121.134C53.872 121.038 53.8 120.906 53.692 120.738C53.584 120.57 53.47 120.396 53.35 120.216C53.23 120.048 53.128 119.922 53.044 119.838C53.716 119.646 54.424 119.382 55.168 119.046C55.912 118.698 56.632 118.314 57.328 117.894C58.036 117.462 58.648 117.042 59.164 116.634H53.098V115.338H60.226V114.222H54.862V112.98H60.226V111.918H54.106V110.64H57.688C57.58 110.4 57.466 110.154 57.346 109.902C57.226 109.65 57.106 109.428 56.986 109.236H53.08V107.94H56.104C55.948 107.628 55.762 107.25 55.546 106.806C55.33 106.362 55.12 106.008 54.916 105.744L56.32 105.078C56.464 105.306 56.62 105.576 56.788 105.888C56.956 106.2 57.112 106.506 57.256 106.806C57.412 107.094 57.526 107.328 57.598 107.508L56.59 107.94H58.624V104.988H60.154V107.94H61.774V104.988H63.304V107.94H65.374L64.186 107.472C64.342 107.268 64.51 107.022 64.69 106.734C64.87 106.446 65.038 106.158 65.194 105.87C65.35 105.57 65.47 105.312 65.554 105.096L67.084 105.582C66.964 105.81 66.814 106.074 66.634 106.374C66.454 106.662 66.274 106.95 66.094 107.238C65.914 107.514 65.752 107.748 65.608 107.94H68.902V109.236H64.978C64.894 109.464 64.792 109.704 64.672 109.956C64.552 110.196 64.438 110.424 64.33 110.64H67.768V111.918H61.774V112.98H67.084V114.222H61.774V115.338H68.902V116.634H62.8C63.328 117.042 63.934 117.456 64.618 117.876C65.314 118.284 66.034 118.662 66.778 119.01C67.522 119.358 68.224 119.628 68.884 119.82C68.8 119.904 68.698 120.03 68.578 120.198C68.47 120.378 68.368 120.552 68.272 120.72C68.176 120.9 68.104 121.038 68.056 121.134C67.336 120.894 66.592 120.588 65.824 120.216C65.068 119.844 64.342 119.43 63.646 118.974C62.95 118.506 62.326 118.026 61.774 117.534V121.422H60.226ZM59.416 110.64H62.584C62.692 110.436 62.806 110.208 62.926 109.956C63.046 109.704 63.154 109.464 63.25 109.236H58.786C58.906 109.476 59.02 109.722 59.128 109.974C59.248 110.226 59.344 110.448 59.416 110.64ZM81.574 121.17V114.528H77.47V113.034H81.574V109.092H80.134C79.87 109.656 79.588 110.19 79.288 110.694C78.988 111.198 78.67 111.66 78.334 112.08C78.238 111.984 78.1 111.882 77.92 111.774C77.74 111.654 77.554 111.54 77.362 111.432C77.182 111.324 77.032 111.246 76.912 111.198C77.356 110.694 77.776 110.088 78.172 109.38C78.568 108.66 78.916 107.916 79.216 107.148C79.516 106.368 79.726 105.648 79.846 104.988L81.484 105.312C81.388 105.696 81.274 106.086 81.142 106.482C81.022 106.878 80.89 107.274 80.746 107.67H86.56V109.092H83.212V113.034H87.172V114.528H83.212V121.17H81.574ZM71.656 120.774V115.734H76.858V120.774H71.656ZM70.882 109.542V108.228H77.452V109.542H70.882ZM71.746 107.058V105.708H76.642V107.058H71.746ZM71.746 114.546V113.214H76.642V114.546H71.746ZM71.746 112.044V110.73H76.642V112.044H71.746ZM73.078 119.46H75.418V117.048H73.078V119.46ZM98.332 121.008C98.308 120.768 98.254 120.468 98.17 120.108C98.098 119.76 98.02 119.49 97.936 119.298H100.114C100.366 119.298 100.546 119.256 100.654 119.172C100.774 119.088 100.834 118.92 100.834 118.668V107.958H88.702V106.428H105.208V107.958H102.562V119.262C102.562 119.862 102.394 120.3 102.058 120.576C101.722 120.864 101.206 121.008 100.51 121.008H98.332ZM91.294 116.688V110.064H97.738V116.688H91.294ZM92.95 115.158H96.1V111.576H92.95V115.158ZM106.972 120.936V119.568H114.19V118.074H108.97V116.76H114.19V115.482H115.27C115.234 115.278 115.186 115.056 115.126 114.816C115.066 114.564 115.006 114.366 114.946 114.222H115.756C115.996 114.222 116.164 114.186 116.26 114.114C116.356 114.042 116.404 113.892 116.404 113.664V111.99H112.264V110.748H116.404V109.632H114.1V108.912C113.752 109.152 113.404 109.38 113.056 109.596C112.708 109.8 112.366 109.986 112.03 110.154C111.958 110.022 111.826 109.83 111.634 109.578C111.442 109.326 111.28 109.14 111.148 109.02C111.796 108.744 112.462 108.378 113.146 107.922C113.842 107.466 114.484 106.968 115.072 106.428C115.66 105.876 116.122 105.342 116.458 104.826L117.79 105.024C118.162 105.54 118.636 106.05 119.212 106.554C119.8 107.046 120.448 107.49 121.156 107.886C121.864 108.282 122.572 108.594 123.28 108.822C123.208 108.894 123.112 109.014 122.992 109.182C122.884 109.338 122.782 109.5 122.686 109.668C122.602 109.836 122.536 109.968 122.488 110.064C122.116 109.932 121.732 109.764 121.336 109.56C120.94 109.356 120.55 109.14 120.166 108.912V109.632H117.898V110.748H121.876V111.99H117.898V114.06C117.898 114.612 117.754 115.014 117.466 115.266C117.19 115.518 116.74 115.644 116.116 115.644H115.828V116.76H121.03V118.074H115.828V119.568H122.956V120.936H106.972ZM108.016 115.914L106.882 114.78C107.158 114.6 107.476 114.36 107.836 114.06C108.208 113.76 108.586 113.436 108.97 113.088C109.354 112.728 109.72 112.38 110.068 112.044C110.428 111.708 110.722 111.408 110.95 111.144C110.998 111.216 111.076 111.342 111.184 111.522C111.304 111.702 111.418 111.876 111.526 112.044C111.646 112.2 111.73 112.308 111.778 112.368C111.502 112.704 111.136 113.094 110.68 113.538C110.236 113.97 109.774 114.402 109.294 114.834C108.826 115.254 108.4 115.614 108.016 115.914ZM121.822 115.662C121.27 115.314 120.706 114.894 120.13 114.402C119.566 113.898 119.11 113.424 118.762 112.98L119.878 112.134C120.058 112.374 120.31 112.65 120.634 112.962C120.97 113.262 121.33 113.556 121.714 113.844C122.11 114.132 122.488 114.378 122.848 114.582C122.704 114.678 122.518 114.852 122.29 115.104C122.074 115.344 121.918 115.53 121.822 115.662ZM112.336 115.662C112.276 115.566 112.18 115.446 112.048 115.302C111.928 115.158 111.802 115.02 111.67 114.888C111.538 114.744 111.424 114.642 111.328 114.582C111.688 114.378 112.06 114.132 112.444 113.844C112.84 113.556 113.206 113.262 113.542 112.962C113.878 112.65 114.13 112.374 114.298 112.134L115.396 112.98C115.06 113.424 114.604 113.898 114.028 114.402C113.464 114.894 112.9 115.314 112.336 115.662ZM114.748 108.444H119.446C118.954 108.096 118.498 107.736 118.078 107.364C117.658 106.992 117.31 106.62 117.034 106.248C116.77 106.608 116.434 106.974 116.026 107.346C115.63 107.718 115.204 108.084 114.748 108.444ZM111.022 107.868C110.674 107.568 110.248 107.25 109.744 106.914C109.24 106.566 108.772 106.278 108.34 106.05L109.24 104.97C109.492 105.102 109.786 105.276 110.122 105.492C110.458 105.696 110.788 105.912 111.112 106.14C111.436 106.368 111.706 106.572 111.922 106.752C111.85 106.824 111.748 106.938 111.616 107.094C111.496 107.238 111.376 107.388 111.256 107.544C111.148 107.688 111.07 107.796 111.022 107.868ZM109.942 110.712C109.582 110.436 109.15 110.142 108.646 109.83C108.154 109.506 107.686 109.242 107.242 109.038L108.034 107.886C108.298 108.006 108.598 108.162 108.934 108.354C109.27 108.546 109.6 108.744 109.924 108.948C110.248 109.152 110.524 109.344 110.752 109.524C110.692 109.596 110.602 109.716 110.482 109.884C110.374 110.04 110.266 110.196 110.158 110.352C110.062 110.508 109.99 110.628 109.942 110.712ZM127.204 121.53L126.826 120.072C127.126 120.036 127.516 119.982 127.996 119.91C128.488 119.826 129.016 119.73 129.58 119.622V117.714C128.908 118.014 128.2 118.284 127.456 118.524C126.724 118.764 125.98 118.974 125.224 119.154C125.2 119.046 125.146 118.896 125.062 118.704C124.99 118.512 124.906 118.32 124.81 118.128C124.714 117.936 124.63 117.798 124.558 117.714C125.242 117.606 125.98 117.432 126.772 117.192C127.564 116.94 128.344 116.646 129.112 116.31C129.892 115.974 130.582 115.608 131.182 115.212H124.918V113.844H132.262V112.548H133.9V113.844H141.082V115.212H138.076L139.156 116.256C138.868 116.496 138.52 116.766 138.112 117.066C137.704 117.354 137.308 117.618 136.924 117.858C137.596 118.35 138.31 118.77 139.066 119.118C139.822 119.454 140.602 119.736 141.406 119.964C141.31 120.048 141.196 120.18 141.064 120.36C140.932 120.54 140.806 120.72 140.686 120.9C140.578 121.092 140.5 121.248 140.452 121.368C138.916 120.864 137.506 120.144 136.222 119.208C134.938 118.26 133.864 117.06 133 115.608C132.724 115.836 132.436 116.058 132.136 116.274C131.836 116.478 131.518 116.676 131.182 116.868V119.334C131.926 119.19 132.628 119.046 133.288 118.902C133.96 118.758 134.47 118.638 134.818 118.542V120.018C134.35 120.138 133.78 120.27 133.108 120.414C132.448 120.57 131.752 120.72 131.02 120.864C130.3 121.008 129.604 121.14 128.932 121.26C128.26 121.38 127.684 121.47 127.204 121.53ZM131.614 112.116V110.766H135.088V108.498H131.146V107.148H135.088V104.988H136.726V107.148H140.956V108.498H136.726V110.766H140.452V112.116H131.614ZM128.896 112.962V110.928C128.596 111.12 128.248 111.336 127.852 111.576C127.468 111.804 127.078 112.026 126.682 112.242C126.286 112.458 125.92 112.65 125.584 112.818L124.936 111.396C125.284 111.252 125.704 111.054 126.196 110.802C126.688 110.538 127.174 110.268 127.654 109.992C128.146 109.716 128.56 109.47 128.896 109.254V104.988H130.426V112.962H128.896ZM127.33 108.66C127.15 108.396 126.928 108.108 126.664 107.796C126.412 107.472 126.148 107.166 125.872 106.878C125.608 106.578 125.368 106.338 125.152 106.158L126.286 105.33C126.526 105.522 126.784 105.768 127.06 106.068C127.348 106.356 127.624 106.65 127.888 106.95C128.164 107.25 128.392 107.526 128.572 107.778C128.488 107.826 128.362 107.91 128.194 108.03C128.038 108.138 127.876 108.252 127.708 108.372C127.54 108.492 127.414 108.588 127.33 108.66ZM135.772 116.886C136.12 116.646 136.51 116.37 136.942 116.058C137.374 115.734 137.722 115.452 137.986 115.212H134.404C134.608 115.524 134.824 115.824 135.052 116.112C135.28 116.388 135.52 116.646 135.772 116.886ZM153.885 118.038V107.004H156.333C156.441 106.704 156.555 106.338 156.675 105.906C156.807 105.474 156.903 105.114 156.963 104.826L158.673 105.006C158.613 105.27 158.517 105.594 158.385 105.978C158.253 106.362 158.121 106.704 157.989 107.004H162.435V111.684H155.541V113.178H162.921V118.038H153.885ZM158.007 120.936C156.771 120.936 155.721 120.87 154.857 120.738C153.993 120.618 153.261 120.42 152.661 120.144C152.061 119.88 151.539 119.532 151.095 119.1C150.891 119.244 150.615 119.43 150.267 119.658C149.931 119.874 149.589 120.09 149.241 120.306C148.905 120.522 148.623 120.708 148.395 120.864L147.657 119.244C147.861 119.16 148.131 119.034 148.467 118.866C148.815 118.698 149.157 118.524 149.493 118.344C149.841 118.164 150.105 118.014 150.285 117.894V113.088H148.017V111.63H151.869V117.768C152.169 118.188 152.565 118.524 153.057 118.776C153.549 119.016 154.197 119.19 155.001 119.298C155.805 119.394 156.807 119.442 158.007 119.442C159.459 119.442 160.701 119.418 161.733 119.37C162.777 119.322 163.653 119.256 164.361 119.172C164.325 119.256 164.277 119.412 164.217 119.64C164.157 119.868 164.103 120.102 164.055 120.342C164.007 120.582 163.977 120.768 163.965 120.9C163.665 120.9 163.275 120.9 162.795 120.9C162.327 120.912 161.817 120.918 161.265 120.918C160.713 120.93 160.155 120.936 159.591 120.936C159.027 120.936 158.499 120.936 158.007 120.936ZM155.541 116.634H161.319V114.546H155.541V116.634ZM155.541 110.28H160.851V108.39H155.541V110.28ZM151.329 109.272C151.125 109.008 150.855 108.702 150.519 108.354C150.183 108.006 149.835 107.67 149.475 107.346C149.115 107.01 148.779 106.734 148.467 106.518L149.529 105.474C149.817 105.666 150.147 105.924 150.519 106.248C150.903 106.572 151.269 106.908 151.617 107.256C151.977 107.592 152.265 107.892 152.481 108.156C152.397 108.216 152.271 108.318 152.103 108.462C151.947 108.606 151.791 108.756 151.635 108.912C151.491 109.068 151.389 109.188 151.329 109.272ZM175.341 120.018V107.742H181.299V120.018H175.341ZM166.755 121.134C166.623 121.014 166.413 120.852 166.125 120.648C165.849 120.444 165.603 120.294 165.387 120.198C166.263 119.334 166.935 118.41 167.403 117.426C167.883 116.43 168.219 115.332 168.411 114.132C168.615 112.932 168.723 111.594 168.735 110.118H166.071V108.516H168.735V105.042H170.373V108.516H173.847C173.847 108.528 173.847 108.576 173.847 108.66C173.847 108.816 173.847 109.044 173.847 109.344C173.859 109.632 173.859 109.884 173.847 110.1C173.847 111.852 173.805 113.382 173.721 114.69C173.649 115.986 173.541 117.09 173.397 118.002C173.265 118.782 173.085 119.388 172.857 119.82C172.629 120.252 172.317 120.552 171.921 120.72C171.525 120.888 171.009 120.972 170.373 120.972H169.473C169.461 120.732 169.413 120.45 169.329 120.126C169.257 119.802 169.179 119.544 169.095 119.352H170.247C170.715 119.352 171.051 119.244 171.255 119.028C171.459 118.812 171.627 118.404 171.759 117.804C171.855 117.372 171.939 116.766 172.011 115.986C172.083 115.206 172.137 114.312 172.173 113.304C172.221 112.296 172.245 111.234 172.245 110.118H170.373C170.349 111.666 170.223 113.106 169.995 114.438C169.767 115.77 169.395 116.994 168.879 118.11C168.363 119.214 167.655 120.222 166.755 121.134ZM176.979 118.362H179.661V109.362H176.979V118.362Z" fill="black"/>
</svg>
