<svg width="343" height="160" viewBox="0 0 343 160" fill="none" xmlns="http://www.w3.org/2000/svg">
<mask id="path-1-inside-1_5301_8998" fill="white">
<path d="M343 152C343 156.418 339.418 160 335 160H7.99999C3.58172 160 0 156.418 0 152V8C0 3.58172 3.58172 0 8 0H271.01C274.064 0 276.852 1.73855 278.195 4.48106L297.805 44.5189C299.148 47.2615 301.936 49 304.99 49H335C339.418 49 343 52.5817 343 57V152Z"/>
</mask>
<path d="M343 152C343 156.418 339.418 160 335 160H7.99999C3.58172 160 0 156.418 0 152V8C0 3.58172 3.58172 0 8 0H271.01C274.064 0 276.852 1.73855 278.195 4.48106L297.805 44.5189C299.148 47.2615 301.936 49 304.99 49H335C339.418 49 343 52.5817 343 57V152Z" fill="#E4EBFF"/>
<path d="M297.805 44.5189L296.907 44.9588L297.805 44.5189ZM278.195 4.48106L279.093 4.04119L278.195 4.48106ZM335 160V159H7.99999V160V161H335V160ZM0 152H1V8H0H-1V152H0ZM8 0V1H271.01V0V-1H8V0ZM278.195 4.48106L277.297 4.92093L296.907 44.9588L297.805 44.5189L298.703 44.0791L279.093 4.04119L278.195 4.48106ZM304.99 49V50H335V49V48H304.99V49ZM343 57H342V152H343H344V57H343ZM335 49V50C338.866 50 342 53.134 342 57H343H344C344 52.0294 339.971 48 335 48V49ZM297.805 44.5189L296.907 44.9588C298.418 48.0441 301.554 50 304.99 50V49V48C302.318 48 299.879 46.4788 298.703 44.0791L297.805 44.5189ZM271.01 0V1C273.682 1 276.121 2.52123 277.297 4.92093L278.195 4.48106L279.093 4.04119C277.582 0.955866 274.446 -1 271.01 -1V0ZM0 8H1C1 4.13401 4.13401 1 8 1V0V-1C3.02944 -1 -1 3.02944 -1 8H0ZM7.99999 160V159C4.134 159 1 155.866 1 152H0H-1C-1 156.971 3.02943 161 7.99999 161V160ZM335 160V161C339.971 161 344 156.971 344 152H343H342C342 155.866 338.866 159 335 159V160Z" fill="#D3D3D3" mask="url(#path-1-inside-1_5301_8998)"/>
<path d="M131.774 21.102C130.85 21.102 130.034 21.3 129.326 21.696C128.63 22.08 128.048 22.536 127.58 23.064C127.112 23.592 126.752 24.072 126.5 24.504C126.26 24.936 126.128 25.176 126.104 25.224L122.81 23.748C122.834 23.64 122.948 23.37 123.152 22.938C123.356 22.494 123.674 21.99 124.106 21.426C124.538 20.85 125.096 20.286 125.78 19.734C126.476 19.182 127.316 18.726 128.3 18.366C129.296 17.994 130.454 17.808 131.774 17.808C133.202 17.808 134.414 18.006 135.41 18.402C136.406 18.798 137.216 19.344 137.84 20.04C138.464 20.724 138.92 21.51 139.208 22.398C139.496 23.286 139.64 24.222 139.64 25.206C139.64 26.214 139.406 27.234 138.938 28.266C138.482 29.298 137.888 30.3 137.156 31.272C136.424 32.232 135.638 33.132 134.798 33.972C133.958 34.812 133.142 35.562 132.35 36.222C131.57 36.882 130.898 37.422 130.334 37.842C129.782 38.262 129.434 38.526 129.29 38.634H139.442V42H123.458V38.94C123.77 38.688 124.28 38.286 124.988 37.734C125.708 37.182 126.536 36.528 127.472 35.772C128.408 35.004 129.356 34.17 130.316 33.27C131.288 32.37 132.188 31.446 133.016 30.498C133.856 29.55 134.528 28.62 135.032 27.708C135.548 26.796 135.806 25.944 135.806 25.152C135.806 23.664 135.458 22.62 134.762 22.02C134.066 21.408 133.07 21.102 131.774 21.102ZM142.925 30.138C142.925 28.038 143.177 26.214 143.681 24.666C144.197 23.118 144.893 21.84 145.769 20.832C146.645 19.812 147.629 19.056 148.721 18.564C149.813 18.06 150.941 17.808 152.105 17.808C153.281 17.808 154.415 18.06 155.507 18.564C156.611 19.056 157.595 19.812 158.459 20.832C159.323 21.84 160.007 23.118 160.511 24.666C161.015 26.214 161.267 28.038 161.267 30.138C161.267 32.31 161.015 34.17 160.511 35.718C160.007 37.266 159.323 38.538 158.459 39.534C157.595 40.518 156.611 41.25 155.507 41.73C154.415 42.198 153.281 42.432 152.105 42.432C150.941 42.432 149.813 42.198 148.721 41.73C147.629 41.25 146.645 40.518 145.769 39.534C144.893 38.538 144.197 37.266 143.681 35.718C143.177 34.17 142.925 32.31 142.925 30.138ZM146.759 30.138C146.759 32.13 146.993 33.792 147.461 35.124C147.941 36.444 148.583 37.428 149.387 38.076C150.203 38.712 151.109 39.03 152.105 39.03C153.125 39.03 154.031 38.706 154.823 38.058C155.627 37.41 156.263 36.426 156.731 35.106C157.199 33.786 157.433 32.13 157.433 30.138C157.433 28.182 157.199 26.544 156.731 25.224C156.263 23.904 155.627 22.908 154.823 22.236C154.031 21.552 153.125 21.21 152.105 21.21C151.109 21.21 150.203 21.552 149.387 22.236C148.583 22.908 147.941 23.91 147.461 25.242C146.993 26.562 146.759 28.194 146.759 30.138ZM167.656 22.992L163.642 25.224V21.57L169.456 18.24H171.454V42H167.656V22.992ZM184.756 26.412C186.064 26.412 187.288 26.742 188.428 27.402C189.58 28.05 190.516 28.968 191.236 30.156C191.956 31.344 192.316 32.724 192.316 34.296C192.316 35.868 191.932 37.266 191.164 38.49C190.396 39.714 189.364 40.68 188.068 41.388C186.784 42.084 185.368 42.432 183.82 42.432C182.236 42.432 180.802 42.09 179.518 41.406C178.246 40.722 177.232 39.75 176.476 38.49C175.72 37.23 175.342 35.748 175.342 34.044C175.342 32.232 175.648 30.702 176.26 29.454C176.872 28.194 177.586 27.06 178.402 26.052L184.702 18.24H189.184L181.516 27.438C181.744 27.198 182.134 26.97 182.686 26.754C183.238 26.526 183.928 26.412 184.756 26.412ZM183.856 39.264C184.744 39.264 185.554 39.048 186.286 38.616C187.03 38.172 187.618 37.584 188.05 36.852C188.494 36.108 188.716 35.286 188.716 34.386C188.716 33.486 188.494 32.67 188.05 31.938C187.618 31.194 187.03 30.606 186.286 30.174C185.554 29.742 184.744 29.526 183.856 29.526C182.956 29.526 182.134 29.742 181.39 30.174C180.646 30.606 180.052 31.194 179.608 31.938C179.176 32.67 178.96 33.486 178.96 34.386C178.96 35.286 179.176 36.108 179.608 36.852C180.052 37.584 180.646 38.172 181.39 38.616C182.134 39.048 182.956 39.264 183.856 39.264Z" fill="#4E37A2"/>
<path d="M23.248 91.184V85.584H16.736V84.192H23.248V78.816H17.44V77.44H30.512V78.816H24.784V84.192H31.216L31.232 85.584H24.784V91.184H23.248ZM27.232 83.632C27.136 83.568 26.9973 83.488 26.816 83.392C26.6453 83.2853 26.4747 83.1893 26.304 83.104C26.1333 83.0187 26.0053 82.96 25.92 82.928C26.144 82.64 26.3947 82.2827 26.672 81.856C26.96 81.4187 27.232 80.976 27.488 80.528C27.744 80.08 27.9413 79.696 28.08 79.376L29.472 80.016C29.3547 80.2613 29.2 80.5493 29.008 80.88C28.816 81.2107 28.608 81.552 28.384 81.904C28.1707 82.256 27.9627 82.5867 27.76 82.896C27.5573 83.1947 27.3813 83.44 27.232 83.632ZM20.752 83.648C20.656 83.4133 20.5227 83.136 20.352 82.816C20.192 82.496 20.0107 82.16 19.808 81.808C19.616 81.456 19.424 81.1307 19.232 80.832C19.04 80.5227 18.864 80.2667 18.704 80.064L20 79.376C20.1493 79.5787 20.32 79.8347 20.512 80.144C20.7147 80.4533 20.9173 80.784 21.12 81.136C21.3227 81.4773 21.5093 81.808 21.68 82.128C21.8613 82.448 22 82.7147 22.096 82.928C21.9893 82.9707 21.8507 83.04 21.68 83.136C21.5093 83.2213 21.3387 83.312 21.168 83.408C20.9973 83.504 20.8587 83.584 20.752 83.648ZM38.672 90.944C38.5973 90.7947 38.4693 90.5973 38.288 90.352C38.1173 90.1067 37.968 89.9253 37.84 89.808C38.5973 89.456 39.296 89.0347 39.936 88.544C40.5867 88.0427 41.1733 87.4933 41.696 86.896C41.3547 86.1387 41.0507 85.264 40.784 84.272C40.528 83.2693 40.3307 82.1173 40.192 80.816H35.504V82.64H39.264C39.264 83.4827 39.2373 84.3147 39.184 85.136C39.1413 85.9467 39.0613 86.6347 38.944 87.2C38.8053 87.9147 38.5547 88.4053 38.192 88.672C37.84 88.9387 37.3173 89.072 36.624 89.072H35.696C35.6747 88.88 35.632 88.6347 35.568 88.336C35.504 88.0373 35.44 87.808 35.376 87.648H36.4C36.8373 87.648 37.12 87.584 37.248 87.456C37.376 87.3173 37.4773 87.0667 37.552 86.704C37.6267 86.3733 37.68 85.9573 37.712 85.456C37.7547 84.9547 37.776 84.4533 37.776 83.952H35.472C35.4293 85.104 35.328 86.1013 35.168 86.944C35.0187 87.776 34.8053 88.5067 34.528 89.136C34.2613 89.7547 33.9253 90.32 33.52 90.832C33.4347 90.768 33.296 90.688 33.104 90.592C32.9227 90.496 32.7467 90.4053 32.576 90.32C32.4053 90.2347 32.288 90.1813 32.224 90.16C32.6507 89.6267 32.992 89.0187 33.248 88.336C33.504 87.6427 33.6907 86.8213 33.808 85.872C33.9253 84.9227 33.984 83.7813 33.984 82.448V79.44H40.064C40.0427 79.0027 40.0213 78.5493 40 78.08C39.9893 77.6 39.984 77.1093 39.984 76.608H41.44C41.44 77.6107 41.472 78.5547 41.536 79.44H44.56C44.272 79.12 43.952 78.8053 43.6 78.496C43.248 78.176 42.928 77.92 42.64 77.728L43.536 76.768C43.7813 76.928 44.0533 77.1307 44.352 77.376C44.6507 77.6213 44.9333 77.872 45.2 78.128C45.4773 78.3733 45.6907 78.5867 45.84 78.768C45.7653 78.8213 45.6533 78.9173 45.504 79.056C45.3547 79.184 45.216 79.312 45.088 79.44H46.768V80.816H41.664C41.7707 81.7653 41.9147 82.6293 42.096 83.408C42.288 84.1867 42.5013 84.8907 42.736 85.52C43.088 84.976 43.3973 84.4053 43.664 83.808C43.9307 83.2107 44.1493 82.5973 44.32 81.968L45.712 82.432C45.1787 84.1387 44.4213 85.6533 43.44 86.976C43.76 87.52 44.1067 87.984 44.48 88.368C44.8533 88.7413 45.2373 89.0507 45.632 89.296C45.76 88.9547 45.8773 88.576 45.984 88.16C46.1013 87.7333 46.1813 87.3707 46.224 87.072C46.2987 87.1253 46.4213 87.1947 46.592 87.28C46.7627 87.3547 46.9387 87.4293 47.12 87.504C47.312 87.568 47.456 87.616 47.552 87.648C47.488 87.968 47.4027 88.3093 47.296 88.672C47.2 89.0347 47.0933 89.3813 46.976 89.712C46.8693 90.0427 46.7573 90.32 46.64 90.544C46.5013 90.8 46.3093 90.96 46.064 91.024C45.8293 91.088 45.568 91.04 45.28 90.88C44.7893 90.624 44.2987 90.2827 43.808 89.856C43.3173 89.4187 42.8533 88.8693 42.416 88.208C41.328 89.36 40.08 90.272 38.672 90.944Z" fill="black"/>
<path d="M58.688 72.424C57.8667 72.424 57.1413 72.6 56.512 72.952C55.8933 73.2933 55.376 73.6987 54.96 74.168C54.544 74.6373 54.224 75.064 54 75.448C53.7867 75.832 53.6693 76.0453 53.648 76.088L50.72 74.776C50.7413 74.68 50.8427 74.44 51.024 74.056C51.2053 73.6613 51.488 73.2133 51.872 72.712C52.256 72.2 52.752 71.6987 53.36 71.208C53.9787 70.7173 54.7253 70.312 55.6 69.992C56.4853 69.6613 57.5147 69.496 58.688 69.496C59.9573 69.496 61.0347 69.672 61.92 70.024C62.8053 70.376 63.5253 70.8613 64.08 71.48C64.6347 72.088 65.04 72.7867 65.296 73.576C65.552 74.3653 65.68 75.1973 65.68 76.072C65.68 76.968 65.472 77.8747 65.056 78.792C64.6507 79.7093 64.1227 80.6 63.472 81.464C62.8213 82.3173 62.1227 83.1173 61.376 83.864C60.6293 84.6107 59.904 85.2773 59.2 85.864C58.5067 86.4507 57.9093 86.9307 57.408 87.304C56.9173 87.6773 56.608 87.912 56.48 88.008H65.504V91H51.296V88.28C51.5733 88.056 52.0267 87.6987 52.656 87.208C53.296 86.7173 54.032 86.136 54.864 85.464C55.696 84.7813 56.5387 84.04 57.392 83.24C58.256 82.44 59.056 81.6187 59.792 80.776C60.5387 79.9333 61.136 79.1067 61.584 78.296C62.0427 77.4853 62.272 76.728 62.272 76.024C62.272 74.7013 61.9627 73.7733 61.344 73.24C60.7253 72.696 59.84 72.424 58.688 72.424ZM76.2483 91.384C74.9043 91.384 73.6883 91.112 72.6003 90.568C71.5123 90.024 70.6429 89.288 69.9923 88.36C69.3523 87.4213 69.0323 86.3653 69.0323 85.192C69.0323 84.1573 69.2083 83.2827 69.5603 82.568C69.9123 81.8427 70.3816 81.24 70.9683 80.76C71.5656 80.2693 72.2216 79.8853 72.9363 79.608C72.4136 79.352 71.9229 79.0267 71.4643 78.632C71.0163 78.2267 70.6483 77.7253 70.3603 77.128C70.0829 76.52 69.9443 75.7893 69.9443 74.936C69.9443 73.848 70.2216 72.8987 70.7763 72.088C71.3416 71.2667 72.0989 70.632 73.0483 70.184C74.0083 69.7253 75.0696 69.496 76.2323 69.496C77.4056 69.496 78.4616 69.7253 79.4003 70.184C80.3389 70.632 81.0803 71.2667 81.6243 72.088C82.1789 72.8987 82.4563 73.848 82.4563 74.936C82.4563 76.216 82.1683 77.2133 81.5923 77.928C81.0163 78.6427 80.3229 79.2027 79.5123 79.608C80.2269 79.8853 80.8776 80.2693 81.4643 80.76C82.0616 81.24 82.5363 81.8427 82.8883 82.568C83.2509 83.2827 83.4323 84.1573 83.4323 85.192C83.4323 86.3653 83.1123 87.4213 82.4723 88.36C81.8323 89.288 80.9683 90.024 79.8803 90.568C78.8029 91.112 77.5923 91.384 76.2483 91.384ZM76.2323 88.392C76.9149 88.392 77.5283 88.2373 78.0723 87.928C78.6269 87.608 79.0696 87.176 79.4003 86.632C79.7309 86.0773 79.8963 85.464 79.8963 84.792C79.8963 84.1093 79.7309 83.496 79.4003 82.952C79.0696 82.408 78.6269 81.976 78.0723 81.656C77.5283 81.336 76.9149 81.176 76.2323 81.176C75.5496 81.176 74.9256 81.336 74.3603 81.656C73.8056 81.976 73.3629 82.408 73.0323 82.952C72.7123 83.496 72.5523 84.1093 72.5523 84.792C72.5523 85.464 72.7123 86.072 73.0323 86.616C73.3629 87.16 73.8056 87.592 74.3603 87.912C74.9256 88.232 75.5496 88.392 76.2323 88.392ZM76.2483 78.504C76.8243 78.504 77.3469 78.36 77.8163 78.072C78.2963 77.784 78.6749 77.4 78.9523 76.92C79.2403 76.44 79.3843 75.912 79.3843 75.336C79.3843 74.76 79.2403 74.2373 78.9523 73.768C78.6643 73.288 78.2803 72.9093 77.8003 72.632C77.3309 72.344 76.8083 72.2 76.2323 72.2C75.6669 72.2 75.1389 72.344 74.6483 72.632C74.1683 72.9093 73.7843 73.288 73.4963 73.768C73.2189 74.2373 73.0803 74.76 73.0803 75.336C73.0803 75.912 73.2189 76.44 73.4963 76.92C73.7843 77.4 74.1683 77.784 74.6483 78.072C75.1389 78.36 75.6723 78.504 76.2483 78.504Z" fill="#4E37A2"/>
<path d="M96.128 91.168V87.504H88.72V86.192H91.616V82.272H96.128V80.016H92.544C92.1493 80.6347 91.7173 81.2267 91.248 81.792C90.7787 82.3467 90.2773 82.8427 89.744 83.28C89.616 83.1627 89.44 83.008 89.216 82.816C88.992 82.624 88.7787 82.4747 88.576 82.368C89.216 81.8773 89.808 81.296 90.352 80.624C90.9067 79.952 91.3867 79.2533 91.792 78.528C92.1973 77.8027 92.5013 77.1147 92.704 76.464L94.096 76.896C93.9893 77.1947 93.8667 77.4933 93.728 77.792C93.6 78.0907 93.4613 78.3893 93.312 78.688H102.544V80.016H97.648V82.272H101.504V83.568H97.648V86.192H103.232V87.504H97.648V91.168H96.128ZM93.12 86.192H96.128V83.568H93.12V86.192Z" fill="black"/>
<path d="M115.408 77.144C116.571 77.144 117.659 77.4373 118.672 78.024C119.696 78.6 120.528 79.416 121.168 80.472C121.808 81.528 122.128 82.7547 122.128 84.152C122.128 85.5493 121.787 86.792 121.104 87.88C120.421 88.968 119.504 89.8267 118.352 90.456C117.211 91.0747 115.952 91.384 114.576 91.384C113.168 91.384 111.893 91.08 110.752 90.472C109.621 89.864 108.72 89 108.048 87.88C107.376 86.76 107.04 85.4427 107.04 83.928C107.04 82.3173 107.312 80.9573 107.856 79.848C108.4 78.728 109.035 77.72 109.76 76.824L115.36 69.88H119.344L112.528 78.056C112.731 77.8427 113.077 77.64 113.568 77.448C114.059 77.2453 114.672 77.144 115.408 77.144ZM114.608 88.568C115.397 88.568 116.117 88.376 116.768 87.992C117.429 87.5973 117.952 87.0747 118.336 86.424C118.731 85.7627 118.928 85.032 118.928 84.232C118.928 83.432 118.731 82.7067 118.336 82.056C117.952 81.3947 117.429 80.872 116.768 80.488C116.117 80.104 115.397 79.912 114.608 79.912C113.808 79.912 113.077 80.104 112.416 80.488C111.755 80.872 111.227 81.3947 110.832 82.056C110.448 82.7067 110.256 83.432 110.256 84.232C110.256 85.032 110.448 85.7627 110.832 86.424C111.227 87.0747 111.755 87.5973 112.416 87.992C113.077 88.376 113.808 88.568 114.608 88.568Z" fill="#4E37A2"/>
<path d="M128.192 91.216C128.075 91.0667 127.899 90.8907 127.664 90.688C127.44 90.4853 127.232 90.336 127.04 90.24C127.989 89.5787 128.699 88.752 129.168 87.76C129.637 86.768 129.872 85.5147 129.872 84V77.184H138.56V89.536C138.56 90.5707 137.952 91.088 136.736 91.088H135.44C135.419 90.8747 135.371 90.608 135.296 90.288C135.232 89.9787 135.163 89.7387 135.088 89.568H136.4C136.635 89.568 136.8 89.5307 136.896 89.456C136.992 89.3707 137.04 89.216 137.04 88.992V85.728H131.264C131.115 86.976 130.784 88.0373 130.272 88.912C129.771 89.7867 129.077 90.5547 128.192 91.216ZM131.36 84.368H137.04V82.144H131.376V83.984C131.376 84.048 131.371 84.112 131.36 84.176C131.36 84.24 131.36 84.304 131.36 84.368ZM131.376 80.768H137.04V78.576H131.376V80.768Z" fill="black"/>
<path d="M22.156 121.35C22.132 121.122 22.084 120.864 22.012 120.576C21.94 120.3 21.862 120.066 21.778 119.874H23.506C23.758 119.874 23.938 119.832 24.046 119.748C24.154 119.664 24.208 119.502 24.208 119.262V118.218H18.142V116.994H24.208V115.95H16.738V114.816H24.208V113.826H18.124V112.692H24.208V111.738H19.474V108.48H24.208V107.616H17.26V106.392H24.208V104.988H25.864V106.392H32.812V107.616H25.864V108.48H30.562V111.738H25.864V112.692H31.372V114.816H33.298V115.95H31.372V118.218H25.864V119.658C25.864 120.246 25.702 120.672 25.378 120.936C25.054 121.212 24.556 121.35 23.884 121.35H22.156ZM25.864 116.994H29.77V115.95H25.864V116.994ZM25.864 114.816H29.77V113.826H25.864V114.816ZM21.004 110.622H24.208V109.596H21.004V110.622ZM25.864 110.622H29.032V109.596H25.864V110.622ZM36.484 121.35C36.46 121.146 36.412 120.882 36.34 120.558C36.28 120.246 36.214 120.006 36.142 119.838H37.402C37.642 119.838 37.816 119.802 37.924 119.73C38.032 119.646 38.086 119.49 38.086 119.262V115.068C37.702 115.668 37.288 116.244 36.844 116.796C36.412 117.348 35.986 117.834 35.566 118.254C35.446 118.098 35.26 117.918 35.008 117.714C34.768 117.498 34.564 117.348 34.396 117.264C34.852 116.856 35.314 116.358 35.782 115.77C36.25 115.182 36.682 114.57 37.078 113.934C37.486 113.298 37.804 112.716 38.032 112.188H34.828V110.838H39.238C38.95 110.598 38.626 110.352 38.266 110.1C37.906 109.836 37.546 109.59 37.186 109.362C36.838 109.134 36.526 108.942 36.25 108.786L37.114 107.706C37.33 107.826 37.57 107.97 37.834 108.138C38.098 108.294 38.362 108.462 38.626 108.642C38.866 108.378 39.136 108.078 39.436 107.742C39.736 107.394 39.97 107.124 40.138 106.932H35.368V105.618H41.866L42.514 106.14C42.322 106.416 42.058 106.752 41.722 107.148C41.386 107.544 41.038 107.946 40.678 108.354C40.318 108.75 40 109.098 39.724 109.398C39.892 109.518 40.054 109.644 40.21 109.776C40.378 109.896 40.522 110.01 40.642 110.118C40.594 110.178 40.51 110.28 40.39 110.424C40.282 110.556 40.174 110.694 40.066 110.838H42.136L42.748 111.306C42.688 111.474 42.604 111.69 42.496 111.954C42.388 112.218 42.268 112.506 42.136 112.818C42.82 112.614 43.45 112.368 44.026 112.08C44.602 111.78 45.118 111.438 45.574 111.054C45.262 110.73 44.968 110.388 44.692 110.028C44.428 109.656 44.182 109.26 43.954 108.84C43.726 109.14 43.492 109.422 43.252 109.686C43.012 109.95 42.772 110.184 42.532 110.388C42.376 110.244 42.19 110.088 41.974 109.92C41.758 109.74 41.566 109.614 41.398 109.542C41.71 109.29 42.028 108.972 42.352 108.588C42.676 108.204 42.988 107.79 43.288 107.346C43.588 106.902 43.846 106.464 44.062 106.032C44.29 105.6 44.464 105.204 44.584 104.844L46.024 105.24C45.844 105.708 45.616 106.2 45.34 106.716H50.92V108.03H49.408C49.192 108.582 48.946 109.104 48.67 109.596C48.394 110.076 48.082 110.526 47.734 110.946C48.286 111.318 48.874 111.642 49.498 111.918C50.122 112.194 50.77 112.428 51.442 112.62C51.358 112.704 51.262 112.836 51.154 113.016C51.058 113.184 50.968 113.358 50.884 113.538C50.8 113.718 50.74 113.868 50.704 113.988C49.96 113.784 49.246 113.52 48.562 113.196C47.89 112.872 47.26 112.488 46.672 112.044C46.228 112.428 45.712 112.788 45.124 113.124L46.69 113.214C46.678 113.502 46.66 113.778 46.636 114.042C46.612 114.306 46.582 114.57 46.546 114.834H50.362C50.35 115.614 50.302 116.424 50.218 117.264C50.146 118.092 50.05 118.788 49.93 119.352C49.774 120.144 49.492 120.672 49.084 120.936C48.688 121.2 48.124 121.332 47.392 121.332H46.258C46.234 121.128 46.186 120.858 46.114 120.522C46.042 120.186 45.97 119.94 45.898 119.784H47.122C47.578 119.784 47.884 119.718 48.04 119.586C48.208 119.454 48.34 119.178 48.436 118.758C48.508 118.422 48.568 118.032 48.616 117.588C48.664 117.132 48.694 116.688 48.706 116.256H46.294C46.102 117.06 45.82 117.786 45.448 118.434C45.076 119.082 44.572 119.646 43.936 120.126C43.312 120.606 42.514 121.014 41.542 121.35C41.494 121.242 41.416 121.098 41.308 120.918C41.2 120.738 41.086 120.558 40.966 120.378C40.858 120.21 40.756 120.084 40.66 120C41.836 119.688 42.742 119.22 43.378 118.596C44.014 117.96 44.464 117.18 44.728 116.256H41.866V114.834H44.998C45.07 114.294 45.106 113.724 45.106 113.124C44.746 113.328 44.362 113.52 43.954 113.7C43.546 113.868 43.114 114.036 42.658 114.204C42.598 114.048 42.508 113.856 42.388 113.628C42.28 113.4 42.172 113.196 42.064 113.016C41.86 113.484 41.644 113.952 41.416 114.42C41.2 114.876 41.02 115.23 40.876 115.482C40.744 115.398 40.54 115.296 40.264 115.176C39.988 115.056 39.766 114.978 39.598 114.942V119.766C39.598 120.822 38.986 121.35 37.762 121.35H36.484ZM46.6 110.028C46.84 109.728 47.056 109.416 47.248 109.092C47.44 108.756 47.608 108.402 47.752 108.03H45.07C45.274 108.402 45.502 108.756 45.754 109.092C46.018 109.428 46.3 109.74 46.6 110.028ZM39.598 114.924C39.742 114.684 39.904 114.384 40.084 114.024C40.276 113.652 40.45 113.292 40.606 112.944C40.774 112.596 40.888 112.344 40.948 112.188H39.598V114.924ZM65.356 121.314V112.116H63.286C63.25 113.508 63.04 114.756 62.656 115.86C62.284 116.952 61.78 117.912 61.144 118.74C60.52 119.556 59.806 120.258 59.002 120.846C58.93 120.762 58.81 120.642 58.642 120.486C58.486 120.33 58.318 120.18 58.138 120.036C57.97 119.892 57.826 119.79 57.706 119.73C58.486 119.214 59.17 118.596 59.758 117.876C60.346 117.156 60.802 116.286 61.126 115.266C61.462 114.246 61.63 113.04 61.63 111.648V106.248C62.326 106.212 63.07 106.134 63.862 106.014C64.666 105.882 65.44 105.72 66.184 105.528C66.928 105.336 67.564 105.132 68.092 104.916L68.956 106.284C68.452 106.488 67.864 106.68 67.192 106.86C66.532 107.04 65.86 107.196 65.176 107.328C64.492 107.448 63.862 107.538 63.286 107.598V110.568H69.154V112.116H66.976V121.314H65.356ZM53.674 121.386C53.566 121.314 53.416 121.23 53.224 121.134C53.044 121.038 52.858 120.942 52.666 120.846C52.486 120.762 52.33 120.702 52.198 120.666C52.834 119.886 53.296 118.914 53.584 117.75C53.884 116.586 54.034 115.332 54.034 113.988V109.002H60.172V114.744H55.618C55.57 116.172 55.378 117.426 55.042 118.506C54.718 119.574 54.262 120.534 53.674 121.386ZM53.206 107.436V105.996H60.64V107.436H53.206ZM55.636 113.286H58.606V110.478H55.636V113.286ZM73.492 121.35V114.42C73.192 115.056 72.88 115.662 72.556 116.238C72.232 116.814 71.932 117.288 71.656 117.66C71.596 117.576 71.482 117.474 71.314 117.354C71.146 117.234 70.972 117.12 70.792 117.012C70.624 116.904 70.498 116.832 70.414 116.796C70.69 116.484 70.978 116.088 71.278 115.608C71.59 115.128 71.89 114.612 72.178 114.06C72.466 113.496 72.724 112.932 72.952 112.368C73.18 111.804 73.348 111.288 73.456 110.82H70.792V109.398H73.492V107.49C73.108 107.574 72.73 107.652 72.358 107.724C71.986 107.784 71.626 107.838 71.278 107.886C71.266 107.79 71.23 107.652 71.17 107.472C71.11 107.292 71.044 107.112 70.972 106.932C70.9 106.74 70.84 106.602 70.792 106.518C71.38 106.458 72.028 106.356 72.736 106.212C73.444 106.068 74.122 105.894 74.77 105.69C75.418 105.486 75.946 105.27 76.354 105.042L77.254 106.266C76.954 106.422 76.612 106.566 76.228 106.698C75.856 106.83 75.46 106.962 75.04 107.094V109.398H76.894C76.882 109.386 76.87 109.38 76.858 109.38C76.846 109.368 76.834 109.356 76.822 109.344C77.254 109.116 77.692 108.822 78.136 108.462C78.592 108.09 79.03 107.694 79.45 107.274C79.87 106.842 80.242 106.41 80.566 105.978C80.902 105.546 81.166 105.15 81.358 104.79L82.78 105.438C82.66 105.63 82.534 105.822 82.402 106.014C82.282 106.206 82.156 106.398 82.024 106.59H85.75L86.29 107.202C85.366 108.882 84.214 110.292 82.834 111.432C81.454 112.56 79.78 113.508 77.812 114.276C77.728 114.096 77.596 113.868 77.416 113.592C77.236 113.316 77.08 113.1 76.948 112.944C77.632 112.74 78.316 112.47 79 112.134C79.684 111.786 80.332 111.402 80.944 110.982C80.716 110.706 80.464 110.43 80.188 110.154C79.912 109.878 79.654 109.626 79.414 109.398C79.186 109.59 78.946 109.776 78.694 109.956C78.454 110.136 78.202 110.31 77.938 110.478C77.854 110.37 77.728 110.226 77.56 110.046C77.392 109.854 77.23 109.686 77.074 109.542V110.82H75.04V111.936C75.244 112.2 75.502 112.5 75.814 112.836C76.126 113.172 76.444 113.49 76.768 113.79C77.092 114.09 77.374 114.324 77.614 114.492C77.542 114.552 77.434 114.654 77.29 114.798C77.158 114.93 77.026 115.074 76.894 115.23C76.774 115.374 76.69 115.488 76.642 115.572C76.414 115.368 76.156 115.122 75.868 114.834C75.592 114.534 75.316 114.216 75.04 113.88V121.35H73.492ZM77.362 121.422C77.338 121.314 77.284 121.17 77.2 120.99C77.116 120.81 77.026 120.63 76.93 120.45C76.834 120.27 76.75 120.126 76.678 120.018C77.566 119.85 78.424 119.616 79.252 119.316C80.092 119.016 80.872 118.65 81.592 118.218C81.364 117.918 81.106 117.6 80.818 117.264C80.542 116.916 80.284 116.628 80.044 116.4C79.324 116.844 78.592 117.234 77.848 117.57C77.752 117.402 77.596 117.18 77.38 116.904C77.164 116.628 76.984 116.43 76.84 116.31C77.644 116.01 78.442 115.608 79.234 115.104C80.026 114.6 80.746 114.048 81.394 113.448C82.042 112.836 82.546 112.23 82.906 111.63L84.346 112.386C84.214 112.59 84.07 112.794 83.914 112.998C83.758 113.19 83.596 113.388 83.428 113.592H86.83L87.334 114.294C86.35 116.214 85.024 117.75 83.356 118.902C81.7 120.054 79.702 120.894 77.362 121.422ZM82.888 117.336C83.332 116.976 83.734 116.592 84.094 116.184C84.454 115.776 84.76 115.35 85.012 114.906H82.078C81.958 115.014 81.826 115.122 81.682 115.23C81.55 115.338 81.418 115.446 81.286 115.554C81.55 115.806 81.826 116.1 82.114 116.436C82.414 116.76 82.672 117.06 82.888 117.336ZM82.114 110.064C82.51 109.728 82.876 109.38 83.212 109.02C83.548 108.66 83.83 108.294 84.058 107.922H80.944C80.86 108.006 80.782 108.09 80.71 108.174C80.638 108.246 80.56 108.324 80.476 108.408C80.752 108.648 81.034 108.918 81.322 109.218C81.622 109.518 81.886 109.8 82.114 110.064ZM92.284 121.296V118.2H88.81V116.778H92.284V115.482H89.476V109.29H92.284V108.048H88.9V106.698H92.284V104.916H93.652V106.698H96.856V108.048H93.652V109.29H96.46V115.482H93.652V116.778H96.928V118.2H93.652V121.296H92.284ZM103.948 121.062C103.852 120.81 103.738 120.528 103.606 120.216C103.486 119.916 103.36 119.604 103.228 119.28C102.784 119.364 102.262 119.466 101.662 119.586C101.074 119.694 100.462 119.808 99.826 119.928C99.19 120.036 98.59 120.132 98.026 120.216C97.474 120.312 97.012 120.384 96.64 120.432L96.298 118.884C96.526 118.872 96.796 118.854 97.108 118.83C97.432 118.794 97.78 118.752 98.152 118.704C98.32 118.2 98.5 117.606 98.692 116.922C98.884 116.238 99.064 115.542 99.232 114.834C99.4 114.126 99.538 113.496 99.646 112.944H97.072V111.486H105.1V112.944H101.284C101.164 113.508 101.02 114.12 100.852 114.78C100.684 115.44 100.51 116.094 100.33 116.742C100.15 117.39 99.976 117.978 99.808 118.506C100.312 118.434 100.816 118.362 101.32 118.29C101.824 118.206 102.28 118.128 102.688 118.056C102.508 117.672 102.322 117.294 102.13 116.922C101.95 116.55 101.764 116.196 101.572 115.86L102.904 115.302C103.18 115.746 103.468 116.274 103.768 116.886C104.08 117.486 104.38 118.104 104.668 118.74C104.956 119.364 105.196 119.934 105.388 120.45C105.196 120.51 104.95 120.6 104.65 120.72C104.362 120.852 104.128 120.966 103.948 121.062ZM97.612 108.066V106.608H104.434V108.066H97.612ZM90.88 114.276H92.284V112.926H90.88V114.276ZM93.652 114.276H95.056V112.926H93.652V114.276ZM90.88 111.846H92.284V110.514H90.88V111.846ZM93.652 111.846H95.056V110.514H93.652V111.846ZM112.755 121.35C112.695 121.218 112.599 121.05 112.467 120.846C112.347 120.642 112.215 120.444 112.071 120.252C111.927 120.06 111.807 119.922 111.711 119.838C112.707 119.49 113.631 119.022 114.483 118.434C115.347 117.846 116.103 117.174 116.751 116.418C117.411 115.662 117.939 114.852 118.335 113.988C118.743 113.112 119.001 112.218 119.109 111.306H112.161V109.704H119.163V105.024H120.891V109.704H127.911V111.306H120.945C121.053 112.194 121.317 113.07 121.737 113.934C122.157 114.798 122.697 115.608 123.357 116.364C124.017 117.12 124.767 117.798 125.607 118.398C126.459 118.986 127.371 119.454 128.343 119.802C128.247 119.91 128.121 120.06 127.965 120.252C127.821 120.456 127.683 120.654 127.551 120.846C127.419 121.05 127.323 121.218 127.263 121.35C126.219 120.858 125.217 120.252 124.257 119.532C123.309 118.8 122.463 117.966 121.719 117.03C120.987 116.094 120.423 115.074 120.027 113.97C119.631 115.098 119.061 116.13 118.317 117.066C117.573 118.002 116.721 118.83 115.761 119.55C114.801 120.27 113.799 120.87 112.755 121.35ZM131.637 121.242C131.601 121.134 131.529 120.99 131.421 120.81C131.325 120.63 131.217 120.444 131.097 120.252C130.977 120.072 130.863 119.934 130.755 119.838C132.399 119.334 133.659 118.536 134.535 117.444C135.411 116.352 135.909 115.08 136.029 113.628H133.059V112.008H142.977C142.977 112.56 142.959 113.166 142.923 113.826C142.899 114.474 142.851 115.122 142.779 115.77C142.719 116.418 142.641 117.03 142.545 117.606C142.461 118.17 142.365 118.65 142.257 119.046C142.029 119.838 141.675 120.378 141.195 120.666C140.727 120.966 140.079 121.116 139.251 121.116H137.775C137.763 120.876 137.715 120.582 137.631 120.234C137.559 119.886 137.481 119.616 137.397 119.424H139.035C139.527 119.424 139.887 119.352 140.115 119.208C140.343 119.052 140.523 118.752 140.655 118.308C140.775 117.948 140.871 117.486 140.943 116.922C141.027 116.346 141.093 115.758 141.141 115.158C141.189 114.558 141.213 114.048 141.213 113.628H137.703C137.619 114.768 137.343 115.836 136.875 116.832C136.419 117.828 135.759 118.704 134.895 119.46C134.031 120.216 132.945 120.81 131.637 121.242ZM145.605 113.646C144.729 113.178 143.883 112.62 143.067 111.972C142.263 111.312 141.561 110.568 140.961 109.74C140.373 108.912 139.953 108.012 139.701 107.04H136.479V105.474H141.051C141.207 106.47 141.549 107.382 142.077 108.21C142.617 109.026 143.289 109.764 144.093 110.424C144.909 111.072 145.815 111.636 146.811 112.116C146.691 112.212 146.547 112.362 146.379 112.566C146.223 112.758 146.073 112.956 145.929 113.16C145.785 113.352 145.677 113.514 145.605 113.646ZM130.485 113.862C130.425 113.754 130.323 113.616 130.179 113.448C130.035 113.28 129.885 113.112 129.729 112.944C129.573 112.776 129.429 112.644 129.297 112.548C130.005 112.176 130.707 111.684 131.403 111.072C132.111 110.46 132.759 109.782 133.347 109.038C133.935 108.294 134.391 107.544 134.715 106.788L136.299 107.544C135.903 108.408 135.393 109.236 134.769 110.028C134.145 110.808 133.461 111.528 132.717 112.188C131.973 112.836 131.229 113.394 130.485 113.862ZM155.181 121.332V112.53H151.599V119.73H149.907V110.946H155.181V109.002H147.891V107.454H155.181V104.988H156.873V107.454H164.199V109.002H156.873V110.946H162.309V117.894C162.309 118.494 162.141 118.932 161.805 119.208C161.481 119.484 160.983 119.622 160.311 119.622H158.745C158.721 119.382 158.673 119.094 158.601 118.758C158.529 118.41 158.451 118.14 158.367 117.948H159.915C160.167 117.948 160.347 117.906 160.455 117.822C160.563 117.726 160.617 117.558 160.617 117.318V112.53H156.873V121.332H155.181ZM166.827 121.08V107.814H171.255C171.411 107.526 171.573 107.196 171.741 106.824C171.921 106.452 172.083 106.086 172.227 105.726C172.371 105.366 172.485 105.06 172.569 104.808L174.459 105.078C174.339 105.426 174.153 105.864 173.901 106.392C173.661 106.92 173.433 107.394 173.217 107.814H181.299V119.37C181.299 119.958 181.137 120.39 180.813 120.666C180.489 120.942 179.991 121.08 179.319 121.08H177.339C177.315 120.852 177.261 120.564 177.177 120.216C177.105 119.88 177.033 119.616 176.961 119.424H178.941C179.193 119.424 179.373 119.382 179.481 119.298C179.589 119.202 179.643 119.034 179.643 118.794V109.344H168.465V121.08H166.827ZM170.823 117.426V111.522H177.159V117.426H170.823ZM172.389 115.95H175.575V113.016H172.389V115.95ZM191.307 121.314C191.283 121.098 191.235 120.834 191.163 120.522C191.091 120.21 191.013 119.964 190.929 119.784H192.135C192.375 119.784 192.549 119.742 192.657 119.658C192.765 119.562 192.819 119.4 192.819 119.172V115.392H188.769V108.768H192.063C192.159 108.492 192.255 108.192 192.351 107.868C192.447 107.532 192.525 107.25 192.585 107.022H187.059V111.288C187.059 112.752 186.993 114.024 186.861 115.104C186.729 116.184 186.519 117.156 186.231 118.02C185.943 118.872 185.565 119.694 185.097 120.486C184.941 120.378 184.707 120.252 184.395 120.108C184.095 119.976 183.843 119.886 183.639 119.838C183.963 119.262 184.239 118.692 184.467 118.128C184.707 117.564 184.893 116.958 185.025 116.31C185.169 115.662 185.271 114.93 185.331 114.114C185.403 113.298 185.439 112.362 185.439 111.306V105.618H199.839V107.022H194.403C194.319 107.286 194.229 107.58 194.133 107.904C194.049 108.216 193.965 108.504 193.881 108.768H198.417V115.392H194.439V119.658C194.439 120.234 194.277 120.654 193.953 120.918C193.641 121.182 193.161 121.314 192.513 121.314H191.307ZM190.389 114.078H196.779V112.62H190.389V114.078ZM190.389 111.468H196.779V110.082H190.389V111.468ZM188.355 120.342C188.223 120.174 188.031 119.976 187.779 119.748C187.527 119.52 187.317 119.37 187.149 119.298C187.497 119.058 187.863 118.752 188.247 118.38C188.631 118.008 188.991 117.612 189.327 117.192C189.675 116.772 189.945 116.382 190.137 116.022L191.451 116.832C191.211 117.24 190.917 117.666 190.569 118.11C190.233 118.542 189.873 118.956 189.489 119.352C189.105 119.736 188.727 120.066 188.355 120.342ZM198.849 120.342C198.477 120.066 198.093 119.73 197.697 119.334C197.313 118.938 196.947 118.524 196.599 118.092C196.251 117.66 195.957 117.252 195.717 116.868L197.031 116.058C197.235 116.418 197.505 116.808 197.841 117.228C198.189 117.636 198.555 118.026 198.939 118.398C199.335 118.758 199.707 119.058 200.055 119.298C199.899 119.37 199.689 119.52 199.425 119.748C199.173 119.976 198.981 120.174 198.849 120.342ZM202.917 120.594V110.316H207.363V107.58H201.909V106.14H218.163V107.58H212.295V110.316H217.191V120.594H202.917ZM204.519 119.1H215.607V115.356C215.415 115.872 215.151 116.22 214.815 116.4C214.491 116.568 214.065 116.652 213.537 116.652H212.313C211.761 116.652 211.359 116.556 211.107 116.364C210.855 116.172 210.729 115.848 210.729 115.392V111.81H208.911C208.863 112.746 208.719 113.55 208.479 114.222C208.239 114.894 207.885 115.494 207.417 116.022C206.949 116.538 206.343 117.03 205.599 117.498C205.491 117.354 205.323 117.168 205.095 116.94C204.867 116.712 204.675 116.538 204.519 116.418V119.1ZM204.519 116.328C205.155 115.944 205.671 115.554 206.067 115.158C206.463 114.762 206.763 114.3 206.967 113.772C207.171 113.232 207.297 112.578 207.345 111.81H204.519V116.328ZM212.853 115.104H213.375C213.639 115.104 213.837 115.062 213.969 114.978C214.113 114.882 214.215 114.708 214.275 114.456C214.347 114.192 214.407 113.814 214.455 113.322C214.611 113.394 214.791 113.472 214.995 113.556C215.211 113.628 215.415 113.694 215.607 113.754V111.81H212.295V114.6C212.295 114.756 212.331 114.882 212.403 114.978C212.475 115.062 212.625 115.104 212.853 115.104ZM208.929 110.316H210.729V107.58H208.929V110.316ZM219.621 120V119.496C219.621 118.608 219.873 117.756 220.377 116.94C220.893 116.124 221.637 115.254 222.609 114.33C223.017 113.934 223.395 113.544 223.743 113.16C224.103 112.764 224.397 112.374 224.625 111.99C224.853 111.606 224.973 111.234 224.985 110.874C225.009 110.166 224.847 109.638 224.499 109.29C224.151 108.942 223.659 108.768 223.023 108.768C222.471 108.768 222.033 108.972 221.709 109.38C221.385 109.776 221.223 110.346 221.223 111.09H219.693C219.693 109.914 219.999 108.99 220.611 108.318C221.235 107.634 222.039 107.292 223.023 107.292C223.719 107.292 224.331 107.436 224.859 107.724C225.399 108 225.813 108.408 226.101 108.948C226.401 109.488 226.539 110.142 226.515 110.91C226.503 111.474 226.365 112.002 226.101 112.494C225.837 112.974 225.495 113.442 225.075 113.898C224.655 114.354 224.187 114.834 223.671 115.338C223.095 115.926 222.567 116.496 222.087 117.048C221.619 117.588 221.343 118.098 221.259 118.578H226.335V120H219.621ZM233.072 121.044C233.048 120.804 232.994 120.498 232.91 120.126C232.838 119.754 232.754 119.466 232.658 119.262H234.818C235.082 119.262 235.268 119.22 235.376 119.136C235.496 119.04 235.556 118.866 235.556 118.614V107.994H228.122V106.392H244.088V107.994H237.32V119.244C237.32 119.868 237.152 120.324 236.816 120.612C236.48 120.9 235.952 121.044 235.232 121.044H233.072ZM248.642 120.576V105.852H259.55V120.576H248.642ZM250.352 119.046H257.894V116.094H250.352V119.046ZM250.352 114.546H257.894V111.72H250.352V114.546ZM250.352 110.19H257.894V107.382H250.352V110.19ZM267.776 120.198C267.248 120.198 266.75 120.102 266.282 119.91C265.814 119.718 265.4 119.388 265.04 118.92C264.692 118.452 264.422 117.816 264.23 117.012C264.05 116.196 263.972 115.17 263.996 113.934C264.044 111.606 264.422 109.902 265.13 108.822C265.838 107.73 266.846 107.184 268.154 107.184C268.79 107.184 269.372 107.346 269.9 107.67C270.44 107.982 270.878 108.384 271.214 108.876L270.062 109.776C269.834 109.428 269.564 109.152 269.252 108.948C268.952 108.744 268.592 108.642 268.172 108.642C267.512 108.642 266.984 108.864 266.588 109.308C266.204 109.74 265.928 110.352 265.76 111.144C265.592 111.924 265.502 112.83 265.49 113.862C265.718 113.466 266.036 113.16 266.444 112.944C266.864 112.716 267.314 112.602 267.794 112.602C268.442 112.602 269.024 112.752 269.54 113.052C270.056 113.352 270.464 113.778 270.764 114.33C271.064 114.87 271.214 115.524 271.214 116.292C271.214 117.048 271.07 117.72 270.782 118.308C270.494 118.896 270.092 119.358 269.576 119.694C269.06 120.03 268.46 120.198 267.776 120.198ZM267.686 118.722C268.322 118.722 268.808 118.488 269.144 118.02C269.48 117.552 269.648 116.976 269.648 116.292C269.648 115.608 269.474 115.062 269.126 114.654C268.778 114.234 268.322 114.024 267.758 114.024C267.134 114.024 266.624 114.252 266.228 114.708C265.832 115.152 265.664 115.722 265.724 116.418C265.784 117.162 265.982 117.732 266.318 118.128C266.654 118.524 267.11 118.722 267.686 118.722ZM275.788 121.314V114.762C275.344 115.026 274.894 115.272 274.438 115.5C273.994 115.728 273.556 115.938 273.124 116.13C273.04 115.962 272.902 115.746 272.71 115.482C272.53 115.206 272.356 114.996 272.188 114.852C272.896 114.6 273.622 114.276 274.366 113.88C275.11 113.484 275.836 113.034 276.544 112.53C277.252 112.026 277.9 111.504 278.488 110.964H273.088V109.686H277.03C276.874 109.374 276.694 109.038 276.49 108.678C276.286 108.306 276.082 107.988 275.878 107.724L277.3 107.094C276.82 107.118 276.346 107.136 275.878 107.148C275.422 107.16 274.984 107.172 274.564 107.184C274.54 107.028 274.492 106.806 274.42 106.518C274.36 106.23 274.3 106.014 274.24 105.87C275.344 105.87 276.472 105.846 277.624 105.798C278.776 105.75 279.886 105.678 280.954 105.582C282.034 105.486 283.012 105.366 283.888 105.222C284.776 105.078 285.508 104.916 286.084 104.736L287.002 105.96C286.342 106.14 285.562 106.302 284.662 106.446C283.762 106.578 282.808 106.692 281.8 106.788V109.686H282.97C283.138 109.422 283.318 109.116 283.51 108.768C283.714 108.408 283.906 108.054 284.086 107.706C284.266 107.358 284.404 107.064 284.5 106.824L286.084 107.292C285.928 107.592 285.718 107.97 285.454 108.426C285.19 108.882 284.932 109.302 284.68 109.686H288.946V110.964H283.492C284.068 111.48 284.71 111.984 285.418 112.476C286.138 112.968 286.876 113.412 287.632 113.808C288.4 114.192 289.132 114.504 289.828 114.744C289.672 114.888 289.486 115.104 289.27 115.392C289.066 115.68 288.922 115.908 288.838 116.076C288.418 115.896 287.986 115.698 287.542 115.482C287.098 115.254 286.66 115.008 286.228 114.744V121.314H275.788ZM276.256 114.474H285.778C285.022 114.006 284.302 113.496 283.618 112.944C282.934 112.38 282.328 111.774 281.8 111.126V114.06H280.198V111.198C279.694 111.81 279.1 112.392 278.416 112.944C277.732 113.496 277.012 114.006 276.256 114.474ZM277.786 109.686H280.198V106.932C279.262 107.004 278.302 107.058 277.318 107.094C277.546 107.394 277.768 107.748 277.984 108.156C278.212 108.552 278.416 108.942 278.596 109.326L277.786 109.686ZM277.39 120.054H280.234V118.416H277.39V120.054ZM281.818 120.054H284.644V118.416H281.818V120.054ZM277.39 117.336H280.234V115.716H277.39V117.336ZM281.818 117.336H284.644V115.716H281.818V117.336ZM294.598 120.198C293.878 120.198 293.236 120.042 292.672 119.73C292.12 119.406 291.688 118.956 291.376 118.38C291.064 117.804 290.908 117.144 290.908 116.4C290.908 115.704 291.082 115.092 291.43 114.564C291.79 114.024 292.228 113.622 292.744 113.358C292.3 113.082 291.934 112.722 291.646 112.278C291.37 111.822 291.232 111.282 291.232 110.658C291.232 109.974 291.376 109.374 291.664 108.858C291.952 108.33 292.348 107.922 292.852 107.634C293.356 107.346 293.938 107.202 294.598 107.202C295.258 107.202 295.84 107.346 296.344 107.634C296.848 107.922 297.244 108.33 297.532 108.858C297.82 109.374 297.964 109.974 297.964 110.658C297.964 111.282 297.82 111.822 297.532 112.278C297.244 112.722 296.878 113.082 296.434 113.358C296.962 113.622 297.4 114.024 297.748 114.564C298.096 115.092 298.27 115.704 298.27 116.4C298.27 117.144 298.114 117.804 297.802 118.38C297.49 118.956 297.058 119.406 296.506 119.73C295.954 120.042 295.318 120.198 294.598 120.198ZM294.598 118.722C295.258 118.722 295.78 118.524 296.164 118.128C296.548 117.732 296.74 117.15 296.74 116.382C296.74 115.638 296.548 115.056 296.164 114.636C295.78 114.216 295.258 114.006 294.598 114.006C293.938 114.006 293.41 114.216 293.014 114.636C292.63 115.056 292.438 115.638 292.438 116.382C292.438 117.15 292.63 117.732 293.014 118.128C293.41 118.524 293.938 118.722 294.598 118.722ZM294.598 112.746C295.174 112.746 295.618 112.566 295.93 112.206C296.254 111.834 296.416 111.324 296.416 110.676C296.416 110.04 296.242 109.548 295.894 109.2C295.558 108.852 295.126 108.678 294.598 108.678C294.058 108.678 293.62 108.852 293.284 109.2C292.948 109.548 292.78 110.04 292.78 110.676C292.78 111.324 292.936 111.834 293.248 112.206C293.56 112.566 294.01 112.746 294.598 112.746ZM303.054 110.604V105.42H313.296V110.604H303.054ZM307.518 121.44C307.494 121.236 307.446 120.966 307.374 120.63C307.314 120.294 307.248 120.048 307.176 119.892H309.12C309.648 119.892 310.026 119.832 310.254 119.712C310.482 119.58 310.674 119.28 310.83 118.812C310.938 118.488 311.04 118.098 311.136 117.642C311.232 117.186 311.31 116.736 311.37 116.292H303.594C303.762 115.896 303.936 115.428 304.116 114.888C304.308 114.336 304.476 113.814 304.62 113.322H299.976V111.9H316.356V113.322H306.402C306.33 113.586 306.246 113.868 306.15 114.168C306.054 114.456 305.976 114.696 305.916 114.888H313.278C313.242 115.356 313.182 115.872 313.098 116.436C313.014 117 312.918 117.54 312.81 118.056C312.714 118.572 312.618 118.992 312.522 119.316C312.354 119.88 312.144 120.312 311.892 120.612C311.64 120.924 311.304 121.14 310.884 121.26C310.464 121.38 309.906 121.44 309.21 121.44H307.518ZM304.728 109.182H311.622V106.842H304.728V109.182Z" fill="black"/>
</svg>
