<svg width="320" height="259" viewBox="0 0 320 259" fill="none" xmlns="http://www.w3.org/2000/svg">
<mask id="path-1-inside-1_5513_2532" fill="white">
<path d="M320 251C320 255.418 316.418 259 312 259H7.99999C3.58171 259 0 255.418 0 251V8C0 3.58172 3.58172 0 8 0H195.056C198.086 0 200.856 1.71202 202.211 4.42229L237.789 75.5777C239.144 78.288 241.914 80 244.944 80H312C316.418 80 320 83.5817 320 88V251Z"/>
</mask>
<path d="M320 251C320 255.418 316.418 259 312 259H7.99999C3.58171 259 0 255.418 0 251V8C0 3.58172 3.58172 0 8 0H195.056C198.086 0 200.856 1.71202 202.211 4.42229L237.789 75.5777C239.144 78.288 241.914 80 244.944 80H312C316.418 80 320 83.5817 320 88V251Z" fill="#E8F2FF"/>
<path d="M237.789 75.5777L238.683 75.1305L237.789 75.5777ZM202.211 4.42229L201.317 4.8695L202.211 4.42229ZM312 259V258H7.99999V259V260H312V259ZM0 251H1V8H0H-1V251H0ZM8 0V1H195.056V0V-1H8V0ZM202.211 4.42229L201.317 4.8695L236.894 76.0249L237.789 75.5777L238.683 75.1305L203.106 3.97508L202.211 4.42229ZM244.944 80V81H312V80V79H244.944V80ZM320 88H319V251H320H321V88H320ZM312 80V81C315.866 81 319 84.134 319 88H320H321C321 83.0294 316.971 79 312 79V80ZM237.789 75.5777L236.894 76.0249C238.419 79.074 241.535 81 244.944 81V80V79C242.293 79 239.869 77.502 238.683 75.1305L237.789 75.5777ZM195.056 0V1C197.707 1 200.131 2.49802 201.317 4.8695L202.211 4.42229L203.106 3.97508C201.581 0.926021 198.465 -1 195.056 -1V0ZM0 8H1C1 4.134 4.13401 1 8 1V0V-1C3.02944 -1 -1 3.02943 -1 8H0ZM7.99999 259V258C4.134 258 1 254.866 1 251H0H-1C-1 255.971 3.02943 260 7.99999 260V259ZM312 259V260C316.971 260 321 255.971 321 251H320H319C319 254.866 315.866 258 312 258V259Z" fill="#D3D3D3" mask="url(#path-1-inside-1_5513_2532)"/>
<path d="M68.032 28.136C66.8 28.136 65.712 28.4 64.768 28.928C63.84 29.44 63.064 30.048 62.44 30.752C61.816 31.456 61.336 32.096 61 32.672C60.68 33.248 60.504 33.568 60.472 33.632L56.08 31.664C56.112 31.52 56.264 31.16 56.536 30.584C56.808 29.992 57.232 29.32 57.808 28.568C58.384 27.8 59.128 27.048 60.04 26.312C60.968 25.576 62.088 24.968 63.4 24.488C64.728 23.992 66.272 23.744 68.032 23.744C69.936 23.744 71.552 24.008 72.88 24.536C74.208 25.064 75.288 25.792 76.12 26.72C76.952 27.632 77.56 28.68 77.944 29.864C78.328 31.048 78.52 32.296 78.52 33.608C78.52 34.952 78.208 36.312 77.584 37.688C76.976 39.064 76.184 40.4 75.208 41.696C74.232 42.976 73.184 44.176 72.064 45.296C70.944 46.416 69.856 47.416 68.8 48.296C67.76 49.176 66.864 49.896 66.112 50.456C65.376 51.016 64.912 51.368 64.72 51.512H78.256V56H56.944V51.92C57.36 51.584 58.04 51.048 58.984 50.312C59.944 49.576 61.048 48.704 62.296 47.696C63.544 46.672 64.808 45.56 66.088 44.36C67.384 43.16 68.584 41.928 69.688 40.664C70.808 39.4 71.704 38.16 72.376 36.944C73.064 35.728 73.408 34.592 73.408 33.536C73.408 31.552 72.944 30.16 72.016 29.36C71.088 28.544 69.76 28.136 68.032 28.136ZM82.9004 40.184C82.9004 37.384 83.2364 34.952 83.9084 32.888C84.5964 30.824 85.5244 29.12 86.6924 27.776C87.8604 26.416 89.1724 25.408 90.6284 24.752C92.0844 24.08 93.5884 23.744 95.1404 23.744C96.7084 23.744 98.2204 24.08 99.6764 24.752C101.148 25.408 102.46 26.416 103.612 27.776C104.764 29.12 105.676 30.824 106.348 32.888C107.02 34.952 107.356 37.384 107.356 40.184C107.356 43.08 107.02 45.56 106.348 47.624C105.676 49.688 104.764 51.384 103.612 52.712C102.46 54.024 101.148 55 99.6764 55.64C98.2204 56.264 96.7084 56.576 95.1404 56.576C93.5884 56.576 92.0844 56.264 90.6284 55.64C89.1724 55 87.8604 54.024 86.6924 52.712C85.5244 51.384 84.5964 49.688 83.9084 47.624C83.2364 45.56 82.9004 43.08 82.9004 40.184ZM88.0124 40.184C88.0124 42.84 88.3244 45.056 88.9484 46.832C89.5884 48.592 90.4444 49.904 91.5164 50.768C92.6044 51.616 93.8124 52.04 95.1404 52.04C96.5004 52.04 97.7084 51.608 98.7644 50.744C99.8364 49.88 100.684 48.568 101.308 46.808C101.932 45.048 102.244 42.84 102.244 40.184C102.244 37.576 101.932 35.392 101.308 33.632C100.684 31.872 99.8364 30.544 98.7644 29.648C97.7084 28.736 96.5004 28.28 95.1404 28.28C93.8124 28.28 92.6044 28.736 91.5164 29.648C90.4444 30.544 89.5884 31.88 88.9484 33.656C88.3244 35.416 88.0124 37.592 88.0124 40.184ZM110.979 40.184C110.979 37.384 111.315 34.952 111.987 32.888C112.675 30.824 113.603 29.12 114.771 27.776C115.939 26.416 117.251 25.408 118.707 24.752C120.163 24.08 121.667 23.744 123.219 23.744C124.787 23.744 126.299 24.08 127.755 24.752C129.227 25.408 130.539 26.416 131.691 27.776C132.843 29.12 133.755 30.824 134.427 32.888C135.099 34.952 135.435 37.384 135.435 40.184C135.435 43.08 135.099 45.56 134.427 47.624C133.755 49.688 132.843 51.384 131.691 52.712C130.539 54.024 129.227 55 127.755 55.64C126.299 56.264 124.787 56.576 123.219 56.576C121.667 56.576 120.163 56.264 118.707 55.64C117.251 55 115.939 54.024 114.771 52.712C113.603 51.384 112.675 49.688 111.987 47.624C111.315 45.56 110.979 43.08 110.979 40.184ZM116.091 40.184C116.091 42.84 116.403 45.056 117.027 46.832C117.667 48.592 118.523 49.904 119.595 50.768C120.683 51.616 121.891 52.04 123.219 52.04C124.579 52.04 125.787 51.608 126.843 50.744C127.915 49.88 128.763 48.568 129.387 46.808C130.011 45.048 130.323 42.84 130.323 40.184C130.323 37.576 130.011 35.392 129.387 33.632C128.763 31.872 127.915 30.544 126.843 29.648C125.787 28.736 124.579 28.28 123.219 28.28C121.891 28.28 120.683 28.736 119.595 29.648C118.523 30.544 117.667 31.88 117.027 33.656C116.403 35.416 116.091 37.592 116.091 40.184ZM151.753 35.216C153.497 35.216 155.129 35.656 156.649 36.536C158.185 37.4 159.433 38.624 160.393 40.208C161.353 41.792 161.833 43.632 161.833 45.728C161.833 47.824 161.321 49.688 160.297 51.32C159.273 52.952 157.897 54.24 156.169 55.184C154.457 56.112 152.569 56.576 150.505 56.576C148.393 56.576 146.481 56.12 144.769 55.208C143.073 54.296 141.721 53 140.713 51.32C139.705 49.64 139.201 47.664 139.201 45.392C139.201 42.976 139.609 40.936 140.425 39.272C141.241 37.592 142.193 36.08 143.281 34.736L151.681 24.32H157.657L147.433 36.584C147.737 36.264 148.257 35.96 148.993 35.672C149.729 35.368 150.649 35.216 151.753 35.216ZM150.553 52.352C151.737 52.352 152.817 52.064 153.793 51.488C154.785 50.896 155.569 50.112 156.145 49.136C156.737 48.144 157.033 47.048 157.033 45.848C157.033 44.648 156.737 43.56 156.145 42.584C155.569 41.592 154.785 40.808 153.793 40.232C152.817 39.656 151.737 39.368 150.553 39.368C149.353 39.368 148.257 39.656 147.265 40.232C146.273 40.808 145.481 41.592 144.889 42.584C144.313 43.56 144.025 44.648 144.025 45.848C144.025 47.048 144.313 48.144 144.889 49.136C145.481 50.112 146.273 50.896 147.265 51.488C148.257 52.064 149.353 52.352 150.553 52.352Z" fill="#4E37A2"/>
<path d="M43.154 128.332V122.032H35.828V120.466H43.154V114.418H36.62V112.87H51.326V114.418H44.882V120.466H52.118L52.136 122.032H44.882V128.332H43.154ZM47.636 119.836C47.528 119.764 47.372 119.674 47.168 119.566C46.976 119.446 46.784 119.338 46.592 119.242C46.4 119.146 46.256 119.08 46.16 119.044C46.412 118.72 46.694 118.318 47.006 117.838C47.33 117.346 47.636 116.848 47.924 116.344C48.212 115.84 48.434 115.408 48.59 115.048L50.156 115.768C50.024 116.044 49.85 116.368 49.634 116.74C49.418 117.112 49.184 117.496 48.932 117.892C48.692 118.288 48.458 118.66 48.23 119.008C48.002 119.344 47.804 119.62 47.636 119.836ZM40.346 119.854C40.238 119.59 40.088 119.278 39.896 118.918C39.716 118.558 39.512 118.18 39.284 117.784C39.068 117.388 38.852 117.022 38.636 116.686C38.42 116.338 38.222 116.05 38.042 115.822L39.5 115.048C39.668 115.276 39.86 115.564 40.076 115.912C40.304 116.26 40.532 116.632 40.76 117.028C40.988 117.412 41.198 117.784 41.39 118.144C41.594 118.504 41.75 118.804 41.858 119.044C41.738 119.092 41.582 119.17 41.39 119.278C41.198 119.374 41.006 119.476 40.814 119.584C40.622 119.692 40.466 119.782 40.346 119.854ZM60.506 128.062C60.422 127.894 60.278 127.672 60.074 127.396C59.882 127.12 59.714 126.916 59.57 126.784C60.422 126.388 61.208 125.914 61.928 125.362C62.66 124.798 63.32 124.18 63.908 123.508C63.524 122.656 63.182 121.672 62.882 120.556C62.594 119.428 62.372 118.132 62.216 116.668H56.942V118.72H61.172C61.172 119.668 61.142 120.604 61.082 121.528C61.034 122.44 60.944 123.214 60.812 123.85C60.656 124.654 60.374 125.206 59.966 125.506C59.57 125.806 58.982 125.956 58.202 125.956H57.158C57.134 125.74 57.086 125.464 57.014 125.128C56.942 124.792 56.87 124.534 56.798 124.354H57.95C58.442 124.354 58.76 124.282 58.904 124.138C59.048 123.982 59.162 123.7 59.246 123.292C59.33 122.92 59.39 122.452 59.426 121.888C59.474 121.324 59.498 120.76 59.498 120.196H56.906C56.858 121.492 56.744 122.614 56.564 123.562C56.396 124.498 56.156 125.32 55.844 126.028C55.544 126.724 55.166 127.36 54.71 127.936C54.614 127.864 54.458 127.774 54.242 127.666C54.038 127.558 53.84 127.456 53.648 127.36C53.456 127.264 53.324 127.204 53.252 127.18C53.732 126.58 54.116 125.896 54.404 125.128C54.692 124.348 54.902 123.424 55.034 122.356C55.166 121.288 55.232 120.004 55.232 118.504V115.12H62.072C62.048 114.628 62.024 114.118 62 113.59C61.988 113.05 61.982 112.498 61.982 111.934H63.62C63.62 113.062 63.656 114.124 63.728 115.12H67.13C66.806 114.76 66.446 114.406 66.05 114.058C65.654 113.698 65.294 113.41 64.97 113.194L65.978 112.114C66.254 112.294 66.56 112.522 66.896 112.798C67.232 113.074 67.55 113.356 67.85 113.644C68.162 113.92 68.402 114.16 68.57 114.364C68.486 114.424 68.36 114.532 68.192 114.688C68.024 114.832 67.868 114.976 67.724 115.12H69.614V116.668H63.872C63.992 117.736 64.154 118.708 64.358 119.584C64.574 120.46 64.814 121.252 65.078 121.96C65.474 121.348 65.822 120.706 66.122 120.034C66.422 119.362 66.668 118.672 66.86 117.964L68.426 118.486C67.826 120.406 66.974 122.11 65.87 123.598C66.23 124.21 66.62 124.732 67.04 125.164C67.46 125.584 67.892 125.932 68.336 126.208C68.48 125.824 68.612 125.398 68.732 124.93C68.864 124.45 68.954 124.042 69.002 123.706C69.086 123.766 69.224 123.844 69.416 123.94C69.608 124.024 69.806 124.108 70.01 124.192C70.226 124.264 70.388 124.318 70.496 124.354C70.424 124.714 70.328 125.098 70.208 125.506C70.1 125.914 69.98 126.304 69.848 126.676C69.728 127.048 69.602 127.36 69.47 127.612C69.314 127.9 69.098 128.08 68.822 128.152C68.558 128.224 68.264 128.17 67.94 127.99C67.388 127.702 66.836 127.318 66.284 126.838C65.732 126.346 65.21 125.728 64.718 124.984C63.494 126.28 62.09 127.306 60.506 128.062Z" fill="black"/>
<path d="M77.734 108.992L73.72 111.224V107.57L79.534 104.24H81.532V128H77.734V108.992ZM93.916 128.432C92.404 128.432 91.036 128.126 89.812 127.514C88.588 126.902 87.61 126.074 86.878 125.03C86.158 123.974 85.798 122.786 85.798 121.466C85.798 120.302 85.996 119.318 86.392 118.514C86.788 117.698 87.316 117.02 87.976 116.48C88.648 115.928 89.386 115.496 90.19 115.184C89.602 114.896 89.05 114.53 88.534 114.086C88.03 113.63 87.616 113.066 87.292 112.394C86.98 111.71 86.824 110.888 86.824 109.928C86.824 108.704 87.136 107.636 87.76 106.724C88.396 105.8 89.248 105.086 90.316 104.582C91.396 104.066 92.59 103.808 93.898 103.808C95.218 103.808 96.406 104.066 97.462 104.582C98.518 105.086 99.352 105.8 99.964 106.724C100.588 107.636 100.9 108.704 100.9 109.928C100.9 111.368 100.576 112.49 99.928 113.294C99.28 114.098 98.5 114.728 97.588 115.184C98.392 115.496 99.124 115.928 99.784 116.48C100.456 117.02 100.99 117.698 101.386 118.514C101.794 119.318 101.998 120.302 101.998 121.466C101.998 122.786 101.638 123.974 100.918 125.03C100.198 126.074 99.226 126.902 98.002 127.514C96.79 128.126 95.428 128.432 93.916 128.432ZM93.898 125.066C94.666 125.066 95.356 124.892 95.968 124.544C96.592 124.184 97.09 123.698 97.462 123.086C97.834 122.462 98.02 121.772 98.02 121.016C98.02 120.248 97.834 119.558 97.462 118.946C97.09 118.334 96.592 117.848 95.968 117.488C95.356 117.128 94.666 116.948 93.898 116.948C93.13 116.948 92.428 117.128 91.792 117.488C91.168 117.848 90.67 118.334 90.298 118.946C89.938 119.558 89.758 120.248 89.758 121.016C89.758 121.772 89.938 122.456 90.298 123.068C90.67 123.68 91.168 124.166 91.792 124.526C92.428 124.886 93.13 125.066 93.898 125.066ZM93.916 113.942C94.564 113.942 95.152 113.78 95.68 113.456C96.22 113.132 96.646 112.7 96.958 112.16C97.282 111.62 97.444 111.026 97.444 110.378C97.444 109.73 97.282 109.142 96.958 108.614C96.634 108.074 96.202 107.648 95.662 107.336C95.134 107.012 94.546 106.85 93.898 106.85C93.262 106.85 92.668 107.012 92.116 107.336C91.576 107.648 91.144 108.074 90.82 108.614C90.508 109.142 90.352 109.73 90.352 110.378C90.352 111.026 90.508 111.62 90.82 112.16C91.144 112.7 91.576 113.132 92.116 113.456C92.668 113.78 93.268 113.942 93.916 113.942Z" fill="#4E37A2"/>
<path d="M116.144 128.314V124.192H107.81V122.716H111.068V118.306H116.144V115.768H112.112C111.668 116.464 111.182 117.13 110.654 117.766C110.126 118.39 109.562 118.948 108.962 119.44C108.818 119.308 108.62 119.134 108.368 118.918C108.116 118.702 107.876 118.534 107.648 118.414C108.368 117.862 109.034 117.208 109.646 116.452C110.27 115.696 110.81 114.91 111.266 114.094C111.722 113.278 112.064 112.504 112.292 111.772L113.858 112.258C113.738 112.594 113.6 112.93 113.444 113.266C113.3 113.602 113.144 113.938 112.976 114.274H123.362V115.768H117.854V118.306H122.192V119.764H117.854V122.716H124.136V124.192H117.854V128.314H116.144ZM112.76 122.716H116.144V119.764H112.76V122.716Z" fill="black"/>
<path d="M131.356 128L139.024 118.802C138.796 119.042 138.406 119.276 137.854 119.504C137.302 119.72 136.612 119.828 135.784 119.828C134.488 119.828 133.258 119.504 132.094 118.856C130.942 118.196 130.006 117.272 129.286 116.084C128.578 114.896 128.224 113.516 128.224 111.944C128.224 110.372 128.608 108.974 129.376 107.75C130.144 106.526 131.17 105.566 132.454 104.87C133.738 104.162 135.16 103.808 136.72 103.808C138.304 103.808 139.732 104.15 141.004 104.834C142.288 105.518 143.308 106.49 144.064 107.75C144.82 109.01 145.198 110.492 145.198 112.196C145.198 114.008 144.892 115.544 144.28 116.804C143.668 118.052 142.954 119.18 142.138 120.188L135.838 128H131.356ZM136.684 116.714C137.584 116.714 138.4 116.498 139.132 116.066C139.876 115.634 140.47 115.046 140.914 114.302C141.358 113.558 141.58 112.742 141.58 111.854C141.58 110.954 141.358 110.138 140.914 109.406C140.47 108.662 139.876 108.074 139.132 107.642C138.4 107.198 137.584 106.976 136.684 106.976C135.796 106.976 134.98 107.198 134.236 107.642C133.504 108.074 132.916 108.662 132.472 109.406C132.04 110.138 131.824 110.954 131.824 111.854C131.824 112.742 132.04 113.558 132.472 114.302C132.916 115.046 133.504 115.634 134.236 116.066C134.98 116.498 135.796 116.714 136.684 116.714Z" fill="#4E37A2"/>
<path d="M151.466 128.368C151.334 128.2 151.136 128.002 150.872 127.774C150.62 127.546 150.386 127.378 150.17 127.27C151.238 126.526 152.036 125.596 152.564 124.48C153.092 123.364 153.356 121.954 153.356 120.25V112.582H163.13V126.478C163.13 127.642 162.446 128.224 161.078 128.224H159.62C159.596 127.984 159.542 127.684 159.458 127.324C159.386 126.976 159.308 126.706 159.224 126.514H160.7C160.964 126.514 161.15 126.472 161.258 126.388C161.366 126.292 161.42 126.118 161.42 125.866V122.194H154.922C154.754 123.598 154.382 124.792 153.806 125.776C153.242 126.76 152.462 127.624 151.466 128.368ZM155.03 120.664H161.42V118.162H155.048V120.232C155.048 120.304 155.042 120.376 155.03 120.448C155.03 120.52 155.03 120.592 155.03 120.664ZM155.048 116.614H161.42V114.148H155.048V116.614Z" fill="black"/>
<path d="M38.74 205.18V201.16C38.5133 201.813 38.2267 202.447 37.88 203.06C37.5467 203.673 37.1533 204.233 36.7 204.74C36.5133 204.593 36.26 204.413 35.94 204.2C35.6333 204 35.4 203.867 35.24 203.8C35.7733 203.187 36.22 202.56 36.58 201.92C36.9533 201.267 37.2333 200.533 37.42 199.72C37.62 198.893 37.72 197.927 37.72 196.82V193.42H45.84V199.24H39.22C39.1933 199.413 39.16 199.587 39.12 199.76C39.08 199.933 39.04 200.113 39 200.3H45.76V205.18H38.74ZM36.38 193.32C36.3267 193.213 36.2333 193.073 36.1 192.9C35.9667 192.713 35.8333 192.533 35.7 192.36C35.5667 192.187 35.4467 192.053 35.34 191.96C36.0867 191.627 36.8267 191.193 37.56 190.66C38.3067 190.127 38.98 189.553 39.58 188.94C40.1933 188.327 40.6733 187.733 41.02 187.16L42.6 187.52C42.9333 187.96 43.36 188.42 43.88 188.9C44.4 189.367 44.9667 189.807 45.58 190.22C46.2067 190.633 46.8267 190.98 47.44 191.26C47.36 191.353 47.2467 191.493 47.1 191.68C46.9667 191.867 46.8333 192.06 46.7 192.26C46.58 192.447 46.4933 192.593 46.44 192.7C46.1067 192.513 45.7667 192.307 45.42 192.08C45.0733 191.84 44.7267 191.593 44.38 191.34V192.56H39V191.6C38.1333 192.28 37.26 192.853 36.38 193.32ZM49.4 205.38C49.3733 205.14 49.32 204.833 49.24 204.46C49.16 204.1 49.08 203.82 49 203.62H50.6C50.8667 203.62 51.06 203.573 51.18 203.48C51.3 203.387 51.36 203.213 51.36 202.96V187.64H53.14V203.56C53.14 204.187 52.9667 204.647 52.62 204.94C52.2733 205.233 51.74 205.38 51.02 205.38H49.4ZM47.66 201.1V189.34H49.32V201.1H47.66ZM40.36 203.76H44.12V201.68H40.36V203.76ZM39.38 198H44.22V196.9H39.42C39.42 197.087 39.4133 197.273 39.4 197.46C39.4 197.633 39.3933 197.813 39.38 198ZM39.42 195.7H44.22V194.66H39.42V195.7ZM39.58 191.12H44.08C43.16 190.413 42.38 189.687 41.74 188.94C41.4867 189.273 41.1733 189.627 40.8 190C40.4267 190.373 40.02 190.747 39.58 191.12ZM64.14 205.58V201.24C63.54 201.8 62.8467 202.34 62.06 202.86C61.2733 203.367 60.4533 203.827 59.6 204.24C58.76 204.653 57.9333 204.993 57.12 205.26C57.08 205.153 57 205.007 56.88 204.82C56.76 204.633 56.6333 204.44 56.5 204.24C56.3667 204.053 56.2533 203.913 56.16 203.82C56.9067 203.607 57.6933 203.313 58.52 202.94C59.3467 202.553 60.1467 202.127 60.92 201.66C61.7067 201.18 62.3867 200.713 62.96 200.26H56.22V198.82H64.14V197.58H58.18V196.2H64.14V195.02H57.34V193.6H61.32C61.2 193.333 61.0733 193.06 60.94 192.78C60.8067 192.5 60.6733 192.253 60.54 192.04H56.2V190.6H59.56C59.3867 190.253 59.18 189.833 58.94 189.34C58.7 188.847 58.4667 188.453 58.24 188.16L59.8 187.42C59.96 187.673 60.1333 187.973 60.32 188.32C60.5067 188.667 60.68 189.007 60.84 189.34C61.0133 189.66 61.14 189.92 61.22 190.12L60.1 190.6H62.36V187.32H64.06V190.6H65.86V187.32H67.56V190.6H69.86L68.54 190.08C68.7133 189.853 68.9 189.58 69.1 189.26C69.3 188.94 69.4867 188.62 69.66 188.3C69.8333 187.967 69.9667 187.68 70.06 187.44L71.76 187.98C71.6267 188.233 71.46 188.527 71.26 188.86C71.06 189.18 70.86 189.5 70.66 189.82C70.46 190.127 70.28 190.387 70.12 190.6H73.78V192.04H69.42C69.3267 192.293 69.2133 192.56 69.08 192.84C68.9467 193.107 68.82 193.36 68.7 193.6H72.52V195.02H65.86V196.2H71.76V197.58H65.86V198.82H73.78V200.26H67C67.5867 200.713 68.26 201.173 69.02 201.64C69.7933 202.093 70.5933 202.513 71.42 202.9C72.2467 203.287 73.0267 203.587 73.76 203.8C73.6667 203.893 73.5533 204.033 73.42 204.22C73.3 204.42 73.1867 204.613 73.08 204.8C72.9733 205 72.8933 205.153 72.84 205.26C72.04 204.993 71.2133 204.653 70.36 204.24C69.52 203.827 68.7133 203.367 67.94 202.86C67.1667 202.34 66.4733 201.807 65.86 201.26V205.58H64.14ZM63.24 193.6H66.76C66.88 193.373 67.0067 193.12 67.14 192.84C67.2733 192.56 67.3933 192.293 67.5 192.04H62.54C62.6733 192.307 62.8 192.58 62.92 192.86C63.0533 193.14 63.16 193.387 63.24 193.6Z" fill="black"/>
</svg>
