<svg width="56" height="56" viewBox="0 0 56 56" fill="none" xmlns="http://www.w3.org/2000/svg">
<path d="M28 56V40L55.4405 53.8349C56.3932 54.3743 56.0542 56 54.989 56H28Z" fill="#E34C4F"/>
<path d="M0 28C0 12.536 12.536 0 28 0C43.464 0 56 12.536 56 28C56 43.464 43.464 56 28 56C12.536 56 0 43.464 0 28Z" fill="#E34C4F"/>
<path d="M34.242 39.062C34.926 39.062 35.526 38.984 36.042 38.828C36.57 38.672 36.99 38.504 37.302 38.324C37.626 38.156 37.806 38.042 37.842 37.982L39.282 40.592C38.97 41.024 38.388 41.468 37.536 41.924C36.696 42.38 35.598 42.608 34.242 42.608C33.39 42.608 32.658 42.512 32.046 42.32C31.446 42.128 30.882 41.906 30.354 41.654C29.838 41.402 29.292 41.18 28.716 40.988C28.14 40.796 27.45 40.7 26.646 40.7C25.902 40.7 25.242 40.826 24.666 41.078C24.102 41.33 23.652 41.582 23.316 41.834C22.98 42.086 22.794 42.236 22.758 42.284L21.048 40.268C21.804 39.524 22.698 38.912 23.73 38.432C24.774 37.964 25.986 37.73 27.366 37.73C28.326 37.73 29.166 37.838 29.886 38.054C30.618 38.282 31.326 38.504 32.01 38.72C32.694 38.948 33.438 39.062 34.242 39.062ZM19.716 26.102C19.716 27.734 20.058 29.216 20.742 30.548C21.426 31.868 22.368 32.918 23.568 33.698C24.768 34.466 26.148 34.85 27.708 34.85C29.292 34.85 30.678 34.466 31.866 33.698C33.066 32.918 34.002 31.868 34.674 30.548C35.358 29.216 35.7 27.734 35.7 26.102C35.7 24.47 35.358 22.994 34.674 21.674C34.002 20.354 33.066 19.31 31.866 18.542C30.678 17.774 29.292 17.39 27.708 17.39C26.148 17.39 24.768 17.774 23.568 18.542C22.368 19.31 21.426 20.354 20.742 21.674C20.058 22.994 19.716 24.47 19.716 26.102ZM15.774 26.102C15.774 24.374 16.074 22.766 16.674 21.278C17.286 19.778 18.126 18.47 19.194 17.354C20.274 16.238 21.54 15.368 22.992 14.744C24.444 14.12 26.016 13.808 27.708 13.808C29.424 13.808 31.002 14.12 32.442 14.744C33.894 15.368 35.16 16.238 36.24 17.354C37.32 18.47 38.154 19.778 38.742 21.278C39.33 22.766 39.624 24.374 39.624 26.102C39.624 27.842 39.33 29.462 38.742 30.962C38.166 32.45 37.344 33.758 36.276 34.886C35.208 36.002 33.948 36.872 32.496 37.496C31.044 38.12 29.448 38.432 27.708 38.432C25.956 38.432 24.348 38.12 22.884 37.496C21.432 36.872 20.172 36.002 19.104 34.886C18.048 33.758 17.226 32.45 16.638 30.962C16.062 29.462 15.774 27.842 15.774 26.102Z" fill="white"/>
</svg>
