<svg width="15" height="41" viewBox="0 0 15 41" fill="none" xmlns="http://www.w3.org/2000/svg">
<path d="M7.224 39.616C6.06667 39.616 5.05867 39.2053 4.2 38.384C3.37867 37.5627 2.968 36.5733 2.968 35.416C2.968 34.2213 3.37867 33.2133 4.2 32.392C5.05867 31.5707 6.06667 31.16 7.224 31.16C8.38133 31.16 9.37067 31.5707 10.192 32.392C11.0507 33.2133 11.48 34.2213 11.48 35.416C11.48 36.5733 11.0507 37.5627 10.192 38.384C9.37067 39.2053 8.38133 39.616 7.224 39.616ZM7.224 19.792C6.06667 19.792 5.05867 19.3813 4.2 18.56C3.37867 17.7387 2.968 16.7493 2.968 15.592C2.968 14.3973 3.37867 13.408 4.2 12.624C5.05867 11.8027 6.06667 11.392 7.224 11.392C8.38133 11.392 9.37067 11.8027 10.192 12.624C11.0507 13.408 11.48 14.3973 11.48 15.592C11.48 16.7493 11.0507 17.7387 10.192 18.56C9.37067 19.3813 8.38133 19.792 7.224 19.792Z" fill="black"/>
</svg>
