<svg width="96" height="110" viewBox="0 0 96 110" fill="none" xmlns="http://www.w3.org/2000/svg">
<circle cx="48" cy="48" r="48" fill="#4E37A2"/>
<path d="M27.808 64L38.032 51.736C37.728 52.056 37.208 52.368 36.472 52.672C35.736 52.96 34.816 53.104 33.712 53.104C31.984 53.104 30.344 52.672 28.792 51.808C27.256 50.928 26.008 49.696 25.048 48.112C24.104 46.528 23.632 44.688 23.632 42.592C23.632 40.496 24.144 38.632 25.168 37C26.192 35.368 27.56 34.088 29.272 33.16C30.984 32.216 32.88 31.744 34.96 31.744C37.072 31.744 38.976 32.2 40.672 33.112C42.384 34.024 43.744 35.32 44.752 37C45.76 38.68 46.264 40.656 46.264 42.928C46.264 45.344 45.856 47.392 45.04 49.072C44.224 50.736 43.272 52.24 42.184 53.584L33.784 64H27.808ZM34.912 48.952C36.112 48.952 37.2 48.664 38.176 48.088C39.168 47.512 39.96 46.728 40.552 45.736C41.144 44.744 41.44 43.656 41.44 42.472C41.44 41.272 41.144 40.184 40.552 39.208C39.96 38.216 39.168 37.432 38.176 36.856C37.2 36.264 36.112 35.968 34.912 35.968C33.728 35.968 32.64 36.264 31.648 36.856C30.672 37.432 29.888 38.216 29.296 39.208C28.72 40.184 28.432 41.272 28.432 42.472C28.432 43.656 28.72 44.744 29.296 45.736C29.888 46.728 30.672 47.512 31.648 48.088C32.64 48.664 33.728 48.952 34.912 48.952Z" fill="white"/>
<path d="M66.36 63.848C66.328 63.448 66.248 62.968 66.12 62.408C66.008 61.848 65.88 61.4 65.736 61.064H67.416C67.752 61.064 67.992 61.008 68.136 60.896C68.28 60.784 68.352 60.568 68.352 60.248V56.192H63.384C63.752 56.448 64.144 56.744 64.56 57.08C64.976 57.416 65.368 57.752 65.736 58.088C66.12 58.408 66.424 58.704 66.648 58.976C66.472 59.12 66.248 59.336 65.976 59.624C65.72 59.896 65.472 60.176 65.232 60.464C65.008 60.736 64.848 60.944 64.752 61.088C64.512 60.736 64.184 60.352 63.768 59.936C63.352 59.504 62.92 59.104 62.472 58.736C62.04 58.352 61.664 58.056 61.344 57.848L62.832 56.192H60.768V53.672H68.352V51.704H60.408V49.16H65.376V47.168H60.984V44.648H65.376V41.888H68.376V44.648H73.056V47.168H68.376V49.16H73.968V51.704H71.28V53.672H73.704V56.192H71.28V61.28C71.28 62.992 70.256 63.848 68.208 63.848H66.36ZM52.656 59.576V43.736H59.832V59.576H52.656ZM55.296 57.032H57.192V52.88H55.296V57.032ZM55.296 50.36H57.192V46.256H55.296V50.36Z" fill="white"/>
<path d="M38 94H58L49.696 108.943C48.9127 110.352 47.0873 110.352 46.304 108.943L38 94Z" fill="#4E37A2"/>
</svg>
