<svg width="82" height="72" viewBox="0 0 82 72" fill="none" xmlns="http://www.w3.org/2000/svg">
<circle cx="36" cy="36" r="36" fill="#4E37A2"/>
<path d="M20.872 47L27.688 38.824C27.4853 39.0373 27.1387 39.2453 26.648 39.448C26.1573 39.64 25.544 39.736 24.808 39.736C23.656 39.736 22.5627 39.448 21.528 38.872C20.504 38.2853 19.672 37.464 19.032 36.408C18.4027 35.352 18.088 34.1253 18.088 32.728C18.088 31.3307 18.4293 30.088 19.112 29C19.7947 27.912 20.7067 27.0587 21.848 26.44C22.9893 25.8107 24.2533 25.496 25.64 25.496C27.048 25.496 28.3173 25.8 29.448 26.408C30.5893 27.016 31.496 27.88 32.168 29C32.84 30.12 33.176 31.4373 33.176 32.952C33.176 34.5627 32.904 35.928 32.36 37.048C31.816 38.1573 31.1813 39.16 30.456 40.056L24.856 47H20.872ZM25.608 36.968C26.408 36.968 27.1333 36.776 27.784 36.392C28.4453 36.008 28.9733 35.4853 29.368 34.824C29.7627 34.1627 29.96 33.4373 29.96 32.648C29.96 31.848 29.7627 31.1227 29.368 30.472C28.9733 29.8107 28.4453 29.288 27.784 28.904C27.1333 28.5093 26.408 28.312 25.608 28.312C24.8187 28.312 24.0933 28.5093 23.432 28.904C22.7813 29.288 22.2587 29.8107 21.864 30.472C21.48 31.1227 21.288 31.848 21.288 32.648C21.288 33.4373 21.48 34.1627 21.864 34.824C22.2587 35.4853 22.7813 36.008 23.432 36.392C24.0933 36.776 24.8187 36.968 25.608 36.968Z" fill="white"/>
<path d="M47.52 47.386C47.496 47.086 47.436 46.726 47.34 46.306C47.256 45.886 47.16 45.55 47.052 45.298H48.312C48.564 45.298 48.744 45.256 48.852 45.172C48.96 45.088 49.014 44.926 49.014 44.686V41.644H45.288C45.564 41.836 45.858 42.058 46.17 42.31C46.482 42.562 46.776 42.814 47.052 43.066C47.34 43.306 47.568 43.528 47.736 43.732C47.604 43.84 47.436 44.002 47.232 44.218C47.04 44.422 46.854 44.632 46.674 44.848C46.506 45.052 46.386 45.208 46.314 45.316C46.134 45.052 45.888 44.764 45.576 44.452C45.264 44.128 44.94 43.828 44.604 43.552C44.28 43.264 43.998 43.042 43.758 42.886L44.874 41.644H43.326V39.754H49.014V38.278H43.056V36.37H46.782V34.876H43.488V32.986H46.782V30.916H49.032V32.986H52.542V34.876H49.032V36.37H53.226V38.278H51.21V39.754H53.028V41.644H51.21V45.46C51.21 46.744 50.442 47.386 48.906 47.386H47.52ZM37.242 44.182V32.302H42.624V44.182H37.242ZM39.222 42.274H40.644V39.16H39.222V42.274ZM39.222 37.27H40.644V34.192H39.222V37.27Z" fill="white"/>
<path d="M70 43.5L70 28.5L81.2071 34.728C82.2643 35.3155 82.2643 36.6845 81.2071 37.272L70 43.5Z" fill="#4E37A2"/>
</svg>
