<svg width="96" height="110" viewBox="0 0 96 110" fill="none" xmlns="http://www.w3.org/2000/svg">
<circle cx="48" cy="48" r="48" fill="#4E37A2"/>
<path d="M34.888 64.576C32.872 64.576 31.048 64.168 29.416 63.352C27.784 62.536 26.48 61.432 25.504 60.04C24.544 58.632 24.064 57.048 24.064 55.288C24.064 53.736 24.328 52.424 24.856 51.352C25.384 50.264 26.088 49.36 26.968 48.64C27.864 47.904 28.848 47.328 29.92 46.912C29.136 46.528 28.4 46.04 27.712 45.448C27.04 44.84 26.488 44.088 26.056 43.192C25.64 42.28 25.432 41.184 25.432 39.904C25.432 38.272 25.848 36.848 26.68 35.632C27.528 34.4 28.664 33.448 30.088 32.776C31.528 32.088 33.12 31.744 34.864 31.744C36.624 31.744 38.208 32.088 39.616 32.776C41.024 33.448 42.136 34.4 42.952 35.632C43.784 36.848 44.2 38.272 44.2 39.904C44.2 41.824 43.768 43.32 42.904 44.392C42.04 45.464 41 46.304 39.784 46.912C40.856 47.328 41.832 47.904 42.712 48.64C43.608 49.36 44.32 50.264 44.848 51.352C45.392 52.424 45.664 53.736 45.664 55.288C45.664 57.048 45.184 58.632 44.224 60.04C43.264 61.432 41.968 62.536 40.336 63.352C38.72 64.168 36.904 64.576 34.888 64.576ZM34.864 60.088C35.888 60.088 36.808 59.856 37.624 59.392C38.456 58.912 39.12 58.264 39.616 57.448C40.112 56.616 40.36 55.696 40.36 54.688C40.36 53.664 40.112 52.744 39.616 51.928C39.12 51.112 38.456 50.464 37.624 49.984C36.808 49.504 35.888 49.264 34.864 49.264C33.84 49.264 32.904 49.504 32.056 49.984C31.224 50.464 30.56 51.112 30.064 51.928C29.584 52.744 29.344 53.664 29.344 54.688C29.344 55.696 29.584 56.608 30.064 57.424C30.56 58.24 31.224 58.888 32.056 59.368C32.904 59.848 33.84 60.088 34.864 60.088ZM34.888 45.256C35.752 45.256 36.536 45.04 37.24 44.608C37.96 44.176 38.528 43.6 38.944 42.88C39.376 42.16 39.592 41.368 39.592 40.504C39.592 39.64 39.376 38.856 38.944 38.152C38.512 37.432 37.936 36.864 37.216 36.448C36.512 36.016 35.728 35.8 34.864 35.8C34.016 35.8 33.224 36.016 32.488 36.448C31.768 36.864 31.192 37.432 30.76 38.152C30.344 38.856 30.136 39.64 30.136 40.504C30.136 41.368 30.344 42.16 30.76 42.88C31.192 43.6 31.768 44.176 32.488 44.608C33.224 45.04 34.024 45.256 34.888 45.256Z" fill="white"/>
<path d="M66.36 63.848C66.328 63.448 66.248 62.968 66.12 62.408C66.008 61.848 65.88 61.4 65.736 61.064H67.416C67.752 61.064 67.992 61.008 68.136 60.896C68.28 60.784 68.352 60.568 68.352 60.248V56.192H63.384C63.752 56.448 64.144 56.744 64.56 57.08C64.976 57.416 65.368 57.752 65.736 58.088C66.12 58.408 66.424 58.704 66.648 58.976C66.472 59.12 66.248 59.336 65.976 59.624C65.72 59.896 65.472 60.176 65.232 60.464C65.008 60.736 64.848 60.944 64.752 61.088C64.512 60.736 64.184 60.352 63.768 59.936C63.352 59.504 62.92 59.104 62.472 58.736C62.04 58.352 61.664 58.056 61.344 57.848L62.832 56.192H60.768V53.672H68.352V51.704H60.408V49.16H65.376V47.168H60.984V44.648H65.376V41.888H68.376V44.648H73.056V47.168H68.376V49.16H73.968V51.704H71.28V53.672H73.704V56.192H71.28V61.28C71.28 62.992 70.256 63.848 68.208 63.848H66.36ZM52.656 59.576V43.736H59.832V59.576H52.656ZM55.296 57.032H57.192V52.88H55.296V57.032ZM55.296 50.36H57.192V46.256H55.296V50.36Z" fill="white"/>
<path d="M38 94H58L49.696 108.943C48.9127 110.352 47.0873 110.352 46.304 108.943L38 94Z" fill="#4E37A2"/>
</svg>
