<svg width="82" height="72" viewBox="0 0 82 72" fill="none" xmlns="http://www.w3.org/2000/svg">
<circle cx="36" cy="36" r="36" fill="#4E37A2"/>
<path d="M17.208 30.104L13.64 32.088V28.84L18.808 25.88H20.584V47H17.208V30.104ZM24.792 25.88H38.904V28.232L28.232 47H24.488L34.952 28.872H24.792V25.88Z" fill="white"/>
<path d="M52.52 47.386C52.496 47.086 52.436 46.726 52.34 46.306C52.256 45.886 52.16 45.55 52.052 45.298H53.312C53.564 45.298 53.744 45.256 53.852 45.172C53.96 45.088 54.014 44.926 54.014 44.686V41.644H50.288C50.564 41.836 50.858 42.058 51.17 42.31C51.482 42.562 51.776 42.814 52.052 43.066C52.34 43.306 52.568 43.528 52.736 43.732C52.604 43.84 52.436 44.002 52.232 44.218C52.04 44.422 51.854 44.632 51.674 44.848C51.506 45.052 51.386 45.208 51.314 45.316C51.134 45.052 50.888 44.764 50.576 44.452C50.264 44.128 49.94 43.828 49.604 43.552C49.28 43.264 48.998 43.042 48.758 42.886L49.874 41.644H48.326V39.754H54.014V38.278H48.056V36.37H51.782V34.876H48.488V32.986H51.782V30.916H54.032V32.986H57.542V34.876H54.032V36.37H58.226V38.278H56.21V39.754H58.028V41.644H56.21V45.46C56.21 46.744 55.442 47.386 53.906 47.386H52.52ZM42.242 44.182V32.302H47.624V44.182H42.242ZM44.222 42.274H45.644V39.16H44.222V42.274ZM44.222 37.27H45.644V34.192H44.222V37.27Z" fill="white"/>
<path d="M70 43.5L70 28.5L81.2071 34.728C82.2643 35.3155 82.2643 36.6845 81.2071 37.272L70 43.5Z" fill="#4E37A2"/>
</svg>
