<svg width="82" height="72" viewBox="0 0 82 72" fill="none" xmlns="http://www.w3.org/2000/svg">
<circle cx="36" cy="36" r="36" fill="#4E37A2"/>
<path d="M17.208 30.104L13.64 32.088V28.84L18.808 25.88H20.584V47H17.208V30.104ZM24.36 29.512C24.4347 29.2027 24.6213 28.824 24.92 28.376C25.2293 27.928 25.6507 27.4853 26.184 27.048C26.7173 26.6107 27.384 26.2427 28.184 25.944C28.9947 25.6453 29.9387 25.496 31.016 25.496C32.36 25.496 33.5227 25.7467 34.504 26.248C35.496 26.7387 36.2587 27.416 36.792 28.28C37.3253 29.144 37.592 30.1307 37.592 31.24C37.592 32.0187 37.4373 32.728 37.128 33.368C36.8293 34.008 36.44 34.536 35.96 34.952C35.4907 35.3573 34.9893 35.6133 34.456 35.72C35.032 35.784 35.6133 36.024 36.2 36.44C36.7973 36.8453 37.2933 37.4107 37.688 38.136C38.0933 38.8507 38.296 39.6987 38.296 40.68C38.296 41.96 37.9813 43.1067 37.352 44.12C36.7333 45.1333 35.8693 45.9333 34.76 46.52C33.6613 47.096 32.392 47.384 30.952 47.384C29.512 47.384 28.2853 47.1387 27.272 46.648C26.2587 46.1467 25.448 45.5333 24.84 44.808C24.2427 44.0827 23.8373 43.384 23.624 42.712L26.712 41.16C26.8613 41.6187 27.112 42.104 27.464 42.616C27.8267 43.1173 28.296 43.544 28.872 43.896C29.4587 44.248 30.1413 44.424 30.92 44.424C31.7733 44.424 32.4987 44.2533 33.096 43.912C33.6933 43.5707 34.1467 43.112 34.456 42.536C34.7653 41.96 34.92 41.3147 34.92 40.6C34.92 39.8107 34.7333 39.1653 34.36 38.664C33.9867 38.1627 33.496 37.7893 32.888 37.544C32.2907 37.2987 31.6347 37.176 30.92 37.176H30.504V34.68H31.048C31.6667 34.68 32.2373 34.552 32.76 34.296C33.2933 34.04 33.72 33.672 34.04 33.192C34.36 32.712 34.52 32.136 34.52 31.464C34.52 30.5787 34.2213 29.8267 33.624 29.208C33.0373 28.5893 32.152 28.28 30.968 28.28C30.3067 28.28 29.736 28.3867 29.256 28.6C28.7867 28.8027 28.4027 29.0533 28.104 29.352C27.8053 29.64 27.5813 29.9227 27.432 30.2C27.2827 30.4773 27.192 30.6853 27.16 30.824L24.36 29.512Z" fill="white"/>
<path d="M52.52 47.386C52.496 47.086 52.436 46.726 52.34 46.306C52.256 45.886 52.16 45.55 52.052 45.298H53.312C53.564 45.298 53.744 45.256 53.852 45.172C53.96 45.088 54.014 44.926 54.014 44.686V41.644H50.288C50.564 41.836 50.858 42.058 51.17 42.31C51.482 42.562 51.776 42.814 52.052 43.066C52.34 43.306 52.568 43.528 52.736 43.732C52.604 43.84 52.436 44.002 52.232 44.218C52.04 44.422 51.854 44.632 51.674 44.848C51.506 45.052 51.386 45.208 51.314 45.316C51.134 45.052 50.888 44.764 50.576 44.452C50.264 44.128 49.94 43.828 49.604 43.552C49.28 43.264 48.998 43.042 48.758 42.886L49.874 41.644H48.326V39.754H54.014V38.278H48.056V36.37H51.782V34.876H48.488V32.986H51.782V30.916H54.032V32.986H57.542V34.876H54.032V36.37H58.226V38.278H56.21V39.754H58.028V41.644H56.21V45.46C56.21 46.744 55.442 47.386 53.906 47.386H52.52ZM42.242 44.182V32.302H47.624V44.182H42.242ZM44.222 42.274H45.644V39.16H44.222V42.274ZM44.222 37.27H45.644V34.192H44.222V37.27Z" fill="white"/>
<path d="M70 43.5L70 28.5L81.2071 34.728C82.2643 35.3155 82.2643 36.6845 81.2071 37.272L70 43.5Z" fill="#4E37A2"/>
</svg>
