<svg width="82" height="72" viewBox="0 0 82 72" fill="none" xmlns="http://www.w3.org/2000/svg">
<circle cx="36" cy="36" r="36" fill="#4E37A2"/>
<path d="M16.208 30.104L12.64 32.088V28.84L17.808 25.88H19.584V47H16.208V30.104ZM30.688 28.424C29.8667 28.424 29.1413 28.6 28.512 28.952C27.8933 29.2933 27.376 29.6987 26.96 30.168C26.544 30.6373 26.224 31.064 26 31.448C25.7867 31.832 25.6693 32.0453 25.648 32.088L22.72 30.776C22.7413 30.68 22.8427 30.44 23.024 30.056C23.2053 29.6613 23.488 29.2133 23.872 28.712C24.256 28.2 24.752 27.6987 25.36 27.208C25.9787 26.7173 26.7253 26.312 27.6 25.992C28.4853 25.6613 29.5147 25.496 30.688 25.496C31.9573 25.496 33.0347 25.672 33.92 26.024C34.8053 26.376 35.5253 26.8613 36.08 27.48C36.6347 28.088 37.04 28.7867 37.296 29.576C37.552 30.3653 37.68 31.1973 37.68 32.072C37.68 32.968 37.472 33.8747 37.056 34.792C36.6507 35.7093 36.1227 36.6 35.472 37.464C34.8213 38.3173 34.1227 39.1173 33.376 39.864C32.6293 40.6107 31.904 41.2773 31.2 41.864C30.5067 42.4507 29.9093 42.9307 29.408 43.304C28.9173 43.6773 28.608 43.912 28.48 44.008H37.504V47H23.296V44.28C23.5733 44.056 24.0267 43.6987 24.656 43.208C25.296 42.7173 26.032 42.136 26.864 41.464C27.696 40.7813 28.5387 40.04 29.392 39.24C30.256 38.44 31.056 37.6187 31.792 36.776C32.5387 35.9333 33.136 35.1067 33.584 34.296C34.0427 33.4853 34.272 32.728 34.272 32.024C34.272 30.7013 33.9627 29.7733 33.344 29.24C32.7253 28.696 31.84 28.424 30.688 28.424Z" fill="white"/>
<path d="M52.52 47.386C52.496 47.086 52.436 46.726 52.34 46.306C52.256 45.886 52.16 45.55 52.052 45.298H53.312C53.564 45.298 53.744 45.256 53.852 45.172C53.96 45.088 54.014 44.926 54.014 44.686V41.644H50.288C50.564 41.836 50.858 42.058 51.17 42.31C51.482 42.562 51.776 42.814 52.052 43.066C52.34 43.306 52.568 43.528 52.736 43.732C52.604 43.84 52.436 44.002 52.232 44.218C52.04 44.422 51.854 44.632 51.674 44.848C51.506 45.052 51.386 45.208 51.314 45.316C51.134 45.052 50.888 44.764 50.576 44.452C50.264 44.128 49.94 43.828 49.604 43.552C49.28 43.264 48.998 43.042 48.758 42.886L49.874 41.644H48.326V39.754H54.014V38.278H48.056V36.37H51.782V34.876H48.488V32.986H51.782V30.916H54.032V32.986H57.542V34.876H54.032V36.37H58.226V38.278H56.21V39.754H58.028V41.644H56.21V45.46C56.21 46.744 55.442 47.386 53.906 47.386H52.52ZM42.242 44.182V32.302H47.624V44.182H42.242ZM44.222 42.274H45.644V39.16H44.222V42.274ZM44.222 37.27H45.644V34.192H44.222V37.27Z" fill="white"/>
<path d="M70 43.5L70 28.5L81.2071 34.728C82.2643 35.3155 82.2643 36.6845 81.2071 37.272L70 43.5Z" fill="#4E37A2"/>
</svg>
