<svg width="96" height="110" viewBox="0 0 96 110" fill="none" xmlns="http://www.w3.org/2000/svg">
<circle cx="48" cy="48" r="48" fill="#4E37A2"/>
<path d="M20.312 38.656L14.96 41.632V36.76L22.712 32.32H25.376V64H20.312V38.656ZM42.032 36.136C40.8 36.136 39.712 36.4 38.768 36.928C37.84 37.44 37.064 38.048 36.44 38.752C35.816 39.456 35.336 40.096 35 40.672C34.68 41.248 34.504 41.568 34.472 41.632L30.08 39.664C30.112 39.52 30.264 39.16 30.536 38.584C30.808 37.992 31.232 37.32 31.808 36.568C32.384 35.8 33.128 35.048 34.04 34.312C34.968 33.576 36.088 32.968 37.4 32.488C38.728 31.992 40.272 31.744 42.032 31.744C43.936 31.744 45.552 32.008 46.88 32.536C48.208 33.064 49.288 33.792 50.12 34.72C50.952 35.632 51.56 36.68 51.944 37.864C52.328 39.048 52.52 40.296 52.52 41.608C52.52 42.952 52.208 44.312 51.584 45.688C50.976 47.064 50.184 48.4 49.208 49.696C48.232 50.976 47.184 52.176 46.064 53.296C44.944 54.416 43.856 55.416 42.8 56.296C41.76 57.176 40.864 57.896 40.112 58.456C39.376 59.016 38.912 59.368 38.72 59.512H52.256V64H30.944V59.92C31.36 59.584 32.04 59.048 32.984 58.312C33.944 57.576 35.048 56.704 36.296 55.696C37.544 54.672 38.808 53.56 40.088 52.36C41.384 51.16 42.584 49.928 43.688 48.664C44.808 47.4 45.704 46.16 46.376 44.944C47.064 43.728 47.408 42.592 47.408 41.536C47.408 39.552 46.944 38.16 46.016 37.36C45.088 36.544 43.76 36.136 42.032 36.136Z" fill="white"/>
<path d="M73.36 63.848C73.328 63.448 73.248 62.968 73.12 62.408C73.008 61.848 72.88 61.4 72.736 61.064H74.416C74.752 61.064 74.992 61.008 75.136 60.896C75.28 60.784 75.352 60.568 75.352 60.248V56.192H70.384C70.752 56.448 71.144 56.744 71.56 57.08C71.976 57.416 72.368 57.752 72.736 58.088C73.12 58.408 73.424 58.704 73.648 58.976C73.472 59.12 73.248 59.336 72.976 59.624C72.72 59.896 72.472 60.176 72.232 60.464C72.008 60.736 71.848 60.944 71.752 61.088C71.512 60.736 71.184 60.352 70.768 59.936C70.352 59.504 69.92 59.104 69.472 58.736C69.04 58.352 68.664 58.056 68.344 57.848L69.832 56.192H67.768V53.672H75.352V51.704H67.408V49.16H72.376V47.168H67.984V44.648H72.376V41.888H75.376V44.648H80.056V47.168H75.376V49.16H80.968V51.704H78.28V53.672H80.704V56.192H78.28V61.28C78.28 62.992 77.256 63.848 75.208 63.848H73.36ZM59.656 59.576V43.736H66.832V59.576H59.656ZM62.296 57.032H64.192V52.88H62.296V57.032ZM62.296 50.36H64.192V46.256H62.296V50.36Z" fill="white"/>
<path d="M38 94H58L49.696 108.943C48.9127 110.352 47.0873 110.352 46.304 108.943L38 94Z" fill="#4E37A2"/>
</svg>
