<svg width="330" height="147" viewBox="0 0 330 147" fill="none" xmlns="http://www.w3.org/2000/svg">
<mask id="mask0_5406_5712" style="mask-type:alpha" maskUnits="userSpaceOnUse" x="0" y="0" width="330" height="147">
<rect x="1" y="1" width="328" height="145" fill="#D9D9D9" stroke="#DE0C0C" stroke-width="2"/>
</mask>
<g mask="url(#mask0_5406_5712)">
<path d="M70 145H260" stroke="#4E37A2" stroke-width="3" stroke-linecap="round"/>
<path d="M149 1.5L243 1.50001" stroke="#4E37A2" stroke-width="3" stroke-linecap="round"/>
<path d="M87 64L149 64" stroke="#4E37A2" stroke-width="3" stroke-linecap="round"/>
<path d="M87 64L87 144" stroke="#4E37A2" stroke-width="3" stroke-linecap="round"/>
<path d="M101 78H114" stroke="#4E37A2" stroke-width="3" stroke-linecap="round"/>
<path d="M101 90H114" stroke="#4E37A2" stroke-width="3" stroke-linecap="round"/>
<path d="M101 78L101 90" stroke="#4E37A2" stroke-width="3" stroke-linecap="round"/>
<path d="M114 78L114 90" stroke="#4E37A2" stroke-width="3" stroke-linecap="round"/>
<path d="M122 78H135" stroke="#4E37A2" stroke-width="3" stroke-linecap="round"/>
<path d="M122 90H135" stroke="#4E37A2" stroke-width="3" stroke-linecap="round"/>
<path d="M135 78L135 90" stroke="#4E37A2" stroke-width="3" stroke-linecap="round"/>
<path d="M122 78L122 90" stroke="#4E37A2" stroke-width="3" stroke-linecap="round"/>
<path d="M101 98H114" stroke="#4E37A2" stroke-width="3" stroke-linecap="round"/>
<path d="M101 110H114" stroke="#4E37A2" stroke-width="3" stroke-linecap="round"/>
<path d="M101 98L101 110" stroke="#4E37A2" stroke-width="3" stroke-linecap="round"/>
<path d="M114 98L114 110" stroke="#4E37A2" stroke-width="3" stroke-linecap="round"/>
<path d="M122 98H135" stroke="#4E37A2" stroke-width="3" stroke-linecap="round"/>
<path d="M122 110H135" stroke="#4E37A2" stroke-width="3" stroke-linecap="round"/>
<path d="M135 98L135 110" stroke="#4E37A2" stroke-width="3" stroke-linecap="round"/>
<path d="M122 98L122 110" stroke="#4E37A2" stroke-width="3" stroke-linecap="round"/>
<path d="M101 118H114" stroke="#4E37A2" stroke-width="3" stroke-linecap="round"/>
<path d="M101 130H114" stroke="#4E37A2" stroke-width="3" stroke-linecap="round"/>
<path d="M101 118L101 130" stroke="#4E37A2" stroke-width="3" stroke-linecap="round"/>
<path d="M114 118L114 130" stroke="#4E37A2" stroke-width="3" stroke-linecap="round"/>
<path d="M122 118H135" stroke="#4E37A2" stroke-width="3" stroke-linecap="round"/>
<path d="M122 130H135" stroke="#4E37A2" stroke-width="3" stroke-linecap="round"/>
<path d="M135 118L135 130" stroke="#4E37A2" stroke-width="3" stroke-linecap="round"/>
<path d="M122 118L122 130" stroke="#4E37A2" stroke-width="3" stroke-linecap="round"/>
<path d="M167 28H190" stroke="#4E37A2" stroke-width="3" stroke-linecap="round"/>
<path d="M167 40H190" stroke="#4E37A2" stroke-width="3" stroke-linecap="round"/>
<path d="M167 28L167 40" stroke="#4E37A2" stroke-width="3" stroke-linecap="round"/>
<path d="M190 28L190 40" stroke="#4E37A2" stroke-width="3" stroke-linecap="round"/>
<path d="M167 48H190" stroke="#4E37A2" stroke-width="3" stroke-linecap="round"/>
<path d="M167 60H190" stroke="#4E37A2" stroke-width="3" stroke-linecap="round"/>
<path d="M167 48L167 60" stroke="#4E37A2" stroke-width="3" stroke-linecap="round"/>
<path d="M190 48L190 60" stroke="#4E37A2" stroke-width="3" stroke-linecap="round"/>
<path d="M202 28H225" stroke="#4E37A2" stroke-width="3" stroke-linecap="round"/>
<path d="M202 40H225" stroke="#4E37A2" stroke-width="3" stroke-linecap="round"/>
<path d="M225 28L225 40" stroke="#4E37A2" stroke-width="3" stroke-linecap="round"/>
<path d="M202 28L202 40" stroke="#4E37A2" stroke-width="3" stroke-linecap="round"/>
<path d="M202 48H225" stroke="#4E37A2" stroke-width="3" stroke-linecap="round"/>
<path d="M202 60H225" stroke="#4E37A2" stroke-width="3" stroke-linecap="round"/>
<path d="M225 48L225 60" stroke="#4E37A2" stroke-width="3" stroke-linecap="round"/>
<path d="M202 48L202 60" stroke="#4E37A2" stroke-width="3" stroke-linecap="round"/>
<path d="M167 68H190" stroke="#4E37A2" stroke-width="3" stroke-linecap="round"/>
<path d="M167 80H190" stroke="#4E37A2" stroke-width="3" stroke-linecap="round"/>
<path d="M167 68L167 80" stroke="#4E37A2" stroke-width="3" stroke-linecap="round"/>
<path d="M190 68L190 80" stroke="#4E37A2" stroke-width="3" stroke-linecap="round"/>
<path d="M167 88H190" stroke="#4E37A2" stroke-width="3" stroke-linecap="round"/>
<path d="M167 100H190" stroke="#4E37A2" stroke-width="3" stroke-linecap="round"/>
<path d="M167 88L167 100" stroke="#4E37A2" stroke-width="3" stroke-linecap="round"/>
<path d="M190 88L190 100" stroke="#4E37A2" stroke-width="3" stroke-linecap="round"/>
<path d="M177 114H215" stroke="#4E37A2" stroke-width="3" stroke-linecap="round"/>
<path d="M177 114L177 145" stroke="#4E37A2" stroke-width="3" stroke-linecap="round"/>
<path d="M215 114L215 145" stroke="#4E37A2" stroke-width="3" stroke-linecap="round"/>
<path d="M202 68H225" stroke="#4E37A2" stroke-width="3" stroke-linecap="round"/>
<path d="M202 80H225" stroke="#4E37A2" stroke-width="3" stroke-linecap="round"/>
<path d="M225 68L225 80" stroke="#4E37A2" stroke-width="3" stroke-linecap="round"/>
<path d="M202 68L202 80" stroke="#4E37A2" stroke-width="3" stroke-linecap="round"/>
<path d="M202 88H225" stroke="#4E37A2" stroke-width="3" stroke-linecap="round"/>
<path d="M202 100H225" stroke="#4E37A2" stroke-width="3" stroke-linecap="round"/>
<path d="M225 88L225 100" stroke="#4E37A2" stroke-width="3" stroke-linecap="round"/>
<path d="M202 88L202 100" stroke="#4E37A2" stroke-width="3" stroke-linecap="round"/>
<path d="M149 1.5V144" stroke="#4E37A2" stroke-width="3" stroke-linecap="round"/>
<path d="M243 2L243 144" stroke="#4E37A2" stroke-width="3" stroke-linecap="round"/>
<path d="M28 54H60" stroke="#E34C4F" stroke-width="3" stroke-linecap="round"/>
<path d="M44.0059 38.0049L44.0059 70.0049" stroke="#E34C4F" stroke-width="3" stroke-linecap="round"/>
<circle cx="22" cy="54" r="1.5" fill="#E34C4F" stroke="#E34C4F"/>
<circle cx="66" cy="54" r="1.5" fill="#E34C4F" stroke="#E34C4F"/>
<circle cx="44" cy="32" r="1.5" fill="#E34C4F" stroke="#E34C4F"/>
<circle cx="44" cy="76" r="1.5" fill="#E34C4F" stroke="#E34C4F"/>
<path d="M79 19H101" stroke="#E34C4F" stroke-width="3" stroke-linecap="round"/>
<path d="M90 8L90 30" stroke="#E34C4F" stroke-width="3" stroke-linecap="round"/>
<circle cx="73" cy="19" r="1.5" fill="#E34C4F" stroke="#E34C4F"/>
<circle cx="107" cy="19" r="1.5" fill="#E34C4F" stroke="#E34C4F"/>
<circle cx="90" cy="2" r="1.5" fill="#E34C4F" stroke="#E34C4F"/>
<circle cx="90" cy="36" r="1.5" fill="#E34C4F" stroke="#E34C4F"/>
<path d="M270 56H302" stroke="#E34C4F" stroke-width="3" stroke-linecap="round"/>
<path d="M286.006 40.0049L286.006 72.0049" stroke="#E34C4F" stroke-width="3" stroke-linecap="round"/>
<circle cx="264" cy="56" r="1.5" fill="#E34C4F" stroke="#E34C4F"/>
<circle cx="308" cy="56" r="1.5" fill="#E34C4F" stroke="#E34C4F"/>
<circle cx="286" cy="34" r="1.5" fill="#E34C4F" stroke="#E34C4F"/>
<circle cx="286" cy="78" r="1.5" fill="#E34C4F" stroke="#E34C4F"/>
</g>
</svg>
