<svg width="82" height="72" viewBox="0 0 82 72" fill="none" xmlns="http://www.w3.org/2000/svg">
<circle cx="36" cy="36" r="36" fill="#4E37A2"/>
<path d="M25.592 47.384C24.248 47.384 23.032 47.112 21.944 46.568C20.856 46.024 19.9867 45.288 19.336 44.36C18.696 43.4213 18.376 42.3653 18.376 41.192C18.376 40.1573 18.552 39.2827 18.904 38.568C19.256 37.8427 19.7253 37.24 20.312 36.76C20.9093 36.2693 21.5653 35.8853 22.28 35.608C21.7573 35.352 21.2667 35.0267 20.808 34.632C20.36 34.2267 19.992 33.7253 19.704 33.128C19.4267 32.52 19.288 31.7893 19.288 30.936C19.288 29.848 19.5653 28.8987 20.12 28.088C20.6853 27.2667 21.4427 26.632 22.392 26.184C23.352 25.7253 24.4133 25.496 25.576 25.496C26.7493 25.496 27.8053 25.7253 28.744 26.184C29.6827 26.632 30.424 27.2667 30.968 28.088C31.5227 28.8987 31.8 29.848 31.8 30.936C31.8 32.216 31.512 33.2133 30.936 33.928C30.36 34.6427 29.6667 35.2027 28.856 35.608C29.5707 35.8853 30.2213 36.2693 30.808 36.76C31.4053 37.24 31.88 37.8427 32.232 38.568C32.5947 39.2827 32.776 40.1573 32.776 41.192C32.776 42.3653 32.456 43.4213 31.816 44.36C31.176 45.288 30.312 46.024 29.224 46.568C28.1467 47.112 26.936 47.384 25.592 47.384ZM25.576 44.392C26.2587 44.392 26.872 44.2373 27.416 43.928C27.9707 43.608 28.4133 43.176 28.744 42.632C29.0747 42.0773 29.24 41.464 29.24 40.792C29.24 40.1093 29.0747 39.496 28.744 38.952C28.4133 38.408 27.9707 37.976 27.416 37.656C26.872 37.336 26.2587 37.176 25.576 37.176C24.8933 37.176 24.2693 37.336 23.704 37.656C23.1493 37.976 22.7067 38.408 22.376 38.952C22.056 39.496 21.896 40.1093 21.896 40.792C21.896 41.464 22.056 42.072 22.376 42.616C22.7067 43.16 23.1493 43.592 23.704 43.912C24.2693 44.232 24.8933 44.392 25.576 44.392ZM25.592 34.504C26.168 34.504 26.6907 34.36 27.16 34.072C27.64 33.784 28.0187 33.4 28.296 32.92C28.584 32.44 28.728 31.912 28.728 31.336C28.728 30.76 28.584 30.2373 28.296 29.768C28.008 29.288 27.624 28.9093 27.144 28.632C26.6747 28.344 26.152 28.2 25.576 28.2C25.0107 28.2 24.4827 28.344 23.992 28.632C23.512 28.9093 23.128 29.288 22.84 29.768C22.5627 30.2373 22.424 30.76 22.424 31.336C22.424 31.912 22.5627 32.44 22.84 32.92C23.128 33.4 23.512 33.784 23.992 34.072C24.4827 34.36 25.016 34.504 25.592 34.504Z" fill="white"/>
<path d="M47.52 47.386C47.496 47.086 47.436 46.726 47.34 46.306C47.256 45.886 47.16 45.55 47.052 45.298H48.312C48.564 45.298 48.744 45.256 48.852 45.172C48.96 45.088 49.014 44.926 49.014 44.686V41.644H45.288C45.564 41.836 45.858 42.058 46.17 42.31C46.482 42.562 46.776 42.814 47.052 43.066C47.34 43.306 47.568 43.528 47.736 43.732C47.604 43.84 47.436 44.002 47.232 44.218C47.04 44.422 46.854 44.632 46.674 44.848C46.506 45.052 46.386 45.208 46.314 45.316C46.134 45.052 45.888 44.764 45.576 44.452C45.264 44.128 44.94 43.828 44.604 43.552C44.28 43.264 43.998 43.042 43.758 42.886L44.874 41.644H43.326V39.754H49.014V38.278H43.056V36.37H46.782V34.876H43.488V32.986H46.782V30.916H49.032V32.986H52.542V34.876H49.032V36.37H53.226V38.278H51.21V39.754H53.028V41.644H51.21V45.46C51.21 46.744 50.442 47.386 48.906 47.386H47.52ZM37.242 44.182V32.302H42.624V44.182H37.242ZM39.222 42.274H40.644V39.16H39.222V42.274ZM39.222 37.27H40.644V34.192H39.222V37.27Z" fill="white"/>
<path d="M70 43.5L70 28.5L81.2071 34.728C82.2643 35.3155 82.2643 36.6845 81.2071 37.272L70 43.5Z" fill="#4E37A2"/>
</svg>
