<svg width="220" height="147" viewBox="0 0 220 147" fill="none" xmlns="http://www.w3.org/2000/svg">
<mask id="mask0_5406_5942" style="mask-type:alpha" maskUnits="userSpaceOnUse" x="0" y="0" width="220" height="147">
<rect width="220" height="147" fill="#C0C0C0"/>
</mask>
<g mask="url(#mask0_5406_5942)">
<circle cx="88.879" cy="11.7032" r="10.2032" stroke="#E34C4F" stroke-width="3"/>
<mask id="path-3-inside-1_5406_5942" fill="white">
<path d="M81.0859 24.8691C87.1978 24.8693 92.2144 29.3453 93.1436 35.1309L116.54 48.2549C119.458 49.8919 120.533 53.5623 118.958 56.5146C117.312 59.6008 113.427 60.6943 110.412 58.9209L92.6836 48.4922L91.8018 64.3672L109.7 71.7734C111.706 72.6033 113.013 74.5602 113.013 76.7305L113.002 101.48C113.001 105.081 110.081 108 106.48 108C102.895 108 99.9819 105.105 99.959 101.52L99.8506 84.5566C99.8489 84.2892 99.6889 84.0484 99.4434 83.9424L88.4775 79.2061L79.0557 121.282C78.4381 124.04 75.9908 126 73.165 126C69.7814 126 67.0587 123.219 67.1299 119.836L68.4512 56.9727L59.3613 70.6064C57.345 73.6306 52.9442 73.7527 50.7637 70.8447C49.484 69.1381 49.3599 66.8281 50.4492 64.9941L69.7959 32.4238C71.6294 27.9835 75.9991 24.8691 81.0859 24.8691Z"/>
</mask>
<path d="M81.0859 24.8691L81.086 21.8691H81.0859V24.8691ZM93.1436 35.1309L90.1815 35.6065C90.3267 36.5108 90.8771 37.2993 91.6759 37.7473L93.1436 35.1309ZM116.54 48.2549L118.008 45.6385L118.008 45.6384L116.54 48.2549ZM118.958 56.5146L121.605 57.9265L121.605 57.9264L118.958 56.5146ZM110.412 58.9209L108.891 61.5067L108.891 61.5067L110.412 58.9209ZM92.6836 48.4922L94.2047 45.9064C93.3027 45.3758 92.1894 45.3536 91.267 45.8477C90.3445 46.3419 89.7463 47.281 89.6882 48.3258L92.6836 48.4922ZM91.8018 64.3672L88.8064 64.2008C88.7357 65.4735 89.4769 66.6519 90.6547 67.1392L91.8018 64.3672ZM109.7 71.7734L110.847 69.0014L110.847 69.0014L109.7 71.7734ZM113.013 76.7305L116.013 76.7318V76.7315L113.013 76.7305ZM113.002 101.48L110.002 101.479V101.479L113.002 101.48ZM106.48 108V111H106.481L106.48 108ZM99.959 101.52L102.959 101.5V101.5L99.959 101.52ZM99.8506 84.5566L96.8506 84.5758V84.5758L99.8506 84.5566ZM99.4434 83.9424L98.2538 86.6965L98.2539 86.6965L99.4434 83.9424ZM88.4775 79.2061L89.6671 76.452C88.8468 76.0977 87.9112 76.1275 87.1152 76.5332C86.3191 76.939 85.7453 77.6786 85.55 78.5505L88.4775 79.2061ZM79.0557 121.282L81.9832 121.938L81.9832 121.938L79.0557 121.282ZM73.165 126L73.165 129H73.165V126ZM67.1299 119.836L70.1292 119.899L70.1292 119.899L67.1299 119.836ZM68.4512 56.9727L71.4505 57.0357C71.4785 55.7023 70.623 54.5106 69.3507 54.1107C68.0784 53.7108 66.6949 54.1988 65.9551 55.3085L68.4512 56.9727ZM59.3613 70.6064L61.8574 72.2706L61.8574 72.2706L59.3613 70.6064ZM50.7637 70.8447L48.3635 72.6444L48.3635 72.6445L50.7637 70.8447ZM50.4492 64.9941L47.8699 63.4621L47.8699 63.4621L50.4492 64.9941ZM69.7959 32.4238L72.3752 33.9559C72.449 33.8317 72.5137 33.7023 72.5688 33.5688L69.7959 32.4238ZM81.0859 24.8691L81.0859 27.8691C85.6916 27.8692 89.4807 31.2427 90.1815 35.6065L93.1436 35.1309L96.1056 34.6552C94.9482 27.4478 88.704 21.8693 81.086 21.8691L81.0859 24.8691ZM93.1436 35.1309L91.6759 37.7473L115.072 50.8714L116.54 48.2549L118.008 45.6384L94.6112 32.5144L93.1436 35.1309ZM116.54 48.2549L115.072 50.8713C116.567 51.7098 117.118 53.5903 116.311 55.1029L118.958 56.5146L121.605 57.9264C123.948 53.5342 122.349 48.074 118.008 45.6385L116.54 48.2549ZM118.958 56.5146L116.311 55.1028C115.468 56.6831 113.478 57.2438 111.933 56.3351L110.412 58.9209L108.891 61.5067C113.376 64.1448 119.156 62.5184 121.605 57.9265L118.958 56.5146ZM110.412 58.9209L111.933 56.3351L94.2047 45.9064L92.6836 48.4922L91.1625 51.078L108.891 61.5067L110.412 58.9209ZM92.6836 48.4922L89.6882 48.3258L88.8064 64.2008L91.8018 64.3672L94.7971 64.5336L95.679 48.6586L92.6836 48.4922ZM91.8018 64.3672L90.6547 67.1392L108.553 74.5455L109.7 71.7734L110.847 69.0014L92.9488 61.5951L91.8018 64.3672ZM109.7 71.7734L108.553 74.5455C109.437 74.9112 110.013 75.7736 110.013 76.7295L113.013 76.7305L116.013 76.7315C116.014 73.3468 113.974 70.2954 110.847 69.0014L109.7 71.7734ZM113.013 76.7305L110.013 76.7292L110.002 101.479L113.002 101.48L116.002 101.482L116.013 76.7318L113.013 76.7305ZM113.002 101.48L110.002 101.479C110.001 103.424 108.425 105 106.48 105L106.48 108L106.481 111C111.738 111 116 106.739 116.002 101.482L113.002 101.48ZM106.48 108V105C104.544 105 102.971 103.437 102.959 101.5L99.959 101.52L96.959 101.539C96.9925 106.773 101.245 111 106.48 111V108ZM99.959 101.52L102.959 101.5L102.851 84.5375L99.8506 84.5566L96.8506 84.5758L96.959 101.539L99.959 101.52ZM99.8506 84.5566L102.851 84.5375C102.841 83.0753 101.967 81.7643 100.633 81.1883L99.4434 83.9424L98.2539 86.6965C97.4112 86.3325 96.8566 85.5031 96.8506 84.5758L99.8506 84.5566ZM99.4434 83.9424L100.633 81.1883L89.6671 76.452L88.4775 79.2061L87.288 81.9601L98.2538 86.6965L99.4434 83.9424ZM88.4775 79.2061L85.55 78.5505L76.1282 120.627L79.0557 121.282L81.9832 121.938L91.405 79.8616L88.4775 79.2061ZM79.0557 121.282L76.1282 120.627C75.8175 122.014 74.5862 123 73.165 123V126V129C77.3953 129 81.0588 126.065 81.9832 121.938L79.0557 121.282ZM73.165 126L73.1651 123C71.4633 123 70.0934 121.601 70.1292 119.899L67.1299 119.836L64.1305 119.773C64.0241 124.837 68.0995 129 73.165 129L73.165 126ZM67.1299 119.836L70.1292 119.899L71.4505 57.0357L68.4512 56.9727L65.4518 56.9096L64.1305 119.773L67.1299 119.836ZM68.4512 56.9727L65.9551 55.3085L56.8652 68.9423L59.3613 70.6064L61.8574 72.2706L70.9473 58.6368L68.4512 56.9727ZM59.3613 70.6064L56.8652 68.9422C55.9971 70.2444 54.1024 70.2967 53.1639 69.045L50.7637 70.8447L48.3635 72.6445C51.786 77.2088 58.693 77.0168 61.8574 72.2706L59.3613 70.6064ZM50.7637 70.8447L53.1639 69.045C52.613 68.3103 52.5596 67.3157 53.0285 66.5262L50.4492 64.9941L47.8699 63.4621C46.1603 66.3404 46.3551 69.9659 48.3635 72.6444L50.7637 70.8447ZM50.4492 64.9941L53.0285 66.5262L72.3752 33.9559L69.7959 32.4238L67.2166 30.8917L47.8699 63.4621L50.4492 64.9941ZM69.7959 32.4238L72.5688 33.5688C73.9544 30.2133 77.2542 27.8691 81.0859 27.8691V24.8691V21.8691C74.744 21.8691 69.3044 25.7538 67.023 31.2789L69.7959 32.4238Z" fill="#E34C4F" mask="url(#path-3-inside-1_5406_5942)"/>
<mask id="path-5-inside-2_5406_5942" fill="white">
<path d="M56.3994 75.1694C56.9039 77.5143 56.3779 80.0585 54.7422 82.0601L52.8447 80.5093C54.1021 78.9707 54.4239 76.9744 53.8809 75.2075C54.7193 75.3326 55.5702 75.3188 56.3994 75.1694ZM47.3057 67.6948C47.3197 68.5385 47.472 69.3766 47.7568 70.1743C45.9048 69.9795 43.9941 70.6911 42.7275 72.2407L40.8301 70.6909C42.478 68.6745 44.8894 67.6515 47.3057 67.6948Z"/>
</mask>
<path d="M56.3994 75.1694C56.9039 77.5143 56.3779 80.0585 54.7422 82.0601L52.8447 80.5093C54.1021 78.9707 54.4239 76.9744 53.8809 75.2075C54.7193 75.3326 55.5702 75.3188 56.3994 75.1694ZM47.3057 67.6948C47.3197 68.5385 47.472 69.3766 47.7568 70.1743C45.9048 69.9795 43.9941 70.6911 42.7275 72.2407L40.8301 70.6909C42.478 68.6745 44.8894 67.6515 47.3057 67.6948Z" fill="#E34C4F"/>
<path d="M56.3994 75.1694L59.3323 74.5384L58.7222 71.7028L55.8676 72.217L56.3994 75.1694ZM54.7422 82.0601L52.8437 84.3829L55.1667 86.2815L57.0652 83.9584L54.7422 82.0601ZM52.8447 80.5093L50.5218 78.6109L48.6235 80.9338L50.9462 82.8322L52.8447 80.5093ZM53.8809 75.2075L54.3236 72.2404L49.6144 71.5377L51.0133 76.0889L53.8809 75.2075ZM47.3057 67.6948L50.3053 67.645L50.2571 64.7473L47.3595 64.6953L47.3057 67.6948ZM47.7568 70.1743L47.4431 73.1579L52.1858 73.6566L50.5821 69.1655L47.7568 70.1743ZM42.7275 72.2407L40.8298 74.5642L43.1525 76.4613L45.0504 74.1393L42.7275 72.2407ZM40.8301 70.6909L38.5071 68.7925L36.6082 71.1161L38.9323 73.0144L40.8301 70.6909ZM56.3994 75.1694L53.4665 75.8005C53.7878 77.2937 53.452 78.898 52.4192 80.1617L54.7422 82.0601L57.0652 83.9584C59.3039 81.2189 60.0201 77.7349 59.3323 74.5384L56.3994 75.1694ZM54.7422 82.0601L56.6407 79.7372L54.7432 78.1864L52.8447 80.5093L50.9462 82.8322L52.8437 84.3829L54.7422 82.0601ZM52.8447 80.5093L55.1677 82.4076C57.0872 80.0588 57.5736 77.0107 56.7485 74.3261L53.8809 75.2075L51.0133 76.0889C51.2742 76.938 51.117 77.8826 50.5218 78.6109L52.8447 80.5093ZM53.8809 75.2075L53.4381 78.1747C54.6014 78.3482 55.7816 78.329 56.9312 78.1219L56.3994 75.1694L55.8676 72.217C55.3588 72.3086 54.8371 72.317 54.3236 72.2404L53.8809 75.2075ZM47.3057 67.6948L44.3061 67.7446C44.3255 68.916 44.5369 70.078 44.9315 71.1831L47.7568 70.1743L50.5821 69.1655C50.4071 68.6752 50.3138 68.161 50.3053 67.645L47.3057 67.6948ZM47.7568 70.1743L48.0706 67.1908C45.2569 66.8949 42.3386 67.9761 40.4047 70.3422L42.7275 72.2407L45.0504 74.1393C45.6496 73.4062 46.5526 73.0642 47.4431 73.1579L47.7568 70.1743ZM42.7275 72.2407L44.6253 69.9173L42.7278 68.3674L40.8301 70.6909L38.9323 73.0144L40.8298 74.5642L42.7275 72.2407ZM40.8301 70.6909L43.153 72.5893C44.1938 71.3158 45.7138 70.6667 47.2518 70.6943L47.3057 67.6948L47.3595 64.6953C44.0651 64.6362 40.7622 66.0331 38.5071 68.7925L40.8301 70.6909Z" fill="#E34C4F" mask="url(#path-5-inside-2_5406_5942)"/>
<path d="M37.9826 70.3018L55.6891 84.7719C56.4443 85.3894 56.5565 86.5024 55.9392 87.2578L47.6709 97.3754C47.0536 98.1308 45.9406 98.2425 45.1851 97.6254L27.4785 83.1553C26.723 82.5378 26.6111 81.4249 27.2285 80.6695L35.4968 70.5518C36.1142 69.7964 37.2271 69.6844 37.9826 70.3018Z" fill="#E34C4F" stroke="#E34C4F" stroke-width="3"/>
<path d="M44 145.5V130H95V112H146V95.0671H196V145.5" stroke="#4E37A2" stroke-width="3" stroke-linecap="round" stroke-linejoin="round"/>
</g>
</svg>
