<svg width="220" height="147" viewBox="0 0 220 147" fill="none" xmlns="http://www.w3.org/2000/svg">
<mask id="mask0_5406_5887" style="mask-type:alpha" maskUnits="userSpaceOnUse" x="0" y="0" width="220" height="147">
<rect width="220" height="147" fill="#C0C0C0"/>
</mask>
<g mask="url(#mask0_5406_5887)">
<path d="M8 68H34" stroke="#4E37A2" stroke-width="3" stroke-linecap="round"/>
<path d="M21 55L21.0117 81.0098" stroke="#4E37A2" stroke-width="3" stroke-linecap="round"/>
<circle cx="2" cy="68" r="1.5" fill="#4E37A2" stroke="#4E37A2"/>
<circle cx="40" cy="68" r="1.5" fill="#4E37A2" stroke="#4E37A2"/>
<circle cx="21" cy="49" r="1.5" fill="#4E37A2" stroke="#4E37A2"/>
<circle cx="21" cy="87" r="1.5" fill="#4E37A2" stroke="#4E37A2"/>
<path d="M38 16H54" stroke="#4E37A2" stroke-width="3" stroke-linecap="round"/>
<path d="M46 8L46 24" stroke="#4E37A2" stroke-width="3" stroke-linecap="round"/>
<circle cx="32" cy="16" r="1.5" fill="#4E37A2" stroke="#4E37A2"/>
<circle cx="60" cy="16" r="1.5" fill="#4E37A2" stroke="#4E37A2"/>
<circle cx="46" cy="2" r="1.5" fill="#4E37A2" stroke="#4E37A2"/>
<circle cx="46" cy="30" r="1.5" fill="#4E37A2" stroke="#4E37A2"/>
<path d="M186 53H212" stroke="#4E37A2" stroke-width="3" stroke-linecap="round"/>
<path d="M199 40L199.012 66.0098" stroke="#4E37A2" stroke-width="3" stroke-linecap="round"/>
<circle cx="180" cy="53" r="1.5" fill="#4E37A2" stroke="#4E37A2"/>
<circle cx="218" cy="53" r="1.5" fill="#4E37A2" stroke="#4E37A2"/>
<circle cx="199" cy="34" r="1.5" fill="#4E37A2" stroke="#4E37A2"/>
<circle cx="199" cy="72" r="1.5" fill="#4E37A2" stroke="#4E37A2"/>
<rect x="45.5" y="129.5" width="129" height="16" rx="6.5" stroke="#4E37A2" stroke-width="3"/>
<path d="M60 74.5H160C163.59 74.5 166.5 77.4101 166.5 81V129.5H53.5V81C53.5 77.4101 56.4101 74.5 60 74.5Z" stroke="#4E37A2" stroke-width="3"/>
<mask id="mask1_5406_5887" style="mask-type:alpha" maskUnits="userSpaceOnUse" x="53" y="88" width="114" height="12">
<rect x="53" y="88" width="114" height="12" fill="white"/>
</mask>
<g mask="url(#mask1_5406_5887)">
<path d="M44.8574 102.571L53.0003 93.9999C57.4283 89.3388 64.858 89.3388 69.286 93.9999C73.714 98.661 81.1437 98.661 85.5717 93.9999C89.9997 89.3388 97.4294 89.3388 101.857 93.9999C106.285 98.661 113.715 98.661 118.143 93.9999C122.571 89.3388 130.001 89.3388 134.429 93.9999C138.857 98.661 146.287 98.661 150.715 93.9999C155.143 89.3388 162.572 89.3388 167 93.9999L175.143 102.571" stroke="#4E37A2" stroke-width="3" stroke-linecap="round"/>
</g>
<path d="M55 110L166.067 110" stroke="#4E37A2" stroke-width="3" stroke-linecap="round" stroke-dasharray="6 10"/>
<path d="M110 55V74.6" stroke="#4E37A2" stroke-width="3" stroke-linecap="round"/>
<path d="M148 65V74" stroke="#4E37A2" stroke-width="3" stroke-linecap="round"/>
<path d="M72 65V74" stroke="#4E37A2" stroke-width="3" stroke-linecap="round"/>
<path d="M110 28.5C110.639 28.5001 111.453 28.8801 112.405 29.9014C113.337 30.9009 114.229 32.3364 115.007 33.9834C116.579 37.3116 117.5 41.0872 117.5 43C117.5 46.4286 114.313 49.4999 110 49.5C105.687 49.5 102.5 46.4287 102.5 43C102.5 41.0872 103.42 37.3116 104.992 33.9834C105.77 32.3363 106.662 30.901 107.594 29.9014C108.546 28.8798 109.361 28.5 110 28.5Z" stroke="#E34C4F" stroke-width="3"/>
<path d="M110 38.8999C110.176 38.8999 110.524 39.0014 111.034 39.5181C111.53 40.0199 112.028 40.7687 112.477 41.6655C113.393 43.4978 113.9 45.5283 113.9 46.4663C113.9 47.9063 112.411 49.4995 110 49.4995C107.589 49.4995 106.1 47.9064 106.1 46.4663C106.1 45.5283 106.606 43.4977 107.522 41.6655C107.971 40.7687 108.469 40.02 108.965 39.5181C109.475 39.001 109.824 38.8999 110 38.8999Z" stroke="#E34C4F" stroke-width="3"/>
<path d="M110 28.5C110.639 28.5001 111.453 28.8801 112.405 29.9014C113.337 30.9009 114.229 32.3364 115.007 33.9834C116.579 37.3116 117.5 41.0872 117.5 43C117.5 46.4286 114.313 49.4999 110 49.5C105.687 49.5 102.5 46.4287 102.5 43C102.5 41.0872 103.42 37.3116 104.992 33.9834C105.77 32.3363 106.662 30.901 107.594 29.9014C108.546 28.8798 109.361 28.5 110 28.5Z" stroke="#E34C4F" stroke-width="3"/>
<path d="M72 38.5C72.6393 38.5001 73.453 38.8801 74.4053 39.9014C75.3372 40.9009 76.2288 42.3364 77.0068 43.9834C78.579 47.3116 79.5 51.0872 79.5 53C79.5 56.4286 76.3128 59.4999 72 59.5C67.6871 59.5 64.5 56.4287 64.5 53C64.5 51.0872 65.42 47.3116 66.9922 43.9834C67.7703 42.3363 68.6617 40.901 69.5938 39.9014C70.5463 38.8798 71.3606 38.5 72 38.5Z" stroke="#E34C4F" stroke-width="3"/>
<path d="M72 48.8999C72.1756 48.8999 72.5239 49.0014 73.0342 49.5181C73.5297 50.0199 74.0279 50.7687 74.4766 51.6655C75.3931 53.4978 75.9003 55.5283 75.9004 56.4663C75.9004 57.9063 74.4107 59.4995 72 59.4995C69.5893 59.4995 68.0996 57.9064 68.0996 56.4663C68.0997 55.5283 68.606 53.4977 69.5225 51.6655C69.9711 50.7687 70.4694 50.02 70.9648 49.5181C71.4753 49.001 71.8244 48.8999 72 48.8999Z" stroke="#E34C4F" stroke-width="3"/>
<path d="M72 38.5C72.6393 38.5001 73.453 38.8801 74.4053 39.9014C75.3372 40.9009 76.2288 42.3364 77.0068 43.9834C78.579 47.3116 79.5 51.0872 79.5 53C79.5 56.4286 76.3128 59.4999 72 59.5C67.6871 59.5 64.5 56.4287 64.5 53C64.5 51.0872 65.42 47.3116 66.9922 43.9834C67.7703 42.3363 68.6617 40.901 69.5938 39.9014C70.5463 38.8798 71.3606 38.5 72 38.5Z" stroke="#E34C4F" stroke-width="3"/>
<path d="M148 38.5C148.639 38.5001 149.453 38.8801 150.405 39.9014C151.337 40.9009 152.229 42.3364 153.007 43.9834C154.579 47.3116 155.5 51.0872 155.5 53C155.5 56.4286 152.313 59.4999 148 59.5C143.687 59.5 140.5 56.4287 140.5 53C140.5 51.0872 141.42 47.3116 142.992 43.9834C143.77 42.3363 144.662 40.901 145.594 39.9014C146.546 38.8798 147.361 38.5 148 38.5Z" stroke="#E34C4F" stroke-width="3"/>
<path d="M148 48.8999C148.176 48.8999 148.524 49.0014 149.034 49.5181C149.53 50.0199 150.028 50.7687 150.477 51.6655C151.393 53.4978 151.9 55.5283 151.9 56.4663C151.9 57.9063 150.411 59.4995 148 59.4995C145.589 59.4995 144.1 57.9064 144.1 56.4663C144.1 55.5283 144.606 53.4977 145.522 51.6655C145.971 50.7687 146.469 50.02 146.965 49.5181C147.475 49.001 147.824 48.8999 148 48.8999Z" stroke="#E34C4F" stroke-width="3"/>
<path d="M148 38.5C148.639 38.5001 149.453 38.8801 150.405 39.9014C151.337 40.9009 152.229 42.3364 153.007 43.9834C154.579 47.3116 155.5 51.0872 155.5 53C155.5 56.4286 152.313 59.4999 148 59.5C143.687 59.5 140.5 56.4287 140.5 53C140.5 51.0872 141.42 47.3116 142.992 43.9834C143.77 42.3363 144.662 40.901 145.594 39.9014C146.546 38.8798 147.361 38.5 148 38.5Z" stroke="#E34C4F" stroke-width="3"/>
<path d="M91.5 57.5C93.8858 57.5 95.6006 59.0253 96.7998 61.416C98.0028 63.8143 98.5 66.7742 98.5 68.7998C98.5 72.1116 95.6746 74.5 91.5 74.5C87.3254 74.5 84.5 72.1116 84.5 68.7998C84.5 66.7742 84.9972 63.8143 86.2002 61.416C87.3994 59.0253 89.1142 57.5 91.5 57.5Z" stroke="#4E37A2" stroke-width="3"/>
<path d="M128.5 57.5C130.886 57.5 132.601 59.0253 133.8 61.416C135.003 63.8143 135.5 66.7742 135.5 68.7998C135.5 72.1116 132.675 74.5 128.5 74.5C124.325 74.5 121.5 72.1116 121.5 68.7998C121.5 66.7742 121.997 63.8143 123.2 61.416C124.399 59.0253 126.114 57.5 128.5 57.5Z" stroke="#4E37A2" stroke-width="3"/>
</g>
</svg>
