<svg width="220" height="147" viewBox="0 0 220 147" fill="none" xmlns="http://www.w3.org/2000/svg">
<mask id="mask0_5406_5967" style="mask-type:alpha" maskUnits="userSpaceOnUse" x="0" y="0" width="220" height="147">
<rect width="220" height="147" fill="#C0C0C0"/>
</mask>
<g mask="url(#mask0_5406_5967)">
<circle cx="39" cy="79" r="13.5" stroke="#4E37A2" stroke-width="3"/>
<circle cx="39" cy="79" r="5.5" stroke="#4E37A2" stroke-width="3"/>
<circle cx="113" cy="79" r="5.5" stroke="#4E37A2" stroke-width="3"/>
<circle cx="113" cy="79" r="13.5" stroke="#4E37A2" stroke-width="3"/>
<path d="M127 79H137C138.105 79 139 78.1046 139 77V45.5L136.052 20.8144C135.452 15.7859 131.187 12 126.123 12H40.7183C35.2833 12 30.22 14.759 27.2736 19.326L15.5135 37.5541C13.2199 41.1092 12 45.2502 12 49.4809V77C12 78.1046 12.8954 79 14 79H25.5" stroke="#4E37A2" stroke-width="3"/>
<path d="M52 79H99" stroke="#4E37A2" stroke-width="3"/>
<path d="M12 55L21 55V62H12" stroke="#4E37A2" stroke-width="3" stroke-linejoin="round"/>
<path d="M65 23H126L128 46H65V23Z" stroke="#4E37A2" stroke-width="3" stroke-linejoin="round"/>
<path d="M38 23H57V46H23L38 23Z" stroke="#4E37A2" stroke-width="3" stroke-linejoin="round"/>
<path d="M95 23V46" stroke="#4E37A2" stroke-width="3"/>
<circle cx="175" cy="77" r="3.5" stroke="#E34C4F" stroke-width="3"/>
<mask id="path-13-inside-1_5406_5967" fill="white">
<path d="M175 67C180.523 67 185 71.4772 185 77C185 78.5596 184.642 80.0351 184.005 81.3506C188.732 83.5986 192 88.4173 192 94V121.5C192 123.985 189.985 126 187.5 126C185.015 126 183 123.985 183 121.5V116.714C183 114.663 181.337 113 179.286 113H170.714C168.663 113 167 114.663 167 116.714V121.5C167 123.985 164.985 126 162.5 126C160.015 126 158 123.985 158 121.5V94C158 88.4176 161.268 83.5988 165.994 81.3506C165.358 80.0352 165 78.5594 165 77C165 71.4772 169.477 67 175 67Z"/>
</mask>
<path d="M184.005 81.3506L181.305 80.0436C180.956 80.7629 180.91 81.5915 181.175 82.3455C181.44 83.0995 181.995 83.7166 182.716 84.0598L184.005 81.3506ZM183 121.5H180H183ZM183 116.714H186V116.714L183 116.714ZM179.286 113L179.286 110H179.286V113ZM170.714 113V110H170.714L170.714 113ZM167 116.714L164 116.714V116.714H167ZM167 121.5H170H167ZM165.994 81.3506L167.283 84.0597C168.004 83.7165 168.559 83.0994 168.824 82.3455C169.089 81.5916 169.043 80.763 168.695 80.0437L165.994 81.3506ZM175 67V70C178.866 70 182 73.134 182 77H185H188C188 69.8203 182.18 64 175 64V67ZM185 77H182C182 78.0951 181.749 79.1248 181.305 80.0436L184.005 81.3506L186.705 82.6576C187.534 80.9453 188 79.024 188 77H185ZM184.005 81.3506L182.716 84.0598C186.438 85.8296 189 89.6184 189 94H192H195C195 87.2161 191.026 81.3676 185.293 78.6413L184.005 81.3506ZM192 94H189V121.5H192H195V94H192ZM192 121.5H189C189 122.328 188.328 123 187.5 123V126V129C191.642 129 195 125.642 195 121.5H192ZM187.5 126V123C186.672 123 186 122.328 186 121.5H183H180C180 125.642 183.358 129 187.5 129V126ZM183 121.5H186V116.714H183H180V121.5H183ZM183 116.714L186 116.714C186 113.006 182.994 110 179.286 110L179.286 113L179.286 116C179.68 116 180 116.32 180 116.714L183 116.714ZM179.286 113V110H170.714V113V116H179.286V113ZM170.714 113L170.714 110C167.006 110 164 113.006 164 116.714L167 116.714L170 116.714C170 116.32 170.32 116 170.714 116L170.714 113ZM167 116.714H164V121.5H167H170V116.714H167ZM167 121.5H164C164 122.328 163.328 123 162.5 123V126V129C166.642 129 170 125.642 170 121.5H167ZM162.5 126V123C161.672 123 161 122.328 161 121.5H158H155C155 125.642 158.358 129 162.5 129V126ZM158 121.5H161V94H158H155V121.5H158ZM158 94H161C161 89.6185 163.562 85.8296 167.283 84.0597L165.994 81.3506L164.706 78.6414C158.973 81.3679 155 87.2167 155 94H158ZM165.994 81.3506L168.695 80.0437C168.25 79.1261 168 78.0962 168 77H165H162C162 79.0226 162.465 80.9442 163.294 82.6575L165.994 81.3506ZM165 77H168C168 73.134 171.134 70 175 70V67V64C167.82 64 162 69.8203 162 77H165Z" fill="#E34C4F" mask="url(#path-13-inside-1_5406_5967)"/>
<mask id="path-15-inside-2_5406_5967" fill="white">
<rect x="169" y="115" width="12" height="22" rx="2"/>
</mask>
<rect x="169" y="115" width="12" height="22" rx="2" stroke="#E34C4F" stroke-width="6" mask="url(#path-15-inside-2_5406_5967)"/>
<path d="M172 99H178" stroke="#E34C4F" stroke-width="3" stroke-linecap="round"/>
<path d="M152 75.5C151.172 75.5 150.5 76.1716 150.5 77C150.5 77.8284 151.172 78.5 152 78.5V77V75.5ZM152 77V78.5H155V77V75.5H152V77Z" fill="#E34C4F"/>
<path d="M198 78.51C198.828 78.51 199.5 77.8384 199.5 77.01C199.5 76.1816 198.828 75.51 198 75.51L198 77.01L198 78.51ZM198 77.01L198 75.51L195 75.51L195 77.01L195 78.51L198 78.51L198 77.01Z" fill="#E34C4F"/>
<path d="M157 77H167" stroke="#E34C4F" stroke-width="3"/>
<path d="M193 77.01L183 77.01" stroke="#E34C4F" stroke-width="3"/>
<path d="M172 105H178" stroke="#E34C4F" stroke-width="3" stroke-linecap="round"/>
</g>
</svg>
