<svg width="96" height="110" viewBox="0 0 96 110" fill="none" xmlns="http://www.w3.org/2000/svg">
<circle cx="48" cy="48" r="48" fill="#4E37A2"/>
<path d="M22.312 38.656L16.96 41.632V36.76L24.712 32.32H27.376V64H22.312V38.656ZM33.688 32.32H54.856V35.848L38.848 64H33.232L48.928 36.808H33.688V32.32Z" fill="white"/>
<path d="M72.36 63.848C72.328 63.448 72.248 62.968 72.12 62.408C72.008 61.848 71.88 61.4 71.736 61.064H73.416C73.752 61.064 73.992 61.008 74.136 60.896C74.28 60.784 74.352 60.568 74.352 60.248V56.192H69.384C69.752 56.448 70.144 56.744 70.56 57.08C70.976 57.416 71.368 57.752 71.736 58.088C72.12 58.408 72.424 58.704 72.648 58.976C72.472 59.12 72.248 59.336 71.976 59.624C71.72 59.896 71.472 60.176 71.232 60.464C71.008 60.736 70.848 60.944 70.752 61.088C70.512 60.736 70.184 60.352 69.768 59.936C69.352 59.504 68.92 59.104 68.472 58.736C68.04 58.352 67.664 58.056 67.344 57.848L68.832 56.192H66.768V53.672H74.352V51.704H66.408V49.16H71.376V47.168H66.984V44.648H71.376V41.888H74.376V44.648H79.056V47.168H74.376V49.16H79.968V51.704H77.28V53.672H79.704V56.192H77.28V61.28C77.28 62.992 76.256 63.848 74.208 63.848H72.36ZM58.656 59.576V43.736H65.832V59.576H58.656ZM61.296 57.032H63.192V52.88H61.296V57.032ZM61.296 50.36H63.192V46.256H61.296V50.36Z" fill="white"/>
<path d="M38 94H58L49.696 108.943C48.9127 110.352 47.0873 110.352 46.304 108.943L38 94Z" fill="#4E37A2"/>
</svg>
