<svg width="96" height="110" viewBox="0 0 96 110" fill="none" xmlns="http://www.w3.org/2000/svg">
<circle cx="48" cy="48" r="48" fill="#4E37A2"/>
<path d="M21.312 38.656L15.96 41.632V36.76L23.712 32.32H26.376V64H21.312V38.656ZM32.04 37.768C32.152 37.304 32.432 36.736 32.88 36.064C33.344 35.392 33.976 34.728 34.776 34.072C35.576 33.416 36.576 32.864 37.776 32.416C38.992 31.968 40.408 31.744 42.024 31.744C44.04 31.744 45.784 32.12 47.256 32.872C48.744 33.608 49.888 34.624 50.688 35.92C51.488 37.216 51.888 38.696 51.888 40.36C51.888 41.528 51.656 42.592 51.192 43.552C50.744 44.512 50.16 45.304 49.44 45.928C48.736 46.536 47.984 46.92 47.184 47.08C48.048 47.176 48.92 47.536 49.8 48.16C50.696 48.768 51.44 49.616 52.032 50.704C52.64 51.776 52.944 53.048 52.944 54.52C52.944 56.44 52.472 58.16 51.528 59.68C50.6 61.2 49.304 62.4 47.64 63.28C45.992 64.144 44.088 64.576 41.928 64.576C39.768 64.576 37.928 64.208 36.408 63.472C34.888 62.72 33.672 61.8 32.76 60.712C31.864 59.624 31.256 58.576 30.936 57.568L35.568 55.24C35.792 55.928 36.168 56.656 36.696 57.424C37.24 58.176 37.944 58.816 38.808 59.344C39.688 59.872 40.712 60.136 41.88 60.136C43.16 60.136 44.248 59.88 45.144 59.368C46.04 58.856 46.72 58.168 47.184 57.304C47.648 56.44 47.88 55.472 47.88 54.4C47.88 53.216 47.6 52.248 47.04 51.496C46.48 50.744 45.744 50.184 44.832 49.816C43.936 49.448 42.952 49.264 41.88 49.264H41.256V45.52H42.072C43 45.52 43.856 45.328 44.64 44.944C45.44 44.56 46.08 44.008 46.56 43.288C47.04 42.568 47.28 41.704 47.28 40.696C47.28 39.368 46.832 38.24 45.936 37.312C45.056 36.384 43.728 35.92 41.952 35.92C40.96 35.92 40.104 36.08 39.384 36.4C38.68 36.704 38.104 37.08 37.656 37.528C37.208 37.96 36.872 38.384 36.648 38.8C36.424 39.216 36.288 39.528 36.24 39.736L32.04 37.768Z" fill="white"/>
<path d="M73.36 63.848C73.328 63.448 73.248 62.968 73.12 62.408C73.008 61.848 72.88 61.4 72.736 61.064H74.416C74.752 61.064 74.992 61.008 75.136 60.896C75.28 60.784 75.352 60.568 75.352 60.248V56.192H70.384C70.752 56.448 71.144 56.744 71.56 57.08C71.976 57.416 72.368 57.752 72.736 58.088C73.12 58.408 73.424 58.704 73.648 58.976C73.472 59.12 73.248 59.336 72.976 59.624C72.72 59.896 72.472 60.176 72.232 60.464C72.008 60.736 71.848 60.944 71.752 61.088C71.512 60.736 71.184 60.352 70.768 59.936C70.352 59.504 69.92 59.104 69.472 58.736C69.04 58.352 68.664 58.056 68.344 57.848L69.832 56.192H67.768V53.672H75.352V51.704H67.408V49.16H72.376V47.168H67.984V44.648H72.376V41.888H75.376V44.648H80.056V47.168H75.376V49.16H80.968V51.704H78.28V53.672H80.704V56.192H78.28V61.28C78.28 62.992 77.256 63.848 75.208 63.848H73.36ZM59.656 59.576V43.736H66.832V59.576H59.656ZM62.296 57.032H64.192V52.88H62.296V57.032ZM62.296 50.36H64.192V46.256H62.296V50.36Z" fill="white"/>
<path d="M38 94H58L49.696 108.943C48.9127 110.352 47.0873 110.352 46.304 108.943L38 94Z" fill="#4E37A2"/>
</svg>
