<svg width="438" height="118" viewBox="0 0 438 118" fill="none" xmlns="http://www.w3.org/2000/svg">
<path d="M93.6169 22.104V16.896C92.8969 17.568 92.0649 18.216 91.1209 18.84C90.1769 19.448 89.1929 20 88.1689 20.496C87.1609 20.992 86.1689 21.4 85.1929 21.72C85.1449 21.592 85.0489 21.416 84.9049 21.192C84.7609 20.968 84.6089 20.736 84.4489 20.496C84.2889 20.272 84.1529 20.104 84.0409 19.992C84.9369 19.736 85.8809 19.384 86.8729 18.936C87.8649 18.472 88.8249 17.96 89.7529 17.4C90.6969 16.824 91.5129 16.264 92.2009 15.72H84.1129V13.992H93.6169V12.504H86.4649V10.848H93.6169V9.43201H85.4569V7.72801H90.2329C90.0889 7.40801 89.9369 7.08001 89.7769 6.74401C89.6169 6.40801 89.4569 6.11201 89.2969 5.85601H84.0889V4.12801H88.1209C87.9129 3.71201 87.6649 3.20801 87.3769 2.61601C87.0889 2.02401 86.8089 1.55201 86.5369 1.20001L88.4089 0.312006C88.6009 0.616006 88.8089 0.976007 89.0329 1.39201C89.2569 1.80801 89.4649 2.21601 89.6569 2.61601C89.8649 3.00001 90.0169 3.31201 90.1129 3.55201L88.7689 4.12801H91.4809V0.192007H93.5209V4.12801H95.6809V0.192007H97.7209V4.12801H100.481L98.8969 3.50401C99.1049 3.23201 99.3289 2.90401 99.5689 2.52001C99.8089 2.13601 100.033 1.75201 100.241 1.36801C100.449 0.968007 100.609 0.624006 100.721 0.336006L102.761 0.984006C102.601 1.28801 102.401 1.64001 102.161 2.04001C101.921 2.42401 101.681 2.80801 101.441 3.19201C101.201 3.56001 100.985 3.87201 100.793 4.12801H105.185V5.85601H99.9529C99.8409 6.16001 99.7049 6.48001 99.5449 6.81601C99.3849 7.13601 99.2329 7.44001 99.0889 7.72801H103.673V9.43201H95.6809V10.848H102.761V12.504H95.6809V13.992H105.185V15.72H97.0489C97.7529 16.264 98.5609 16.816 99.4729 17.376C100.401 17.92 101.361 18.424 102.353 18.888C103.345 19.352 104.281 19.712 105.161 19.968C105.049 20.08 104.913 20.248 104.753 20.472C104.609 20.712 104.473 20.944 104.345 21.168C104.217 21.408 104.121 21.592 104.057 21.72C103.097 21.4 102.105 20.992 101.081 20.496C100.073 20 99.1049 19.448 98.1769 18.84C97.2489 18.216 96.4169 17.576 95.6809 16.92V22.104H93.6169ZM92.5369 7.72801H96.7609C96.9049 7.45601 97.0569 7.15201 97.2169 6.81601C97.3769 6.48001 97.5209 6.16001 97.6489 5.85601H91.6969C91.8569 6.17601 92.0089 6.50401 92.1529 6.84001C92.3129 7.17601 92.4409 7.47201 92.5369 7.72801ZM110.633 22.104C110.553 21.976 110.433 21.792 110.273 21.552C110.113 21.328 109.945 21.096 109.769 20.856C109.593 20.632 109.433 20.464 109.289 20.352C111.177 19.776 112.577 18.912 113.489 17.76C114.417 16.608 114.857 15.064 114.809 13.128C113.881 13.816 112.849 14.456 111.713 15.048C110.593 15.624 109.433 16.12 108.233 16.536C108.169 16.36 108.065 16.152 107.921 15.912C107.793 15.656 107.649 15.416 107.489 15.192C107.345 14.968 107.217 14.808 107.105 14.712C108.193 14.44 109.249 14.064 110.273 13.584C111.297 13.104 112.249 12.552 113.129 11.928C114.009 11.288 114.761 10.624 115.385 9.93601H110.441V0.912007H126.833V9.93601H121.817C122.505 10.64 123.329 11.296 124.289 11.904C125.249 12.496 126.241 13 127.265 13.416C128.305 13.832 129.281 14.136 130.193 14.328C130.001 14.584 129.785 14.912 129.545 15.312C129.305 15.712 129.129 16.064 129.017 16.368C128.009 16.048 126.985 15.64 125.945 15.144C124.921 14.648 123.937 14.088 122.993 13.464V21.816H120.809V12.84H122.153C121.593 12.408 121.065 11.952 120.569 11.472C120.089 10.992 119.665 10.48 119.297 9.93601H117.881C117.529 10.48 117.113 11 116.633 11.496C116.169 11.976 115.649 12.448 115.073 12.912L116.921 13.056C116.953 15.376 116.425 17.272 115.337 18.744C114.249 20.2 112.681 21.32 110.633 22.104ZM112.697 8.20801H117.545V6.16801H112.697V8.20801ZM119.753 8.20801H124.601V6.16801H119.753V8.20801ZM112.697 4.68001H117.545V2.64001H112.697V4.68001ZM119.753 4.68001H124.601V2.64001H119.753V4.68001ZM141.569 21.936V13.032C140.417 14.52 139.073 15.912 137.537 17.208C136.001 18.504 134.377 19.632 132.665 20.592C132.585 20.432 132.449 20.232 132.257 19.992C132.081 19.752 131.897 19.528 131.705 19.32C131.513 19.096 131.361 18.944 131.249 18.864C132.113 18.464 133.001 17.968 133.913 17.376C134.825 16.768 135.705 16.112 136.553 15.408C137.417 14.688 138.217 13.944 138.953 13.176C139.705 12.408 140.345 11.664 140.873 10.944H132.281V8.92801H141.569V5.49601H133.817V3.48001H141.569V0.168007H143.753V3.48001H151.481V5.49601H143.753V8.92801H152.993V10.944H144.377C145.129 11.936 146.033 12.928 147.089 13.92C148.161 14.912 149.297 15.832 150.497 16.68C151.713 17.528 152.905 18.232 154.073 18.792C153.929 18.888 153.745 19.056 153.521 19.296C153.313 19.52 153.113 19.76 152.921 20.016C152.729 20.256 152.585 20.464 152.489 20.64C151.497 20.096 150.473 19.44 149.417 18.672C148.361 17.888 147.345 17.016 146.369 16.056C145.409 15.096 144.537 14.088 143.753 13.032V21.936H141.569ZM159.761 21.96V11.904C159.057 11.984 158.369 12.056 157.697 12.12C157.041 12.184 156.473 12.232 155.993 12.264L155.705 10.368C155.929 10.352 156.169 10.344 156.425 10.344C156.681 10.328 156.961 10.312 157.265 10.296C157.585 9.97601 157.929 9.57601 158.297 9.09601C158.665 8.60001 159.041 8.08001 159.425 7.53601C158.897 7.08801 158.281 6.61601 157.577 6.12001C156.889 5.60801 156.249 5.17601 155.657 4.82401L156.737 3.26401C156.897 3.36001 157.057 3.46401 157.217 3.57601C157.393 3.68801 157.577 3.80801 157.769 3.93601C158.009 3.55201 158.257 3.12801 158.513 2.66401C158.785 2.18401 159.033 1.72001 159.257 1.27201C159.497 0.808007 159.673 0.432007 159.785 0.144007L161.585 0.888006C161.265 1.52801 160.889 2.21601 160.457 2.95201C160.025 3.68801 159.601 4.35201 159.185 4.94401C159.425 5.12001 159.657 5.29601 159.881 5.47201C160.105 5.63201 160.313 5.79201 160.505 5.95201C160.953 5.26401 161.361 4.61601 161.729 4.00801C162.097 3.38401 162.385 2.87201 162.593 2.47201L164.273 3.36001C163.921 4.00001 163.481 4.72001 162.953 5.52001C162.425 6.32001 161.873 7.12801 161.297 7.94401C160.721 8.76001 160.161 9.50401 159.617 10.176C160.769 10.096 161.833 10.008 162.809 9.91201C162.681 9.60801 162.553 9.32801 162.425 9.07201C162.313 8.81601 162.193 8.59201 162.065 8.40001L163.745 7.75201C163.969 8.13601 164.209 8.60801 164.465 9.16801C164.721 9.71201 164.961 10.272 165.185 10.848C165.425 11.408 165.617 11.912 165.761 12.36C165.633 12.392 165.449 12.456 165.209 12.552C164.985 12.632 164.753 12.72 164.513 12.816C164.289 12.912 164.113 12.992 163.985 13.056C163.921 12.832 163.841 12.584 163.745 12.312C163.649 12.04 163.537 11.752 163.409 11.448C163.169 11.48 162.905 11.52 162.617 11.568C162.345 11.6 162.057 11.632 161.753 11.664V21.96H159.761ZM166.313 11.664C166.265 11.52 166.177 11.336 166.049 11.112C165.921 10.888 165.785 10.672 165.641 10.464C165.497 10.24 165.369 10.072 165.257 9.96001C166.105 9.65601 166.905 9.29601 167.657 8.88001C168.409 8.44801 169.105 7.98401 169.745 7.48801C168.641 6.32001 167.713 4.82401 166.961 3.00001H165.113V1.22401H175.697L176.369 1.92001C175.905 2.99201 175.369 3.99201 174.761 4.92001C174.153 5.83201 173.481 6.67201 172.745 7.44001C173.497 7.93601 174.297 8.35201 175.145 8.68801C175.993 9.02401 176.873 9.29601 177.785 9.50401C177.689 9.61601 177.561 9.79201 177.401 10.032C177.257 10.272 177.121 10.52 176.993 10.776C176.865 11.032 176.777 11.232 176.729 11.376C175.657 11.056 174.665 10.696 173.753 10.296C172.841 9.88001 172.009 9.39201 171.257 8.83201C170.521 9.42401 169.737 9.96001 168.905 10.44C168.089 10.904 167.225 11.312 166.313 11.664ZM164.609 21.096V19.176H170.129V15.744H166.241V13.824H170.129V11.04H172.265V13.824H176.441V15.744H172.265V19.176H177.641V21.096H164.609ZM157.241 19.536C157.033 19.456 156.745 19.344 156.377 19.2C156.025 19.056 155.745 18.976 155.537 18.96C155.809 18.512 156.081 17.952 156.353 17.28C156.625 16.592 156.865 15.888 157.073 15.168C157.281 14.432 157.433 13.776 157.529 13.2L159.209 13.56C159.113 14.184 158.961 14.872 158.753 15.624C158.545 16.36 158.305 17.072 158.033 17.76C157.777 18.448 157.513 19.04 157.241 19.536ZM164.105 18.336C163.945 17.968 163.753 17.496 163.529 16.92C163.321 16.344 163.121 15.752 162.929 15.144C162.737 14.536 162.585 14.008 162.473 13.56L164.201 13.08C164.329 13.512 164.489 14.008 164.681 14.568C164.873 15.128 165.081 15.672 165.305 16.2C165.529 16.728 165.737 17.176 165.929 17.544C165.689 17.608 165.377 17.728 164.993 17.904C164.625 18.064 164.329 18.208 164.105 18.336ZM171.185 6.19201C171.697 5.68001 172.153 5.16001 172.553 4.63201C172.953 4.08801 173.289 3.54401 173.561 3.00001H168.929C169.233 3.64001 169.569 4.22401 169.937 4.75201C170.321 5.28001 170.737 5.76001 171.185 6.19201ZM189.737 22.08C189.689 21.952 189.593 21.776 189.449 21.552C189.305 21.328 189.153 21.104 188.993 20.88C188.849 20.656 188.713 20.496 188.585 20.4C190.009 19.92 191.185 19.272 192.113 18.456C193.041 17.64 193.657 16.6 193.961 15.336H189.857V9.60001H194.177V7.87201H191.177V6.33601C190.857 6.60801 190.529 6.85601 190.193 7.08001C189.873 7.30401 189.577 7.50401 189.305 7.68001C189.241 7.56801 189.129 7.41601 188.969 7.22401C188.809 7.03201 188.641 6.84001 188.465 6.64801C188.289 6.44001 188.137 6.28801 188.009 6.19201H186.017V8.01601H188.321V9.67201H186.017V11.76H188.969C188.969 12.656 188.953 13.584 188.921 14.544C188.889 15.488 188.841 16.376 188.777 17.208C188.713 18.04 188.617 18.752 188.489 19.344C188.297 20.32 187.969 20.984 187.505 21.336C187.041 21.704 186.313 21.888 185.321 21.888H184.073C184.057 21.632 184.001 21.312 183.905 20.928C183.825 20.544 183.745 20.248 183.665 20.04H185.057C185.617 20.04 186.009 19.952 186.233 19.776C186.457 19.6 186.633 19.208 186.761 18.6C186.809 18.424 186.849 18.224 186.881 18C186.913 17.776 186.937 17.536 186.953 17.28C186.825 17.312 186.633 17.368 186.377 17.448C186.121 17.512 185.953 17.56 185.873 17.592C185.809 17.128 185.705 16.584 185.561 15.96C185.433 15.32 185.289 14.8 185.129 14.4L186.233 14.112C186.361 14.448 186.497 14.904 186.641 15.48C186.785 16.056 186.897 16.552 186.977 16.968C187.009 16.408 187.033 15.816 187.049 15.192C187.081 14.552 187.097 13.96 187.097 13.416H180.569V1.00801H189.041V2.71201H186.017V4.53601H188.321V6.00001C189.073 5.60001 189.833 5.07201 190.601 4.41601C191.369 3.74401 192.065 3.02401 192.689 2.25601C193.313 1.47201 193.785 0.720006 194.105 6.19888e-06L195.713 0.288007C196.145 0.976007 196.705 1.65601 197.393 2.32801C198.097 3.00001 198.865 3.61601 199.697 4.17601C200.545 4.73601 201.385 5.19201 202.217 5.54401C202.089 5.67201 201.937 5.85601 201.761 6.09601C201.601 6.32001 201.449 6.55201 201.305 6.79201C201.161 7.01601 201.065 7.20001 201.017 7.34401C200.297 6.97601 199.553 6.51201 198.785 5.95201C198.017 5.39201 197.297 4.79201 196.625 4.15201C195.953 3.49601 195.409 2.85601 194.993 2.23201C194.609 2.87201 194.097 3.53601 193.457 4.22401C192.833 4.89601 192.177 5.52001 191.489 6.09601H198.977V7.87201H196.145V9.60001H200.537V15.336H196.577C197.025 16.456 197.761 17.44 198.785 18.288C199.809 19.12 200.929 19.768 202.145 20.232C202.033 20.328 201.881 20.488 201.689 20.712C201.513 20.952 201.345 21.192 201.185 21.432C201.041 21.672 200.937 21.856 200.873 21.984C199.785 21.488 198.753 20.848 197.777 20.064C196.801 19.264 196.017 18.296 195.425 17.16C194.929 18.328 194.185 19.304 193.193 20.088C192.201 20.872 191.049 21.536 189.737 22.08ZM179.609 19.104C179.641 18.768 179.665 18.336 179.681 17.808C179.697 17.28 179.705 16.752 179.705 16.224C179.705 15.68 179.689 15.248 179.657 14.928L181.049 14.784C181.081 15.104 181.097 15.536 181.097 16.08C181.113 16.608 181.121 17.144 181.121 17.688C181.121 18.216 181.113 18.656 181.097 19.008C180.921 19.008 180.673 19.016 180.353 19.032C180.049 19.048 179.801 19.072 179.609 19.104ZM196.145 13.608H198.641V11.304H196.145V13.608ZM191.753 13.608H194.177V11.304H191.753V13.608ZM181.913 18.552C181.913 18.248 181.897 17.864 181.865 17.4C181.833 16.92 181.793 16.448 181.745 15.984C181.713 15.52 181.673 15.168 181.625 14.928L182.873 14.736C182.921 15.04 182.969 15.424 183.017 15.888C183.081 16.336 183.129 16.784 183.161 17.232C183.209 17.68 183.233 18.048 183.233 18.336C183.121 18.352 182.905 18.384 182.585 18.432C182.265 18.48 182.041 18.52 181.913 18.552ZM183.953 18.096C183.937 17.776 183.897 17.4 183.833 16.968C183.785 16.536 183.721 16.112 183.641 15.696C183.577 15.28 183.505 14.944 183.425 14.688L184.601 14.448C184.681 14.736 184.761 15.096 184.841 15.528C184.921 15.944 184.993 16.36 185.057 16.776C185.121 17.192 185.161 17.536 185.177 17.808C185.129 17.824 185.017 17.856 184.841 17.904C184.665 17.936 184.489 17.976 184.313 18.024C184.137 18.056 184.017 18.08 183.953 18.096ZM182.345 11.76H184.313V9.67201H182.345V11.76ZM182.345 8.01601H184.313V6.19201H182.345V8.01601ZM182.345 4.53601H184.313V2.71201H182.345V4.53601ZM216.377 20.112C216.297 19.824 216.121 19.464 215.849 19.032C215.593 18.584 215.337 18.248 215.081 18.024C216.521 17.8 217.745 17.384 218.753 16.776C219.761 16.168 220.537 15.424 221.081 14.544C221.641 13.664 221.945 12.712 221.993 11.688C222.041 10.728 221.905 9.84801 221.585 9.04801C221.281 8.23201 220.841 7.52001 220.265 6.91201C219.689 6.30401 219.017 5.82401 218.249 5.47201C217.497 5.10401 216.689 4.89601 215.825 4.84801C215.713 6.40001 215.481 7.96801 215.129 9.55201C214.777 11.136 214.297 12.608 213.689 13.968C213.097 15.328 212.385 16.464 211.553 17.376C210.993 17.984 210.425 18.344 209.849 18.456C209.289 18.568 208.697 18.496 208.073 18.24C207.465 17.984 206.921 17.568 206.441 16.992C205.961 16.4 205.593 15.696 205.337 14.88C205.081 14.064 204.977 13.184 205.025 12.24C205.105 10.832 205.433 9.53601 206.009 8.35201C206.601 7.16801 207.393 6.15201 208.385 5.30401C209.377 4.44001 210.513 3.79201 211.793 3.36001C213.073 2.91201 214.441 2.72801 215.897 2.80801C217.049 2.87201 218.137 3.13601 219.161 3.60001C220.185 4.06401 221.089 4.69601 221.873 5.49601C222.657 6.29601 223.257 7.23201 223.673 8.30401C224.105 9.37601 224.289 10.56 224.225 11.856C224.113 13.936 223.369 15.696 221.993 17.136C220.617 18.576 218.745 19.568 216.377 20.112ZM208.697 16.008C208.873 16.12 209.081 16.176 209.321 16.176C209.561 16.16 209.793 16.032 210.017 15.792C210.641 15.136 211.201 14.24 211.697 13.104C212.209 11.968 212.633 10.696 212.969 9.28801C213.305 7.88001 213.521 6.44801 213.617 4.99201C212.401 5.21601 211.321 5.68001 210.377 6.38401C209.433 7.08801 208.681 7.95201 208.121 8.97601C207.561 10 207.249 11.12 207.185 12.336C207.137 13.216 207.265 13.984 207.569 14.64C207.873 15.28 208.249 15.736 208.697 16.008ZM233.537 21.816V15.528C232.785 16.184 231.985 16.8 231.137 17.376C230.289 17.936 229.393 18.456 228.449 18.936C228.385 18.792 228.273 18.6 228.113 18.36C227.953 18.12 227.785 17.888 227.609 17.664C227.433 17.424 227.281 17.248 227.153 17.136C228.833 16.4 230.345 15.464 231.689 14.328C233.049 13.176 234.201 11.936 235.145 10.608H228.017V8.68801H236.345C236.889 7.68001 237.313 6.68001 237.617 5.68801L239.705 6.26401C239.545 6.68001 239.377 7.09601 239.201 7.51201C239.041 7.91201 238.873 8.30401 238.697 8.68801H249.233V10.608H237.665C237.345 11.12 237.009 11.624 236.657 12.12C236.305 12.6 235.929 13.064 235.529 13.512H246.329V21.816H233.537ZM233.873 7.05601V4.65601H228.017V2.80801H233.873V0.288007H236.033V2.80801H241.049V0.288007H243.209V2.80801H249.281V4.65601H243.209V6.91201H241.049V4.65601H236.033V7.05601H233.873ZM235.769 19.92H244.097V15.408H235.769V19.92ZM260.465 17.568C259.777 17.968 259.105 18.136 258.449 18.072C257.793 17.992 257.193 17.528 256.649 16.68C256.185 15.912 255.761 15.032 255.377 14.04C254.993 13.032 254.657 11.968 254.369 10.848C254.097 9.71201 253.889 8.59201 253.745 7.48801C253.601 6.36801 253.537 5.32001 253.553 4.34401L255.809 4.36801C255.777 5.18401 255.809 6.06401 255.905 7.00801C256.001 7.95201 256.153 8.89601 256.361 9.84001C256.585 10.784 256.841 11.68 257.129 12.528C257.433 13.376 257.769 14.112 258.137 14.736C258.409 15.184 258.689 15.432 258.977 15.48C259.265 15.528 259.553 15.448 259.841 15.24C260.241 14.968 260.657 14.6 261.089 14.136C261.537 13.656 261.889 13.208 262.145 12.792C262.257 13.08 262.441 13.408 262.697 13.776C262.969 14.144 263.209 14.432 263.417 14.64C263.065 15.184 262.609 15.736 262.049 16.296C261.505 16.84 260.977 17.264 260.465 17.568ZM269.921 13.248C269.777 12.816 269.545 12.264 269.225 11.592C268.905 10.92 268.537 10.224 268.121 9.50401C267.705 8.78401 267.281 8.11201 266.849 7.48801C266.433 6.84801 266.057 6.34401 265.721 5.97601L267.497 4.84801C267.865 5.26401 268.273 5.80001 268.721 6.45601C269.185 7.11201 269.641 7.81601 270.089 8.56801C270.537 9.30401 270.929 10.008 271.265 10.68C271.617 11.352 271.873 11.92 272.033 12.384C271.665 12.448 271.281 12.568 270.881 12.744C270.481 12.904 270.161 13.072 269.921 13.248ZM288.377 20.112C288.297 19.824 288.121 19.464 287.849 19.032C287.593 18.584 287.337 18.248 287.081 18.024C288.521 17.8 289.745 17.384 290.753 16.776C291.761 16.168 292.537 15.424 293.081 14.544C293.641 13.664 293.945 12.712 293.993 11.688C294.041 10.728 293.905 9.84801 293.585 9.04801C293.281 8.23201 292.841 7.52001 292.265 6.91201C291.689 6.30401 291.017 5.82401 290.249 5.47201C289.497 5.10401 288.689 4.89601 287.825 4.84801C287.713 6.40001 287.481 7.96801 287.129 9.55201C286.777 11.136 286.297 12.608 285.689 13.968C285.097 15.328 284.385 16.464 283.553 17.376C282.993 17.984 282.425 18.344 281.849 18.456C281.289 18.568 280.697 18.496 280.073 18.24C279.465 17.984 278.921 17.568 278.441 16.992C277.961 16.4 277.593 15.696 277.337 14.88C277.081 14.064 276.977 13.184 277.025 12.24C277.105 10.832 277.433 9.53601 278.009 8.35201C278.601 7.16801 279.393 6.15201 280.385 5.30401C281.377 4.44001 282.513 3.79201 283.793 3.36001C285.073 2.91201 286.441 2.72801 287.897 2.80801C289.049 2.87201 290.137 3.13601 291.161 3.60001C292.185 4.06401 293.089 4.69601 293.873 5.49601C294.657 6.29601 295.257 7.23201 295.673 8.30401C296.105 9.37601 296.289 10.56 296.225 11.856C296.113 13.936 295.369 15.696 293.993 17.136C292.617 18.576 290.745 19.568 288.377 20.112ZM280.697 16.008C280.873 16.12 281.081 16.176 281.321 16.176C281.561 16.16 281.793 16.032 282.017 15.792C282.641 15.136 283.201 14.24 283.697 13.104C284.209 11.968 284.633 10.696 284.969 9.28801C285.305 7.88001 285.521 6.44801 285.617 4.99201C284.401 5.21601 283.321 5.68001 282.377 6.38401C281.433 7.08801 280.681 7.95201 280.121 8.97601C279.561 10 279.249 11.12 279.185 12.336C279.137 13.216 279.265 13.984 279.569 14.64C279.873 15.28 280.249 15.736 280.697 16.008ZM300.737 22.008C300.673 21.864 300.561 21.664 300.401 21.408C300.257 21.168 300.097 20.92 299.921 20.664C299.745 20.424 299.585 20.248 299.441 20.136C302.369 19.048 304.609 17.352 306.161 15.048C307.713 12.728 308.537 9.76001 308.633 6.14401H299.705V4.08001H309.113V0.192007H311.513V4.08001H320.969V6.14401H310.961C310.945 6.68801 310.913 7.21601 310.865 7.72801C310.833 8.22401 310.777 8.72001 310.697 9.21601H318.377C318.361 9.98401 318.313 10.824 318.233 11.736C318.153 12.632 318.049 13.528 317.921 14.424C317.809 15.32 317.681 16.152 317.537 16.92C317.393 17.688 317.233 18.328 317.057 18.84C316.801 19.592 316.497 20.176 316.145 20.592C315.793 21.008 315.353 21.296 314.825 21.456C314.313 21.616 313.665 21.696 312.881 21.696H310.553C310.537 21.376 310.473 20.976 310.361 20.496C310.265 20.016 310.161 19.648 310.049 19.392H312.473C313.177 19.392 313.689 19.28 314.009 19.056C314.345 18.832 314.609 18.448 314.801 17.904C314.929 17.52 315.049 17.048 315.161 16.488C315.289 15.928 315.401 15.336 315.497 14.712C315.593 14.088 315.665 13.48 315.713 12.888C315.777 12.296 315.817 11.776 315.833 11.328H310.265C309.641 13.776 308.553 15.896 307.001 17.688C305.465 19.48 303.377 20.92 300.737 22.008ZM340.097 20.88C338.497 20.688 337.081 20.208 335.849 19.44C334.633 18.672 333.673 17.68 332.969 16.464C332.281 15.248 331.937 13.888 331.937 12.384C331.937 11.584 332.073 10.76 332.345 9.91201C332.617 9.04801 333.033 8.20801 333.593 7.39201C334.169 6.57601 334.881 5.85601 335.729 5.23201C334.737 5.40801 333.729 5.59201 332.705 5.78401C331.681 5.96001 330.689 6.13601 329.729 6.31201C328.785 6.48801 327.937 6.65601 327.185 6.81601C326.433 6.96001 325.841 7.08801 325.409 7.20001L324.905 4.82401C325.433 4.77601 326.153 4.69601 327.065 4.58401C327.977 4.47201 329.001 4.32801 330.137 4.15201C331.273 3.97601 332.449 3.79201 333.665 3.60001C334.881 3.39201 336.057 3.18401 337.193 2.97601C338.329 2.76801 339.353 2.56801 340.265 2.37601C341.177 2.18401 341.897 2.01601 342.425 1.87201L343.001 4.12801C342.793 4.14401 342.513 4.17601 342.161 4.22401C341.825 4.27201 341.441 4.32801 341.009 4.39201C340.097 4.53601 339.225 4.84801 338.393 5.32801C337.577 5.79201 336.849 6.38401 336.209 7.10401C335.569 7.82401 335.065 8.64001 334.697 9.55201C334.345 10.448 334.169 11.392 334.169 12.384C334.169 13.648 334.489 14.72 335.129 15.6C335.769 16.48 336.625 17.176 337.697 17.688C338.785 18.184 339.993 18.512 341.321 18.672C341.065 18.96 340.817 19.328 340.577 19.776C340.337 20.224 340.177 20.592 340.097 20.88ZM344.153 10.176C343.945 9.85601 343.673 9.51201 343.337 9.14401C343.001 8.76001 342.657 8.40001 342.305 8.06401C341.953 7.71201 341.633 7.42401 341.345 7.20001L342.401 6.31201C342.657 6.50401 342.969 6.79201 343.337 7.17601C343.721 7.54401 344.089 7.92001 344.441 8.30401C344.793 8.68801 345.065 9.01601 345.257 9.28801L344.153 10.176ZM342.113 11.952C341.905 11.616 341.641 11.256 341.321 10.872C341.001 10.488 340.665 10.12 340.313 9.76801C339.977 9.41601 339.665 9.12801 339.377 8.90401L340.433 8.04001C340.689 8.24801 341.001 8.54401 341.369 8.92801C341.737 9.29601 342.089 9.68001 342.425 10.08C342.777 10.48 343.049 10.816 343.241 11.088L342.113 11.952ZM360.689 21.312C358.977 21.312 357.617 20.848 356.609 19.92C355.617 18.976 355.113 17.632 355.097 15.888C355.097 15.616 355.105 15.288 355.121 14.904C355.153 14.504 355.185 14.064 355.217 13.584C354.193 13.456 353.225 13.312 352.313 13.152C351.401 12.976 350.665 12.792 350.105 12.6L350.465 10.512C350.961 10.72 351.657 10.912 352.553 11.088C353.449 11.264 354.401 11.408 355.409 11.52C355.473 10.912 355.537 10.272 355.601 9.60001C355.681 8.92801 355.753 8.26401 355.817 7.60801C354.937 7.48001 354.097 7.34401 353.297 7.20001C352.513 7.05601 351.913 6.92801 351.497 6.81601L351.857 4.70401C352.225 4.84801 352.793 5.00001 353.561 5.16001C354.329 5.30401 355.153 5.44001 356.033 5.56801C356.161 4.52801 356.265 3.57601 356.345 2.71201C356.441 1.84801 356.505 1.19201 356.537 0.744007L358.865 1.10401C358.769 1.56801 358.657 2.22401 358.529 3.07201C358.417 3.90401 358.297 4.82401 358.169 5.83201C358.761 5.89601 359.305 5.94401 359.801 5.97601C360.297 6.00801 360.697 6.01601 361.001 6.00001L360.689 8.08801C360.385 8.08801 359.993 8.07201 359.513 8.04001C359.033 7.99201 358.505 7.93601 357.929 7.87201C357.865 8.51201 357.793 9.16001 357.713 9.81601C357.649 10.472 357.593 11.112 357.545 11.736C358.217 11.768 358.841 11.792 359.417 11.808C360.009 11.808 360.497 11.792 360.881 11.76L360.665 13.848C359.737 13.896 358.649 13.872 357.401 13.776C357.353 14.56 357.329 15.232 357.329 15.792C357.329 16.896 357.593 17.728 358.121 18.288C358.649 18.832 359.505 19.104 360.689 19.104C361.825 19.104 362.713 18.824 363.353 18.264C364.009 17.704 364.337 16.904 364.337 15.864C364.337 15.016 364.073 14.128 363.545 13.2C363.017 12.256 362.233 11.448 361.193 10.776C361.529 10.712 361.889 10.6 362.273 10.44C362.657 10.264 362.937 10.096 363.113 9.93601C364.265 10.768 365.129 11.72 365.705 12.792C366.297 13.848 366.593 14.896 366.593 15.936C366.593 17.024 366.345 17.976 365.849 18.792C365.353 19.592 364.665 20.208 363.785 20.64C362.905 21.088 361.873 21.312 360.689 21.312ZM47.0809 69.984C47.0649 69.68 47.0009 69.312 46.8889 68.88C46.7929 68.464 46.6889 68.128 46.5769 67.872H49.0249C49.3609 67.872 49.6009 67.816 49.7449 67.704C49.8889 67.592 49.9609 67.376 49.9609 67.056V64.344H35.6809V62.496H49.9609V61.248H38.8969V53.016H45.6889V51.72H36.0649V49.992H45.6889V48.096H47.8249V49.992H57.2089V51.72H47.8249V53.016H54.6169V61.248H52.1689V62.496H57.4969V64.344H52.1689V67.728C52.1689 68.512 51.9529 69.08 51.5209 69.432C51.1049 69.8 50.4489 69.984 49.5529 69.984H47.0809ZM44.3209 69.048C44.0649 68.728 43.7369 68.384 43.3369 68.016C42.9529 67.632 42.5449 67.256 42.1129 66.888C41.6809 66.52 41.2729 66.208 40.8889 65.952L42.3529 64.392C42.7369 64.648 43.1529 64.952 43.6009 65.304C44.0489 65.656 44.4809 66.016 44.8969 66.384C45.3129 66.752 45.6649 67.096 45.9529 67.416C45.8089 67.528 45.6249 67.688 45.4009 67.896C45.1929 68.104 44.9849 68.312 44.7769 68.52C44.5849 68.728 44.4329 68.904 44.3209 69.048ZM41.1049 59.568H45.6889V57.888H41.1049V59.568ZM47.8249 59.568H52.4089V57.888H47.8249V59.568ZM41.1049 56.376H45.6889V54.696H41.1049V56.376ZM47.8249 56.376H52.4089V54.696H47.8249V56.376ZM76.0969 69.864C76.0809 69.56 76.0169 69.192 75.9049 68.76C75.8089 68.328 75.7129 68 75.6169 67.776H77.5129C78.1209 67.776 78.4249 67.512 78.4249 66.984V57.672H71.7049V48.864H80.5849V67.68C80.5849 68.416 80.3849 68.96 79.9849 69.312C79.6009 69.68 78.9689 69.864 78.0889 69.864H76.0969ZM60.7369 69.912V48.864H69.5929V57.672H62.8729V69.912H60.7369ZM62.8729 55.92H67.5049V54.048H62.8729V55.92ZM73.7929 55.92H78.4249V54.048H73.7929V55.92ZM62.8729 52.416H67.5049V50.568H62.8729V52.416ZM73.7929 52.416H78.4249V50.568H73.7929V52.416ZM104.897 70.032C103.745 69.632 102.649 69.144 101.609 68.568C100.569 68.008 99.6169 67.336 98.7529 66.552C96.8649 68.104 94.5849 69.256 91.9129 70.008C91.8329 69.736 91.6809 69.408 91.4569 69.024C91.2489 68.64 91.0569 68.32 90.8809 68.064C92.1129 67.776 93.2649 67.384 94.3369 66.888C95.4249 66.376 96.4169 65.76 97.3129 65.04C96.6729 64.224 96.1209 63.32 95.6569 62.328C95.2089 61.336 94.8809 60.256 94.6729 59.088H92.9209V57.144H97.6489V54.048H92.6089V51.984H97.6489V48.216H99.8089V51.984H105.065V54.048H99.8089V57.144H103.481L104.273 57.96C103.441 60.808 102.113 63.192 100.289 65.112C101.057 65.752 101.929 66.328 102.905 66.84C103.897 67.336 104.985 67.768 106.169 68.136C106.009 68.296 105.841 68.504 105.665 68.76C105.489 69.016 105.329 69.256 105.185 69.48C105.057 69.72 104.961 69.904 104.897 70.032ZM85.2889 69.96C85.2729 69.768 85.2329 69.528 85.1689 69.24C85.1209 68.968 85.0649 68.696 85.0009 68.424C84.9369 68.152 84.8729 67.944 84.8089 67.8H86.5369C86.8569 67.8 87.0809 67.744 87.2089 67.632C87.3529 67.52 87.4249 67.312 87.4249 67.008V61.728C86.6889 62 86.0169 62.248 85.4089 62.472C84.8009 62.696 84.3849 62.84 84.1609 62.904L83.6089 60.648C84.0089 60.568 84.5529 60.424 85.2409 60.216C85.9289 59.992 86.6569 59.752 87.4249 59.496V54.696H83.9209V52.656H87.4249V48.192H89.5609V52.656H92.1289V54.696H89.5609V58.776C90.1689 58.552 90.7129 58.344 91.1929 58.152C91.6889 57.96 92.0409 57.808 92.2489 57.696V59.76C92.0569 59.872 91.7129 60.032 91.2169 60.24C90.7369 60.448 90.1849 60.672 89.5609 60.912V67.8C89.5609 68.552 89.3529 69.096 88.9369 69.432C88.5209 69.784 87.8889 69.96 87.0409 69.96H85.2889ZM98.8249 63.648C100.057 62.32 100.969 60.8 101.561 59.088H96.6649C97.0489 60.832 97.7689 62.352 98.8249 63.648ZM110.537 69.936V59.712C109.881 60.368 109.225 60.952 108.569 61.464C108.409 61.24 108.185 60.976 107.897 60.672C107.609 60.368 107.337 60.136 107.081 59.976C107.769 59.496 108.481 58.904 109.217 58.2C109.953 57.48 110.633 56.72 111.257 55.92C111.881 55.104 112.369 54.336 112.721 53.616L114.137 54.36V52.968H117.449V48.216H119.489V52.968H122.729V54.912H119.489V69.264H117.449V54.912H114.257C113.809 55.712 113.273 56.512 112.649 57.312V69.936H110.537ZM122.993 69.888C122.977 69.584 122.913 69.216 122.801 68.784C122.705 68.368 122.609 68.04 122.513 67.8H124.337C124.673 67.8 124.905 67.744 125.033 67.632C125.177 67.52 125.249 67.312 125.249 67.008V56.904H122.849V54.96H129.545V56.904H127.385V67.68C127.385 68.384 127.169 68.928 126.737 69.312C126.321 69.696 125.673 69.888 124.793 69.888H122.993ZM114.929 65.856C114.705 65.76 114.385 65.656 113.969 65.544C113.569 65.432 113.257 65.368 113.033 65.352C113.241 64.936 113.441 64.4 113.633 63.744C113.841 63.088 114.025 62.376 114.185 61.608C114.361 60.824 114.505 60.04 114.617 59.256C114.729 58.456 114.801 57.712 114.833 57.024L116.609 57.168C116.561 58.096 116.457 59.104 116.297 60.192C116.137 61.28 115.937 62.328 115.697 63.336C115.473 64.344 115.217 65.184 114.929 65.856ZM121.793 65.496C121.745 64.984 121.665 64.352 121.553 63.6C121.441 62.848 121.305 62.064 121.145 61.248C121.001 60.432 120.849 59.672 120.689 58.968C120.529 58.264 120.377 57.696 120.233 57.264L122.009 56.928C122.249 57.632 122.481 58.472 122.705 59.448C122.929 60.408 123.137 61.392 123.329 62.4C123.521 63.392 123.665 64.28 123.761 65.064C123.617 65.08 123.409 65.12 123.137 65.184C122.865 65.232 122.601 65.288 122.345 65.352C122.105 65.4 121.921 65.448 121.793 65.496ZM109.025 54.192C108.817 53.888 108.577 53.584 108.305 53.28C108.049 52.976 107.809 52.744 107.585 52.584C108.545 52.088 109.473 51.472 110.369 50.736C111.281 50 111.993 49.28 112.505 48.576L114.161 49.824C113.745 50.32 113.249 50.848 112.673 51.408C112.097 51.952 111.489 52.472 110.849 52.968C110.225 53.448 109.617 53.856 109.025 54.192ZM123.257 51.624V49.68H129.041V51.624H123.257ZM121.769 52.656C121.529 52.224 121.225 51.744 120.857 51.216C120.505 50.672 120.161 50.208 119.825 49.824L121.169 48.96C121.505 49.312 121.865 49.768 122.249 50.328C122.649 50.872 122.953 51.336 123.161 51.72C122.985 51.816 122.753 51.96 122.465 52.152C122.193 52.344 121.961 52.512 121.769 52.656ZM144.377 68.112C144.297 67.824 144.121 67.464 143.849 67.032C143.593 66.584 143.337 66.248 143.081 66.024C144.521 65.8 145.745 65.384 146.753 64.776C147.761 64.168 148.537 63.424 149.081 62.544C149.641 61.664 149.945 60.712 149.993 59.688C150.041 58.728 149.905 57.848 149.585 57.048C149.281 56.232 148.841 55.52 148.265 54.912C147.689 54.304 147.017 53.824 146.249 53.472C145.497 53.104 144.689 52.896 143.825 52.848C143.713 54.4 143.481 55.968 143.129 57.552C142.777 59.136 142.297 60.608 141.689 61.968C141.097 63.328 140.385 64.464 139.553 65.376C138.993 65.984 138.425 66.344 137.849 66.456C137.289 66.568 136.697 66.496 136.073 66.24C135.465 65.984 134.921 65.568 134.441 64.992C133.961 64.4 133.593 63.696 133.337 62.88C133.081 62.064 132.977 61.184 133.025 60.24C133.105 58.832 133.433 57.536 134.009 56.352C134.601 55.168 135.393 54.152 136.385 53.304C137.377 52.44 138.513 51.792 139.793 51.36C141.073 50.912 142.441 50.728 143.897 50.808C145.049 50.872 146.137 51.136 147.161 51.6C148.185 52.064 149.089 52.696 149.873 53.496C150.657 54.296 151.257 55.232 151.673 56.304C152.105 57.376 152.289 58.56 152.225 59.856C152.113 61.936 151.369 63.696 149.993 65.136C148.617 66.576 146.745 67.568 144.377 68.112ZM136.697 64.008C136.873 64.12 137.081 64.176 137.321 64.176C137.561 64.16 137.793 64.032 138.017 63.792C138.641 63.136 139.201 62.24 139.697 61.104C140.209 59.968 140.633 58.696 140.969 57.288C141.305 55.88 141.521 54.448 141.617 52.992C140.401 53.216 139.321 53.68 138.377 54.384C137.433 55.088 136.681 55.952 136.121 56.976C135.561 58 135.249 59.12 135.185 60.336C135.137 61.216 135.265 61.984 135.569 62.64C135.873 63.28 136.249 63.736 136.697 64.008ZM156.809 69.936V59.472H176.489L176.465 67.704C176.465 68.456 176.257 69.008 175.841 69.36C175.425 69.712 174.785 69.888 173.921 69.888H171.953C171.937 69.6 171.881 69.248 171.785 68.832C171.689 68.432 171.585 68.112 171.473 67.872H173.441C173.761 67.872 173.993 67.816 174.137 67.704C174.281 67.576 174.353 67.36 174.353 67.056V61.2H158.945V69.936H156.809ZM160.577 58.248V53.352H172.625V58.248H160.577ZM161.633 67.296V62.448H171.569V67.296H161.633ZM155.969 52.08V50.28H165.473V48.096H167.777V50.28H177.305V52.08H155.969ZM162.641 56.688H170.561V54.864H162.641V56.688ZM163.625 65.736H169.553V63.936H163.625V65.736ZM188.465 65.568C187.777 65.968 187.105 66.136 186.449 66.072C185.793 65.992 185.193 65.528 184.649 64.68C184.185 63.912 183.761 63.032 183.377 62.04C182.993 61.032 182.657 59.968 182.369 58.848C182.097 57.712 181.889 56.592 181.745 55.488C181.601 54.368 181.537 53.32 181.553 52.344L183.809 52.368C183.777 53.184 183.809 54.064 183.905 55.008C184.001 55.952 184.153 56.896 184.361 57.84C184.585 58.784 184.841 59.68 185.129 60.528C185.433 61.376 185.769 62.112 186.137 62.736C186.409 63.184 186.689 63.432 186.977 63.48C187.265 63.528 187.553 63.448 187.841 63.24C188.241 62.968 188.657 62.6 189.089 62.136C189.537 61.656 189.889 61.208 190.145 60.792C190.257 61.08 190.441 61.408 190.697 61.776C190.969 62.144 191.209 62.432 191.417 62.64C191.065 63.184 190.609 63.736 190.049 64.296C189.505 64.84 188.977 65.264 188.465 65.568ZM197.921 61.248C197.777 60.816 197.545 60.264 197.225 59.592C196.905 58.92 196.537 58.224 196.121 57.504C195.705 56.784 195.281 56.112 194.849 55.488C194.433 54.848 194.057 54.344 193.721 53.976L195.497 52.848C195.865 53.264 196.273 53.8 196.721 54.456C197.185 55.112 197.641 55.816 198.089 56.568C198.537 57.304 198.929 58.008 199.265 58.68C199.617 59.352 199.873 59.92 200.033 60.384C199.665 60.448 199.281 60.568 198.881 60.744C198.481 60.904 198.161 61.072 197.921 61.248ZM216.857 70.104C216.761 69.928 216.585 69.68 216.329 69.36C216.089 69.056 215.889 68.84 215.729 68.712C216.049 68.52 216.361 68.32 216.665 68.112C216.969 67.904 217.265 67.688 217.553 67.464H212.105V59.832H218.417V66.744C218.833 66.376 219.225 66 219.593 65.616C219.977 65.216 220.337 64.808 220.673 64.392C220.465 63.56 220.289 62.664 220.145 61.704C220.017 60.728 219.913 59.664 219.833 58.512H210.953V56.784H215.321C215.481 56.448 215.657 56.04 215.849 55.56C216.041 55.08 216.217 54.616 216.377 54.168C216.537 53.704 216.657 53.328 216.737 53.04L218.441 53.592C218.297 53.992 218.097 54.504 217.841 55.128C217.585 55.736 217.345 56.288 217.121 56.784H219.713C219.649 55.552 219.601 54.232 219.569 52.824C219.553 51.4 219.545 49.864 219.545 48.216H221.441C221.425 49.72 221.425 51.192 221.441 52.632C221.473 54.072 221.521 55.456 221.585 56.784H225.545V58.512H221.729C221.825 59.824 221.969 61.048 222.161 62.184C222.433 61.736 222.665 61.288 222.857 60.84C223.065 60.376 223.249 59.912 223.409 59.448L225.089 60.24C224.465 61.776 223.673 63.232 222.713 64.608C223.033 65.76 223.433 66.696 223.913 67.416C224.073 66.984 224.217 66.52 224.345 66.024C224.473 65.512 224.569 65.032 224.633 64.584C224.761 64.664 224.937 64.752 225.161 64.848C225.385 64.944 225.609 65.032 225.833 65.112C226.057 65.176 226.209 65.224 226.289 65.256C226.209 65.656 226.097 66.104 225.953 66.6C225.809 67.08 225.649 67.56 225.473 68.04C225.313 68.504 225.145 68.904 224.969 69.24C224.713 69.736 224.369 69.976 223.937 69.96C223.505 69.96 223.121 69.72 222.785 69.24C222.497 68.824 222.225 68.392 221.969 67.944C221.713 67.48 221.489 66.976 221.297 66.432C220.641 67.168 219.937 67.84 219.185 68.448C218.449 69.072 217.673 69.624 216.857 70.104ZM208.745 69.984V65.304C208.297 65.432 207.777 65.584 207.185 65.76C206.593 65.936 206.009 66.104 205.433 66.264C204.857 66.408 204.353 66.528 203.921 66.624L203.417 64.704C203.625 64.672 203.865 64.632 204.137 64.584C204.409 64.52 204.697 64.456 205.001 64.392V51.096H203.657V49.296H211.769V51.096H210.473V69.984H208.745ZM211.361 52.848V51.144H214.169V48.456H216.137V51.144H218.921V52.848H211.361ZM223.649 55.608C223.409 55.064 223.105 54.472 222.737 53.832C222.369 53.176 222.001 52.592 221.633 52.08L223.169 51.216C223.537 51.712 223.905 52.28 224.273 52.92C224.641 53.544 224.961 54.144 225.233 54.72C225.057 54.784 224.793 54.92 224.441 55.128C224.089 55.32 223.825 55.48 223.649 55.608ZM206.729 59.016H208.745V55.944H206.729V59.016ZM206.729 54.12H208.745V51.096H206.729V54.12ZM206.729 64.032C207.097 63.952 207.449 63.872 207.785 63.792C208.121 63.696 208.441 63.608 208.745 63.528V60.84H206.729V64.032ZM213.041 56.64C212.945 56.272 212.785 55.792 212.561 55.2C212.337 54.608 212.121 54.104 211.913 53.688L213.521 53.112C213.713 53.544 213.913 54.048 214.121 54.624C214.345 55.184 214.513 55.696 214.625 56.16L213.041 56.64ZM213.953 65.928H216.569V64.272H213.953V65.928ZM213.953 62.928H216.569V61.344H213.953V62.928ZM229.241 69.696C229.081 69.424 228.857 69.088 228.569 68.688C228.297 68.304 228.049 68.008 227.825 67.8C229.745 66.92 231.425 65.84 232.865 64.56C234.321 63.28 235.449 61.808 236.249 60.144C237.065 58.464 237.473 56.624 237.473 54.624V48.6H239.753V54C239.753 55.536 240.017 57.008 240.545 58.416C241.089 59.808 241.825 61.096 242.753 62.28C243.681 63.464 244.729 64.504 245.897 65.4C247.081 66.296 248.321 67.008 249.617 67.536C249.489 67.68 249.329 67.888 249.137 68.16C248.945 68.416 248.761 68.68 248.585 68.952C248.425 69.224 248.297 69.448 248.201 69.624C246.777 68.92 245.449 68.048 244.217 67.008C242.985 65.968 241.905 64.792 240.977 63.48C240.049 62.152 239.313 60.72 238.769 59.184C238.337 60.736 237.657 62.168 236.729 63.48C235.817 64.792 234.721 65.968 233.441 67.008C232.161 68.048 230.761 68.944 229.241 69.696ZM264.401 69.264C263.169 69.264 262.065 69.136 261.089 68.88C260.113 68.64 259.337 68.256 258.761 67.728C258.201 67.2 257.921 66.504 257.921 65.64C257.921 64.92 258.153 64.264 258.617 63.672C259.081 63.064 259.713 62.504 260.513 61.992C261.329 61.48 262.233 61.016 263.225 60.6V60.336C263.225 59.616 263.073 59.112 262.769 58.824C262.481 58.536 262.105 58.376 261.641 58.344C260.825 58.296 260.009 58.424 259.193 58.728C258.377 59.032 257.633 59.536 256.961 60.24C256.673 60.544 256.329 60.896 255.929 61.296C255.529 61.696 255.169 62.032 254.849 62.304L253.241 60.696C254.377 59.896 255.441 58.904 256.433 57.72C257.441 56.536 258.281 55.296 258.953 54C257.977 54.048 257.081 54.08 256.265 54.096C255.465 54.112 254.865 54.112 254.465 54.096L254.369 51.96C254.881 52.008 255.633 52.032 256.625 52.032C257.633 52.032 258.721 52 259.889 51.936C260.097 51.376 260.257 50.824 260.369 50.28C260.497 49.736 260.569 49.216 260.585 48.72L262.793 48.864C262.745 49.84 262.553 50.816 262.217 51.792C263.449 51.712 264.601 51.608 265.673 51.48C266.761 51.352 267.585 51.216 268.145 51.072L268.289 53.136C267.841 53.232 267.249 53.328 266.513 53.424C265.793 53.504 264.993 53.584 264.113 53.664C263.249 53.728 262.361 53.792 261.449 53.856C261.209 54.4 260.913 54.96 260.561 55.536C260.209 56.096 259.849 56.632 259.481 57.144C259.865 56.936 260.289 56.784 260.753 56.688C261.233 56.576 261.681 56.52 262.097 56.52C263.041 56.52 263.793 56.784 264.353 57.312C264.913 57.84 265.249 58.672 265.361 59.808C266.305 59.472 267.257 59.176 268.217 58.92C269.193 58.648 270.089 58.416 270.905 58.224L271.553 60.264C270.449 60.424 269.377 60.64 268.337 60.912C267.297 61.168 266.321 61.456 265.409 61.776V65.064H263.225V62.592C262.281 63.04 261.513 63.512 260.921 64.008C260.345 64.488 260.057 64.96 260.057 65.424C260.057 66.032 260.417 66.472 261.137 66.744C261.873 67.016 262.913 67.152 264.257 67.152C264.769 67.152 265.337 67.12 265.961 67.056C266.585 66.976 267.209 66.88 267.833 66.768C268.473 66.64 269.049 66.504 269.561 66.36C269.529 66.504 269.513 66.72 269.513 67.008C269.513 67.28 269.521 67.56 269.537 67.848C269.553 68.136 269.569 68.368 269.585 68.544C269.585 68.592 269.585 68.624 269.585 68.64C268.785 68.848 267.921 69 266.993 69.096C266.065 69.208 265.201 69.264 264.401 69.264ZM279.377 68.976V49.344H293.921V68.976H279.377ZM281.657 66.936H291.713V63H281.657V66.936ZM281.657 60.936H291.713V57.168H281.657V60.936ZM281.657 55.128H291.713V51.384H281.657V55.128ZM309.593 69.744V59.088H319.985V69.744H309.593ZM301.145 69.96C301.129 69.672 301.073 69.296 300.977 68.832C300.881 68.368 300.785 68.016 300.689 67.776H302.393C302.713 67.776 302.945 67.72 303.089 67.608C303.233 67.496 303.305 67.288 303.305 66.984V61.824C302.617 62.08 301.985 62.312 301.409 62.52C300.833 62.728 300.433 62.864 300.209 62.928L299.657 60.696C300.057 60.6 300.577 60.456 301.217 60.264C301.873 60.056 302.569 59.824 303.305 59.568V54.912H299.969V52.872H303.305V48.192H305.417V52.872H308.081V54.912H305.417V58.824C305.993 58.6 306.513 58.4 306.977 58.224C307.441 58.048 307.801 57.904 308.057 57.792V59.856C307.833 59.968 307.481 60.128 307.001 60.336C306.537 60.544 306.009 60.76 305.417 60.984V67.8C305.417 69.24 304.585 69.96 302.921 69.96H301.145ZM311.585 57.576C310.753 57.576 310.169 57.448 309.833 57.192C309.513 56.92 309.353 56.48 309.353 55.872V48.216H311.393V51.576C312.161 51.464 312.985 51.304 313.865 51.096C314.761 50.872 315.641 50.616 316.505 50.328C317.385 50.024 318.161 49.696 318.833 49.344L320.153 50.976C319.353 51.344 318.441 51.688 317.417 52.008C316.409 52.312 315.377 52.584 314.321 52.824C313.281 53.048 312.305 53.224 311.393 53.352V54.984C311.393 55.208 311.449 55.376 311.561 55.488C311.673 55.6 311.905 55.656 312.257 55.656H317.945C318.377 55.656 318.713 55.592 318.953 55.464C319.193 55.32 319.377 55.048 319.505 54.648C319.633 54.248 319.729 53.664 319.793 52.896C320.017 53.024 320.321 53.16 320.705 53.304C321.105 53.432 321.441 53.536 321.713 53.616C321.585 54.752 321.393 55.608 321.137 56.184C320.881 56.744 320.537 57.12 320.105 57.312C319.673 57.488 319.121 57.576 318.449 57.576H311.585ZM311.729 67.968H317.801V65.208H311.729V67.968ZM311.729 63.504H317.801V60.888H311.729V63.504ZM335.033 68.184C333.673 68.184 332.601 68.072 331.817 67.848C331.033 67.608 330.481 67.2 330.161 66.624C329.841 66.048 329.681 65.256 329.681 64.248V57.888C328.593 58 327.585 58.128 326.657 58.272C325.745 58.416 324.985 58.552 324.377 58.68L324.113 56.496C324.769 56.4 325.577 56.304 326.537 56.208C327.497 56.096 328.545 55.984 329.681 55.872V50.568H331.769V55.68C332.713 55.6 333.665 55.528 334.625 55.464C335.585 55.384 336.529 55.312 337.457 55.248V49.824H339.593V55.104C340.665 55.04 341.649 54.992 342.545 54.96C343.457 54.928 344.217 54.912 344.825 54.912V57.144C343.513 57.064 341.769 57.064 339.593 57.144V58.8C339.593 59.6 339.457 60.264 339.185 60.792C338.929 61.304 338.481 61.704 337.841 61.992C337.217 62.264 336.345 62.448 335.225 62.544C335.161 62.224 335.057 61.864 334.913 61.464C334.769 61.064 334.609 60.752 334.433 60.528C335.585 60.496 336.377 60.352 336.809 60.096C337.241 59.824 337.457 59.392 337.457 58.8V57.264C336.529 57.312 335.585 57.376 334.625 57.456C333.665 57.52 332.713 57.592 331.769 57.672V63.984C331.769 64.56 331.865 65 332.057 65.304C332.265 65.592 332.609 65.792 333.089 65.904C333.569 66.016 334.241 66.072 335.105 66.072C335.665 66.072 336.329 66.048 337.097 66C337.881 65.936 338.673 65.856 339.473 65.76C340.273 65.648 340.985 65.512 341.609 65.352C341.497 65.656 341.409 66.056 341.345 66.552C341.281 67.048 341.257 67.424 341.273 67.68C340.297 67.84 339.233 67.968 338.081 68.064C336.945 68.144 335.929 68.184 335.033 68.184ZM355.313 69.216C354.065 69.168 353.113 68.824 352.457 68.184C351.801 67.544 351.481 66.776 351.497 65.88C351.513 65.288 351.705 64.752 352.073 64.272C352.457 63.776 352.993 63.384 353.681 63.096C354.385 62.808 355.209 62.68 356.153 62.712C356.473 62.728 356.785 62.752 357.089 62.784C357.409 62.8 357.721 62.832 358.025 62.88L357.929 59.448C357.593 59.464 357.257 59.48 356.921 59.496C356.585 59.496 356.249 59.496 355.913 59.496C355.097 59.496 354.449 59.432 353.969 59.304C353.489 59.16 353.097 58.928 352.793 58.608C352.489 58.288 352.193 57.848 351.905 57.288L353.657 56.424C353.897 56.856 354.169 57.136 354.473 57.264C354.777 57.392 355.273 57.456 355.961 57.456C356.265 57.456 356.577 57.456 356.897 57.456C357.217 57.44 357.545 57.424 357.881 57.408C357.865 56.88 357.849 56.352 357.833 55.824C357.833 55.28 357.825 54.744 357.809 54.216C356.641 54.28 355.537 54.328 354.497 54.36C353.457 54.392 352.641 54.4 352.049 54.384L351.953 52.272C352.497 52.32 353.297 52.344 354.353 52.344C355.425 52.328 356.569 52.288 357.785 52.224C357.769 51.664 357.761 51.112 357.761 50.568C357.761 50.008 357.761 49.48 357.761 48.984H359.897C359.897 49.464 359.897 49.968 359.897 50.496C359.897 51.008 359.905 51.544 359.921 52.104C360.993 52.024 361.977 51.936 362.873 51.84C363.769 51.728 364.441 51.616 364.889 51.504L364.913 53.544C364.465 53.64 363.793 53.736 362.897 53.832C362.001 53.912 361.017 53.992 359.945 54.072C359.977 55.144 360.001 56.2 360.017 57.24C360.961 57.16 361.841 57.056 362.657 56.928C363.489 56.784 364.161 56.632 364.673 56.472V58.656C364.081 58.784 363.385 58.904 362.585 59.016C361.801 59.128 360.961 59.224 360.065 59.304C360.081 60.072 360.097 60.8 360.113 61.488C360.145 62.16 360.169 62.776 360.185 63.336C361.321 63.64 362.409 64.048 363.449 64.56C364.505 65.056 365.481 65.608 366.377 66.216C366.233 66.328 366.057 66.512 365.849 66.768C365.657 67.008 365.473 67.264 365.297 67.536C365.137 67.792 365.025 67.992 364.961 68.136C363.569 66.984 361.993 66.088 360.233 65.448V65.736C360.249 66.76 359.865 67.608 359.081 68.28C358.297 68.968 357.041 69.28 355.313 69.216ZM355.385 67.224C356.361 67.256 357.057 67.12 357.473 66.816C357.889 66.496 358.097 66.104 358.097 65.64C358.097 65.544 358.097 65.432 358.097 65.304C358.097 65.16 358.089 65 358.073 64.824C357.705 64.744 357.337 64.688 356.969 64.656C356.601 64.608 356.241 64.584 355.889 64.584C355.121 64.584 354.537 64.712 354.137 64.968C353.753 65.224 353.561 65.536 353.561 65.904C353.561 66.256 353.713 66.56 354.017 66.816C354.321 67.056 354.777 67.192 355.385 67.224ZM378.761 69.6C378.617 69.36 378.425 69.064 378.185 68.712C377.945 68.376 377.665 68.08 377.345 67.824C379.121 67.312 380.481 66.656 381.425 65.856C382.369 65.056 382.977 64.104 383.249 63C382.641 63.48 381.977 63.72 381.257 63.72C380.169 63.72 379.289 63.4 378.617 62.76C377.961 62.104 377.617 61.264 377.585 60.24C377.569 59.52 377.721 58.88 378.041 58.32C378.361 57.744 378.809 57.296 379.385 56.976C379.961 56.64 380.617 56.472 381.353 56.472C381.529 56.472 381.697 56.48 381.857 56.496C382.033 56.512 382.201 56.544 382.361 56.592C382.313 56.224 382.265 55.84 382.217 55.44C382.185 55.024 382.169 54.6 382.169 54.168C380.857 54.216 379.577 54.288 378.329 54.384C377.097 54.464 375.961 54.568 374.921 54.696C373.881 54.808 373.009 54.936 372.305 55.08L371.945 52.944C372.585 52.88 373.433 52.816 374.489 52.752C375.561 52.688 376.761 52.624 378.089 52.56C379.417 52.48 380.777 52.408 382.169 52.344V48.72H384.305V52.272C385.521 52.208 386.689 52.16 387.809 52.128C388.945 52.096 389.977 52.072 390.905 52.056C391.833 52.024 392.593 52.016 393.185 52.032L393.065 54.216C392.089 54.12 390.817 54.064 389.249 54.048C387.697 54.016 386.049 54.032 384.305 54.096C384.305 54.72 384.321 55.368 384.353 56.04C384.401 56.696 384.449 57.328 384.497 57.936C385.185 58.8 385.529 59.936 385.529 61.344C385.529 63.312 384.929 65.008 383.729 66.432C382.545 67.84 380.889 68.896 378.761 69.6ZM381.281 61.824C381.761 61.808 382.145 61.656 382.433 61.368C382.737 61.064 382.889 60.68 382.889 60.216C382.889 60.04 382.881 59.856 382.865 59.664C382.849 59.472 382.825 59.272 382.793 59.064C382.409 58.632 381.937 58.416 381.377 58.416C380.881 58.416 380.457 58.576 380.105 58.896C379.769 59.216 379.609 59.632 379.625 60.144C379.625 60.64 379.777 61.048 380.081 61.368C380.385 61.688 380.785 61.84 381.281 61.824ZM399.569 69.6C398.961 69.6 398.393 69.448 397.865 69.144C397.353 68.84 396.945 68.432 396.641 67.92C396.337 67.408 396.185 66.84 396.185 66.216C396.185 65.592 396.337 65.024 396.641 64.512C396.945 64 397.353 63.6 397.865 63.312C398.377 63.008 398.945 62.856 399.569 62.856C400.193 62.856 400.761 63.008 401.273 63.312C401.785 63.616 402.185 64.024 402.473 64.536C402.777 65.032 402.929 65.592 402.929 66.216C402.929 66.84 402.777 67.408 402.473 67.92C402.169 68.432 401.761 68.84 401.249 69.144C400.753 69.448 400.193 69.6 399.569 69.6ZM399.569 68.472C400.177 68.472 400.697 68.248 401.129 67.8C401.577 67.352 401.801 66.832 401.801 66.24C401.801 65.632 401.585 65.104 401.153 64.656C400.721 64.208 400.193 63.984 399.569 63.984C398.945 63.984 398.417 64.208 397.985 64.656C397.553 65.088 397.337 65.616 397.337 66.24C397.337 66.848 397.553 67.376 397.985 67.824C398.417 68.256 398.945 68.472 399.569 68.472ZM4.24796 116.208V102.024L1.07996 104.04L-4.29675e-05 102.312L4.72796 99.36H6.28796V116.208H4.24796ZM15.4665 116.472C13.6425 116.472 12.3785 115.76 11.6745 114.336C10.9705 112.912 10.6185 110.736 10.6185 107.808C10.6185 104.88 10.9705 102.704 11.6745 101.28C12.3785 99.84 13.6425 99.12 15.4665 99.12C17.2745 99.12 18.5305 99.84 19.2345 101.28C19.9385 102.704 20.2905 104.88 20.2905 107.808C20.2905 110.736 19.9385 112.912 19.2345 114.336C18.5305 115.76 17.2745 116.472 15.4665 116.472ZM15.4665 114.48C16.1385 114.48 16.6745 114.28 17.0745 113.88C17.4905 113.464 17.7865 112.768 17.9625 111.792C18.1545 110.816 18.2505 109.488 18.2505 107.808C18.2505 106.112 18.1545 104.776 17.9625 103.8C17.7865 102.824 17.4905 102.136 17.0745 101.736C16.6745 101.32 16.1385 101.112 15.4665 101.112C14.8105 101.112 14.2745 101.32 13.8585 101.736C13.4425 102.136 13.1385 102.824 12.9465 103.8C12.7545 104.776 12.6585 106.112 12.6585 107.808C12.6585 109.488 12.7545 110.816 12.9465 111.792C13.1385 112.768 13.4425 113.464 13.8585 113.88C14.2745 114.28 14.8105 114.48 15.4665 114.48ZM41.4808 117.528C40.8728 117.272 40.2168 116.872 39.5128 116.328C38.8248 115.784 38.1368 115.032 37.4488 114.072C36.7768 113.112 36.1608 111.896 35.6008 110.424C35.0568 108.952 34.6248 107.176 34.3048 105.096L29.6008 105.576L29.3608 103.44L34.0168 102.984C33.9528 102.2 33.8968 101.376 33.8488 100.512C33.8008 99.648 33.7688 98.744 33.7528 97.8V96.216H35.9608V97.776C35.9608 98.704 35.9848 99.584 36.0328 100.416C36.0808 101.232 36.1448 102.016 36.2248 102.768L43.4968 102.048L43.7128 104.184L36.5128 104.88C36.8648 106.976 37.3368 108.712 37.9288 110.088C38.5368 111.464 39.2008 112.552 39.9208 113.352C40.6408 114.152 41.3448 114.736 42.0328 115.104C42.2088 114.544 42.3848 113.912 42.5608 113.208C42.7528 112.504 42.8808 111.928 42.9448 111.48C43.0568 111.56 43.2408 111.664 43.4968 111.792C43.7528 111.904 44.0168 112.016 44.2888 112.128C44.5768 112.224 44.7928 112.296 44.9368 112.344C44.8568 112.872 44.7368 113.44 44.5768 114.048C44.4168 114.64 44.2408 115.2 44.0488 115.728C43.8728 116.256 43.6968 116.688 43.5208 117.024C43.3128 117.408 43.0328 117.632 42.6808 117.696C42.3448 117.776 41.9448 117.72 41.4808 117.528ZM26.4088 117.96V104.904C25.4328 106.296 24.4488 107.464 23.4568 108.408C23.2808 108.184 23.0408 107.944 22.7368 107.688C22.4488 107.432 22.1688 107.224 21.8968 107.064C22.3768 106.648 22.8888 106.112 23.4328 105.456C23.9768 104.784 24.5128 104.048 25.0408 103.248C25.5848 102.432 26.0888 101.608 26.5528 100.776C27.0328 99.944 27.4408 99.16 27.7768 98.424C28.1128 97.672 28.3528 97.024 28.4968 96.48L30.5368 97.176C30.3288 97.848 30.0568 98.544 29.7208 99.264C29.3848 99.984 29.0168 100.712 28.6168 101.448V117.96H26.4088ZM41.2648 101.544C40.9608 101.192 40.6088 100.816 40.2088 100.416C39.8088 100 39.4008 99.616 38.9848 99.264C38.5688 98.896 38.1928 98.608 37.8568 98.4L39.2488 96.912C39.6168 97.152 40.0328 97.472 40.4968 97.872C40.9608 98.256 41.4008 98.648 41.8168 99.048C42.2488 99.448 42.5768 99.792 42.8008 100.08C42.6728 100.16 42.5048 100.304 42.2968 100.512C42.0888 100.704 41.8808 100.904 41.6728 101.112C41.4808 101.304 41.3448 101.448 41.2648 101.544ZM56.6248 107.928C56.0488 107.336 55.4728 106.88 54.8968 106.56C54.3368 106.224 53.6328 106.056 52.7848 106.056C51.9048 106.056 51.0968 106.336 50.3608 106.896C49.6408 107.456 49.0408 108.192 48.5608 109.104L46.4488 107.952C47.2328 106.528 48.1688 105.456 49.2568 104.736C50.3608 104.016 51.5448 103.656 52.8088 103.656C53.9288 103.656 54.9208 103.88 55.7848 104.328C56.6648 104.76 57.5208 105.4 58.3528 106.248C58.9288 106.84 59.4968 107.304 60.0568 107.64C60.6328 107.96 61.3448 108.12 62.1928 108.12C63.0728 108.12 63.8728 107.84 64.5928 107.28C65.3288 106.72 65.9368 105.984 66.4168 105.072L68.5288 106.224C67.7448 107.648 66.8008 108.72 65.6968 109.44C64.6088 110.16 63.4328 110.52 62.1688 110.52C61.0648 110.52 60.0728 110.304 59.1928 109.872C58.3128 109.424 57.4568 108.776 56.6248 107.928ZM75.7288 116.472C75.0248 116.472 74.3608 116.344 73.7368 116.088C73.1128 115.832 72.5608 115.392 72.0808 114.768C71.6168 114.144 71.2568 113.296 71.0008 112.224C70.7608 111.136 70.6568 109.768 70.6888 108.12C70.7528 105.016 71.2568 102.744 72.2008 101.304C73.1448 99.848 74.4888 99.12 76.2328 99.12C77.0808 99.12 77.8568 99.336 78.5608 99.768C79.2808 100.184 79.8648 100.72 80.3128 101.376L78.7768 102.576C78.4728 102.112 78.1128 101.744 77.6968 101.472C77.2968 101.2 76.8168 101.064 76.2568 101.064C75.3768 101.064 74.6728 101.36 74.1448 101.952C73.6328 102.528 73.2648 103.344 73.0408 104.4C72.8168 105.44 72.6968 106.648 72.6808 108.024C72.9848 107.496 73.4088 107.088 73.9528 106.8C74.5128 106.496 75.1128 106.344 75.7528 106.344C76.6168 106.344 77.3928 106.544 78.0808 106.944C78.7688 107.344 79.3128 107.912 79.7128 108.648C80.1128 109.368 80.3128 110.24 80.3128 111.264C80.3128 112.272 80.1208 113.168 79.7368 113.952C79.3528 114.736 78.8168 115.352 78.1288 115.8C77.4408 116.248 76.6408 116.472 75.7288 116.472ZM75.6088 114.504C76.4568 114.504 77.1048 114.192 77.5528 113.568C78.0008 112.944 78.2248 112.176 78.2248 111.264C78.2248 110.352 77.9928 109.624 77.5288 109.08C77.0648 108.52 76.4568 108.24 75.7048 108.24C74.8728 108.24 74.1928 108.544 73.6648 109.152C73.1368 109.744 72.9128 110.504 72.9928 111.432C73.0728 112.424 73.3368 113.184 73.7848 113.712C74.2328 114.24 74.8408 114.504 75.6088 114.504ZM87.4196 116.472C85.5956 116.472 84.3316 115.76 83.6276 114.336C82.9236 112.912 82.5716 110.736 82.5716 107.808C82.5716 104.88 82.9236 102.704 83.6276 101.28C84.3316 99.84 85.5956 99.12 87.4196 99.12C89.2276 99.12 90.4836 99.84 91.1876 101.28C91.8916 102.704 92.2436 104.88 92.2436 107.808C92.2436 110.736 91.8916 112.912 91.1876 114.336C90.4836 115.76 89.2276 116.472 87.4196 116.472ZM87.4196 114.48C88.0916 114.48 88.6276 114.28 89.0276 113.88C89.4436 113.464 89.7396 112.768 89.9156 111.792C90.1076 110.816 90.2036 109.488 90.2036 107.808C90.2036 106.112 90.1076 104.776 89.9156 103.8C89.7396 102.824 89.4436 102.136 89.0276 101.736C88.6276 101.32 88.0916 101.112 87.4196 101.112C86.7636 101.112 86.2276 101.32 85.8116 101.736C85.3956 102.136 85.0916 102.824 84.8996 103.8C84.7076 104.776 84.6116 106.112 84.6116 107.808C84.6116 109.488 84.7076 110.816 84.8996 111.792C85.0916 112.768 85.3956 113.464 85.8116 113.88C86.2276 114.28 86.7636 114.48 87.4196 114.48ZM113.434 117.528C112.826 117.272 112.17 116.872 111.466 116.328C110.778 115.784 110.09 115.032 109.402 114.072C108.73 113.112 108.114 111.896 107.554 110.424C107.01 108.952 106.578 107.176 106.258 105.096L101.554 105.576L101.314 103.44L105.97 102.984C105.906 102.2 105.85 101.376 105.802 100.512C105.754 99.648 105.722 98.744 105.706 97.8V96.216H107.914V97.776C107.914 98.704 107.938 99.584 107.986 100.416C108.034 101.232 108.098 102.016 108.178 102.768L115.45 102.048L115.666 104.184L108.466 104.88C108.818 106.976 109.29 108.712 109.882 110.088C110.49 111.464 111.154 112.552 111.874 113.352C112.594 114.152 113.298 114.736 113.986 115.104C114.162 114.544 114.338 113.912 114.514 113.208C114.706 112.504 114.834 111.928 114.898 111.48C115.01 111.56 115.194 111.664 115.45 111.792C115.706 111.904 115.97 112.016 116.242 112.128C116.53 112.224 116.746 112.296 116.89 112.344C116.81 112.872 116.69 113.44 116.53 114.048C116.37 114.64 116.194 115.2 116.002 115.728C115.826 116.256 115.65 116.688 115.474 117.024C115.266 117.408 114.986 117.632 114.634 117.696C114.298 117.776 113.898 117.72 113.434 117.528ZM98.3619 117.96V104.904C97.3859 106.296 96.4019 107.464 95.4099 108.408C95.2339 108.184 94.9939 107.944 94.6899 107.688C94.4019 107.432 94.1219 107.224 93.8499 107.064C94.3299 106.648 94.8419 106.112 95.3859 105.456C95.9299 104.784 96.4659 104.048 96.9939 103.248C97.5379 102.432 98.0419 101.608 98.5059 100.776C98.9859 99.944 99.3939 99.16 99.7299 98.424C100.066 97.672 100.306 97.024 100.45 96.48L102.49 97.176C102.282 97.848 102.01 98.544 101.674 99.264C101.338 99.984 100.97 100.712 100.57 101.448V117.96H98.3619ZM113.218 101.544C112.914 101.192 112.562 100.816 112.162 100.416C111.762 100 111.354 99.616 110.938 99.264C110.522 98.896 110.146 98.608 109.81 98.4L111.202 96.912C111.57 97.152 111.986 97.472 112.45 97.872C112.914 98.256 113.354 98.648 113.77 99.048C114.202 99.448 114.53 99.792 114.754 100.08C114.626 100.16 114.458 100.304 114.25 100.512C114.042 100.704 113.834 100.904 113.626 101.112C113.434 101.304 113.298 101.448 113.218 101.544ZM131.17 116.112C131.09 115.824 130.914 115.464 130.642 115.032C130.386 114.584 130.13 114.248 129.874 114.024C131.314 113.8 132.538 113.384 133.546 112.776C134.554 112.168 135.33 111.424 135.874 110.544C136.434 109.664 136.738 108.712 136.786 107.688C136.834 106.728 136.698 105.848 136.378 105.048C136.074 104.232 135.634 103.52 135.058 102.912C134.482 102.304 133.81 101.824 133.042 101.472C132.29 101.104 131.482 100.896 130.618 100.848C130.506 102.4 130.274 103.968 129.922 105.552C129.57 107.136 129.09 108.608 128.482 109.968C127.89 111.328 127.178 112.464 126.346 113.376C125.786 113.984 125.218 114.344 124.642 114.456C124.082 114.568 123.49 114.496 122.866 114.24C122.258 113.984 121.714 113.568 121.234 112.992C120.754 112.4 120.386 111.696 120.13 110.88C119.874 110.064 119.77 109.184 119.818 108.24C119.898 106.832 120.226 105.536 120.802 104.352C121.394 103.168 122.186 102.152 123.178 101.304C124.17 100.44 125.306 99.792 126.586 99.36C127.866 98.912 129.234 98.728 130.69 98.808C131.842 98.872 132.93 99.136 133.954 99.6C134.978 100.064 135.882 100.696 136.666 101.496C137.45 102.296 138.05 103.232 138.466 104.304C138.898 105.376 139.082 106.56 139.018 107.856C138.906 109.936 138.162 111.696 136.786 113.136C135.41 114.576 133.538 115.568 131.17 116.112ZM123.49 112.008C123.666 112.12 123.874 112.176 124.114 112.176C124.354 112.16 124.586 112.032 124.81 111.792C125.434 111.136 125.994 110.24 126.49 109.104C127.002 107.968 127.426 106.696 127.762 105.288C128.098 103.88 128.314 102.448 128.41 100.992C127.194 101.216 126.114 101.68 125.17 102.384C124.226 103.088 123.474 103.952 122.914 104.976C122.354 106 122.042 107.12 121.978 108.336C121.93 109.216 122.058 109.984 122.362 110.64C122.666 111.28 123.042 111.736 123.49 112.008ZM151.786 117.552V107.616H163.738V117.552H151.786ZM145.882 117.984V101.952H144.562V112.872H142.762V100.032H145.882V96.072H147.706V100.032H150.946V110.904C150.946 111.592 150.802 112.072 150.514 112.344C150.226 112.616 149.738 112.752 149.05 112.752H148.186C148.17 112.464 148.138 112.136 148.09 111.768C148.058 111.4 148.002 111.096 147.922 110.856H148.594C148.818 110.856 148.962 110.816 149.026 110.736C149.106 110.64 149.146 110.488 149.146 110.28V101.952H147.706V117.984H145.882ZM152.794 105.888V100.296H162.61V105.888H152.794ZM150.97 98.64V96.96H164.338V98.64H150.97ZM154.834 104.304H160.594V101.904H154.834V104.304ZM158.722 115.752H161.794V113.376H158.722V115.752ZM153.754 115.752H156.802V113.376H153.754V115.752ZM158.722 111.768H161.794V109.416H158.722V111.768ZM153.754 111.768H156.802V109.416H153.754V111.768ZM167.986 117.84C167.746 117.664 167.418 117.464 167.002 117.24C166.602 117.016 166.274 116.856 166.018 116.76C166.962 115.496 167.642 113.992 168.058 112.248C168.474 110.504 168.682 108.464 168.682 106.128V99.648H176.938V96.096H179.242V99.648H187.522V101.592H170.842V106.128C170.842 108.64 170.61 110.848 170.146 112.752C169.698 114.656 168.978 116.352 167.986 117.84ZM185.914 117.696C185.722 117.296 185.498 116.848 185.242 116.352C184.986 115.872 184.706 115.368 184.402 114.84C183.714 115 182.914 115.168 182.002 115.344C181.09 115.52 180.122 115.696 179.098 115.872C178.09 116.048 177.09 116.208 176.098 116.352C175.122 116.512 174.202 116.648 173.338 116.76C172.49 116.872 171.778 116.96 171.202 117.024L170.722 114.888C171.09 114.856 171.498 114.824 171.946 114.792C172.41 114.744 172.914 114.688 173.458 114.624C173.73 114.064 174.026 113.408 174.346 112.656C174.666 111.888 174.986 111.072 175.306 110.208C175.626 109.344 175.93 108.48 176.218 107.616C176.506 106.752 176.754 105.944 176.962 105.192C177.186 104.44 177.354 103.792 177.466 103.248L179.698 103.776C179.522 104.464 179.282 105.264 178.978 106.176C178.69 107.088 178.37 108.032 178.018 109.008C177.666 109.984 177.298 110.936 176.914 111.864C176.546 112.792 176.194 113.616 175.858 114.336C177.202 114.16 178.554 113.968 179.914 113.76C181.274 113.552 182.442 113.352 183.418 113.16C182.922 112.36 182.426 111.6 181.93 110.88C181.434 110.144 180.954 109.512 180.49 108.984L182.266 107.904C182.714 108.432 183.202 109.064 183.73 109.8C184.274 110.536 184.81 111.32 185.338 112.152C185.866 112.968 186.354 113.76 186.802 114.528C187.25 115.296 187.618 115.976 187.906 116.568C187.746 116.632 187.53 116.736 187.258 116.88C187.002 117.024 186.746 117.168 186.49 117.312C186.234 117.472 186.042 117.6 185.914 117.696ZM199.258 113.568C198.57 113.968 197.898 114.136 197.242 114.072C196.586 113.992 195.986 113.528 195.442 112.68C194.978 111.912 194.554 111.032 194.17 110.04C193.786 109.032 193.45 107.968 193.162 106.848C192.89 105.712 192.682 104.592 192.538 103.488C192.394 102.368 192.33 101.32 192.346 100.344L194.602 100.368C194.57 101.184 194.602 102.064 194.698 103.008C194.794 103.952 194.946 104.896 195.154 105.84C195.378 106.784 195.634 107.68 195.922 108.528C196.226 109.376 196.562 110.112 196.93 110.736C197.202 111.184 197.482 111.432 197.77 111.48C198.058 111.528 198.346 111.448 198.634 111.24C199.034 110.968 199.45 110.6 199.882 110.136C200.33 109.656 200.682 109.208 200.938 108.792C201.05 109.08 201.234 109.408 201.49 109.776C201.762 110.144 202.002 110.432 202.21 110.64C201.858 111.184 201.402 111.736 200.842 112.296C200.298 112.84 199.77 113.264 199.258 113.568ZM208.714 109.248C208.57 108.816 208.338 108.264 208.018 107.592C207.698 106.92 207.33 106.224 206.914 105.504C206.498 104.784 206.074 104.112 205.642 103.488C205.226 102.848 204.85 102.344 204.514 101.976L206.29 100.848C206.658 101.264 207.066 101.8 207.514 102.456C207.978 103.112 208.434 103.816 208.882 104.568C209.33 105.304 209.722 106.008 210.058 106.68C210.41 107.352 210.666 107.92 210.826 108.384C210.458 108.448 210.074 108.568 209.674 108.744C209.274 108.904 208.954 109.072 208.714 109.248ZM225.634 117.96V112.464H214.522V110.496H218.866V104.616H225.634V101.232H220.258C219.666 102.16 219.018 103.048 218.314 103.896C217.61 104.728 216.858 105.472 216.058 106.128C215.866 105.952 215.602 105.72 215.266 105.432C214.93 105.144 214.61 104.92 214.306 104.76C215.266 104.024 216.154 103.152 216.97 102.144C217.802 101.136 218.522 100.088 219.13 99C219.738 97.912 220.194 96.88 220.498 95.904L222.586 96.552C222.426 97 222.242 97.448 222.034 97.896C221.842 98.344 221.634 98.792 221.41 99.24H235.258V101.232H227.914V104.616H233.698V106.56H227.914V110.496H236.29V112.464H227.914V117.96H225.634ZM221.122 110.496H225.634V106.56H221.122V110.496ZM239.338 117.384V104.04H241.138V108.24H243.898V104.136H245.41V108.24H248.074V104.064H249.466C249.562 103.968 249.658 103.864 249.754 103.752C249.866 103.64 249.978 103.528 250.09 103.416H238.522V101.544H240.586V97.392H242.458V101.544H244.018V96.216H245.962V98.064H249.394V99.864H245.962V101.544H250.45V102.984C251.01 102.312 251.53 101.568 252.01 100.752C252.49 99.92 252.906 99.096 253.258 98.28C253.626 97.464 253.89 96.72 254.05 96.048L256.018 96.36C256.29 97.224 256.682 98.128 257.194 99.072C257.722 100 258.314 100.888 258.97 101.736C259.626 102.568 260.29 103.28 260.962 103.872C260.834 103.952 260.658 104.088 260.434 104.28C260.226 104.456 260.018 104.64 259.81 104.832C259.618 105.008 259.474 105.16 259.378 105.288C259.138 105.048 258.898 104.792 258.658 104.52C258.434 104.248 258.21 103.96 257.986 103.656V105.456H252.274V103.752C251.842 104.328 251.394 104.872 250.93 105.384C250.818 105.24 250.666 105.08 250.474 104.904C250.282 104.712 250.082 104.544 249.874 104.4V117.384H239.338ZM252.97 117.984V109.2H250.834V107.304H259.522V113.88C259.522 114.616 259.33 115.16 258.946 115.512C258.578 115.864 257.97 116.04 257.122 116.04H255.898C255.882 115.752 255.834 115.416 255.754 115.032C255.69 114.632 255.61 114.288 255.514 114H256.69C257.01 114 257.218 113.952 257.314 113.856C257.426 113.76 257.482 113.568 257.482 113.28V109.2H255.034V117.984H252.97ZM241.138 115.56H248.074V113.352C247.706 113.608 247.418 113.84 247.21 114.048C246.89 113.68 246.578 113.288 246.274 112.872C245.97 112.44 245.682 112.008 245.41 111.576V114.984H243.898V111.552C243.642 112 243.346 112.456 243.01 112.92C242.674 113.368 242.338 113.776 242.002 114.144C241.922 114.064 241.794 113.96 241.618 113.832C241.458 113.704 241.298 113.584 241.138 113.472V115.56ZM252.37 103.608H257.938C257.346 102.84 256.794 102.024 256.282 101.16C255.77 100.296 255.354 99.472 255.034 98.688C254.762 99.44 254.394 100.248 253.93 101.112C253.466 101.976 252.946 102.808 252.37 103.608ZM241.138 112.92C241.57 112.456 241.994 111.92 242.41 111.312C242.826 110.704 243.154 110.168 243.394 109.704H241.138V112.92ZM246.73 107.88C246.602 107.816 246.402 107.736 246.13 107.64C245.858 107.528 245.666 107.456 245.554 107.424C245.762 107.04 245.962 106.6 246.154 106.104C246.362 105.592 246.522 105.128 246.634 104.712L247.978 105.144C247.834 105.544 247.65 105.992 247.426 106.488C247.218 106.984 246.986 107.448 246.73 107.88ZM242.434 107.952C242.322 107.584 242.146 107.128 241.906 106.584C241.666 106.04 241.45 105.6 241.258 105.264L242.506 104.76C242.714 105.128 242.922 105.56 243.13 106.056C243.354 106.536 243.538 106.984 243.682 107.4C243.57 107.432 243.362 107.512 243.058 107.64C242.77 107.768 242.562 107.872 242.434 107.952ZM248.074 112.8V109.704H245.89C246.146 110.168 246.474 110.696 246.874 111.288C247.274 111.864 247.674 112.368 248.074 112.8ZM263.77 117.84C263.658 117.744 263.474 117.624 263.218 117.48C262.962 117.352 262.706 117.224 262.45 117.096C262.194 116.984 261.994 116.912 261.85 116.88C262.73 115.552 263.394 113.936 263.842 112.032C264.306 110.128 264.538 107.888 264.538 105.312V96.552H282.994V101.448H278.506L280.138 102C279.898 102.464 279.602 102.992 279.25 103.584H282.85V110.4H268.09V103.584H271.546C271.21 102.992 270.89 102.48 270.586 102.048L272.362 101.448H266.626V105.312C266.626 108.112 266.378 110.56 265.882 112.656C265.402 114.736 264.698 116.464 263.77 117.84ZM269.194 117.84V111.384H281.914V117.84H269.194ZM266.626 99.744H280.882V98.256H266.626V99.744ZM271.354 116.448H279.778V115.248H271.354V116.448ZM271.354 113.904H279.778V112.776H271.354V113.904ZM273.922 103.584H276.85C277.042 103.296 277.25 102.952 277.474 102.552C277.714 102.136 277.906 101.768 278.05 101.448H272.626C272.818 101.704 273.034 102.048 273.274 102.48C273.53 102.896 273.746 103.264 273.922 103.584ZM276.418 108.96H280.81V107.664H276.418V108.96ZM270.13 108.96H274.402V107.664H270.13V108.96ZM276.418 106.272H280.81V105.024H276.418V106.272ZM270.13 106.272H274.402V105.024H270.13V106.272ZM289.138 116.592C289.042 116.496 288.874 116.368 288.634 116.208C288.394 116.048 288.146 115.896 287.89 115.752C287.65 115.592 287.458 115.496 287.314 115.464C287.97 114.744 288.618 113.856 289.258 112.8C289.898 111.728 290.506 110.56 291.082 109.296C291.658 108.016 292.17 106.712 292.618 105.384C291.754 105.496 290.914 105.616 290.098 105.744C289.298 105.856 288.65 105.976 288.154 106.104C288.138 105.96 288.098 105.752 288.034 105.48C287.986 105.192 287.922 104.912 287.842 104.64C287.778 104.352 287.722 104.152 287.674 104.04C288.234 103.992 289.026 103.92 290.05 103.824C291.074 103.712 292.122 103.6 293.194 103.488C293.514 102.448 293.77 101.432 293.962 100.44C294.154 99.448 294.282 98.52 294.346 97.656L296.506 98.04C296.442 98.824 296.314 99.664 296.122 100.56C295.93 101.44 295.698 102.352 295.426 103.296C296.178 103.248 296.794 103.224 297.274 103.224C297.898 103.224 298.442 103.328 298.906 103.536C299.386 103.728 299.762 104.072 300.034 104.568C300.306 105.064 300.458 105.752 300.49 106.632C300.522 107.512 300.402 108.624 300.13 109.968C299.842 111.488 299.506 112.704 299.122 113.616C298.754 114.528 298.282 115.192 297.706 115.608C297.146 116.008 296.434 116.208 295.57 116.208C295.122 116.208 294.69 116.16 294.274 116.064C293.858 115.968 293.458 115.8 293.074 115.56C293.09 115.272 293.098 114.912 293.098 114.48C293.098 114.048 293.074 113.696 293.026 113.424C293.778 113.888 294.554 114.12 295.354 114.12C295.786 114.12 296.154 113.992 296.458 113.736C296.762 113.48 297.042 113.024 297.298 112.368C297.554 111.696 297.81 110.752 298.066 109.536C298.274 108.544 298.386 107.752 298.402 107.16C298.418 106.568 298.354 106.12 298.21 105.816C298.082 105.512 297.898 105.312 297.658 105.216C297.418 105.12 297.138 105.072 296.818 105.072C296.562 105.072 296.266 105.08 295.93 105.096C295.594 105.112 295.234 105.136 294.85 105.168C294.354 106.656 293.786 108.128 293.146 109.584C292.506 111.024 291.842 112.352 291.154 113.568C290.482 114.784 289.81 115.792 289.138 116.592ZM307.042 110.232C306.786 109.8 306.426 109.304 305.962 108.744C305.514 108.168 305.026 107.592 304.498 107.016C303.97 106.44 303.45 105.92 302.938 105.456C302.442 104.976 302.002 104.608 301.618 104.352L303.226 102.96C303.642 103.248 304.106 103.632 304.618 104.112C305.146 104.592 305.674 105.112 306.202 105.672C306.746 106.216 307.242 106.76 307.69 107.304C308.154 107.832 308.514 108.296 308.77 108.696L307.042 110.232ZM306.49 103.152C306.202 102.896 305.85 102.632 305.434 102.36C305.034 102.072 304.618 101.808 304.186 101.568C303.754 101.312 303.37 101.112 303.034 100.968L303.85 99.84C304.154 99.968 304.53 100.168 304.978 100.44C305.426 100.712 305.866 100.992 306.298 101.28C306.746 101.568 307.098 101.816 307.354 102.024L306.49 103.152ZM307.978 100.896C307.69 100.64 307.33 100.376 306.898 100.104C306.482 99.832 306.058 99.576 305.626 99.336C305.194 99.096 304.81 98.912 304.474 98.784L305.266 97.656C305.57 97.784 305.946 97.976 306.394 98.232C306.858 98.488 307.314 98.752 307.762 99.024C308.21 99.296 308.562 99.536 308.818 99.744L307.978 100.896ZM318.778 117.384V108.672H323.482V105.024H316.858V103.032H323.482V99.624C321.466 99.816 319.754 99.928 318.346 99.96C318.282 99.736 318.194 99.408 318.082 98.976C317.97 98.544 317.858 98.216 317.746 97.992C318.626 98.008 319.602 97.984 320.674 97.92C321.762 97.856 322.866 97.768 323.986 97.656C325.106 97.528 326.162 97.384 327.154 97.224C328.146 97.048 328.994 96.864 329.698 96.672L330.994 98.472C330.354 98.648 329.562 98.816 328.618 98.976C327.69 99.12 326.698 99.256 325.642 99.384V103.032H332.338V105.024H325.642V108.672H330.442V117.384H318.778ZM320.962 115.464H328.282V110.592H320.962V115.464ZM312.658 117.576L310.738 116.184C311.09 115.736 311.466 115.184 311.866 114.528C312.282 113.872 312.69 113.176 313.09 112.44C313.49 111.688 313.85 110.968 314.17 110.28C314.506 109.576 314.762 108.968 314.938 108.456C315.066 108.568 315.242 108.72 315.466 108.912C315.69 109.104 315.914 109.288 316.138 109.464C316.378 109.624 316.57 109.744 316.714 109.824C316.554 110.32 316.306 110.912 315.97 111.6C315.65 112.288 315.29 113.008 314.89 113.76C314.49 114.512 314.09 115.224 313.69 115.896C313.306 116.568 312.962 117.128 312.658 117.576ZM314.65 106.656C314.362 106.384 313.962 106.072 313.45 105.72C312.938 105.352 312.41 105 311.866 104.664C311.322 104.312 310.85 104.056 310.45 103.896L311.578 102.072C312.026 102.28 312.514 102.544 313.042 102.864C313.586 103.168 314.114 103.488 314.626 103.824C315.138 104.16 315.562 104.488 315.898 104.808C315.818 104.904 315.69 105.08 315.514 105.336C315.338 105.576 315.162 105.824 314.986 106.08C314.826 106.336 314.714 106.528 314.65 106.656ZM315.85 101.256C315.562 100.984 315.162 100.664 314.65 100.296C314.138 99.928 313.61 99.576 313.066 99.24C312.522 98.904 312.05 98.656 311.65 98.496L312.778 96.72C313.194 96.896 313.682 97.144 314.242 97.464C314.802 97.784 315.346 98.12 315.874 98.472C316.402 98.824 316.818 99.144 317.122 99.432C317.042 99.528 316.914 99.704 316.738 99.96C316.562 100.2 316.386 100.448 316.21 100.704C316.034 100.944 315.914 101.128 315.85 101.256ZM344.122 117.672V110.424C343.85 110.728 343.578 111.016 343.306 111.288C343.034 111.544 342.762 111.784 342.49 112.008C342.33 111.832 342.098 111.608 341.794 111.336C341.49 111.064 341.234 110.88 341.026 110.784C341.506 110.448 341.986 110.024 342.466 109.512C342.962 108.984 343.426 108.416 343.858 107.808C344.306 107.2 344.69 106.608 345.01 106.032C345.346 105.44 345.578 104.92 345.706 104.472L347.554 105.168C347.426 105.472 347.274 105.792 347.098 106.128C346.922 106.464 346.738 106.8 346.546 107.136H349.186C349.442 106.72 349.682 106.28 349.906 105.816C350.13 105.336 350.298 104.928 350.41 104.592L352.258 105.168C352.146 105.456 352.002 105.776 351.826 106.128C351.666 106.464 351.49 106.8 351.298 107.136H356.05V108.648H351.082V110.088H355.066V111.552H351.082V113.04H355.066V114.48H351.082V116.064H356.146V117.672H344.122ZM334.522 117.6L333.994 115.656C334.17 115.624 334.37 115.584 334.594 115.536C334.818 115.488 335.058 115.432 335.314 115.368V106.344H337.09V114.912C337.298 114.848 337.498 114.792 337.69 114.744C337.898 114.68 338.106 114.624 338.314 114.576V104.472H335.314V97.032H342.37V104.472H340.09V107.424H342.538V109.248H340.09V114.048C340.682 113.872 341.218 113.712 341.698 113.568C342.178 113.408 342.562 113.272 342.85 113.16V115.008C342.418 115.168 341.85 115.368 341.146 115.608C340.458 115.848 339.706 116.096 338.89 116.352C338.09 116.608 337.306 116.848 336.538 117.072C335.77 117.296 335.098 117.472 334.522 117.6ZM349.93 104.448V102.912H353.842V101.376H350.266V99.96H353.842V98.52H349.882V97.008H355.69V104.448H349.93ZM343.426 104.448V102.912H347.242V101.376H343.738V99.96H347.242V98.52H343.378V97.008H349.114V104.448H343.426ZM337.234 102.6H340.45V98.904H337.234V102.6ZM346.138 116.064H349.138V114.48H346.138V116.064ZM346.138 113.04H349.138V111.552H346.138V113.04ZM346.138 110.088H349.138V108.648H346.138V110.088ZM368.314 118.008V109.992H359.53V101.016H368.314V96.168H370.57V101.016H379.378V109.992H370.57V118.008H368.314ZM370.57 107.832H377.098V103.056H370.57V107.832ZM361.834 107.832H368.314V103.056H361.834V107.832ZM398.89 116.88C397.29 116.688 395.874 116.208 394.642 115.44C393.426 114.672 392.466 113.68 391.762 112.464C391.074 111.248 390.73 109.888 390.73 108.384C390.73 107.584 390.866 106.76 391.138 105.912C391.41 105.048 391.826 104.208 392.386 103.392C392.962 102.576 393.674 101.856 394.522 101.232C393.53 101.408 392.522 101.592 391.498 101.784C390.474 101.96 389.482 102.136 388.522 102.312C387.578 102.488 386.73 102.656 385.978 102.816C385.226 102.96 384.634 103.088 384.202 103.2L383.698 100.824C384.226 100.776 384.946 100.696 385.858 100.584C386.77 100.472 387.794 100.328 388.93 100.152C390.066 99.976 391.242 99.792 392.458 99.6C393.674 99.392 394.85 99.184 395.986 98.976C397.122 98.768 398.146 98.568 399.058 98.376C399.97 98.184 400.69 98.016 401.218 97.872L401.794 100.128C401.586 100.144 401.306 100.176 400.954 100.224C400.618 100.272 400.234 100.328 399.802 100.392C398.89 100.536 398.018 100.848 397.186 101.328C396.37 101.792 395.642 102.384 395.002 103.104C394.362 103.824 393.858 104.64 393.49 105.552C393.138 106.448 392.962 107.392 392.962 108.384C392.962 109.648 393.282 110.72 393.922 111.6C394.562 112.48 395.418 113.176 396.49 113.688C397.578 114.184 398.786 114.512 400.114 114.672C399.858 114.96 399.61 115.328 399.37 115.776C399.13 116.224 398.97 116.592 398.89 116.88ZM402.946 106.176C402.738 105.856 402.466 105.512 402.13 105.144C401.794 104.76 401.45 104.4 401.098 104.064C400.746 103.712 400.426 103.424 400.138 103.2L401.194 102.312C401.45 102.504 401.762 102.792 402.13 103.176C402.514 103.544 402.882 103.92 403.234 104.304C403.586 104.688 403.858 105.016 404.05 105.288L402.946 106.176ZM400.906 107.952C400.698 107.616 400.434 107.256 400.114 106.872C399.794 106.488 399.458 106.12 399.106 105.768C398.77 105.416 398.458 105.128 398.17 104.904L399.226 104.04C399.482 104.248 399.794 104.544 400.162 104.928C400.53 105.296 400.882 105.68 401.218 106.08C401.57 106.48 401.842 106.816 402.034 107.088L400.906 107.952ZM413.554 117.6C413.41 117.36 413.218 117.064 412.978 116.712C412.738 116.376 412.458 116.08 412.138 115.824C413.914 115.312 415.274 114.656 416.218 113.856C417.162 113.056 417.77 112.104 418.042 111C417.434 111.48 416.77 111.72 416.05 111.72C414.962 111.72 414.082 111.4 413.41 110.76C412.754 110.104 412.41 109.264 412.378 108.24C412.362 107.52 412.514 106.88 412.834 106.32C413.154 105.744 413.602 105.296 414.178 104.976C414.754 104.64 415.41 104.472 416.146 104.472C416.322 104.472 416.49 104.48 416.65 104.496C416.826 104.512 416.994 104.544 417.154 104.592C417.106 104.224 417.058 103.84 417.01 103.44C416.978 103.024 416.962 102.6 416.962 102.168C415.65 102.216 414.37 102.288 413.122 102.384C411.89 102.464 410.754 102.568 409.714 102.696C408.674 102.808 407.802 102.936 407.098 103.08L406.738 100.944C407.378 100.88 408.226 100.816 409.282 100.752C410.354 100.688 411.554 100.624 412.882 100.56C414.21 100.48 415.57 100.408 416.962 100.344V96.72H419.098V100.272C420.314 100.208 421.482 100.16 422.602 100.128C423.738 100.096 424.77 100.072 425.698 100.056C426.626 100.024 427.386 100.016 427.978 100.032L427.858 102.216C426.882 102.12 425.61 102.064 424.042 102.048C422.49 102.016 420.842 102.032 419.098 102.096C419.098 102.72 419.114 103.368 419.146 104.04C419.194 104.696 419.242 105.328 419.29 105.936C419.978 106.8 420.322 107.936 420.322 109.344C420.322 111.312 419.722 113.008 418.522 114.432C417.338 115.84 415.682 116.896 413.554 117.6ZM416.074 109.824C416.554 109.808 416.938 109.656 417.226 109.368C417.53 109.064 417.682 108.68 417.682 108.216C417.682 108.04 417.674 107.856 417.658 107.664C417.642 107.472 417.618 107.272 417.586 107.064C417.202 106.632 416.73 106.416 416.17 106.416C415.674 106.416 415.25 106.576 414.898 106.896C414.562 107.216 414.402 107.632 414.418 108.144C414.418 108.64 414.57 109.048 414.874 109.368C415.178 109.688 415.578 109.84 416.074 109.824ZM434.362 117.6C433.754 117.6 433.186 117.448 432.658 117.144C432.146 116.84 431.738 116.432 431.434 115.92C431.13 115.408 430.978 114.84 430.978 114.216C430.978 113.592 431.13 113.024 431.434 112.512C431.738 112 432.146 111.6 432.658 111.312C433.17 111.008 433.738 110.856 434.362 110.856C434.986 110.856 435.554 111.008 436.066 111.312C436.578 111.616 436.978 112.024 437.266 112.536C437.57 113.032 437.722 113.592 437.722 114.216C437.722 114.84 437.57 115.408 437.266 115.92C436.962 116.432 436.554 116.84 436.042 117.144C435.546 117.448 434.986 117.6 434.362 117.6ZM434.362 116.472C434.97 116.472 435.49 116.248 435.922 115.8C436.37 115.352 436.594 114.832 436.594 114.24C436.594 113.632 436.378 113.104 435.946 112.656C435.514 112.208 434.986 111.984 434.362 111.984C433.738 111.984 433.21 112.208 432.778 112.656C432.346 113.088 432.13 113.616 432.13 114.24C432.13 114.848 432.346 115.376 432.778 115.824C433.21 116.256 433.738 116.472 434.362 116.472Z" fill="#404040"/>
</svg>
